<svg width="128" height="44" viewBox="0 0 128 44" fill="none" xmlns="http://www.w3.org/2000/svg">
<g clip-path="url(#clip0_0_2180)">
<path d="M127.099 14.7539V14.7099C127.048 12.3158 127.004 10.4284 125.946 8.93031C124.514 6.90342 121.915 6.6317 119.557 6.6317C114.086 6.6317 110.003 5.17763 105.678 3.63543C101.132 2.01245 96.4317 0.338059 89.8002 0.0736822C88.5077 0.0222756 87.274 0.000244141 86.1357 0.000244141C81.6707 0.000244141 78.0575 0.39681 75.0759 1.20463C71.4848 2.18135 68.7529 3.75293 66.726 6.02216C65.3527 7.55702 64.3393 9.37828 63.6783 11.508C62.9954 9.62797 62.0113 7.96827 60.7482 6.55092C58.6111 4.15684 55.6001 2.40901 51.8034 1.3515C48.5721 0.45556 44.7533 0.0149317 40.1047 0.0149317C39.0472 0.0149317 37.9236 0.0369632 36.7706 0.081026C30.242 0.338059 25.6227 1.99042 21.1504 3.58402C16.8983 5.10419 12.8812 6.53623 7.49823 6.53623C5.18493 6.53623 2.62194 6.80795 1.21928 8.79812C0.176455 10.2742 0.139736 12.1322 0.0809858 14.4822V14.5189L0.0662982 15.1725C-0.0365151 19.7184 -0.109953 22.722 0.543645 27.0328C0.888804 29.3094 1.88022 30.8589 3.58398 31.7549C5.18493 32.5994 7.19713 32.7169 9.1359 32.7169C10.2375 32.7169 11.4345 32.6728 12.8225 32.6214C13.5642 32.592 14.328 32.57 15.1431 32.5406C16.3695 32.5039 17.4858 32.4525 18.4699 32.4011C19.6596 32.3424 20.6877 32.291 21.5616 32.291C23.1258 32.291 24.0071 32.4599 24.4991 32.8564C26.0854 34.1196 27.5762 34.7364 29.0596 34.7364C29.7206 34.7364 30.2787 34.6116 30.6973 34.4941C31.204 35.3974 32.3937 37.1746 34.707 37.1746C35.1844 37.1746 35.603 37.1011 35.9408 37.035C36.0289 37.0204 36.1317 36.9983 36.2125 36.991C40.1047 41.1696 44.6138 43.4682 48.9246 43.4682C52.949 43.4682 56.5328 41.5662 59.3014 37.9751C61.321 35.3533 62.8118 31.9605 63.7591 27.8479C65.9843 39.1501 70.3318 40.9934 72.9242 40.9934C74.1579 40.9934 75.3403 40.5527 76.3464 39.7816C77.2717 41.0888 78.7331 42.3667 81.0244 43.1231C82.1407 43.4903 83.3377 43.6812 84.5641 43.6812C89.3596 43.6812 94.1698 40.8612 98.4145 38.3643C100.155 37.3435 101.8 36.3815 103.305 35.6764C105.296 34.7511 106.449 34.0902 107.205 33.6496C107.939 33.2285 108.703 33.018 109.496 33.018C110.04 33.018 110.715 33.0327 111.773 33.0694C112.603 33.0914 113.381 33.1208 114.138 33.1502C115.548 33.2016 116.767 33.2456 117.883 33.2456C119.851 33.2456 121.9 33.1281 123.523 32.2689C125.256 31.3509 126.27 29.7794 126.615 27.4661C127.276 23.0818 127.202 20.0268 127.099 15.4075L127.085 14.7466L127.099 14.7539ZM124.492 27.1576C124.331 28.2151 124.015 28.9936 123.53 29.5737C123.574 29.28 123.618 28.9716 123.663 28.6411C123.736 28.1344 123.787 27.5909 123.853 27.0108C123.912 26.4306 123.964 25.8211 124.008 25.1895C124.044 24.5579 124.088 23.9043 124.103 23.2434C124.11 22.9129 124.125 22.5751 124.133 22.2446C124.133 21.9068 124.133 21.569 124.133 21.2385C124.133 20.5629 124.11 19.8946 124.081 19.2337C124.066 18.5727 124 17.9265 123.956 17.2949C123.92 16.6707 123.831 16.0611 123.773 15.4957C123.736 15.2093 123.707 14.9302 123.67 14.6658C123.626 14.4014 123.582 14.1371 123.545 13.8947C123.464 13.4027 123.398 12.9474 123.317 12.5435C123.229 12.1469 123.156 11.8017 123.097 11.5153C122.972 10.9425 122.906 10.6194 122.906 10.6194C122.906 10.6194 122.943 10.9499 123.009 11.53C123.038 11.8164 123.082 12.1689 123.126 12.5728C123.163 12.9767 123.185 13.4321 123.215 13.9314C123.229 14.1811 123.244 14.4382 123.259 14.7025C123.259 14.9743 123.266 15.246 123.273 15.5324C123.273 16.1052 123.303 16.7001 123.273 17.3243C123.251 17.9412 123.251 18.5874 123.2 19.2337C123.163 19.8799 123.126 20.5409 123.046 21.1945C123.016 21.5249 122.98 21.8481 122.95 22.1785C122.906 22.5017 122.862 22.8248 122.825 23.1479C122.752 23.7942 122.634 24.4184 122.539 25.0279C122.436 25.6375 122.319 26.2176 122.208 26.7758C122.091 27.3265 121.981 27.8479 121.863 28.3253C121.753 28.8026 121.636 29.2359 121.533 29.6178C121.533 29.6325 121.525 29.6545 121.518 29.6692C121.224 29.7206 120.857 29.7794 120.424 29.8381C120.137 29.8748 119.829 29.9116 119.506 29.9409C119.175 29.9703 118.83 29.9997 118.47 30.0217C118.111 30.0511 117.736 30.0584 117.354 30.0731C116.972 30.0878 116.583 30.0805 116.194 30.0878C115.805 30.0805 115.415 30.0731 115.026 30.0584C114.644 30.0364 114.262 30.0144 113.895 29.9923C113.528 29.963 113.176 29.9262 112.838 29.8969C112.5 29.8675 112.184 29.8234 111.89 29.7867C111.597 29.75 111.325 29.7206 111.09 29.6766C110.855 29.6398 110.642 29.6031 110.473 29.5811C110.128 29.5297 109.937 29.493 109.937 29.493C109.937 29.493 110.121 29.5591 110.451 29.6766C110.613 29.7353 110.811 29.8087 111.039 29.8895C111.266 29.9777 111.531 30.0511 111.81 30.1466C112.096 30.2347 112.404 30.3448 112.735 30.433C113.065 30.5284 113.411 30.6239 113.778 30.7267C114.145 30.8148 114.519 30.9103 114.901 31.0058C114.96 31.0205 115.012 31.0278 115.07 31.0425C114.079 31.0058 113.007 30.9691 111.839 30.9323C110.84 30.903 110.091 30.8809 109.504 30.8809C109.261 30.8809 109.048 30.8809 108.85 30.8956C108.879 30.5945 108.916 30.2273 108.953 29.8087C108.99 29.3755 109.026 28.8908 109.07 28.362C109.114 27.8333 109.159 27.2531 109.195 26.6509C109.232 26.0414 109.276 25.4025 109.305 24.7415C109.335 24.0806 109.379 23.3976 109.401 22.6999C109.423 22.0023 109.46 21.2973 109.474 20.5923C109.518 19.1823 109.533 17.7722 109.533 16.4504C109.533 15.1285 109.526 13.8947 109.504 12.8372C109.46 10.7222 109.386 9.31953 109.386 9.31953C109.386 9.31953 109.327 10.7295 109.166 12.8299C109.085 13.88 108.982 15.1065 108.85 16.421C108.718 17.7282 108.571 19.1309 108.395 20.5188C108.314 21.2165 108.218 21.9068 108.123 22.5971C108.035 23.2801 107.932 23.9557 107.837 24.602C107.822 24.6975 107.807 24.7929 107.793 24.8884C106.456 30.007 103.585 32.4158 101.888 33.6496C99.9127 35.0816 95.9764 37.2701 86.5763 39.9212C86.4735 39.9432 86.356 39.9652 86.2165 39.9873C86.1137 40.0019 86.0035 40.0166 85.8933 40.0313C85.7758 40.046 85.6583 40.0607 85.5261 40.068C85.4013 40.0754 85.2618 40.0901 85.1222 40.0901C84.9827 40.0901 84.8358 40.0974 84.689 40.0901C84.3879 40.0901 84.0794 40.068 83.7489 40.0387C83.4258 40.0019 83.088 39.9505 82.7502 39.8698C82.4124 39.789 82.0672 39.6935 81.7441 39.5687C81.4136 39.4438 81.0831 39.3043 80.7821 39.128C80.481 38.9591 80.1872 38.7682 79.9302 38.5552C79.6731 38.3422 79.4381 38.1146 79.2472 37.8722C79.0563 37.6299 78.8874 37.3802 78.7699 37.1305C78.645 36.8882 78.5642 36.6385 78.4981 36.4182C78.4394 36.1979 78.4027 35.9922 78.388 35.8307C78.3659 35.6618 78.3659 35.5296 78.3586 35.4414C78.3586 35.3533 78.3586 35.3019 78.3586 35.3019C78.3586 35.3019 78.3513 35.346 78.3292 35.4414C78.3072 35.5296 78.2705 35.6618 78.2558 35.838C78.2264 36.0069 78.2117 36.2199 78.2117 36.4696C78.2117 36.7119 78.2338 36.9983 78.2999 37.2994C78.3586 37.6079 78.4614 37.931 78.6083 38.2615C78.7478 38.5993 78.9534 38.9224 79.1811 39.2529C79.3427 39.4879 79.5336 39.7082 79.7392 39.9285C79.1958 39.6715 78.8359 39.3777 78.623 39.1648C78.1309 38.6287 77.7784 38.0632 77.5287 37.5344C77.4994 37.461 77.47 37.3802 77.4406 37.2847C77.3084 36.8515 77.1762 36.2199 77.3452 35.4782C77.4259 35.1036 77.5948 34.7144 77.8445 34.3178C78.0942 33.9213 78.4467 33.5321 78.8653 33.1649C79.2839 32.7977 79.7613 32.4599 80.2827 32.1441C80.8041 31.8283 81.3622 31.5566 81.9424 31.2995C82.5152 31.0425 83.1174 30.8002 83.6902 30.6459C84.2777 30.4844 84.8872 30.3669 85.4747 30.2861C86.0622 30.2053 86.6424 30.1466 87.1932 30.1245C87.744 30.0952 88.2654 30.0878 88.7427 30.1025C89.2274 30.1098 89.6681 30.1319 90.0573 30.1612C90.4465 30.1906 90.7917 30.2273 91.0707 30.2567C91.3498 30.2861 91.5701 30.3228 91.7243 30.3375C91.8712 30.3595 91.952 30.3669 91.952 30.3669C91.952 30.3669 91.8712 30.3448 91.7243 30.3155C91.5774 30.2861 91.3645 30.2273 91.0854 30.1686C90.8063 30.1098 90.4685 30.0437 90.0793 29.9777C89.6901 29.9116 89.2495 29.8455 88.7648 29.7941C88.2801 29.7427 87.7513 29.6986 87.1932 29.6766C86.6351 29.6472 86.0402 29.6545 85.4233 29.6766C84.8065 29.7059 84.1675 29.7647 83.5213 29.8822C83.3597 29.9189 83.1835 29.9483 83.0293 29.985L82.7943 30.0437C82.7502 30.0511 82.7282 30.0584 82.6694 30.0731L82.5519 30.1025C82.2361 30.1906 81.9203 30.2787 81.6046 30.3742C80.973 30.5725 80.3414 30.8002 79.7392 31.0719C79.1297 31.3436 78.5495 31.6667 78.0061 32.0413C77.4627 32.4158 76.9633 32.8491 76.5594 33.3411C76.1555 33.8332 75.825 34.3839 75.634 34.9421C75.4358 35.5002 75.3476 36.0436 75.3403 36.5283C75.3109 36.4108 75.2889 36.2786 75.2742 36.1465C75.2448 35.8821 75.2228 35.5883 75.2522 35.2799C75.2815 34.9714 75.3476 34.6483 75.4651 34.3178C75.59 33.9947 75.7515 33.6642 75.9645 33.3485C76.0673 33.1869 76.1922 33.04 76.317 32.8858C76.4566 32.7463 76.5814 32.5847 76.7356 32.4525C76.8825 32.313 77.0294 32.1735 77.1983 32.0486L77.4406 31.8577C77.5214 31.7916 77.6095 31.7402 77.6903 31.6814C77.8592 31.5639 78.0281 31.4464 78.2044 31.3436C78.3806 31.2408 78.5495 31.1233 78.7258 31.0352C78.902 30.9397 79.0783 30.8516 79.2472 30.7561C79.4235 30.6753 79.5997 30.5945 79.7613 30.5211C80.0917 30.3595 80.4296 30.242 80.7306 30.1172C81.0317 29.9997 81.3182 29.9116 81.5678 29.8161C81.8175 29.7206 82.0452 29.6619 82.2214 29.6105C82.5886 29.5003 82.7943 29.4342 82.7943 29.4342C82.7943 29.4342 82.5739 29.4636 82.1994 29.515C82.0085 29.5444 81.7735 29.5664 81.5164 29.6178C81.2521 29.6692 80.951 29.7133 80.6278 29.7867C80.3047 29.8675 79.9522 29.9262 79.585 30.0437C79.4014 30.0952 79.2105 30.1539 79.0195 30.2053C78.8286 30.2714 78.6303 30.3375 78.432 30.4036C78.2338 30.4697 78.0355 30.5578 77.8298 30.6386C77.6242 30.7194 77.4259 30.8148 77.2277 30.9177C77.1248 30.9691 77.022 31.0131 76.9266 31.0719L76.6255 31.2408C76.4198 31.3509 76.2289 31.4831 76.038 31.6153C75.8397 31.7402 75.6634 31.9017 75.4725 32.0486C75.2962 32.2102 75.12 32.3717 74.9511 32.5406C74.6206 32.8858 74.3415 33.2824 74.1065 33.6936C73.8789 34.1122 73.71 34.5528 73.5998 34.9788C73.4897 35.4121 73.4456 35.8307 73.4309 36.2199C73.4162 36.5797 73.4456 36.9102 73.4897 37.204C73.284 37.1819 73.0711 37.1379 72.8507 37.0644C72.3954 36.9175 71.9181 36.6458 71.4554 36.2419C71.2131 36.0583 71.0001 35.8086 70.7724 35.5663C70.5668 35.2946 70.3318 35.0375 70.1409 34.7217C69.7223 34.1269 69.3771 33.4366 69.0467 32.7169C68.8851 32.357 68.7456 31.9752 68.584 31.6006C68.4518 31.2188 68.3196 30.8295 68.1801 30.4403C67.9377 29.6545 67.7101 28.8614 67.5265 28.0683C67.4751 27.87 67.431 27.6717 67.3796 27.4734C67.3355 27.2751 67.2988 27.0768 67.2548 26.8786C67.174 26.482 67.0932 26.0928 67.0198 25.7109C66.9537 25.329 66.8876 24.9471 66.8288 24.5726C66.7627 24.1981 66.704 23.8382 66.6599 23.4784C66.5644 22.766 66.4543 22.0904 66.3955 21.4662C66.3294 20.842 66.2634 20.2691 66.2119 19.7624C66.1679 19.2557 66.1312 18.8077 66.1018 18.4405C66.043 17.7062 66.0063 17.2876 66.0063 17.2876C66.0063 17.2876 66.0063 17.7062 65.9916 18.4405C65.9916 18.8077 65.9843 19.2557 65.9769 19.7698C65.9769 20.2838 65.9916 20.864 65.999 21.4956C65.999 22.1271 66.043 22.8101 66.0651 23.5371C66.0724 23.897 66.1018 24.2715 66.1312 24.6534C66.1605 25.0353 66.1899 25.4245 66.2119 25.8211C66.256 26.2176 66.2927 26.6215 66.3368 27.0254C66.3588 27.2311 66.3809 27.4367 66.4029 27.6423C66.4323 27.8479 66.4616 28.0536 66.491 28.2592C66.6012 29.0891 66.7627 29.9336 66.9316 30.7708C67.0344 31.1894 67.1373 31.608 67.2327 32.0266C67.3576 32.4378 67.4751 32.8564 67.6073 33.2603C67.7762 33.7377 67.9598 34.215 68.1581 34.6777C66.8802 32.1 65.7787 28.1711 65.1324 22.4356C63.2818 6.00747 72.2192 2.15198 86.1283 2.15198C87.2887 2.15198 88.4857 2.18135 89.7048 2.22542C102.41 2.7248 107.939 8.78343 119.55 8.78343C124.808 8.78343 124.83 10.5019 124.933 14.7907C125.043 19.6816 125.153 22.744 124.492 27.1429V27.1576ZM5.84587 20.7024C5.84587 20.7391 5.85322 20.7832 5.86056 20.8199C5.9854 22.1271 6.08822 23.4343 6.17634 24.6607C6.26447 25.8872 6.33056 27.0328 6.38931 28.0169C6.44072 29.0009 6.47744 29.8161 6.49947 30.3889C6.49947 30.4109 6.49947 30.4256 6.49947 30.4403C4.23024 30.1172 3.01116 29.1551 2.64397 26.717C2.33553 24.6901 2.20335 22.9496 2.15194 21.1798L5.84587 20.6951V20.7024ZM12.4112 29.8528C12.3378 29.8528 12.2497 29.8602 12.1469 29.8528C12.044 29.8528 11.9265 29.8528 11.8017 29.8528C11.552 29.8455 11.2583 29.8308 10.9498 29.8014C10.6414 29.772 10.3109 29.7353 9.98043 29.6839C9.41496 29.6031 8.86418 29.5003 8.40886 29.4048C8.34277 28.9495 8.26198 28.4208 8.17386 27.8333C8.01964 26.8492 7.83604 25.7109 7.62307 24.4845C7.4101 23.2654 7.1751 21.9582 6.91072 20.6657C6.78588 20.0195 6.64635 19.3659 6.51416 18.7343C6.38197 18.0954 6.23509 17.4712 6.10291 16.869C5.96337 16.2668 5.8165 15.6866 5.68431 15.1285C5.54478 14.5777 5.3979 14.0563 5.27306 13.5789C5.14821 13.1016 5.00133 12.6683 4.89118 12.2791C4.78102 11.8899 4.66352 11.5594 4.56805 11.2877C4.37711 10.7442 4.2743 10.4284 4.2743 10.4284C4.2743 10.4284 4.34774 10.7516 4.47992 11.3097C4.54602 11.5888 4.6268 11.9266 4.70024 12.3231C4.77368 12.7197 4.86915 13.1603 4.94993 13.645C5.03071 14.1297 5.11884 14.6585 5.19962 15.2166C5.27306 15.7747 5.36852 16.3622 5.44196 16.9791C5.50806 17.5446 5.5815 18.1248 5.64759 18.7123L2.14459 18.2569C2.15928 17.126 2.18866 15.9216 2.21803 14.5704C2.3135 10.3477 2.33553 8.65859 7.51292 8.65859C18.9325 8.65859 24.3743 2.70276 36.8661 2.21073C37.9677 2.16667 39.0546 2.14463 40.1121 2.14463C40.3471 2.14463 40.5894 2.14463 40.8244 2.14463C41.1696 2.21073 41.6102 2.29885 42.1169 2.43104C42.8293 2.61464 43.6885 2.86433 44.6212 3.24621C45.5465 3.62808 46.5673 4.14215 47.4779 4.87653C48.3885 5.61091 49.167 6.58764 49.4901 7.79202C49.8279 8.9964 49.681 10.4211 49.189 11.8458C48.6529 13.3292 47.992 14.8714 47.2062 16.3476C46.4204 17.8237 45.4951 19.2484 44.4008 20.4821C43.8501 21.0917 43.2552 21.6498 42.6163 22.1051C41.9774 22.5604 41.2871 22.9056 40.5968 23.0818C39.8991 23.2581 39.2014 23.2507 38.5405 23.0671C38.0191 22.9276 37.527 22.6706 37.0717 22.3401C37.057 22.3254 37.0424 22.3034 37.013 22.274C36.9616 22.2153 36.8808 22.1124 36.7853 21.9876C36.587 21.7379 36.3006 21.3634 36.0069 20.8934C35.86 20.6584 35.6984 20.394 35.5442 20.1223C35.39 19.8432 35.2358 19.5421 35.0889 19.2263C34.9347 18.9105 34.8098 18.5801 34.6776 18.2349C34.5601 17.8898 34.4426 17.5372 34.3619 17.1774C34.2737 16.8176 34.2223 16.4504 34.1709 16.0905C34.1489 15.9069 34.1415 15.7307 34.1269 15.5471C34.1269 15.3708 34.1269 15.1946 34.1269 15.0183C34.1342 14.8421 34.1415 14.6732 34.1562 14.5043C34.1783 14.3354 34.193 14.1738 34.215 14.0122C34.2444 13.8507 34.2664 13.6964 34.2958 13.5496C34.3251 13.4027 34.3545 13.2558 34.3839 13.1163C34.45 12.8372 34.5161 12.5802 34.5822 12.3525C34.6556 12.1249 34.707 11.9192 34.7658 11.7577C34.8833 11.4272 34.9347 11.2289 34.9347 11.2289C34.9347 11.2289 34.7878 11.3685 34.5528 11.6402C34.4353 11.7724 34.3105 11.956 34.1636 12.1542C34.0901 12.2571 34.0314 12.3746 33.958 12.4921C33.8845 12.6169 33.8037 12.7417 33.745 12.8813C33.6789 13.0208 33.6128 13.1677 33.5467 13.3219C33.4953 13.4835 33.4365 13.645 33.3778 13.8139C33.3264 13.9828 33.2823 14.1664 33.2383 14.35C33.2015 14.5336 33.1648 14.7246 33.1354 14.9229C33.1208 15.0257 33.1134 15.1432 33.0987 15.246C33.0914 15.2019 33.084 15.1579 33.0767 15.1138C33.0547 14.9743 33.0326 14.8274 33.0179 14.6879C32.9225 13.5496 33.2529 12.4774 33.6936 11.5814C34.1415 10.6781 34.685 9.94376 35.1623 9.35625C35.647 8.76875 36.0656 8.33546 36.3594 8.04171C36.6531 7.74796 36.822 7.60108 36.822 7.60108C36.822 7.60108 36.6164 7.68186 36.2419 7.88015C35.8747 8.07843 35.3386 8.39421 34.707 8.88625C34.0828 9.37828 33.3558 10.0466 32.7022 10.9939C32.4818 11.317 32.2762 11.6842 32.0926 12.0808C32.0118 12.0735 31.9237 12.0588 31.8356 12.0514C31.2701 11.978 30.5064 11.8531 29.75 11.6695C29.3754 11.5814 28.9935 11.4786 28.6484 11.3685C28.4721 11.317 28.3032 11.2583 28.1417 11.1995C27.9801 11.1408 27.8259 11.0894 27.6937 11.038C27.5542 10.9792 27.4293 10.9278 27.3192 10.8838C27.209 10.8324 27.1135 10.7883 27.0327 10.7516C26.8712 10.6781 26.7831 10.6341 26.7831 10.6341C26.7831 10.6341 26.8492 10.7075 26.974 10.8324C27.0327 10.8984 27.1135 10.9719 27.1943 11.06C27.2824 11.1408 27.3852 11.2363 27.4954 11.3391C27.6056 11.4492 27.7304 11.552 27.8626 11.6622C27.9948 11.7797 28.1417 11.8899 28.2885 12.0147C28.5896 12.2571 28.9201 12.4921 29.2579 12.7271C29.9335 13.1971 30.6532 13.6157 31.204 13.9168C31.3215 13.9828 31.4317 14.0416 31.5345 14.093C31.5125 14.3133 31.5051 14.5336 31.5125 14.7539C31.5125 14.7907 31.5125 14.82 31.5125 14.8568C31.2628 14.8347 30.9764 14.798 30.6459 14.7539C30.3742 14.7246 30.0878 14.6658 29.7793 14.6144C29.4709 14.5557 29.1478 14.4969 28.8099 14.4235C28.4721 14.35 28.127 14.2693 27.7818 14.1738C27.4293 14.0857 27.0768 13.9828 26.7243 13.8727C26.3718 13.7699 26.0266 13.645 25.6741 13.5275C25.329 13.4174 24.9985 13.2705 24.6754 13.1457C24.3449 13.0282 24.0438 12.8739 23.7501 12.7491C23.4563 12.6242 23.1846 12.4847 22.9349 12.3599C22.6852 12.235 22.4502 12.1249 22.2519 12.0074C22.0536 11.8972 21.8774 11.7944 21.7379 11.7136C21.4515 11.552 21.2899 11.4566 21.2899 11.4566C21.2899 11.4566 21.4294 11.5814 21.6791 11.7944C21.804 11.9046 21.9582 12.0367 22.1344 12.1836C22.3107 12.3305 22.5163 12.4847 22.744 12.661C22.9716 12.8372 23.214 13.0282 23.4857 13.2117C23.7574 13.3953 24.0291 13.6083 24.3376 13.7919C24.6387 13.9828 24.9471 14.1958 25.2776 14.3794C25.608 14.5704 25.9312 14.7686 26.2763 14.9449C26.6141 15.1285 26.9593 15.3047 27.3045 15.4663C27.6423 15.6352 27.9874 15.7894 28.3253 15.9363C28.6557 16.0832 28.9862 16.208 29.2946 16.3402C29.6104 16.4577 29.9042 16.5752 30.1832 16.6633C30.7414 16.8616 31.2187 16.9938 31.5565 17.0893C31.7254 17.1333 31.865 17.1701 31.9678 17.1921C31.9825 17.1921 31.9972 17.1921 32.0118 17.1994C32.2028 17.831 32.4304 18.4699 32.7022 19.1235C32.8564 19.4907 33.0253 19.8579 33.2089 20.2251C33.1869 20.3793 33.1575 20.5335 33.1354 20.7024C33.084 21.0696 33.0547 21.4735 33.0033 21.8995C32.9592 22.3254 32.9445 22.7807 32.9151 23.2434C32.8858 23.7134 32.8931 24.1981 32.8784 24.6901C32.8784 25.1821 32.8931 25.6815 32.9004 26.1882C32.9225 26.6876 32.9372 27.187 32.9739 27.679C33.0106 28.1711 33.04 28.6558 33.084 29.1258C33.0987 29.2726 33.1134 29.4122 33.1281 29.5517C33.0179 29.1992 32.8711 28.832 32.7683 28.4501C32.6654 28.0683 32.5406 27.679 32.4598 27.2751C32.3717 26.8786 32.2762 26.4747 32.2101 26.0781C32.144 25.6815 32.0633 25.285 32.0192 24.8957C31.9751 24.5065 31.9164 24.132 31.8797 23.7795C31.8503 23.4196 31.8209 23.0818 31.7989 22.766C31.7842 22.6118 31.7768 22.4576 31.7622 22.3181C31.7622 22.1712 31.7548 22.039 31.7475 21.9142C31.7401 21.6571 31.7328 21.4368 31.7254 21.2459C31.7108 20.8787 31.7034 20.6657 31.7034 20.6657C31.7034 20.6657 31.6593 20.8713 31.5859 21.2312C31.5492 21.4148 31.5051 21.6351 31.4537 21.8848C31.4243 22.0096 31.4023 22.1492 31.3729 22.2887C31.3509 22.4356 31.3289 22.5824 31.2995 22.7367C31.2481 23.0524 31.1967 23.3976 31.1379 23.7575C31.0865 24.1246 31.0498 24.5065 31.0057 24.9104C30.9543 25.3143 30.9396 25.7256 30.9103 26.1515C30.8736 26.5775 30.8736 27.0108 30.8662 27.444C30.8515 27.8847 30.8809 28.318 30.8956 28.7512C30.9029 29.1845 30.9617 29.6105 30.9911 30.0291C31.0351 30.3522 31.0718 30.6753 31.1232 30.9838C29.9556 30.6533 28.9495 29.3828 27.5174 29.6398C25.3877 30.0291 23.3976 28.0976 21.0035 28.2592C19.6302 28.3473 18.9472 28.362 18.6314 28.3914C18.5727 28.2078 18.5139 28.0242 18.4625 27.8259C18.3891 27.5762 18.3157 27.3192 18.2349 27.0548C18.1614 26.7831 18.088 26.5114 18.0146 26.225C17.853 25.6522 17.7281 25.0426 17.5739 24.4184C17.5078 24.1026 17.4417 23.7795 17.3756 23.4564C17.3096 23.1332 17.2361 22.8028 17.1847 22.4649C17.1113 22.017 17.0305 21.5617 16.957 21.1063C18.6828 21.3267 19.7183 21.312 19.5421 19.3071C19.3952 17.5519 17.618 18.0807 16.6266 18.3157C16.5972 17.9999 16.5678 17.6841 16.5458 17.3683C16.5311 17.0379 16.5164 16.7074 16.5017 16.3769C16.487 16.0538 16.4724 15.7307 16.465 15.4222C16.465 15.1064 16.465 14.8054 16.4724 14.5043C16.4724 14.2032 16.4724 13.9168 16.4797 13.6303C16.4797 13.3513 16.5091 13.0796 16.5238 12.8152C16.5605 12.2938 16.5899 11.8164 16.6192 11.3905C16.678 10.9719 16.722 10.6047 16.7588 10.2963C16.8395 9.68672 16.8836 9.34156 16.8836 9.34156C16.8836 9.34156 16.8028 9.67938 16.6706 10.2816C16.6045 10.5827 16.5164 10.9425 16.421 11.3611C16.3549 11.7797 16.2741 12.2571 16.1859 12.7785C16.1492 13.0355 16.0905 13.3072 16.0611 13.5936C16.0317 13.88 16.0024 14.1664 15.9656 14.4675C15.9363 14.7686 15.8995 15.0771 15.8702 15.3929C15.8481 15.7086 15.8334 16.0318 15.8114 16.3622C15.7967 16.6927 15.7747 17.0305 15.76 17.3683C15.7527 17.7062 15.76 18.0513 15.7453 18.4038C15.7453 18.4185 15.7453 18.4332 15.7453 18.4479L12.6536 18.7563C12.6683 18.5948 12.683 18.4258 12.705 18.2643C12.749 17.9632 12.7931 17.6621 12.8298 17.3537C12.8959 16.7441 13.0134 16.1419 13.1089 15.5471C13.2117 14.9522 13.3219 14.3721 13.432 13.7993C13.5642 13.2411 13.6523 12.6903 13.7845 12.1763C13.902 11.6622 14.0122 11.1702 14.1297 10.7222C14.2398 10.2742 14.35 9.86297 14.4455 9.49578C14.5483 9.12859 14.6291 8.81281 14.7025 8.55578C14.8494 8.03437 14.9375 7.73327 14.9375 7.73327C14.9375 7.73327 14.7759 8.00499 14.5409 8.49703C14.4234 8.73937 14.2839 9.04047 14.137 9.39297C13.9902 9.74547 13.8212 10.1347 13.667 10.5827C13.5862 10.803 13.5055 11.0306 13.4173 11.2656C13.3366 11.508 13.2558 11.7503 13.175 12.0074C13.0061 12.5141 12.8592 13.0649 12.705 13.6303C12.6389 13.9168 12.5655 14.2032 12.4994 14.4969C12.4333 14.7907 12.3525 15.0844 12.3084 15.3929C12.1983 16.0024 12.0734 16.6119 12 17.2362C11.9633 17.5446 11.9192 17.8604 11.8825 18.1688C11.8531 18.4773 11.8311 18.793 11.8017 19.0941C11.7797 19.4026 11.7503 19.7037 11.7356 20.0048C11.7356 20.3059 11.7283 20.607 11.7209 20.9007C11.7209 21.1945 11.7062 21.4809 11.7136 21.7673C11.7283 22.0463 11.7429 22.3254 11.7576 22.5971C11.7723 22.8689 11.787 23.1259 11.8017 23.3756C11.8164 23.6253 11.8604 23.8676 11.8898 24.1026C11.9486 24.5653 12.0073 24.9912 12.0661 25.3657C12.1395 25.7403 12.2203 26.0634 12.279 26.3278C12.4039 26.8565 12.4773 27.1576 12.4773 27.1576C12.4773 27.1576 12.4773 26.8418 12.4406 26.3057C12.4259 26.034 12.4112 25.7036 12.3819 25.329C12.3819 24.9545 12.3819 24.5286 12.3672 24.0659C12.3672 23.8382 12.3525 23.5959 12.3672 23.3462C12.3672 23.0965 12.3819 22.8395 12.3892 22.5751C12.3892 22.3107 12.4039 22.039 12.4112 21.7673C12.4259 21.4882 12.448 21.2092 12.47 20.9227C12.47 20.8126 12.4847 20.7024 12.492 20.5923L15.7967 20.9227C15.8188 21.4882 15.8702 22.0537 15.9069 22.6192C15.9289 22.9643 15.973 23.3095 16.0024 23.6473C16.0391 23.9851 16.0758 24.3229 16.1125 24.6534C16.208 25.307 16.2814 25.9532 16.3916 26.5554C16.443 26.8565 16.4944 27.1503 16.5385 27.4367C16.5899 27.7158 16.6486 27.9948 16.7 28.2519C16.7955 28.7806 16.913 29.258 17.0011 29.6766C17.0525 29.9042 17.1039 30.1098 17.1553 30.3008C16.5017 30.3302 15.8114 30.3595 15.0697 30.3816C13.5422 30.4256 12.1689 30.4844 10.9425 30.5211C10.9718 30.5138 11.0012 30.4991 11.0233 30.4917C11.3317 30.3816 11.6108 30.2714 11.8531 30.1686C11.9706 30.1172 12.0808 30.0658 12.1762 30.0217C12.2717 29.9777 12.3525 29.9336 12.4186 29.9042C12.5508 29.8381 12.6242 29.8014 12.6242 29.8014C12.6242 29.8014 12.5361 29.8014 12.3892 29.8087L12.4112 29.8528ZM47.992 41.3091C48.2931 41.2945 48.5942 41.2651 48.9026 41.2284C49.4093 41.1623 49.9087 41.0595 50.3934 40.9199C51.3701 40.6409 52.3028 40.2076 53.1326 39.6788C53.9698 39.1501 54.6969 38.5112 55.3284 37.8502C55.96 37.1819 56.5034 36.4843 56.9661 35.7939C57.4288 35.1036 57.8106 34.4207 58.1411 33.7891C58.2953 33.466 58.4495 33.1575 58.5891 32.8638C58.7139 32.5627 58.8461 32.2836 58.9489 32.0119C59.0517 31.7402 59.1472 31.4905 59.2353 31.2555C59.3161 31.0205 59.3895 30.8002 59.4556 30.6019C59.5878 30.2053 59.6686 29.8895 59.7274 29.6766C59.7861 29.4636 59.8155 29.3461 59.8155 29.3461C59.8155 29.3461 59.7641 29.4489 59.6613 29.6472C59.5585 29.8455 59.4263 30.1392 59.2353 30.5064C59.1399 30.69 59.037 30.8956 58.9269 31.1159C58.8094 31.3363 58.6845 31.5713 58.545 31.8209C58.2733 32.3203 57.9502 32.8785 57.583 33.4733C57.2084 34.0608 56.7825 34.685 56.2905 35.3093C55.7984 35.9261 55.233 36.543 54.6014 37.1085C53.9698 37.674 53.2648 38.1954 52.4864 38.5993C51.7153 39.0105 50.8854 39.319 50.0335 39.4879C49.6076 39.576 49.1743 39.6348 48.741 39.6568C48.3078 39.6862 47.8745 39.6788 47.4485 39.6421C46.5893 39.5833 45.7521 39.4071 44.959 39.1721C44.3348 38.9812 43.7399 38.7535 43.1744 38.5112C43.2552 38.5258 43.3433 38.5479 43.4241 38.5626C43.5049 38.5772 43.5857 38.5919 43.6665 38.614C43.7472 38.6213 43.828 38.636 43.9088 38.6433C44.0704 38.658 44.2246 38.6801 44.3788 38.6947C44.533 38.7094 44.6799 38.7315 44.8341 38.7462C44.981 38.7535 45.1279 38.7535 45.2674 38.7608C45.5538 38.7682 45.8255 38.7755 46.0826 38.7829C46.3396 38.7829 46.5893 38.7608 46.817 38.7462C47.0446 38.7315 47.2576 38.7168 47.4559 38.7021C47.6542 38.6801 47.8304 38.6433 47.9993 38.6213C48.6456 38.5038 49.0128 38.4157 49.0128 38.4157C49.0128 38.4157 48.6309 38.379 47.9846 38.3643C47.8231 38.3643 47.6395 38.3643 47.4485 38.3496C47.2502 38.3349 47.0446 38.3276 46.817 38.3129C46.5893 38.2982 46.3543 38.2908 46.1046 38.2761C45.8549 38.2468 45.5905 38.2174 45.3188 38.188C45.1793 38.1733 45.0398 38.1586 44.9002 38.1366C44.7607 38.1072 44.6212 38.0779 44.4743 38.0485C44.3274 38.0191 44.1805 37.9897 44.0337 37.9604C43.9602 37.9457 43.8868 37.931 43.806 37.9163C43.7326 37.8943 43.6591 37.8722 43.5857 37.8502C43.4388 37.8061 43.2846 37.7621 43.1304 37.718C42.9761 37.674 42.8219 37.6372 42.675 37.5711C42.5282 37.5124 42.374 37.4463 42.2197 37.3876C42.0655 37.3215 41.9113 37.2701 41.7644 37.1819C41.6175 37.1011 41.4707 37.0277 41.3238 36.9469C41.2504 36.9029 41.1696 36.8735 41.1035 36.8294L40.8905 36.6899C40.751 36.5944 40.6114 36.499 40.4646 36.4035C40.325 36.3007 40.2002 36.1832 40.068 36.073C39.7963 35.8674 39.576 35.5957 39.3336 35.3533C39.2161 35.2285 39.1206 35.0816 39.0105 34.9494C38.9077 34.8172 38.7975 34.6777 38.7094 34.5308L38.4303 34.0975L38.1953 33.6349C38.1586 33.5614 38.1145 33.4806 38.0778 33.4072L37.9824 33.1649C37.9236 33.0033 37.8502 32.8491 37.7914 32.6875C37.6739 32.3424 37.5784 31.9972 37.4903 31.652C37.5197 31.7181 37.5491 31.7842 37.5784 31.8503C37.6886 32.056 37.7988 32.2689 37.9236 32.4672C38.0558 32.6655 38.1733 32.8564 38.3275 33.0327C38.401 33.1208 38.467 33.2089 38.5405 33.2971C38.6213 33.3778 38.6947 33.4586 38.7755 33.5394C38.9224 33.701 39.106 33.8331 39.2602 33.9727C39.4217 34.1049 39.6053 34.2077 39.7669 34.3252C39.9358 34.428 40.1121 34.5088 40.2736 34.5969C40.4425 34.6777 40.6114 34.7364 40.7657 34.7952C40.9199 34.8613 41.0814 34.898 41.2283 34.9347C41.3752 34.9641 41.5147 35.0155 41.6543 35.0302C41.926 35.0596 42.1536 35.1036 42.3519 35.1036C42.7411 35.111 42.9541 35.1036 42.9541 35.1036C42.9541 35.1036 42.7485 35.0228 42.396 34.898C42.2197 34.8393 42.0141 34.7364 41.7791 34.641C41.6616 34.5969 41.5441 34.5235 41.4193 34.4574C41.2944 34.3913 41.1549 34.3325 41.03 34.2444C40.9052 34.1563 40.7657 34.0828 40.6335 33.9874C40.5086 33.8846 40.3691 33.7891 40.2369 33.6789C40.1121 33.5614 39.9799 33.4513 39.8624 33.3117C39.7522 33.1722 39.62 33.0474 39.5246 32.8931C39.4732 32.8197 39.4217 32.7463 39.363 32.6655C39.3116 32.592 39.2675 32.5039 39.2235 32.4231C39.128 32.2689 39.0546 32.0853 38.9738 31.9164C38.9003 31.7402 38.8416 31.5566 38.7755 31.373C38.7314 31.182 38.6653 30.9984 38.636 30.8075C38.5478 30.4256 38.5185 30.0291 38.4817 29.6472C38.4671 29.258 38.4597 28.8761 38.4817 28.5015C38.4964 28.127 38.5405 27.7672 38.5846 27.422C38.636 27.0769 38.6874 26.7611 38.7461 26.46C38.8563 25.9165 38.9738 25.4612 39.0692 25.1307C39.7155 25.1895 40.3691 25.1454 40.9933 24.9986C41.0447 24.9839 41.1035 24.9692 41.1549 24.9545C41.2283 24.9545 41.3018 24.9545 41.3825 24.9545C41.4854 24.9545 41.5955 24.9545 41.7204 24.9325C41.97 24.9178 42.2565 24.8517 42.5796 24.7782C42.8954 24.6828 43.2552 24.58 43.6151 24.4037C43.7032 24.367 43.7987 24.3229 43.8941 24.2789C43.9896 24.2348 44.0777 24.1834 44.1658 24.132C44.3494 24.0292 44.5477 23.9264 44.7313 23.8015C45.0912 23.5445 45.4877 23.2874 45.8402 22.957C46.0165 22.7954 46.2074 22.6485 46.3837 22.4723C46.5526 22.296 46.7215 22.1198 46.8977 21.9362L47.1548 21.6645C47.2356 21.569 47.309 21.4735 47.3898 21.3707C47.544 21.1724 47.6982 20.9815 47.8524 20.7832C47.9259 20.6804 48.0067 20.5923 48.0801 20.4895L48.2857 20.181C48.4253 19.9754 48.5574 19.7698 48.6896 19.5715C48.7557 19.4687 48.8218 19.3659 48.8879 19.2704C48.954 19.1676 49.0054 19.0648 49.0642 18.9619C49.1817 18.7563 49.2992 18.5507 49.4093 18.3524C49.5195 18.1541 49.6296 17.9558 49.7398 17.7649C49.8426 17.5666 49.9307 17.3757 50.0189 17.1847C50.1951 16.8029 50.364 16.443 50.5109 16.1052C50.5917 15.9363 50.6504 15.7747 50.7018 15.6205C50.7606 15.4663 50.812 15.3121 50.8634 15.1725C50.9589 14.8935 51.047 14.6438 51.1057 14.4455C51.2379 14.0416 51.304 13.8066 51.304 13.8066C51.304 13.8066 51.1718 14.0122 50.9515 14.3794C50.8414 14.563 50.7092 14.7833 50.5623 15.0404C50.4154 15.2974 50.2612 15.5911 50.0703 15.8922C49.8793 16.2007 49.6737 16.5311 49.4607 16.8836C49.3506 17.0599 49.2551 17.2435 49.1376 17.4271C49.0128 17.6033 48.8953 17.7869 48.7631 17.9705C48.6382 18.1541 48.506 18.3451 48.3812 18.5287C48.3151 18.6241 48.2563 18.7196 48.1829 18.8151C48.1829 18.8224 48.1682 18.8298 48.1609 18.8444C48.462 18.3671 48.741 17.8824 49.0128 17.3904C49.872 15.8041 50.577 14.2105 51.1718 12.5802C51.4656 11.7283 51.6712 10.847 51.7446 9.94376C51.8181 9.04047 51.752 8.12249 51.5096 7.26327C51.3921 6.82998 51.2379 6.41873 51.047 6.02951C50.8561 5.64029 50.6284 5.28044 50.386 4.94262C49.9014 4.27434 49.3285 3.72355 48.7484 3.26824C48.5134 3.08464 48.271 2.91573 48.036 2.75417C57.7299 4.34043 63.9354 9.58391 62.4739 22.5678C61.0493 35.2211 55.3872 41.3899 48.8953 41.3899C48.5868 41.3899 48.271 41.3679 47.9552 41.3385L47.992 41.3091Z" fill="#262626"/>
<path d="M111.178 16.2227C111.156 15.7527 111.112 15.2974 111.075 14.8641C111.038 14.4308 110.994 14.0269 110.943 13.6524C110.899 13.2778 110.84 12.9327 110.789 12.6316C110.737 12.3305 110.686 12.0661 110.635 11.8458C110.59 11.6328 110.546 11.4639 110.517 11.3464C110.488 11.2289 110.466 11.1702 110.466 11.1702C110.466 11.1702 110.466 11.4199 110.466 11.8605C110.466 12.3011 110.458 12.9253 110.451 13.6744C110.429 15.1725 110.407 17.1627 110.377 19.1602C110.377 20.159 110.363 21.1577 110.355 22.0904C110.355 22.5604 110.355 23.0084 110.355 23.4417C110.355 23.8749 110.355 24.2789 110.37 24.6534C110.385 25.4025 110.4 26.034 110.422 26.4747C110.444 26.9153 110.466 27.165 110.466 27.165C110.466 27.165 110.517 26.9153 110.598 26.482C110.635 26.2617 110.686 26.0047 110.73 25.6962C110.781 25.3951 110.833 25.05 110.87 24.6754C110.914 24.3009 110.965 23.897 111.009 23.4637C111.053 23.0304 111.09 22.5824 111.127 22.1124C111.163 21.6424 111.185 21.1577 111.207 20.6584C111.229 20.1663 111.237 19.6596 111.244 19.1602C111.244 18.6608 111.244 18.1541 111.237 17.6621C111.237 17.1701 111.207 16.678 111.185 16.208L111.178 16.2227Z" fill="#262626"/>
<path d="M102.894 5.74282C102.431 5.55923 101.866 5.34626 101.212 5.11126C100.551 4.89094 99.8096 4.62657 98.9871 4.39156C98.1645 4.14922 97.2613 3.90687 96.2992 3.70859C95.3372 3.49562 94.3091 3.31202 93.2442 3.18718C92.1794 3.04765 91.0704 2.95952 89.9395 2.9228C88.8159 2.87874 87.6776 2.84937 86.532 2.84937C85.3937 2.84937 84.248 2.8714 83.1244 2.9228C82.0008 2.98155 80.8919 3.06968 79.8271 3.20187C78.7622 3.32671 77.7341 3.51031 76.772 3.72328C75.81 3.94359 74.9141 4.20062 74.1063 4.49438C73.2984 4.78813 72.5787 5.1186 71.9619 5.44907C71.345 5.78689 70.8383 6.11736 70.4343 6.41845C70.0378 6.71955 69.7367 6.97658 69.5384 7.15283C69.3401 7.33643 69.2373 7.4319 69.2373 7.4319C69.2373 7.4319 69.3475 7.34377 69.5604 7.18221C69.7734 7.02065 70.0892 6.79299 70.5078 6.52127C70.9264 6.25689 71.4478 5.96314 72.072 5.66939C72.6962 5.38298 73.4159 5.09657 74.2237 4.85422C75.0316 4.61188 75.9202 4.39156 76.8749 4.22266C77.8296 4.05375 78.843 3.92156 79.8932 3.82609C80.9433 3.73062 82.0376 3.67921 83.1538 3.65718C84.2627 3.62781 85.3937 3.62781 86.5246 3.65718C87.6556 3.68656 88.7865 3.72328 89.9028 3.77468C91.0117 3.82609 92.0912 3.93625 93.1414 4.04641C93.4058 4.07578 93.6628 4.1125 93.9198 4.14187C94.1769 4.17859 94.4265 4.21531 94.6836 4.25203C95.183 4.32547 95.675 4.39891 96.1523 4.48703C97.107 4.65594 98.003 4.83954 98.8328 5.02313C100.485 5.39032 101.866 5.75017 102.828 5.99251C103.313 6.11001 103.694 6.20548 103.951 6.27158C104.209 6.33767 104.348 6.36705 104.348 6.36705C104.348 6.36705 104.216 6.3083 103.973 6.20548C103.731 6.10267 103.364 5.94845 102.901 5.76486L102.894 5.74282Z" fill="#262626"/>
<path d="M119.491 28.8614C119.33 28.8614 119.153 28.8468 118.955 28.8468C118.764 28.8468 118.551 28.8321 118.331 28.8321C118.111 28.8321 117.876 28.8174 117.633 28.81C117.516 28.81 117.391 28.81 117.266 28.8027C117.141 28.8027 117.016 28.788 116.891 28.788C116.642 28.7807 116.385 28.766 116.128 28.7513C115.871 28.7513 115.614 28.7219 115.364 28.7146C115.107 28.6999 114.865 28.6852 114.622 28.6705C114.138 28.6411 113.682 28.6191 113.293 28.5971C112.904 28.575 112.573 28.5603 112.346 28.553C112.118 28.5457 111.986 28.5457 111.986 28.5457C111.986 28.5457 112.103 28.6044 112.324 28.6852C112.544 28.766 112.852 28.8688 113.234 28.9716C113.616 29.0744 114.071 29.1625 114.556 29.2507C114.799 29.2874 115.056 29.3241 115.313 29.3461C115.57 29.3682 115.834 29.3975 116.098 29.4049C116.363 29.4196 116.627 29.4269 116.884 29.4196C117.141 29.4196 117.398 29.4122 117.648 29.3975C117.898 29.3902 118.133 29.3608 118.36 29.3314C118.588 29.3094 118.801 29.28 118.992 29.236C119.19 29.1993 119.366 29.1625 119.521 29.1258C119.675 29.0891 119.814 29.045 119.924 29.0157C120.145 28.9496 120.27 28.9055 120.27 28.9055C120.27 28.9055 120.137 28.8908 119.902 28.8908C119.785 28.8908 119.645 28.8835 119.491 28.8908V28.8614Z" fill="#262626"/>
<path d="M61.2108 13.5053C61.4018 14.1589 61.5707 14.8125 61.6808 15.4514C61.7469 15.7672 61.7763 16.0904 61.835 16.3988C61.8718 16.7072 61.9158 17.0157 61.9379 17.3094C61.9893 17.9043 62.0186 18.4698 62.0333 18.9912C62.0333 19.2555 62.0407 19.5052 62.048 19.7402C62.048 19.9826 62.048 20.2029 62.048 20.4159C62.048 20.8418 62.026 21.2163 62.0113 21.5174C61.9746 22.127 61.9599 22.4795 61.9599 22.4795C61.9599 22.4795 62.0113 22.1343 62.0921 21.5248C62.1215 21.2163 62.1655 20.8491 62.2022 20.4232C62.2169 20.2102 62.2316 19.9826 62.2536 19.7402C62.2683 19.4979 62.2683 19.2482 62.283 18.9838C62.2977 18.4551 62.2904 17.8822 62.2536 17.2801C62.239 16.979 62.2096 16.6632 62.1802 16.3474C62.1435 16.0316 62.1068 15.7085 62.048 15.378C61.9452 14.7244 61.7983 14.0488 61.6074 13.3805C61.4091 12.7122 61.1594 12.0439 60.8583 11.3977C60.5572 10.7514 60.19 10.1419 59.7861 9.56172C59.3822 8.9889 58.9342 8.46015 58.4569 7.99749C57.9796 7.52748 57.4875 7.11623 56.9881 6.76373C56.4888 6.41122 56.0041 6.10278 55.5341 5.86044C55.0714 5.60341 54.6234 5.40512 54.2342 5.23622C53.8376 5.07465 53.4851 4.93512 53.1987 4.83965C52.9123 4.72949 52.6773 4.67074 52.5231 4.61934C52.3689 4.57527 52.2808 4.5459 52.2808 4.5459C52.2808 4.5459 52.3615 4.57527 52.5158 4.64137C52.67 4.70012 52.8903 4.78824 53.1694 4.91309C53.7348 5.14809 54.528 5.52262 55.4166 6.06607C55.8645 6.33044 56.3272 6.65357 56.8045 7.01342C57.2745 7.37326 57.7445 7.7992 58.1925 8.26186C58.6478 8.72452 59.0664 9.24593 59.4557 9.80406C59.8375 10.3622 60.19 10.957 60.4838 11.5813C60.7775 12.2055 61.0272 12.8517 61.2255 13.498L61.2108 13.5053Z" fill="#262626"/>
<path d="M44.1657 3.9293C44.7459 4.19367 45.348 4.53149 45.9282 4.95743C46.5084 5.38337 47.0665 5.91947 47.4924 6.56572C47.9257 7.20463 48.2048 7.96839 48.3003 8.77621C48.3957 9.57668 48.3003 10.4139 48.0946 11.2217C47.9918 11.6256 47.8596 12.0222 47.7054 12.4114C47.5512 12.8153 47.3896 13.1972 47.2281 13.5864C46.9049 14.3575 46.5524 15.1066 46.1999 15.8116C45.4802 17.2289 44.6798 18.4774 43.8646 19.4468C43.4607 19.9314 43.0494 20.3427 42.6602 20.6732C42.271 21.0036 41.8965 21.2533 41.5733 21.4296C41.2502 21.6058 40.9785 21.716 40.7875 21.7821C40.5966 21.8482 40.4938 21.8776 40.4938 21.8776C40.4938 21.8776 40.604 21.8702 40.8022 21.8335C41.0005 21.8041 41.2943 21.7307 41.6541 21.5911C42.0066 21.4516 42.4252 21.2386 42.8658 20.9302C43.2991 20.6218 43.7691 20.2399 44.2244 19.7552C44.4521 19.5202 44.6798 19.2632 44.9001 18.9914C45.1204 18.7124 45.3407 18.426 45.5537 18.1175C45.987 17.508 46.3835 16.825 46.7654 16.098C47.1473 15.3783 47.4851 14.6072 47.8082 13.8141C47.9698 13.4248 48.1167 13.0062 48.2562 12.6097C48.4031 12.1984 48.5426 11.7798 48.6381 11.3465C48.8437 10.4873 48.9245 9.58402 48.7923 8.71011C48.6674 7.8362 48.337 7.00635 47.8449 6.32338C47.3603 5.6404 46.7507 5.1043 46.1265 4.67836C45.5023 4.25242 44.8634 3.94398 44.2612 3.69429C43.659 3.45195 43.0935 3.26835 42.5794 3.13617C42.0727 3.00398 41.6247 2.90851 41.2502 2.84976C40.5085 2.72491 40.0752 2.70288 40.0752 2.70288C40.0752 2.70288 40.5011 2.75429 41.2355 2.93054C41.9626 3.10679 42.998 3.3932 44.1584 3.92195L44.1657 3.9293Z" fill="#262626"/>
</g>
<defs>
<clipPath id="clip0_0_2180">
<rect width="127.18" height="43.6956" fill="white"/>
</clipPath>
</defs>
</svg>
