<svg width="90" height="86" viewBox="0 0 90 86" fill="none" xmlns="http://www.w3.org/2000/svg">
<g clip-path="url(#clip0_0_2074)">
<path d="M79.8805 33.3697C78.7386 28.7814 76.1399 23.9397 72.1764 18.9646C71.1997 17.735 70.1947 16.6185 69.1899 15.6152C64.5336 10.9659 59.5115 8.66451 54.2436 8.77453C46.9746 8.9214 39.405 13.5303 30.4179 23.281C25.239 28.8923 22.7892 34.0772 20.4171 39.0853C18.1579 43.8529 16.0329 48.3587 11.5886 52.8098C9.67374 54.7275 7.78044 57.0623 8.27753 59.8763C8.63264 61.9549 10.1399 63.5165 12.0365 65.5091L12.0719 65.5444L12.5955 66.0956C13.8623 67.4169 14.945 68.5545 16.0347 69.6427C18.4053 72.0097 20.3653 73.7124 22.7991 75.5066C25.4946 77.4915 28.104 77.7229 30.7828 76.2006C32.8538 75.0324 34.825 72.9025 37.5593 69.9659C38.1528 69.3291 38.7604 68.6781 39.4175 67.9776C40.3996 66.9374 41.2686 65.968 42.0458 65.1189C44.4762 62.4301 46.0801 60.654 47.4022 60.5045C51.3122 60.0703 52.8737 58.464 53.8694 56.7308C57.9856 57.845 59.5466 55.5881 60.3024 54.4915C60.3589 54.4066 60.4296 54.3076 60.4861 54.2227C69.2474 54.5343 75.9625 51.3473 78.935 45.4832C80.6719 42.0595 80.9941 37.8731 79.8805 33.3838L79.8805 33.3697ZM70.233 20.5147C79.979 32.7191 79.9725 42.8732 73.7468 48.0468C73.987 47.7779 74.2272 47.4949 74.4462 47.2048C74.6299 46.9784 74.7994 46.7237 74.9618 46.4761C75.1172 46.2214 75.2796 45.9738 75.4209 45.705C75.9999 44.6722 76.4092 43.5405 76.6558 42.416C76.9095 41.2845 76.9865 40.1601 76.9574 39.0853C76.9283 38.0105 76.7932 36.9853 76.6157 36.0309C76.424 35.0764 76.183 34.1998 75.9278 33.3939C75.7861 32.998 75.6585 32.6163 75.531 32.2628C75.3893 31.9094 75.2618 31.57 75.1201 31.259C74.9785 30.948 74.851 30.6653 74.7305 30.3896C74.596 30.128 74.4827 29.8877 74.3765 29.6686C74.1569 29.2374 73.9658 28.9052 73.8383 28.679C73.7109 28.4529 73.6401 28.3398 73.6401 28.3398C73.6401 28.3398 73.6826 28.467 73.7676 28.7215C73.8456 28.9689 73.9873 29.3224 74.122 29.7819C74.1929 30.0081 74.2779 30.2626 74.37 30.5383C74.448 30.814 74.5402 31.118 74.6465 31.4362C74.8379 32.0795 75.0293 32.8077 75.2138 33.5995C75.3912 34.3984 75.5615 35.2609 75.6683 36.1871C75.768 37.1063 75.8182 38.075 75.7553 39.0721C75.6995 40.0621 75.5447 41.0804 75.2413 42.0494C74.9451 43.0254 74.5145 43.9662 73.9423 44.8081C73.6598 45.2325 73.356 45.6358 73.0098 46.0109C72.6778 46.3859 72.3104 46.7397 71.9358 47.0723C71.1797 47.7305 70.3387 48.2756 69.4905 48.7429C68.819 49.1041 68.1404 49.4157 67.4618 49.6708C67.5466 49.6141 67.6244 49.5646 67.7092 49.5079C67.7869 49.4584 67.8717 49.4018 67.9495 49.3522C68.0201 49.2956 68.0979 49.2319 68.1685 49.1753C68.3169 49.0549 68.4583 48.9417 68.5996 48.8284C68.741 48.7152 68.8823 48.602 69.0166 48.4958C69.1438 48.3826 69.2639 48.2623 69.3911 48.149C69.6242 47.9155 69.8645 47.7032 70.0835 47.498C70.2955 47.2857 70.4792 47.0593 70.6629 46.8611C70.8395 46.656 71.002 46.4649 71.1574 46.2951C71.3058 46.1182 71.4188 45.9343 71.5318 45.7786C71.9768 45.149 72.2028 44.767 72.2028 44.767C72.2028 44.767 71.8636 45.0501 71.3125 45.5737C71.1782 45.7082 71.0298 45.8568 70.8602 46.0125C70.6907 46.1682 70.5069 46.3239 70.302 46.5008C70.1112 46.6777 69.9063 46.8688 69.6872 47.0599C69.4611 47.2439 69.2138 47.435 68.9664 47.6402C68.8392 47.7393 68.7191 47.8455 68.5777 47.9446C68.4435 48.0366 68.295 48.1286 68.1537 48.2277C68.0123 48.3268 67.8639 48.4189 67.7226 48.518C67.6448 48.5675 67.5741 48.61 67.5035 48.6666C67.4187 48.7091 67.348 48.7516 67.2632 48.7941C67.1077 48.8791 66.9451 48.9711 66.7754 49.0561C66.6129 49.1481 66.4503 49.2402 66.2807 49.311C66.111 49.3819 65.9343 49.4598 65.7576 49.5377C65.5809 49.6156 65.4041 49.6935 65.2133 49.7432C65.0295 49.7999 64.8456 49.8566 64.6548 49.9204C64.5558 49.9487 64.4639 49.9841 64.372 50.0054L64.0751 50.0622C63.8842 50.0977 63.6862 50.1403 63.4953 50.1758C63.2973 50.2042 63.0923 50.2114 62.9014 50.2328C62.5054 50.2897 62.0953 50.2475 61.6993 50.2478C61.4942 50.2409 61.2962 50.1986 61.0982 50.1846C60.9002 50.1565 60.6951 50.1355 60.5042 50.0861L59.9172 49.9522L59.3443 49.7617C59.2523 49.7264 59.1533 49.6982 59.0614 49.6629L58.7855 49.5429C58.6016 49.4582 58.4106 49.3947 58.2338 49.3029C57.8518 49.1193 57.491 48.9146 57.1302 48.6956C57.2151 48.7238 57.2858 48.7521 57.3637 48.7874C57.6253 48.865 57.887 48.9567 58.1558 49.0131C58.4245 49.0694 58.6933 49.1258 58.9549 49.1468C59.0893 49.1538 59.2166 49.182 59.3509 49.1889C59.4782 49.1888 59.6126 49.1958 59.7398 49.1957C59.9944 49.2097 60.2489 49.1671 60.4964 49.1457C60.7439 49.1243 60.9772 49.0604 61.2034 49.0178C61.4296 48.9611 61.6488 48.8832 61.8538 48.8194C62.0588 48.7556 62.2426 48.6564 62.4264 48.5714C62.6102 48.5006 62.7727 48.3944 62.9211 48.3024C63.0766 48.2033 63.2251 48.1254 63.3523 48.0263C63.6067 47.8281 63.8258 47.6794 63.9883 47.5167C64.3133 47.2053 64.4829 47.0213 64.4829 47.0213C64.4829 47.0213 64.2496 47.1276 63.8538 47.3117C63.6559 47.4109 63.4014 47.4959 63.1328 47.6093C62.9985 47.673 62.8359 47.7085 62.6874 47.7581C62.5248 47.8077 62.3693 47.8644 62.1925 47.8999C62.0158 47.9354 61.839 47.985 61.6552 48.0134C61.4643 48.0348 61.2734 48.0703 61.0754 48.0846C60.8774 48.0847 60.6724 48.1061 60.4673 48.0992C60.2623 48.0781 60.0501 48.0783 59.838 48.036C59.7319 48.0149 59.6329 48.0008 59.5268 47.9797C59.4207 47.9585 59.3146 47.9232 59.2156 47.895C59.0034 47.8528 58.7983 47.761 58.5932 47.6834C58.3881 47.6057 58.1829 47.4998 57.9849 47.401C57.7868 47.288 57.5887 47.1891 57.4048 47.0479C57.0228 46.8077 56.6619 46.5039 56.3152 46.2143C55.9756 45.9034 55.6571 45.5996 55.367 45.2675C55.0697 44.9424 54.8079 44.6103 54.5601 44.2923C54.3195 43.9672 54.093 43.6562 53.9018 43.3665C53.5408 42.8223 53.2647 42.3487 53.0735 42.0024C53.653 41.5211 54.1616 40.9409 54.5571 40.3042C54.5925 40.2547 54.6278 40.191 54.656 40.1344C54.7196 40.0707 54.7761 40.0141 54.8468 39.9434C54.9316 39.8584 55.0234 39.7664 55.1082 39.6532C55.299 39.4339 55.4897 39.1438 55.6945 38.8113C55.8781 38.4718 56.0899 38.0898 56.2451 37.6513C56.2875 37.5381 56.3369 37.432 56.3792 37.3188C56.4216 37.2057 56.4427 37.0854 56.478 36.9652C56.5414 36.7318 56.619 36.4843 56.6683 36.2226C56.7528 35.7134 56.8726 35.1689 56.8863 34.6173C56.9003 34.3345 56.9354 34.0587 56.9281 33.7687C56.9208 33.4788 56.9206 33.196 56.9133 32.9061L56.8989 32.4677C56.8917 32.3192 56.8633 32.1778 56.849 32.0364C56.8135 31.7465 56.7779 31.4566 56.7423 31.1667C56.721 31.0183 56.7068 30.8768 56.6854 30.7284L56.6003 30.3042C56.5435 30.0214 56.4867 29.7386 56.4299 29.4558C56.4015 29.3144 56.3731 29.173 56.3448 29.0457C56.3164 28.9043 56.2738 28.7771 56.2384 28.6427C56.1675 28.3741 56.0895 28.1125 56.0115 27.851C55.9406 27.5964 55.8697 27.3419 55.7988 27.0874C55.7209 26.84 55.6288 26.6067 55.5508 26.3734C55.3807 25.9069 55.2178 25.4757 55.0619 25.0798C54.9911 24.8819 54.899 24.691 54.8211 24.5143C54.7432 24.3376 54.6582 24.1679 54.5874 24.0124C54.4316 23.7014 54.297 23.4257 54.1837 23.2137C53.9571 22.7755 53.8155 22.521 53.8155 22.521C53.8155 22.521 53.8723 22.8038 53.9999 23.2845C54.0567 23.5249 54.1347 23.8148 54.2198 24.1541C54.3049 24.4935 54.4254 24.854 54.5176 25.2711C54.6098 25.6883 54.7233 26.1266 54.8368 26.5932C54.8865 26.8265 54.9644 27.0598 55.0141 27.3072C55.0638 27.5547 55.1064 27.8092 55.1632 28.0637C55.2128 28.3253 55.2555 28.5798 55.3122 28.8485C55.3335 28.9828 55.3619 29.1101 55.3832 29.2444C55.3832 29.2444 55.3833 29.2727 55.3903 29.2798C55.2414 28.6364 55.0712 28.0001 54.8869 27.378C54.2843 25.3632 53.5475 23.4546 52.6905 21.6238C52.2302 20.6837 51.6638 19.779 50.9844 18.9735C50.2979 18.1749 49.4771 17.4684 48.5787 16.9529C48.126 16.6987 47.6521 16.4799 47.1782 16.3176C46.6972 16.1624 46.2092 16.0425 45.7354 15.9651C44.7807 15.8173 43.8544 15.8392 42.9989 15.9318C42.6454 15.9745 42.3201 16.0313 41.9878 16.0952C50.3272 10.0503 58.854 8.79936 67.4376 17.3701C68.3717 18.3028 69.3058 19.3486 70.233 20.5147ZM35.4654 21.6367C35.8117 21.4031 36.2428 21.1129 36.7659 20.8014C37.508 20.3695 38.4198 19.8526 39.5084 19.3993C40.5899 18.953 41.8483 18.5278 43.2129 18.3782C44.5704 18.2358 46.0201 18.3974 47.2864 19.1247C47.923 19.4778 48.5032 19.9865 49.0269 20.5942C49.5507 21.2019 49.9967 21.9299 50.3932 22.7216C51.1723 24.3898 51.9091 26.2135 52.4762 28.0799C53.0432 29.9462 53.4619 31.8904 53.5765 33.8137C53.6267 34.7682 53.5991 35.7299 53.4372 36.6281C53.2823 37.5333 53.0071 38.3891 52.5763 39.1036C52.1526 39.8252 51.5662 40.3984 50.8664 40.8019C50.3151 41.1135 49.7072 41.3119 49.0567 41.4114C49.0284 41.4114 49.0001 41.4115 48.9648 41.4044C48.8728 41.3974 48.7243 41.3763 48.5405 41.3623C48.1727 41.3201 47.6282 41.2428 46.9917 41.1018C46.6664 41.0314 46.3269 40.9468 45.9733 40.848C45.6126 40.7422 45.2377 40.6223 44.8558 40.4812C44.4668 40.3471 44.0848 40.1777 43.6958 40.0012C43.3208 39.8106 42.9247 39.6129 42.5569 39.3869C42.1819 39.168 41.8352 38.9066 41.5027 38.6452C41.3329 38.5181 41.1843 38.3697 41.0216 38.2354C40.873 38.0871 40.7244 37.9387 40.5828 37.7974C40.4484 37.649 40.3139 37.5006 40.1865 37.3451C40.0591 37.1897 39.9459 37.0342 39.8255 36.8858C39.7123 36.7303 39.6061 36.5819 39.507 36.4405C39.4079 36.285 39.3088 36.1437 39.2238 36.0023C39.0469 35.7126 38.884 35.4511 38.7566 35.2107C38.6362 34.9633 38.5087 34.7513 38.4167 34.5746C38.2396 34.2141 38.1193 33.995 38.1193 33.995C38.1193 33.995 38.1124 34.2283 38.141 34.6526C38.1553 34.8647 38.2049 35.1121 38.2405 35.402C38.2618 35.5505 38.3114 35.699 38.354 35.8545C38.3965 36.01 38.432 36.1868 38.5029 36.3564C38.5737 36.5261 38.6304 36.7099 38.7083 36.8866C38.8004 37.0633 38.8854 37.2471 38.9774 37.438C39.0766 37.6217 39.1898 37.8055 39.3102 37.9963C39.4305 38.1871 39.565 38.3638 39.6995 38.5546C39.7703 38.6536 39.8552 38.7525 39.9402 38.8514C39.8977 38.8232 39.8553 38.7949 39.8128 38.7667C39.6713 38.6678 39.544 38.5689 39.4095 38.4629C38.3907 37.601 37.7746 36.4489 37.399 35.339C37.0234 34.2291 36.8671 33.1686 36.7745 32.2848C36.689 31.408 36.6813 30.6939 36.681 30.213C36.6806 29.7322 36.6946 29.4635 36.6946 29.4635C36.6946 29.4635 36.5958 29.704 36.4476 30.1779C36.3065 30.6447 36.1232 31.3519 36.0179 32.2783C35.9054 33.1976 35.8568 34.3502 36.1053 35.6723C36.1904 36.1248 36.3181 36.5914 36.5023 37.0721C36.4316 37.1287 36.3539 37.1924 36.262 37.2561C35.732 37.6596 34.997 38.1975 34.2195 38.6648C33.8308 38.8985 33.4421 39.1321 33.0604 39.3304C32.8695 39.4366 32.6857 39.5216 32.509 39.6136C32.3253 39.6986 32.1556 39.7836 32.0072 39.8473C31.8517 39.9182 31.7032 39.9819 31.5689 40.0315C31.4346 40.0811 31.3215 40.1236 31.2296 40.1591C31.0316 40.2299 30.9327 40.2724 30.9327 40.2724C30.9327 40.2724 31.0458 40.2723 31.2509 40.2792C31.3499 40.2792 31.4772 40.2791 31.6257 40.286C31.7741 40.2789 31.9297 40.2787 32.1065 40.2715C32.2832 40.2643 32.4741 40.243 32.6792 40.2357C32.8843 40.2285 33.0964 40.2001 33.3226 40.1716C33.7681 40.1218 34.2418 40.0437 34.7225 39.9584C35.6699 39.788 36.6102 39.5398 37.3101 39.3342C37.4656 39.2917 37.5999 39.2421 37.7343 39.2067C37.897 39.3974 38.0669 39.5953 38.2579 39.7719C38.2862 39.8002 38.3145 39.8285 38.3428 39.8567C38.1167 40.0408 37.8553 40.2601 37.5443 40.4867C37.2969 40.6778 37.0143 40.876 36.7174 41.0883C36.4135 41.2936 36.0955 41.513 35.7562 41.7254C35.417 41.9378 35.0636 42.1644 34.7031 42.3697C34.3427 42.5892 33.9681 42.7945 33.5864 42.9928C33.2047 43.2052 32.8159 43.3823 32.4342 43.5664C32.0525 43.7647 31.6637 43.9135 31.2891 44.0764C30.9215 44.2464 30.5468 44.3669 30.2005 44.5156C29.847 44.6573 29.5148 44.7636 29.2037 44.8628C28.8927 44.9621 28.6028 45.0683 28.3483 45.1392C28.0938 45.2101 27.8605 45.274 27.6838 45.3236C27.3091 45.4299 27.097 45.4867 27.097 45.4867C27.097 45.4867 27.3162 45.4653 27.7051 45.4438C27.9031 45.4295 28.1293 45.4152 28.4051 45.3938C28.6808 45.3723 28.9707 45.3226 29.303 45.287C29.6353 45.2514 29.9959 45.2017 30.3636 45.1307C30.7383 45.0526 31.1413 45.0028 31.5513 44.9035C31.9614 44.8042 32.3856 44.7332 32.8098 44.6056C33.2339 44.4921 33.6793 44.3857 34.1035 44.244C34.5347 44.1093 34.966 43.9746 35.383 43.8258C35.8072 43.6841 36.2172 43.5282 36.6131 43.3724C37.0089 43.2165 37.3836 43.0536 37.7512 42.8977C38.1117 42.7348 38.4439 42.5861 38.7549 42.4303C39.3769 42.1328 39.8858 41.8496 40.2392 41.6514C40.4159 41.5452 40.5573 41.4602 40.6633 41.3965C40.6774 41.3823 40.6845 41.3753 40.7057 41.3682C41.3919 41.7283 42.1063 42.0742 42.8702 42.3848C43.3017 42.5612 43.7473 42.7235 44.2 42.8788C44.3061 43.0272 44.4123 43.1756 44.5326 43.3381C44.7945 43.6844 45.0989 44.0448 45.4174 44.4335C45.7358 44.8222 46.0968 45.2108 46.4577 45.6136C46.8257 46.0234 47.222 46.4191 47.6253 46.836C48.0358 47.2458 48.4533 47.6485 48.8778 48.0583C49.3094 48.4469 49.7411 48.8497 50.1798 49.2312C50.6114 49.6056 51.043 49.9801 51.4675 50.3333C51.5949 50.4463 51.7223 50.5452 51.8567 50.6512C51.4676 50.4464 51.0503 50.27 50.6471 50.0369C50.2438 49.8039 49.8265 49.585 49.4232 49.3237C49.0129 49.0694 48.6097 48.8222 48.2276 48.5397C47.8385 48.2642 47.4494 48.0029 47.0957 47.7203C46.7419 47.4377 46.3811 47.1763 46.0556 46.9079C45.7372 46.6323 45.4329 46.3709 45.157 46.1378C45.0226 46.0177 44.8811 45.9047 44.7537 45.7916C44.6334 45.6715 44.5131 45.5655 44.3999 45.4666C44.1805 45.2617 43.9895 45.0851 43.8267 44.9367C43.5154 44.64 43.3314 44.4704 43.3314 44.4704C43.3314 44.4704 43.4659 44.6754 43.6995 45.0358C43.8199 45.2125 43.9615 45.4387 44.1314 45.6931C44.2163 45.8203 44.3083 45.9546 44.3933 46.096C44.4924 46.2373 44.5915 46.3786 44.7047 46.5341C44.9242 46.838 45.1648 47.1631 45.4126 47.5094C45.6745 47.8557 45.9647 48.202 46.2478 48.5694C46.538 48.944 46.8635 49.2973 47.1961 49.6718C47.5217 50.0534 47.8755 50.4067 48.2293 50.7741C48.5761 51.1486 48.9582 51.4878 49.3332 51.834C49.7012 52.1872 50.1044 52.491 50.4653 52.8089C50.6563 52.9573 50.8544 53.0985 51.0455 53.2469C51.1516 53.3246 51.2648 53.4094 51.3709 53.4871C50.1269 54.181 48.2529 53.9632 47.2852 55.3569C45.8514 57.4439 42.6129 57.4888 40.7618 59.5973C39.7021 60.8002 39.1509 61.3805 38.9178 61.6706C38.7198 61.5717 38.5217 61.4587 38.3095 61.3457C38.0407 61.2045 37.7718 61.0492 37.4818 60.9009C37.2059 60.7385 36.9088 60.569 36.6117 60.3995C36.0033 60.0605 35.3949 59.665 34.7512 59.2766C34.4328 59.0718 34.1145 58.8528 33.789 58.6409C33.4636 58.429 33.1311 58.2101 32.8127 57.977C32.3741 57.6662 31.9354 57.3554 31.5039 57.0375C33.1151 55.7918 33.9489 54.9285 32.1517 53.4166C30.5739 52.0955 29.5429 53.9913 28.9285 55.003C28.6454 54.7627 28.3554 54.5296 28.0794 54.2823C27.7893 54.0209 27.5062 53.7524 27.2303 53.5052C26.9543 53.2437 26.6713 53.0035 26.4095 52.7421C26.1476 52.4807 25.9 52.2334 25.6594 51.979C25.4117 51.7317 25.1711 51.4914 24.9446 51.2512C24.7111 51.018 24.52 50.7707 24.3077 50.5446C23.9043 50.0853 23.5363 49.6613 23.2108 49.2938C22.9064 48.9051 22.6445 48.5588 22.4322 48.2762C21.9934 47.7108 21.7527 47.3857 21.7527 47.3857C21.7527 47.3857 21.9722 47.732 22.3545 48.3399C22.5456 48.6438 22.7721 49.0113 23.0412 49.4354C23.3314 49.8382 23.6641 50.2976 24.0251 50.7993C24.202 51.0467 24.3861 51.3153 24.5913 51.5767C24.8037 51.8311 25.016 52.0997 25.2354 52.3753C25.4548 52.6509 25.6813 52.9336 25.9219 53.2162C26.1626 53.4989 26.4244 53.7745 26.6721 54.0642C26.9339 54.3539 27.1958 54.6436 27.4647 54.9404C27.7407 55.2301 28.0308 55.5057 28.3139 55.8024C28.328 55.8166 28.3422 55.8307 28.3493 55.8378L26.0533 58.6467C25.933 58.4983 25.8056 58.3428 25.6852 58.1944C25.4729 57.9118 25.2535 57.622 25.0411 57.3393C24.5952 56.781 24.1847 56.1874 23.7741 55.622C23.3706 55.0495 22.9742 54.47 22.599 53.9117C22.2451 53.3463 21.8628 52.8091 21.5442 52.2791C21.2186 51.756 20.9071 51.2613 20.6239 50.7948C20.3407 50.3283 20.1 49.9043 19.8734 49.5226C19.6539 49.1338 19.4627 48.8017 19.307 48.5331C19.0025 47.9747 18.8255 47.6566 18.8255 47.6566C18.8255 47.6566 18.9177 48.003 19.1302 48.611C19.2365 48.915 19.3712 49.2755 19.5341 49.6926C19.7041 50.1025 19.8883 50.5691 20.1291 51.0639C20.2495 51.3113 20.3628 51.5658 20.4903 51.8344C20.6249 52.0959 20.7665 52.3645 20.9081 52.6472C21.1914 53.2127 21.5241 53.7852 21.864 54.3789C22.041 54.6687 22.2251 54.9656 22.4091 55.2624C22.5932 55.5592 22.7773 55.8702 22.9826 56.16C23.3931 56.7537 23.8037 57.3615 24.2496 57.9339C24.469 58.2236 24.7026 58.5134 24.922 58.8031C25.1485 59.0858 25.3962 59.3614 25.6227 59.6299C25.8562 59.9055 26.0898 60.1811 26.3304 60.4355C26.5781 60.6828 26.8187 60.9372 27.0593 61.1915C27.2999 61.4318 27.5263 61.6862 27.774 61.9052C28.0216 62.1242 28.2551 62.3432 28.4957 62.5552C28.7292 62.7601 28.9557 62.972 29.175 63.1628C29.3944 63.3535 29.6349 63.5231 29.8472 63.6926C30.2787 64.0246 30.682 64.3284 31.0428 64.5897C31.4178 64.8369 31.7432 65.0347 32.0191 65.2113C32.5568 65.5503 32.8751 65.7268 32.8751 65.7268C32.8751 65.7268 32.6133 65.4654 32.1392 65.0485C31.8986 64.8366 31.6227 64.5752 31.283 64.2926C30.9717 63.9817 30.6179 63.6284 30.2287 63.2539C30.0376 63.0631 29.8253 62.8795 29.6342 62.6604C29.429 62.4555 29.2309 62.2294 29.0186 62.0032C28.7992 61.7842 28.594 61.551 28.3675 61.3108C28.1552 61.0705 27.9358 60.8232 27.7093 60.5688C27.6174 60.4769 27.5395 60.3709 27.4546 60.272L30.4509 57.809C30.9391 58.2541 31.4485 58.678 31.9438 59.1161C32.2481 59.3916 32.5665 59.6388 32.8849 59.8861C33.1962 60.1404 33.5075 60.3806 33.8117 60.6279C34.4343 61.0941 35.0287 61.5603 35.6088 61.97C35.8989 62.1749 36.1818 62.3726 36.4578 62.5775C36.7337 62.7682 37.0096 62.9448 37.2643 63.1284C37.7737 63.4816 38.2689 63.7782 38.7004 64.0537C38.9268 64.1949 39.1461 64.3291 39.3442 64.4421C38.8355 65.0082 38.2844 65.6025 37.6909 66.2252C36.4615 67.5272 35.3805 68.7089 34.3984 69.7491C34.4125 69.7208 34.4337 69.6854 34.4478 69.6571C34.6102 69.3105 34.7514 68.9852 34.8643 68.7022C34.9208 68.5608 34.9631 68.4335 35.0125 68.3132C35.0548 68.2 35.0901 68.094 35.1113 68.0162C35.1677 67.8464 35.1959 67.7615 35.1959 67.7615C35.1959 67.7615 35.1253 67.8323 35.0122 67.9597C34.9486 68.0234 34.8851 68.1012 34.7932 68.179C34.7084 68.2639 34.6166 68.3559 34.5106 68.4621C34.2986 68.6602 34.0371 68.8938 33.7615 69.1273C33.4859 69.3609 33.175 69.6015 32.8711 69.8351C32.3411 70.2386 31.7898 70.6067 31.3446 70.8969C30.913 70.579 30.4107 70.2046 29.8447 69.7949C28.9037 69.1098 27.8071 68.3257 26.6185 67.4922C25.43 66.6587 24.1565 65.7828 22.8689 64.9211C22.2322 64.4832 21.5743 64.0665 20.9446 63.6498C20.315 63.2331 19.6713 62.8446 19.0628 62.4491C18.4474 62.0607 17.839 61.7076 17.2801 61.3615C16.7142 61.0225 16.1624 60.7118 15.6601 60.4223C15.1579 60.1327 14.6769 59.8927 14.2666 59.6667C13.8563 59.4407 13.4884 59.2572 13.1843 59.1089C12.5759 58.8124 12.2364 58.6429 12.2364 58.6429C12.2364 58.6429 12.5618 58.8407 13.1348 59.2009C13.4249 59.3774 13.7645 59.5893 14.1606 59.8577C14.5497 60.1191 14.9954 60.4086 15.4624 60.7477C15.9293 61.0868 16.4387 61.4399 16.9764 61.8355C17.5 62.2311 18.0589 62.6479 18.632 63.0929C19.1556 63.5026 19.7003 63.9194 20.2381 64.3574L16.9661 66.8842C16.0461 65.9374 15.0695 64.9199 13.9797 63.7752C10.5688 60.214 9.18888 58.7937 13.4566 54.5196C22.8894 45.0726 22.4581 35.6543 32.3566 24.9201C33.4305 23.7596 34.4974 22.6486 35.5785 21.5942L35.4654 21.6367ZM19.2801 69.322L21.9363 65.8694C21.9363 65.8694 21.9999 65.933 22.0424 65.9612C23.2311 66.9361 24.3985 67.9323 25.4811 68.8719C26.5637 69.8115 27.5685 70.7017 28.4317 71.4648C29.2879 72.2349 30.0025 72.8778 30.4837 73.33C30.4979 73.3441 30.512 73.3583 30.5262 73.3724C28.3848 74.9791 26.5819 75.1997 24.2613 73.4902C22.3298 72.0704 20.7803 70.7493 19.2731 69.3291L19.2801 69.322Z" fill="#262626"/>
<path d="M50.6827 12.5393C50.0888 12.7094 49.5587 12.9149 49.0921 13.0991C48.6326 13.2903 48.2297 13.4674 47.9116 13.6303C47.5794 13.779 47.3391 13.9206 47.1765 14.0127C47.0069 14.0977 46.915 14.1472 46.915 14.1472C46.915 14.1472 47.0069 14.1118 47.1836 14.0339C47.3603 13.956 47.6219 13.8497 47.9541 13.7151C48.6186 13.4459 49.58 13.1058 50.7677 12.8079C51.3616 12.6519 52.005 12.5454 52.6979 12.4458C53.3837 12.3534 54.1261 12.3175 54.8827 12.324C55.6393 12.3305 56.4172 12.4148 57.1951 12.5556C57.9731 12.6964 58.7581 12.9009 59.5149 13.1761C60.2717 13.4513 61.0074 13.776 61.7148 14.1432C62.408 14.5245 63.0871 14.92 63.7097 15.3579C64.021 15.5698 64.3181 15.7959 64.6224 16.0149C64.9054 16.2409 65.1955 16.4599 65.4643 16.686C66.0021 17.1381 66.4974 17.5762 66.9432 17.993C67.1625 18.2121 67.3677 18.417 67.5729 18.6077C67.7711 18.8056 67.9551 18.9893 68.132 19.1659C68.4858 19.5192 68.7689 19.8443 69.0166 20.1057C69.4907 20.6357 69.7667 20.9395 69.7667 20.9395C69.7667 20.9395 69.5261 20.6144 69.0872 20.0349C68.8537 19.7594 68.5918 19.4131 68.2662 19.0315C68.1035 18.8407 67.9265 18.6357 67.7425 18.4238C67.5585 18.2118 67.3462 17.9998 67.141 17.7807C66.7093 17.3356 66.2281 16.8693 65.7045 16.3888C65.4427 16.1557 65.1597 15.9155 64.8767 15.6753C64.5795 15.4492 64.2823 15.209 63.9711 14.983C63.3414 14.5238 62.6693 14.093 61.9478 13.6976C61.2262 13.3163 60.4694 12.9703 59.6843 12.681C58.9062 12.3988 58.0929 12.1943 57.2867 12.0535C56.4805 11.9127 55.6673 11.8496 54.8895 11.8644C54.1046 11.872 53.3551 11.9433 52.6552 12.064C51.9552 12.1848 51.2977 12.3338 50.7039 12.518L50.6827 12.5393Z" fill="#262626"/>
<path d="M48.9654 23.1047C49.2132 23.5217 49.4327 23.9529 49.6311 24.4053C49.8365 24.8648 50.0207 25.3172 50.2048 25.7696C50.5803 26.6673 50.8992 27.5793 51.1968 28.4559C51.7709 30.2161 52.1469 31.92 52.2753 33.3907C52.3324 34.126 52.3471 34.8048 52.291 35.3988C52.2419 35.9999 52.1433 36.5091 52.0234 36.9264C51.9035 37.3437 51.7694 37.662 51.6635 37.8671C51.5647 38.0793 51.5011 38.1854 51.5011 38.1854C51.5011 38.1854 51.5788 38.0934 51.7201 37.8953C51.8543 37.7043 52.0379 37.4072 52.2214 36.9969C52.405 36.5867 52.5672 36.0704 52.6799 35.448C52.7855 34.8328 52.8557 34.1256 52.8268 33.362C52.8195 32.9731 52.7909 32.5771 52.7482 32.167C52.7054 31.7569 52.6415 31.3398 52.5563 30.9014C52.4071 30.0318 52.1731 29.1481 51.8825 28.2361C51.6061 27.3242 51.2448 26.4123 50.8552 25.4863C50.6639 25.0268 50.4444 24.5673 50.2248 24.122C50.0053 23.6626 49.7716 23.2031 49.5026 22.7649C48.9645 21.8885 48.278 21.0759 47.4502 20.4613C46.6295 19.8397 45.6675 19.4303 44.6916 19.2754C43.7228 19.1135 42.7753 19.1708 41.9127 19.3411C41.0431 19.5044 40.2584 19.7808 39.5586 20.0712C38.8588 20.3617 38.2439 20.6945 37.7138 20.9989C37.1837 21.3175 36.7384 21.6078 36.385 21.8626C35.6713 22.3793 35.2967 22.7119 35.2967 22.7119C35.2967 22.7119 35.6925 22.4005 36.4417 21.9474C37.1838 21.4872 38.2794 20.8712 39.679 20.3469C40.3789 20.0848 41.1565 19.872 41.9837 19.7371C42.818 19.6092 43.716 19.5873 44.6001 19.7775C45.4841 19.9536 46.3541 20.3419 47.09 20.9353C47.8329 21.5217 48.4415 22.2849 48.9371 23.1189L48.9654 23.1047Z" fill="#262626"/>
</g>
<defs>
<clipPath id="clip0_0_2074">
<rect width="50.79" height="75.79" fill="white" transform="translate(53.5513) rotate(44.957)"/>
</clipPath>
</defs>
</svg>
