<svg width="90" height="47" viewBox="0 0 90 47" fill="none" xmlns="http://www.w3.org/2000/svg">
<g clip-path="url(#clip0_0_2194)">
<path d="M88.6654 11.2865C87.8553 9.2307 84.6695 8.42063 78.1277 6.92983C74.1046 6.01084 69.5437 4.97613 65.7384 3.42407C57.9373 0.245063 48.0599 0 45.2212 0C44.9898 0 44.84 0 44.7788 0C44.7175 0 44.5677 0 44.3363 0C41.4976 0 31.6203 0.245063 23.8191 3.42407C20.0138 4.96933 15.4529 6.01084 11.4298 6.92983C4.87439 8.42063 1.69538 9.22389 0.885311 11.2865C-0.0609036 13.6759 0.000362158 22.1033 0.000362158 23.138C-0.00644514 24.1727 -0.0609036 32.6001 0.878504 34.9895C1.68857 37.0453 4.87439 37.8554 11.4162 39.3462C15.4393 40.2652 20.0002 41.2999 23.8055 42.8519C31.6135 46.0309 41.484 46.276 44.3227 46.276C44.5541 46.276 44.7039 46.276 44.7652 46.276C44.8264 46.276 44.9762 46.276 45.2076 46.276C48.0463 46.276 57.9237 46.0309 65.7248 42.8519C69.5301 41.3067 74.091 40.2652 78.1141 39.3462C84.6559 37.8554 87.8417 37.0453 88.6518 34.9895C89.5912 32.6001 89.5436 24.1727 89.5299 23.138C89.5368 22.1033 89.5912 13.6759 88.6518 11.2865H88.6654ZM1.6205 29.7139C1.51839 28.1958 1.44351 26.3579 1.42309 24.2408C1.42309 23.1857 1.39586 22.0625 1.39586 20.8712C1.39586 19.6867 1.42309 18.4342 1.47755 17.134C1.50477 16.4805 1.54562 15.8202 1.59327 15.1394C1.64773 14.4655 1.70899 13.7712 1.81791 13.07C1.83833 12.893 1.87918 12.716 1.91321 12.539C1.92683 12.4505 1.95406 12.3552 1.97448 12.2668C1.9949 12.1783 2.01532 12.083 2.04255 12.0013L2.0834 11.8719L2.10382 11.8107L2.11743 11.7766C2.11743 11.7766 2.13105 11.7494 2.13785 11.729C2.1787 11.6269 2.23316 11.5384 2.29442 11.4567C2.41695 11.2865 2.55991 11.1504 2.70967 11.0346C3.32913 10.5649 4.03028 10.2858 4.73143 10.0203C6.15416 9.5098 7.64496 9.13539 9.16298 8.76099C10.6878 8.38659 12.2467 8.04623 13.826 7.67182C16.9846 6.92302 20.2453 6.11295 23.4175 4.91487C23.8123 4.76511 24.2003 4.60173 24.6087 4.45197C25.0104 4.30221 25.4188 4.14564 25.8272 3.99588C26.2357 3.85293 26.6509 3.7304 27.0662 3.59425L27.6856 3.39684L28.3119 3.22666C29.9865 2.75696 31.7019 2.41659 33.4174 2.12388C35.1396 1.83797 36.8687 1.64737 38.5977 1.49761C40.3268 1.35465 42.049 1.26616 43.7645 1.24574C47.1885 1.20489 50.565 1.41592 53.7984 1.83116C55.4186 2.02857 56.9979 2.30767 58.5363 2.62762C59.2987 2.81141 60.0611 2.96117 60.8031 3.17901C61.1707 3.28112 61.5451 3.37642 61.9059 3.48534C62.2667 3.60106 62.6275 3.71678 62.9883 3.83251C63.1653 3.88697 63.3423 3.94823 63.5261 4.00269C63.7031 4.06396 63.8732 4.13203 64.0434 4.2001C64.3838 4.32944 64.731 4.45878 65.0645 4.58812C65.3981 4.72426 65.7384 4.8536 66.0652 4.98294C66.3987 5.11228 66.7255 5.23481 67.0522 5.35054C68.3661 5.82024 69.6594 6.21506 70.9052 6.56904C73.4035 7.27019 75.7247 7.81478 77.7805 8.3049C79.8363 8.79503 81.6267 9.22389 83.0902 9.65275C84.547 10.0748 85.6702 10.5105 86.3645 10.9529C86.7117 11.1708 86.9364 11.3886 87.0589 11.5656C87.1202 11.6473 87.161 11.7222 87.1814 11.7698C87.161 11.7222 87.1202 11.6541 87.0521 11.5724C86.9296 11.4022 86.6913 11.1912 86.3441 10.987C85.6498 10.5649 84.5198 10.1701 83.0562 9.77528C81.5926 9.38046 79.7955 8.98563 77.7329 8.53635C75.6703 8.08707 73.3354 7.59014 70.8167 6.90941C69.5573 6.56904 68.2571 6.18783 66.9229 5.73174C66.5893 5.61602 66.2558 5.5003 65.9222 5.37096C65.5887 5.24162 65.2551 5.11228 64.9147 4.98975C64.5744 4.86722 64.234 4.73788 63.8868 4.61535C63.7167 4.55408 63.5397 4.48601 63.3695 4.42474C63.1925 4.37029 63.0155 4.31583 62.8453 4.26137C62.4914 4.15245 62.1374 4.04353 61.7834 3.93462C61.4226 3.83251 61.055 3.74401 60.6874 3.64871C59.9522 3.44449 59.1966 3.30154 58.441 3.13136C56.9094 2.83864 55.3437 2.55954 53.7372 2.36894C50.5241 1.96731 47.1749 1.7767 43.7713 1.83116C42.0763 1.85839 40.3608 1.94689 38.6454 2.09665C36.93 2.24641 35.2145 2.44382 33.5127 2.73653C31.8109 3.02244 30.1158 3.34919 28.4617 3.80528L27.8422 3.96865L27.2296 4.15926C26.8211 4.2886 26.4127 4.40432 26.011 4.54727C25.6094 4.69704 25.2146 4.83999 24.813 4.98975C24.4181 5.1327 24.0165 5.30289 23.6149 5.45265C20.3882 6.65754 17.1139 7.4608 13.9417 8.19599C12.3556 8.55677 10.7967 8.91075 9.2719 9.25793C7.75387 9.6119 6.26308 9.96588 4.87439 10.4492C4.18685 10.6943 3.49931 10.9666 2.96154 11.375C2.82539 11.4771 2.70967 11.5928 2.61436 11.7154C2.56671 11.7766 2.53268 11.8379 2.49864 11.906C2.49864 11.906 2.48503 11.9332 2.49183 11.9196L2.47822 11.9536L2.4578 12.0149L2.41695 12.1442C2.38292 12.2327 2.3693 12.3076 2.34888 12.3893C2.32846 12.471 2.30804 12.5458 2.28761 12.6343C2.25358 12.8045 2.21954 12.9747 2.19231 13.1449C2.07659 13.8256 2.00171 14.5132 1.94725 15.1803C1.88598 15.8542 1.84514 16.5145 1.8043 17.1612C1.72942 18.4546 1.69538 19.7003 1.67496 20.8848C1.64773 22.0693 1.65454 23.1925 1.63411 24.2476C1.61369 26.3579 1.65454 28.2026 1.72261 29.7139C1.79749 31.2251 1.8996 32.4164 2.02213 33.2196C2.04936 33.417 2.0834 33.594 2.11062 33.7506C2.14466 33.9003 2.17189 34.0297 2.19912 34.1318C2.26038 34.3292 2.29442 34.4381 2.29442 34.4381C2.29442 34.4381 2.26039 34.336 2.19231 34.1386C2.16508 34.0365 2.13105 33.9072 2.09701 33.7574C2.06978 33.6076 2.02894 33.4306 1.9949 33.2264C1.85875 32.4232 1.70899 31.2387 1.60688 29.7207L1.6205 29.7139ZM72.2326 16.0176V16.1741V16.814C72.2326 17.6649 72.2326 18.5227 72.2258 19.36C72.2258 20.1973 72.2122 21.0277 72.2054 21.8242C72.1917 22.6207 72.1849 23.3967 72.1713 24.1319C72.1577 24.8671 72.1441 25.5546 72.1305 26.1945C72.1033 27.4743 72.0624 28.5362 72.042 29.285C72.0352 29.6594 72.0148 29.9521 72.008 30.1495C72.0011 30.3469 71.9943 30.4559 71.9943 30.4559C71.9943 30.4559 71.9943 30.3469 71.9807 30.1495C71.9739 29.9521 71.9603 29.6594 71.9467 29.285C71.9263 28.5362 71.8854 27.4743 71.8582 26.1945C71.8446 25.5546 71.831 24.8603 71.8174 24.1319C71.8105 23.3967 71.7969 22.6275 71.7833 21.8242C71.7833 21.0277 71.7629 20.1973 71.7629 19.36C71.7629 18.5227 71.7629 17.6649 71.7561 16.814V16.1741V16.0176C71.7561 15.9631 71.7561 15.9155 71.7561 15.8474C71.7561 15.7249 71.7833 15.5955 71.8174 15.4798C71.9603 15.0033 72.2803 14.6357 72.641 14.3634C73.0018 14.0911 73.4171 13.9005 73.8459 13.8052C74.2748 13.7031 74.7173 13.6827 75.1461 13.7644C75.929 13.9277 76.6846 14.0911 77.3993 14.2409C78.1141 14.3974 78.7948 14.5404 79.4211 14.6765C80.6736 14.9488 81.7084 15.1939 82.4367 15.3573C82.7975 15.439 83.0834 15.507 83.2808 15.5547C83.4782 15.6023 83.5804 15.6227 83.5804 15.6227C83.5804 15.6227 83.4783 15.6091 83.274 15.5751C83.0766 15.5411 82.7839 15.5002 82.4163 15.439C81.6811 15.3164 80.626 15.153 79.3666 14.9284C78.7336 14.8195 78.0528 14.697 77.3313 14.5676C76.6097 14.4383 75.8473 14.2953 75.0644 14.1524C74.3429 14.0298 73.526 14.2409 72.9133 14.7106C72.607 14.942 72.3551 15.2552 72.253 15.5955C72.2258 15.684 72.2122 15.7657 72.2122 15.8542C72.2122 15.895 72.2122 15.9495 72.2122 16.004L72.2326 16.0176ZM72.6819 16.3375C72.6819 15.2552 73.8732 14.5676 75.2755 14.7923L83.2264 16.0652C84.1862 16.2218 84.935 17.0182 84.935 17.8623V28.4069C84.935 29.251 84.1862 30.0474 83.2264 30.204L75.2755 31.4769C73.8732 31.7016 72.6819 31.014 72.6819 29.9317V16.3443V16.3375ZM59.2307 34.9827C55.7998 39.1624 50.599 41.824 44.772 41.824C38.9449 41.824 33.7441 39.1556 30.3133 34.9827H27.0117C24.5271 34.9827 22.5121 32.9677 22.5121 30.4831V15.7861C22.5121 13.3015 24.5271 11.2865 27.0117 11.2865H30.3133C33.7441 7.10682 38.9449 4.44517 44.772 4.44517C50.599 4.44517 55.7998 7.11363 59.2307 11.2865H62.2191C64.7037 11.2865 66.7187 13.3015 66.7187 15.7861V30.4831C66.7187 32.9677 64.7037 34.9827 62.2191 34.9827H59.2307ZM22.1309 14.554C22.0696 14.8059 22.0288 15.0645 22.0152 15.3232C22.0015 15.5751 22.0084 15.861 22.0015 16.1265L21.9879 17.767L21.9471 21.0414C21.9335 22.1305 21.9199 23.2265 21.8994 24.3157L21.845 27.59L21.8109 29.2305L21.7701 30.8711L21.7293 29.2305L21.6952 27.59L21.6408 24.3157C21.6203 23.2265 21.6067 22.1305 21.5931 21.0414L21.5523 17.767L21.5387 16.1265C21.5387 15.8542 21.5318 15.5887 21.5387 15.296C21.5523 15.0101 21.5931 14.7242 21.6544 14.4451C21.7769 13.8869 21.9947 13.3491 22.2738 12.8522C22.5597 12.3621 22.9137 11.906 23.3358 11.5111C23.751 11.1163 24.2275 10.7828 24.7517 10.5445C25.2759 10.2994 25.8477 10.1497 26.4399 10.1225C26.5148 10.1225 26.5692 10.1225 26.6509 10.1225H26.8552H27.2636H28.0805L29.5781 10.1156C30.463 9.0469 31.4705 8.07345 32.5733 7.22254C33.7101 6.3444 34.9626 5.60921 36.2765 5.02379C37.5903 4.43836 38.9653 4.00269 40.3744 3.72359C41.0756 3.58064 41.7904 3.48534 42.5051 3.41726C43.2131 3.34919 43.9415 3.32196 44.6494 3.32877C46.0858 3.33558 47.5153 3.49214 48.9108 3.81209C50.3063 4.12522 51.6746 4.59493 52.9611 5.21439C53.6078 5.52753 54.2341 5.8747 54.8331 6.2491C55.439 6.63031 56.0176 7.04555 56.5758 7.49483C57.6786 8.38659 58.6725 9.39407 59.5506 10.4969L60.9257 10.5309L62.3348 10.5717L60.9257 10.6126L59.5166 10.6466H59.4825L59.4621 10.6194C58.5499 9.54383 57.522 8.57039 56.3988 7.72628C55.8406 7.30423 55.2552 6.90941 54.6562 6.54862C54.0571 6.18783 53.4308 5.86789 52.791 5.57518C51.518 4.99656 50.177 4.56089 48.8087 4.28179C47.4404 4.00269 46.0449 3.86654 44.6494 3.86654C43.9415 3.86654 43.2539 3.90739 42.5596 3.97546C41.8652 4.04353 41.1777 4.15245 40.4902 4.2954C39.1219 4.5745 37.7877 5.00336 36.5215 5.57518C35.2554 6.14699 34.0505 6.86856 32.9477 7.70586C31.8449 8.54997 30.8374 9.52341 29.9525 10.599L29.864 10.7079H29.721H28.0805H27.2636H26.8552H26.6509C26.6033 10.7079 26.5216 10.7079 26.4535 10.7079C25.9498 10.7215 25.446 10.8508 24.9763 11.0619C24.5066 11.2729 24.0778 11.5656 23.6966 11.9196C23.3154 12.2736 22.9886 12.682 22.7163 13.1313C22.4508 13.5806 22.2466 14.0639 22.1241 14.5676L22.1309 14.554ZM4.61571 17.8623C4.61571 17.0251 5.36451 16.2218 6.32434 16.0652L14.2753 14.7923C15.6776 14.5676 16.8688 15.2552 16.8688 16.3375V29.9249C16.8688 31.0072 15.6776 31.6948 14.2753 31.4701L6.32434 30.1972C5.36451 30.0406 4.61571 29.2442 4.61571 28.4V17.8555V17.8623ZM4.52722 16.3239C4.3298 16.569 4.20727 16.8753 4.16643 17.202C4.1392 17.3654 4.13239 17.5356 4.13239 17.7058C4.13239 17.8896 4.13239 18.0666 4.13239 18.2504C4.13239 18.6112 4.13239 18.9719 4.13239 19.3259C4.13239 20.0407 4.12558 20.7418 4.11197 21.4226C4.11197 22.1033 4.09836 22.7568 4.08474 23.3831C4.07113 24.0093 4.05751 24.5948 4.0439 25.1393C4.01667 26.2285 3.97582 27.1339 3.9554 27.767C3.94859 28.0869 3.92817 28.332 3.92137 28.5022C3.91456 28.6723 3.90775 28.7608 3.90775 28.7608C3.90775 28.7608 3.90775 28.6723 3.89414 28.5022C3.88733 28.332 3.87371 28.0801 3.8601 27.767C3.83968 27.1339 3.79203 26.2285 3.77161 25.1393C3.75799 24.5948 3.74438 24.0093 3.73076 23.3831C3.71715 22.7568 3.70353 22.1033 3.70353 21.4226C3.69672 20.7418 3.68311 20.0407 3.68311 19.3259C3.68311 18.9719 3.68311 18.6112 3.68311 18.2504C3.68311 18.0666 3.68311 17.8896 3.68311 17.7058C3.68311 17.522 3.68992 17.3246 3.72395 17.1272C3.77841 16.7391 3.92817 16.3443 4.19366 16.0312C4.45233 15.7112 4.79951 15.4934 5.15349 15.3505C5.33048 15.2756 5.51427 15.2211 5.69126 15.1803C5.77976 15.1599 5.87506 15.1394 5.96356 15.1258L6.09289 15.1054L6.16097 15.0918H6.22904C6.57621 15.0373 6.91658 14.9965 7.25694 14.9488C7.93086 14.8671 8.58436 14.7854 9.20383 14.7038C9.82329 14.6289 10.4087 14.5608 10.9465 14.4995C12.0289 14.3702 12.9274 14.2885 13.5605 14.2204C13.8736 14.1864 14.1255 14.166 14.2957 14.1524C14.4659 14.1388 14.5544 14.1251 14.5544 14.1251C14.5544 14.1251 14.4659 14.1388 14.2957 14.1728C14.1255 14.2068 13.8872 14.2545 13.5741 14.3089C12.9478 14.4179 12.0561 14.588 10.9873 14.765C10.4496 14.8535 9.87094 14.9556 9.25829 15.0509C8.64563 15.1462 7.99213 15.2483 7.32501 15.3573C6.99146 15.4117 6.65109 15.4594 6.30392 15.5138L6.18139 15.5343L6.05205 15.5615C5.97036 15.5751 5.88867 15.5955 5.80699 15.6159C5.64361 15.6568 5.48704 15.7112 5.33048 15.7725C5.02415 15.9018 4.75186 16.0788 4.55444 16.3307L4.52722 16.3239Z" fill="#262626"/>
<path d="M54.6764 12.1643C54.6423 12.1371 54.6083 12.1234 54.5879 12.103C54.6083 12.1166 54.6355 12.1371 54.6764 12.1643Z" fill="#262626"/>
<path d="M54.5602 10.3807C54.5602 10.3807 54.5535 10.3741 54.5469 10.3674L54.5602 10.3807Z" fill="#262626"/>
<path d="M56.9696 12.6604C56.9696 12.6604 56.963 12.6474 56.9565 12.6409L56.9696 12.6604Z" fill="#262626"/>
<path d="M57.4808 16.6637C57.4808 16.6637 57.4808 16.6504 57.4741 16.6504V16.6637H57.4808Z" fill="#262626"/>
<path d="M58.7676 32.0352C58.7268 32.0556 57.7806 31.8718 56.705 32.0556C56.7323 31.9263 56.7663 31.7901 56.8003 31.6472C57.202 31.6472 57.7942 31.511 58.3728 30.8575C58.6451 30.8099 58.965 30.6601 59.319 30.3197C60.4763 29.1285 59.884 28.1618 61.0957 26.5893C61.0685 26.6302 60.1904 26.7868 59.2986 27.3041C59.2918 27.1884 59.285 27.0727 59.2782 26.9501C59.6254 26.8208 60.1768 26.4804 60.5171 25.6227C60.7349 25.4798 60.9664 25.2279 61.1774 24.799C61.8241 23.3559 61.0413 22.8045 61.6335 21.0142C61.6335 21.0618 60.9256 21.5383 60.2993 22.3212C60.2516 22.1986 60.1972 22.0761 60.1495 21.94C60.4082 21.7085 60.8234 21.2048 60.8779 20.313C61.0277 20.102 61.1502 19.8025 61.2047 19.3668C61.3544 17.9032 60.5511 17.7603 60.5784 16.0176C60.592 16.0653 60.1223 16.7324 59.8023 17.6241C59.707 17.522 59.6186 17.4131 59.5233 17.2838C59.6798 16.9843 59.8636 16.4192 59.6934 15.6704C59.7615 15.439 59.7887 15.1395 59.7207 14.7515C59.4688 13.4581 58.7676 13.6283 58.366 12.1306C58.3932 12.1647 58.1686 12.9067 58.1209 13.7848C58.0052 13.7236 57.8827 13.6487 57.7602 13.5602C57.8214 13.2539 57.8487 12.6888 57.5083 12.083C57.5083 11.8584 57.4538 11.5929 57.3109 11.2797C56.7935 10.2518 56.2626 10.6398 55.5818 9.46899C55.6159 9.48942 55.6022 10.211 55.7724 10.987C55.4389 10.9326 55.0645 10.8236 54.5539 10.3676C54.622 10.4629 54.8126 11.1096 55.1325 11.8175C54.8262 11.872 54.4995 11.9332 53.9481 11.6065C54.057 11.7154 54.8943 13.6351 55.9835 13.8529C56.1264 14.3839 56.5076 16.2559 57.4743 16.8685C57.4606 17.5356 57.3517 19.4485 58.0869 20.4832C57.8827 21.1435 57.1747 23.0359 57.5559 24.4382C57.2905 24.8126 56.8071 25.5274 56.3987 26.3102C56.0651 26.9706 55.7928 27.6649 55.786 28.3729C55.4048 28.6588 54.6765 29.2442 54.023 29.9045C53.5192 30.4287 53.0631 31.0005 52.8249 31.6676C52.3143 31.8174 51.4838 32.0896 50.6942 32.4436C49.5165 33.0086 48.4342 33.7506 48.2708 35.3571C47.8147 35.8064 47.4267 36.4055 47.1544 37.2155C46.5349 37.3585 45.7725 37.5491 44.9012 37.8146C43.8937 37.5083 43.0224 37.2972 42.3689 37.1543C42.0966 36.3782 41.7154 35.7996 41.2729 35.3571C41.1095 33.7438 40.034 33.0018 38.8495 32.4436C38.0666 32.0896 37.2293 31.8174 36.7188 31.6676C36.4805 31.0005 36.0245 30.4287 35.5207 29.9045C34.8604 29.2442 34.132 28.6588 33.7576 28.3729C33.7508 27.6649 33.4717 26.9706 33.145 26.3102C32.7365 25.5342 32.2532 24.8126 31.9877 24.4382C32.3689 23.0359 31.661 21.1435 31.4568 20.4832C32.1919 19.4485 32.083 17.5356 32.0694 16.8685C33.0361 16.2627 33.4241 14.3839 33.5602 13.8529C34.6494 13.6351 35.4867 11.7154 35.5956 11.6065C35.0442 11.9332 34.7175 11.872 34.4111 11.8175C34.7379 11.1096 34.9217 10.4629 34.9897 10.3676C34.4792 10.8305 34.1048 10.9394 33.7712 10.987C33.9414 10.211 33.9278 9.49622 33.9618 9.46899C33.2811 10.6398 32.7501 10.2518 32.2328 11.2797C32.083 11.5929 32.0354 11.8584 32.0354 12.083C31.695 12.6888 31.7222 13.2539 31.7835 13.5602C31.661 13.6555 31.5384 13.7236 31.4227 13.7848C31.3751 12.9067 31.1504 12.1647 31.1777 12.1306C30.7692 13.6283 30.0681 13.4581 29.823 14.7515C29.7617 15.1395 29.7822 15.439 29.8502 15.6704C29.6732 16.4192 29.8638 16.9774 30.0204 17.2838C29.9251 17.4131 29.8366 17.522 29.7413 17.6241C29.4214 16.7324 28.9517 16.0585 28.9653 16.0176C28.9925 17.7535 28.1893 17.9032 28.339 19.3668C28.3935 19.8025 28.5228 20.102 28.6658 20.313C28.727 21.2116 29.1355 21.7085 29.3941 21.94C29.3465 22.0761 29.2988 22.1986 29.2444 22.3212C28.6181 21.5451 27.9102 21.0686 27.9102 21.0142C28.5024 22.7977 27.7196 23.3491 28.3662 24.799C28.5705 25.2211 28.8019 25.4729 29.0266 25.6227C29.3737 26.4804 29.9183 26.814 30.2655 26.9501C30.2655 27.0727 30.2519 27.1884 30.2451 27.3041C29.3465 26.7868 28.4684 26.6234 28.4479 26.5893C29.6596 28.1618 29.0606 29.1285 30.2246 30.3197C30.5786 30.6601 30.8986 30.8099 31.1709 30.8575C31.7495 31.511 32.3485 31.6472 32.7433 31.6472C32.7774 31.7833 32.8114 31.9195 32.8386 32.0556C31.7631 31.8718 30.8169 32.0556 30.776 32.0352C32.5051 33.1992 32.226 34.479 33.7917 35.255C34.2614 35.4661 34.6358 35.4933 34.9217 35.4252C35.7454 35.8881 36.4057 35.7724 36.8005 35.5954C36.8549 35.6771 36.9094 35.7656 36.9639 35.8473C35.8543 36.1604 35.017 36.7935 34.9829 36.8139C37.0864 37.1951 37.3383 38.6791 39.1286 38.7404C39.6527 38.7404 40.0135 38.5838 40.2586 38.3796C41.232 38.4749 41.8039 38.0324 42.1034 37.6716C42.6888 37.8146 43.2674 37.9848 43.8188 38.1754C42.6003 38.5838 41.2388 39.1148 39.8229 39.7955C39.8229 39.7955 40.2926 39.9929 40.6126 40.8234C40.6126 40.8234 42.4029 39.5913 44.9148 38.577C47.4267 39.5913 49.217 40.8234 49.217 40.8234C49.5369 39.9861 50.0066 39.7955 50.0066 39.7955C48.5907 39.1148 47.2225 38.5838 46.0108 38.1754C46.4941 38.012 46.9978 37.8554 47.5084 37.7261C47.8215 38.0801 48.3797 38.4749 49.3055 38.3864C49.5506 38.5906 49.9113 38.7404 50.4355 38.7472C52.2258 38.6927 52.4777 37.2019 54.5812 36.8207C54.5471 36.8071 53.703 36.1672 52.6002 35.8541C52.6547 35.7724 52.7091 35.6839 52.7636 35.6022C53.1584 35.7792 53.8119 35.8949 54.6424 35.432C54.9283 35.5001 55.2959 35.4729 55.7724 35.2618C57.3381 34.4858 57.059 33.206 58.7881 32.042L58.7676 32.0352ZM60.3129 27.413C60.3129 27.413 60.1495 27.5832 59.9317 27.8555C59.8772 27.9236 59.816 27.9985 59.7547 28.087C59.6934 28.1686 59.6322 28.2571 59.5641 28.3524C59.5028 28.4477 59.4348 28.543 59.3735 28.6452C59.3599 28.6724 59.3463 28.6928 59.3326 28.72C59.3326 28.6588 59.3463 28.6043 59.3463 28.543C59.4007 28.4545 59.462 28.3729 59.5164 28.2912C59.5845 28.1959 59.6526 28.1074 59.7139 28.0325C59.7751 27.9508 59.8432 27.8759 59.8976 27.8147C60.0134 27.6853 60.1155 27.5832 60.1904 27.5151C60.2652 27.4471 60.3061 27.413 60.3061 27.413H60.3129ZM60.5375 27.0591C60.5375 27.0591 60.0474 27.4539 59.3531 28.4001C59.3599 28.1346 59.3395 27.8759 59.319 27.6104C60.0134 27.168 60.5307 27.0522 60.5375 27.0591ZM61.1978 22.0285C61.1978 22.0285 61.1025 22.2327 60.9936 22.5458C60.9664 22.6275 60.9324 22.7092 60.9051 22.8045C60.8779 22.8998 60.8507 22.9951 60.8166 23.0972C60.7894 23.1993 60.7622 23.3082 60.7349 23.4171C60.7349 23.4444 60.7213 23.4648 60.7213 23.492C60.7077 23.4444 60.7009 23.3899 60.6873 23.3423C60.7077 23.247 60.7349 23.1517 60.7622 23.0632C60.7894 22.9611 60.8234 22.8589 60.8575 22.7705C60.8915 22.6752 60.9256 22.5935 60.9528 22.5118C61.014 22.3552 61.0753 22.2327 61.1162 22.151C61.157 22.0693 61.1842 22.0216 61.1842 22.0216L61.1978 22.0285ZM61.2931 21.6404C61.2931 21.6404 60.9868 22.1578 60.6601 23.2197C60.592 22.9951 60.5035 22.7909 60.415 22.5798C60.8847 21.94 61.2931 21.6404 61.3 21.6404H61.2931ZM28.8223 23.492C28.8223 23.492 28.8155 23.4444 28.8087 23.4171C28.7815 23.3082 28.7543 23.1993 28.727 23.0972C28.6998 22.9951 28.6726 22.893 28.6385 22.8045C28.6113 22.7092 28.5773 22.6275 28.55 22.5458C28.4411 22.2259 28.3458 22.0285 28.3458 22.0285C28.3458 22.0285 28.3662 22.0557 28.3867 22.1033C28.3935 22.117 28.4071 22.1374 28.4139 22.1578C28.4547 22.2395 28.516 22.362 28.5773 22.5186C28.6113 22.5935 28.6453 22.682 28.6726 22.7773C28.7066 22.8658 28.7406 22.9679 28.7679 23.07C28.7951 23.1585 28.8223 23.2538 28.8428 23.3491C28.8291 23.3967 28.8155 23.4444 28.8087 23.4988L28.8223 23.492ZM28.8904 23.2197C28.5637 22.1578 28.2573 21.6404 28.2573 21.6404C28.2573 21.6404 28.6726 21.94 29.1423 22.5798C29.0538 22.7909 28.9653 22.9951 28.8972 23.2197H28.8904ZM30.1702 28.6452C30.1089 28.543 30.0476 28.4409 29.9796 28.3524C29.9183 28.2571 29.8502 28.1686 29.789 28.087C29.7277 28.0053 29.6664 27.9304 29.612 27.8555C29.3873 27.5764 29.2308 27.413 29.2308 27.413C29.2308 27.413 29.258 27.4335 29.2988 27.4743C29.3125 27.4879 29.3261 27.5015 29.3465 27.5151C29.4214 27.5832 29.5235 27.6785 29.6392 27.8147C29.7005 27.8827 29.7617 27.9508 29.823 28.0325C29.8911 28.1142 29.9523 28.1959 30.0204 28.2912C30.0749 28.3729 30.1361 28.4545 30.1906 28.543C30.1906 28.5975 30.1974 28.6588 30.2042 28.72C30.1906 28.6928 30.177 28.6724 30.1634 28.6452H30.1702ZM30.1906 28.3933C29.4963 27.4403 29.0129 27.0454 29.0061 27.0522C29.0061 27.0522 29.5303 27.168 30.2246 27.6036C30.2042 27.8691 30.1838 28.121 30.1906 28.3933ZM39.8093 33.3762C40.7419 33.9957 40.9597 34.6968 41.0006 35.1257C40.422 34.656 39.748 34.3701 39.0401 34.1795C38.9107 33.9821 38.7882 33.7847 38.6385 33.6281C37.6718 32.5525 36.9911 32.0828 36.9843 32.0828C36.9911 32.0828 38.3594 32.3824 39.8025 33.383L39.8093 33.3762ZM37.3178 32.4913C37.3178 32.4913 37.3178 32.4913 37.3247 32.4913C37.3315 32.4913 37.3451 32.5049 37.3587 32.5117C37.3587 32.5117 37.3723 32.5185 37.3791 32.5253C37.3995 32.5389 37.42 32.5525 37.4472 32.573C37.5425 32.6478 37.6854 32.7568 37.842 32.8997C37.9237 32.9746 38.0054 33.0495 38.0939 33.138C38.1347 33.1788 38.1824 33.2265 38.2232 33.2741C38.2709 33.3218 38.3117 33.3694 38.3594 33.4171C38.4479 33.5192 38.5363 33.6213 38.6248 33.737C38.7133 33.8459 38.795 33.9685 38.8767 34.091C38.8767 34.1046 38.8903 34.1114 38.8971 34.125C38.8427 34.1114 38.795 34.0978 38.7406 34.0842C38.6725 33.9889 38.6112 33.8936 38.5363 33.8051C38.4547 33.6962 38.3662 33.5872 38.2845 33.4851C38.2436 33.4307 38.2028 33.383 38.1551 33.3354C38.1143 33.2877 38.0735 33.2401 38.0326 33.1924C37.9509 33.1039 37.8692 33.0222 37.8012 32.9406C37.6514 32.7908 37.5289 32.6683 37.4336 32.5798C37.3451 32.4981 37.2906 32.4504 37.2906 32.4504C37.2906 32.4504 37.3042 32.4572 37.3247 32.4709L37.3178 32.4913ZM36.8822 32.4232C37.1817 32.9542 37.2906 33.4239 37.42 33.8663C37.277 33.8459 37.1409 33.8323 37.0047 33.8187C36.9502 33.6485 36.8822 33.4851 36.8073 33.3286C36.8822 33.0086 36.9026 32.7091 36.8822 32.4232ZM36.0993 31.0617C36.2355 31.2455 36.3376 31.4225 36.4193 31.5859C36.2967 31.5519 36.2287 31.5383 36.2287 31.5383C36.358 31.6812 36.4669 31.8174 36.569 31.9467C36.7188 32.4096 36.6984 32.7704 36.6371 33.0154C36.2695 32.3892 35.7522 31.8922 35.1872 31.4634C35.1327 31.2455 35.0782 31.0345 34.9966 30.8371C34.4656 29.5573 34.0027 28.9106 33.9959 28.9106C34.0027 28.9106 35.1055 29.6594 36.0993 31.0617ZM34.1456 29.3599C34.1456 29.3599 34.1729 29.4008 34.2069 29.4484C34.2205 29.4688 34.2341 29.4824 34.2478 29.5097C34.309 29.6118 34.4043 29.7547 34.4996 29.9385C34.5473 30.027 34.6017 30.1291 34.6494 30.2313C34.7038 30.3402 34.7515 30.4491 34.7991 30.5716C34.8468 30.6873 34.8944 30.8167 34.9421 30.946C34.9829 31.0754 35.0238 31.2047 35.0646 31.3408C35.0646 31.3545 35.0646 31.3613 35.0714 31.3749C35.0306 31.3476 34.9897 31.3136 34.9489 31.2864C34.9217 31.1775 34.8876 31.0754 34.8536 30.9732C34.8128 30.8507 34.7719 30.7214 34.7243 30.6057C34.7038 30.5444 34.6766 30.4899 34.6562 30.4287C34.6358 30.3742 34.6085 30.3197 34.5881 30.2653C34.5405 30.1564 34.4996 30.0543 34.452 29.9658C34.2818 29.5982 34.1456 29.3599 34.1456 29.3599ZM33.8529 30.592C33.7168 30.5103 33.5738 30.4355 33.4445 30.3606C33.4445 30.1359 33.4309 29.9249 33.4036 29.7139C33.5806 29.4212 33.6827 29.1285 33.7304 28.8289C33.9414 29.5641 33.887 30.0883 33.8597 30.592H33.8529ZM33.3628 27.5151C33.4513 27.7738 33.5058 28.0053 33.533 28.2163C33.5126 28.2027 33.4989 28.1891 33.4989 28.1891C33.5194 28.2299 33.533 28.2639 33.5466 28.3048C33.5942 28.8289 33.4649 29.1829 33.3356 29.394C33.1722 28.7336 32.8523 28.1346 32.4642 27.5764C32.471 27.3654 32.4779 27.168 32.4574 26.9706C32.3145 25.6908 32.0626 24.976 32.0626 24.976C32.0694 24.976 32.8523 25.9699 33.3696 27.5083L33.3628 27.5151ZM32.0762 25.4117C32.0762 25.4117 32.083 25.4321 32.0898 25.4593C32.0898 25.473 32.0966 25.4866 32.1035 25.5002C32.1035 25.5002 32.1035 25.5002 32.1035 25.507C32.1035 25.5274 32.1171 25.5478 32.1239 25.5751C32.1511 25.684 32.1988 25.8337 32.2396 26.0243C32.26 26.1196 32.2804 26.2218 32.2941 26.3307C32.3145 26.4396 32.3281 26.5553 32.3417 26.671C32.3553 26.7936 32.3621 26.9161 32.3689 27.0386C32.3689 27.1612 32.3689 27.2905 32.3689 27.4198C32.3689 27.4335 32.3689 27.4403 32.3689 27.4539C32.3417 27.413 32.3145 27.3722 32.2804 27.3382C32.2804 27.236 32.2804 27.1339 32.2804 27.0318C32.2804 26.9093 32.2736 26.7868 32.26 26.671C32.26 26.6098 32.2464 26.5553 32.2464 26.5009C32.2464 26.4464 32.2328 26.3919 32.226 26.3375C32.2124 26.2286 32.1988 26.1265 32.1851 26.038C32.1239 25.6636 32.0694 25.4117 32.0694 25.4117H32.0762ZM31.8652 23.6622C31.8652 23.88 31.8652 24.0706 31.8312 24.2408C31.8039 24.2068 31.7903 24.1864 31.7903 24.1864C31.7971 24.2476 31.8039 24.3089 31.8107 24.3634C31.7086 24.8535 31.4908 25.119 31.3206 25.2551C31.3683 24.6357 31.2525 24.0094 31.0756 23.3967C31.1368 23.2197 31.1981 23.0564 31.2321 22.8794C31.45 21.7357 31.4295 21.0414 31.4227 21.0346C31.4227 21.0414 31.838 22.1578 31.8652 23.6622ZM31.838 24.8535C31.838 25.541 31.661 25.9699 31.5112 26.3851C31.3955 26.2558 31.2798 26.1333 31.1709 26.0107C31.2253 25.8542 31.2593 25.6976 31.2866 25.541C31.5316 25.3504 31.7086 25.1122 31.838 24.8467V24.8535ZM31.0756 22.8658C31.1028 22.7568 31.13 22.6547 31.1572 22.5526C31.1777 22.4505 31.2049 22.3484 31.2185 22.2531C31.2389 22.1578 31.2525 22.0625 31.2662 21.9808C31.2798 21.8719 31.2934 21.7766 31.307 21.6949C31.3206 21.5519 31.3274 21.4566 31.3342 21.4226C31.3342 21.4158 31.3342 21.409 31.3342 21.409C31.3342 21.409 31.3342 21.4635 31.3342 21.5656C31.3342 21.6677 31.3342 21.8174 31.3138 21.9876C31.307 22.0761 31.2934 22.1714 31.2798 22.2667C31.2662 22.3688 31.2525 22.4709 31.2253 22.573C31.2049 22.682 31.1777 22.7909 31.1504 22.8998C31.1232 23.0087 31.0892 23.1176 31.0483 23.2265C31.0483 23.2333 31.0415 23.247 31.0347 23.2538C31.0211 23.2129 31.0075 23.1653 30.9939 23.1244C31.0211 23.0359 31.0483 22.9543 31.0756 22.8658ZM30.5854 22.0353C30.5105 21.8515 30.4289 21.6745 30.354 21.5111C30.4561 21.3886 30.5378 21.2524 30.6127 21.1163C30.8986 21.0346 31.1368 20.878 31.3206 20.667C31.1368 21.375 30.8441 21.7085 30.5786 22.0353H30.5854ZM31.6133 19.714C31.3819 20.5513 30.9871 20.8031 30.7284 20.878C30.9326 20.3743 31.0007 19.7957 31.0143 19.2102C31.1164 19.0877 31.2117 18.9652 31.2798 18.8222C31.7631 17.9237 31.9128 17.311 31.9128 17.311C31.9128 17.311 31.9809 18.4138 31.6133 19.714ZM33.0905 14.4315C33.0905 14.4315 33.0905 14.4315 33.0905 14.4383C33.0905 14.4383 33.0905 14.4451 33.0837 14.4519C33.0701 14.4724 33.0565 14.4928 33.0361 14.52C32.9884 14.5881 32.9271 14.6766 32.8454 14.7855C32.8046 14.84 32.757 14.8944 32.7093 14.9489C32.6616 15.0033 32.6072 15.0646 32.5459 15.1191C32.4847 15.1735 32.4234 15.228 32.3621 15.2824C32.3009 15.3369 32.2328 15.3845 32.1579 15.4322C32.1715 15.3982 32.1783 15.3573 32.1919 15.3233C32.2396 15.2892 32.2941 15.2552 32.3417 15.2144C32.403 15.1667 32.4642 15.1122 32.5255 15.0578C32.5868 15.0033 32.6412 14.9489 32.6889 14.9012C32.7433 14.8468 32.791 14.7991 32.8318 14.7515C33.0088 14.5609 33.1109 14.4111 33.1109 14.4111L33.0905 14.4315ZM31.6882 16.0244C31.4363 16.6915 31.1232 17.0047 30.8577 17.1544C30.776 16.5145 30.6807 16.038 30.6671 15.9427C30.9054 15.5547 31.2185 15.3369 31.4295 15.0101C32.0694 14.0435 32.3213 13.3764 32.3213 13.3696C32.3213 13.3764 32.2464 14.6085 31.695 16.0244H31.6882ZM31.7291 17.5969C31.7291 17.5969 31.7154 17.6514 31.6882 17.7331C31.661 17.8215 31.6201 17.9441 31.5589 18.087C31.5316 18.1619 31.4976 18.2368 31.4568 18.3185C31.4227 18.4002 31.3819 18.4819 31.3342 18.5635C31.2866 18.6452 31.2389 18.7337 31.1845 18.8154C31.13 18.8971 31.0756 18.9788 31.0143 19.0605C31.0143 19.0673 31.0007 19.0741 31.0007 19.0809C31.0007 19.0401 31.0007 18.9992 31.0007 18.9516C31.0483 18.8903 31.096 18.829 31.1368 18.761C31.1913 18.6793 31.2389 18.6044 31.2866 18.5227C31.3342 18.441 31.3751 18.3661 31.4159 18.2913C31.4568 18.2164 31.4908 18.1415 31.5248 18.0734C31.6542 17.8011 31.7291 17.6037 31.7291 17.6037V17.5969ZM30.9394 17.876C30.919 17.6922 30.8986 17.5152 30.8781 17.345C31.0143 17.2702 31.1436 17.168 31.2593 17.0591C31.4976 17.0864 31.7086 17.0523 31.906 16.9638C31.5725 17.5016 31.2457 17.6854 30.9394 17.876ZM32.471 16.2082C32.3349 16.4261 32.2056 16.5758 32.0762 16.6779C32.0762 16.6711 32.0762 16.6643 32.0762 16.6575C32.0762 16.6711 32.0626 16.6779 32.0626 16.6915C31.8039 16.9026 31.5725 16.923 31.4159 16.9026C31.7222 16.5418 31.9401 16.0721 32.1035 15.5683C32.2124 15.5003 32.3213 15.4254 32.4098 15.3369C33.0361 14.7242 33.3083 14.2477 33.3083 14.2477C33.3083 14.2477 33.1041 15.2212 32.471 16.215V16.2082ZM32.3689 14.4111C32.403 14.2273 32.4234 14.0435 32.4438 13.8733C32.5936 13.8529 32.7297 13.8121 32.8659 13.7508C33.0701 13.8597 33.2675 13.8937 33.4581 13.8801C33.0224 14.2954 32.6821 14.3498 32.3689 14.4111ZM34.0776 13.4104C33.5738 13.8461 33.2198 13.7712 33.0292 13.6691C33.3696 13.4649 33.6691 13.1245 33.9142 12.7433C34.0231 12.7161 34.1252 12.6888 34.2273 12.6412C34.8944 12.3076 35.228 11.9741 35.228 11.9741C35.228 11.9741 34.84 12.7569 34.0708 13.4172L34.0776 13.4104ZM34.5405 12.3621C34.5949 12.3349 34.6494 12.3008 34.697 12.2736C34.8876 12.1579 35.0102 12.0694 35.0102 12.0694C35.0102 12.0694 35.0102 12.0694 35.0034 12.0762C35.0034 12.0762 34.9966 12.083 34.9897 12.0898C34.9897 12.0898 34.9897 12.0898 34.9761 12.0966C34.9693 12.1034 34.9557 12.117 34.9421 12.1238C34.8876 12.1647 34.8128 12.2259 34.7243 12.294C34.6766 12.3281 34.629 12.3621 34.5677 12.3893C34.5132 12.4234 34.452 12.4574 34.3907 12.4846C34.3294 12.5187 34.2614 12.5459 34.2001 12.5663C34.132 12.5935 34.064 12.614 33.9959 12.6344C34.0163 12.6072 34.0299 12.5799 34.0503 12.5527C34.098 12.5391 34.1524 12.5255 34.2001 12.505C34.2682 12.4846 34.3294 12.4574 34.3907 12.4302C34.452 12.4029 34.5132 12.3757 34.5677 12.3417L34.5405 12.3621ZM33.4649 13.002C33.0769 13.5193 32.7229 13.6759 32.4642 13.7031C32.5255 13.1654 32.5459 12.7569 32.58 12.6616C32.4438 12.8795 32.3145 13.0496 32.1851 13.1926C32.5732 12.3961 33.1041 12.3689 33.4853 12.0422C34.2409 11.4159 34.6017 10.9121 34.6017 10.9121C34.6017 10.9121 34.2614 11.9673 33.4649 13.002ZM33.6147 11.0211C33.4785 11.0415 33.3492 11.0551 33.213 11.0891C33.6283 10.4288 33.7849 9.99316 33.778 9.98635C33.778 9.98635 33.7712 10.4152 33.6147 11.0143V11.0211ZM33.0837 11.1027C33.1314 11.0415 33.1722 10.9802 33.213 10.9189C33.2539 10.8577 33.2947 10.7964 33.3288 10.742C33.3628 10.6875 33.3968 10.6262 33.4309 10.5786C33.5466 10.3744 33.6147 10.2314 33.6215 10.2246C33.6215 10.2246 33.6147 10.2518 33.6011 10.2859C33.6011 10.2995 33.5874 10.3131 33.5806 10.3267C33.5534 10.3948 33.5126 10.4833 33.4581 10.5922C33.4036 10.7011 33.3356 10.8236 33.2539 10.953C33.2198 11.0074 33.179 11.0619 33.1382 11.1164C33.1109 11.1232 33.0837 11.1368 33.0565 11.1436C33.0701 11.13 33.0769 11.1164 33.0905 11.1027H33.0837ZM32.1443 13.0701C32.1647 13.0292 32.1919 12.9748 32.2192 12.9203C32.2532 12.8658 32.2872 12.7978 32.3349 12.7365C32.4302 12.6072 32.5527 12.4778 32.6957 12.3621C32.7706 12.3076 32.8454 12.2532 32.9271 12.2055C33.0088 12.1647 33.0837 12.117 33.1654 12.0762C33.2403 12.0285 33.322 11.9877 33.3968 11.9332C33.4717 11.8788 33.5466 11.8311 33.6147 11.7767C33.6827 11.7222 33.7508 11.6678 33.8121 11.6133C33.8733 11.5588 33.9346 11.5044 33.9891 11.4567C34.2069 11.2593 34.3362 11.1096 34.3362 11.1096C34.3362 11.1096 34.309 11.1504 34.2546 11.2185C34.2001 11.2865 34.1184 11.3818 34.0095 11.4908C33.955 11.5452 33.9006 11.5997 33.8393 11.6609C33.778 11.7222 33.71 11.7767 33.6419 11.8379C33.5738 11.8992 33.4989 11.9537 33.4173 12.0081C33.3424 12.0626 33.2607 12.1102 33.179 12.1647C33.0973 12.2055 33.0156 12.2464 32.9407 12.294C32.8659 12.3349 32.791 12.3825 32.7161 12.437C32.5732 12.5391 32.4506 12.6616 32.3553 12.7773C32.3077 12.8386 32.2668 12.8931 32.2328 12.9475C32.1988 13.002 32.1715 13.0496 32.1511 13.0905C32.1307 13.1313 32.1103 13.1654 32.1035 13.1858C32.0966 13.2062 32.0898 13.2198 32.0898 13.2198C32.0898 13.2198 32.1035 13.1654 32.1375 13.0769L32.1443 13.0701ZM31.2593 13.8869C31.1164 13.9618 30.9734 14.0367 30.8373 14.132C31.096 13.2675 31.1368 12.7501 31.1368 12.7501C31.1368 12.7501 31.2525 13.1994 31.2662 13.8937L31.2593 13.8869ZM30.7011 14.1933C30.7352 14.1116 30.7624 14.0299 30.7896 13.9414C30.8169 13.8597 30.8441 13.778 30.8645 13.7031C30.8849 13.6283 30.9054 13.5534 30.9258 13.4853C30.9939 13.2198 31.0279 13.036 31.0279 13.036C31.0279 13.036 31.0279 13.0837 31.0143 13.1585C31.0007 13.2402 30.9871 13.356 30.9598 13.4921C30.9462 13.5602 30.9258 13.6351 30.9122 13.7099C30.8918 13.7848 30.8713 13.8733 30.8441 13.955C30.8237 14.0299 30.7965 14.098 30.7692 14.1728C30.742 14.1933 30.7148 14.2137 30.6875 14.2409C30.6943 14.2205 30.7011 14.2069 30.708 14.1865L30.7011 14.1933ZM30.2791 16.6439C30.2791 16.5894 30.2995 16.5282 30.3131 16.4533C30.3267 16.3784 30.354 16.2967 30.388 16.2082C30.4493 16.038 30.5446 15.8406 30.6671 15.6636C30.7284 15.5751 30.7964 15.4866 30.8713 15.405C30.9462 15.3233 31.0211 15.2484 31.096 15.1667C31.164 15.085 31.2389 15.0033 31.307 14.9216C31.3751 14.8331 31.4363 14.7515 31.4976 14.663C31.5589 14.5745 31.6133 14.4928 31.6678 14.4111C31.7222 14.3294 31.7699 14.2477 31.8107 14.1796C31.9877 13.8869 32.0898 13.6691 32.0898 13.6691C32.0898 13.6691 32.0898 13.6895 32.0762 13.7099C32.0694 13.7372 32.049 13.7712 32.0286 13.8189C31.9877 13.9142 31.9265 14.0503 31.8448 14.2069C31.8039 14.2818 31.7563 14.3702 31.7086 14.4519C31.661 14.5404 31.6065 14.6289 31.5453 14.7174C31.484 14.8059 31.4227 14.9012 31.3547 14.9829C31.2866 15.0714 31.2117 15.1599 31.1368 15.2416C31.0619 15.3165 30.9871 15.3981 30.9122 15.473C30.8441 15.5547 30.776 15.6296 30.7148 15.7181C30.5922 15.8883 30.4969 16.0653 30.4289 16.2286C30.3948 16.3103 30.3676 16.3852 30.3472 16.4601C30.3267 16.5282 30.3131 16.5894 30.2995 16.6439C30.2791 16.746 30.2723 16.8073 30.2723 16.8073C30.2723 16.8073 30.2723 16.7936 30.2723 16.7732C30.2723 16.7528 30.2723 16.7188 30.2723 16.6779C30.2723 16.6643 30.2723 16.6507 30.2723 16.6371L30.2791 16.6439ZM30.3812 16.6915C30.4425 16.3852 30.5378 16.1538 30.6535 15.9632C30.5718 16.2491 30.4765 16.4873 30.3812 16.6915ZM29.1559 18.3321C29.1355 18.3661 29.1082 18.4002 29.0878 18.441C29.0878 18.4206 29.0878 18.3934 29.0878 18.3729C29.0946 18.2708 29.1014 18.1687 29.1082 18.0734C29.1082 17.9781 29.1082 17.8828 29.1082 17.7943C29.1082 17.7058 29.1082 17.6241 29.1082 17.5424C29.1014 17.2293 29.0742 17.0251 29.0742 17.0251C29.0742 17.0251 29.081 17.0591 29.0878 17.1068C29.0878 17.1204 29.0878 17.1408 29.0946 17.1612C29.1082 17.2497 29.1287 17.3723 29.1355 17.5288C29.1355 17.6037 29.1491 17.6922 29.1491 17.7807C29.1491 17.8692 29.1491 17.9645 29.1491 18.0666C29.1491 18.1483 29.1491 18.2368 29.1355 18.3321H29.1559ZM29.2172 18.2368C29.224 17.2225 29.1082 16.6643 29.1014 16.6643C29.1014 16.6643 29.3669 17.0796 29.5916 17.7943C29.4622 17.9373 29.3329 18.0734 29.2172 18.2368ZM29.4418 20.6193C29.435 20.7215 29.4282 20.81 29.4282 20.8984C29.4282 20.9801 29.4282 21.055 29.435 21.1095C29.4418 21.198 29.4554 21.2592 29.4554 21.2797C29.4554 21.2865 29.4554 21.2933 29.4554 21.2933C29.4554 21.2933 29.4554 21.2797 29.4418 21.2456C29.435 21.2184 29.4214 21.1707 29.4146 21.1095C29.4078 21.0482 29.3941 20.9801 29.3873 20.8916C29.3873 20.8508 29.3873 20.8031 29.3873 20.7555C29.3873 20.7078 29.3873 20.6602 29.3873 20.6057C29.3873 20.5036 29.401 20.3879 29.4214 20.2722C29.4418 20.1565 29.469 20.0339 29.5031 19.9114C29.5371 19.7889 29.5848 19.6663 29.6324 19.5506C29.6869 19.4349 29.7413 19.3192 29.7958 19.2034C29.8434 19.0877 29.8979 18.972 29.9455 18.8563C29.9932 18.7405 30.034 18.618 30.0681 18.5023C30.0885 18.4478 30.1021 18.3866 30.1225 18.3321C30.143 18.2776 30.1566 18.2232 30.1702 18.1687C30.2042 18.0598 30.2314 17.9577 30.2519 17.8624C30.2791 17.7671 30.2995 17.6786 30.3199 17.5969C30.3267 17.5561 30.3404 17.522 30.3472 17.488C30.3812 17.3382 30.4016 17.2429 30.4016 17.2157C30.4016 17.2157 30.4016 17.2838 30.3812 17.3995C30.3676 17.5152 30.3404 17.6854 30.2995 17.8828C30.2791 17.9849 30.2587 18.087 30.2246 18.2028C30.1974 18.3185 30.1634 18.4342 30.1293 18.5499C30.0953 18.6725 30.0545 18.795 30.0068 18.9107C29.966 19.0332 29.9115 19.1558 29.857 19.2783C29.8026 19.394 29.7481 19.5098 29.6937 19.6187C29.646 19.7344 29.5984 19.8501 29.5643 19.9658C29.5303 20.0816 29.4963 20.1973 29.4758 20.3062C29.4486 20.4151 29.435 20.524 29.4282 20.6262L29.4418 20.6193ZM29.5711 21.3137C29.3669 20.102 29.9319 19.5642 30.1225 18.8767C30.5037 17.5833 30.5786 16.7868 30.5718 16.78C30.5718 16.7868 30.8645 18.1075 30.7148 19.8229C30.6603 20.5513 30.4697 21.0006 30.2587 21.2797C29.9319 20.5785 29.6664 20.0952 29.6664 20.0952C29.6732 20.5853 29.6324 20.9733 29.5643 21.3069L29.5711 21.3137ZM30.1498 26.2218C30.1498 26.2218 30.1021 26.1537 30.0749 26.0924C30.0476 26.038 30.0136 25.9631 29.9796 25.8814C29.9592 25.8405 29.9455 25.7929 29.9251 25.7452C29.9115 25.6976 29.8911 25.6431 29.8775 25.5887C29.8502 25.4798 29.823 25.3572 29.8026 25.2211C29.7822 25.0917 29.7685 24.9488 29.7685 24.8058C29.7685 24.6629 29.7685 24.5131 29.7822 24.3702C29.7958 24.2272 29.8162 24.0775 29.8366 23.9345C29.8502 23.7915 29.8639 23.6486 29.8707 23.5056C29.8775 23.3627 29.8843 23.2197 29.8843 23.0836C29.8843 23.0155 29.8843 22.9474 29.8843 22.8794C29.8843 22.8113 29.8843 22.75 29.8843 22.682C29.8843 22.5526 29.8843 22.4369 29.8707 22.3212C29.8707 22.2123 29.857 22.1101 29.8502 22.0148C29.8298 21.7494 29.8162 21.586 29.8094 21.5792C29.8094 21.5792 29.8298 21.6541 29.8502 21.7766C29.8707 21.9059 29.8979 22.0897 29.9183 22.3144C29.9319 22.4233 29.9387 22.5458 29.9455 22.6752C29.9523 22.8045 29.9592 22.9406 29.9592 23.0836C29.9592 23.2265 29.9592 23.3695 29.9523 23.5193C29.9523 23.669 29.9319 23.8188 29.9183 23.9685C29.8979 24.1115 29.8775 24.2544 29.8639 24.3974C29.8502 24.5404 29.8366 24.6765 29.8434 24.8194C29.8434 24.9556 29.8434 25.0917 29.8639 25.2143C29.8775 25.3436 29.8979 25.4593 29.9183 25.5683C29.9455 25.6772 29.9728 25.7793 30 25.861C30.0272 25.9495 30.0545 26.0175 30.0817 26.0788C30.0817 26.0924 30.0953 26.106 30.1021 26.1196C30.143 26.2081 30.1702 26.2558 30.1702 26.2558C30.1702 26.2558 30.1566 26.2422 30.1429 26.2149L30.1498 26.2218ZM29.9523 24.799C30.1225 25.3232 30.211 25.7657 30.2519 26.1537C30 25.6431 29.9455 25.2075 29.9523 24.799ZM29.9523 24.799C29.966 24.3157 30.0681 23.88 30.0613 23.458C30.0408 21.94 29.8639 21.0754 29.857 21.0754C29.8639 21.0754 30.5854 22.328 30.9871 24.1796C31.1572 24.9148 31.1232 25.4525 31.0143 25.8337C30.4425 25.2347 29.9796 24.8195 29.9523 24.799ZM32.6412 28.4341C33.0905 29.1693 33.2267 29.782 33.2335 30.2381C32.5255 29.8637 31.9537 29.605 31.8039 29.5437C31.6474 29.0332 31.6065 28.5362 31.4568 28.1006C30.9258 26.5281 30.4629 25.7112 30.4561 25.7112C30.4697 25.7112 31.6133 26.6846 32.6412 28.4273V28.4341ZM32.4098 30.6465C32.1171 30.3129 31.9469 29.9658 31.8312 29.6254C32.083 29.993 32.2668 30.3334 32.4098 30.6465ZM32.4983 30.946C32.4983 30.946 32.4302 30.8984 32.3826 30.8507C32.3349 30.8031 32.2736 30.7486 32.2124 30.6737C32.1783 30.6397 32.1511 30.5988 32.1103 30.5512C32.0762 30.5035 32.0422 30.4627 32.0082 30.4082C31.9401 30.3061 31.872 30.1904 31.8107 30.0611C31.7495 29.9317 31.6814 29.7956 31.6337 29.6458C31.5793 29.4961 31.5384 29.3395 31.4976 29.1829C31.4636 29.0264 31.4295 28.863 31.4023 28.7064C31.3683 28.5498 31.3342 28.3933 31.2934 28.2435C31.2525 28.087 31.2117 27.9372 31.164 27.7942C31.1436 27.7194 31.1164 27.6513 31.096 27.5832C31.0756 27.5151 31.0551 27.4471 31.0279 27.379C30.9802 27.2497 30.9394 27.1203 30.8986 27.0114C30.8169 26.7868 30.742 26.5962 30.6807 26.4668C30.6807 26.4532 30.6671 26.4328 30.6603 26.4192C30.6467 26.3851 30.6331 26.3511 30.6195 26.3307C30.599 26.2898 30.5922 26.2626 30.5922 26.2626C30.5922 26.2626 30.6058 26.283 30.6263 26.3239C30.6263 26.3307 30.6331 26.3375 30.6399 26.3443C30.6535 26.3647 30.6603 26.3851 30.6739 26.4056C30.6807 26.4192 30.6875 26.4328 30.6943 26.4464C30.7556 26.5689 30.8509 26.7527 30.9462 26.9774C30.9939 27.0863 31.0483 27.2088 31.096 27.345C31.1232 27.413 31.1504 27.4811 31.1709 27.5492C31.1981 27.6173 31.2185 27.6921 31.2457 27.767C31.2934 27.9168 31.341 28.0665 31.3819 28.2231C31.4227 28.3797 31.4636 28.543 31.4976 28.7064C31.5248 28.863 31.5589 29.0264 31.5861 29.1829C31.6201 29.3395 31.661 29.4893 31.7086 29.6322C31.7563 29.7752 31.8107 29.9113 31.8652 30.0406C31.9197 30.17 31.9809 30.2789 32.0422 30.3878C32.1035 30.4899 32.1647 30.5784 32.226 30.6601C32.2872 30.735 32.3349 30.7963 32.3826 30.8507C32.3962 30.8643 32.403 30.8711 32.4166 30.8848C32.471 30.9392 32.5119 30.9732 32.5255 30.9869C32.5255 30.9869 32.5323 30.9869 32.5323 30.9937C32.5323 30.9937 32.5187 30.9869 32.4915 30.9664L32.4983 30.946ZM32.5663 30.2925C32.5663 30.2925 34.0571 30.8711 35.6364 32.2939C36.2423 32.8248 36.569 33.3422 36.746 33.7847C35.9564 33.7098 35.3097 33.6962 35.0782 33.703C34.7923 33.2537 34.5949 32.784 34.3226 32.4096C33.2947 30.9732 32.5732 30.2857 32.5595 30.2925H32.5663ZM36.1674 34.7377C35.7181 34.4994 35.4186 34.1863 35.1804 33.8459C35.5888 34.1454 35.9087 34.445 36.1674 34.7377ZM32.9203 32.3687C32.9816 32.6546 33.0429 32.9338 33.1382 33.2128C32.1307 32.4913 31.5112 32.2734 31.5044 32.2802C31.5044 32.2734 32.0694 32.1849 32.9135 32.3687H32.9203ZM33.1994 33.4851C33.1041 33.4035 33.0088 33.3218 32.9135 33.2537C32.8659 33.2128 32.8182 33.1856 32.7706 33.1448C32.7229 33.1107 32.6821 33.0767 32.6344 33.0495C32.5459 32.9882 32.4642 32.9269 32.3826 32.8793C32.0694 32.6751 31.8516 32.5662 31.8516 32.5662C31.8584 32.5662 31.9128 32.5866 32.0013 32.6274C32.0966 32.6683 32.2328 32.7295 32.3962 32.8248C32.4779 32.8725 32.5663 32.9201 32.6548 32.9814C32.7433 33.0359 32.8454 33.1039 32.9407 33.172C33.0224 33.2333 33.1109 33.3013 33.1926 33.3694C33.213 33.4307 33.2403 33.4919 33.2675 33.5464C33.2471 33.526 33.2198 33.5056 33.1994 33.4851ZM36.2899 34.9827C36.2559 34.9759 36.2014 34.9555 36.1402 34.9283C36.0721 34.9011 35.9972 34.8602 35.9087 34.8126C35.8679 34.7853 35.8202 34.7581 35.7726 34.7309C35.7249 34.6968 35.6773 34.6628 35.6228 34.622C35.5207 34.5403 35.4118 34.4518 35.3097 34.3429C35.2008 34.2339 35.0987 34.1114 34.9966 33.9753C34.8944 33.8391 34.7991 33.6962 34.7106 33.5396C34.629 33.3898 34.5405 33.2333 34.4588 33.0767C34.3771 32.9269 34.2886 32.7772 34.2001 32.6342C34.1116 32.4913 34.0231 32.3483 33.9278 32.2122C33.887 32.1441 33.8393 32.076 33.7917 32.0148C33.7508 31.9467 33.7032 31.8854 33.6623 31.8242C33.5738 31.7016 33.4921 31.5927 33.4105 31.4906C33.2539 31.2864 33.1177 31.1162 33.0224 31.0005C32.9271 30.8848 32.8659 30.8235 32.8659 30.8235C32.8659 30.8235 32.9271 30.8779 33.0361 30.9869C33.1382 31.0958 33.2879 31.2455 33.4581 31.4429C33.5398 31.5451 33.6351 31.6472 33.7236 31.7697C33.7712 31.831 33.8189 31.8922 33.8665 31.9535C33.9142 32.0148 33.9618 32.0828 34.0095 32.1509C34.1048 32.2871 34.2001 32.43 34.2954 32.573C34.3907 32.7227 34.4792 32.8725 34.5677 33.0291C34.6494 33.1856 34.7311 33.3422 34.8128 33.4919C34.8944 33.6417 34.9829 33.7847 35.0782 33.914C35.1735 34.0433 35.2688 34.1659 35.371 34.2748C35.4663 34.3837 35.5684 34.479 35.6637 34.5607C35.759 34.6424 35.8475 34.7105 35.936 34.7717C36.0176 34.8262 36.0925 34.8738 36.1538 34.9079C36.1878 34.9215 36.2151 34.9419 36.2355 34.9487C36.2763 34.9691 36.3036 34.9827 36.324 34.9896C36.3376 34.9896 36.3512 34.9964 36.3512 34.9964C36.3512 34.9964 36.3376 34.9964 36.324 34.9964C36.324 34.9964 36.3104 34.9964 36.3036 34.9964L36.2899 34.9827ZM35.7726 36.7254C35.7726 36.7254 36.2763 36.351 37.1613 36.14C37.3315 36.4123 37.4948 36.671 37.6922 36.9228C36.4533 36.6437 35.7726 36.7186 35.7726 36.7254ZM37.8556 37.1815C37.7331 37.1407 37.6106 37.1066 37.488 37.0726C37.4268 37.0522 37.3723 37.0454 37.311 37.0317C37.2566 37.0181 37.1953 37.0045 37.1409 36.9909C37.0319 36.9637 36.9298 36.9501 36.8345 36.9364C36.4533 36.8752 36.2083 36.8616 36.2083 36.8616C36.2083 36.8616 36.2695 36.8548 36.3716 36.8479C36.4805 36.8479 36.6303 36.8479 36.8209 36.8616C36.9162 36.8684 37.0183 36.882 37.1272 36.9024C37.2362 36.916 37.3519 36.9432 37.4744 36.9705C37.5765 36.9909 37.6854 37.0249 37.7944 37.059C37.842 37.1134 37.8828 37.1611 37.9305 37.2087C37.9033 37.2019 37.8692 37.1883 37.842 37.1815H37.8556ZM41.375 37.2904C41.341 37.2904 41.2865 37.304 41.2116 37.304C41.1367 37.304 41.0482 37.304 40.9461 37.2904C40.8917 37.2904 40.8372 37.2768 40.7828 37.27C40.7215 37.2564 40.667 37.2428 40.599 37.2292C40.4696 37.1951 40.3335 37.1475 40.1905 37.0862C40.0476 37.0249 39.8978 36.9432 39.7549 36.8548C39.6051 36.7594 39.4621 36.6573 39.3192 36.5348C39.183 36.4191 39.0401 36.2897 38.9039 36.1672C38.7678 36.0515 38.6317 35.9358 38.4887 35.8269C38.3457 35.7179 38.2096 35.609 38.0735 35.5137C38.0054 35.4661 37.9373 35.4184 37.8692 35.3708C37.8012 35.3231 37.7399 35.2823 37.6718 35.2346C37.6106 35.1938 37.5425 35.1529 37.4812 35.1121C37.42 35.0712 37.3587 35.0372 37.3042 34.9964C37.0728 34.8534 36.8822 34.7377 36.746 34.6628C36.6984 34.6356 36.6575 34.6152 36.6235 34.5947C36.569 34.5607 36.5282 34.5471 36.5282 34.5471C36.5282 34.5471 36.6099 34.5743 36.7528 34.6356C36.8958 34.6968 37.0932 34.7921 37.3315 34.9215C37.4472 34.9827 37.5765 35.0576 37.7127 35.1393C37.7807 35.1802 37.8488 35.221 37.9169 35.2618C37.985 35.3027 38.0598 35.3503 38.1279 35.398C38.2709 35.4933 38.4138 35.5954 38.5568 35.7043C38.6997 35.8132 38.8427 35.9358 38.9856 36.0515C39.1218 36.174 39.2579 36.2966 39.3941 36.4191C39.5302 36.5348 39.6664 36.6437 39.8093 36.7322C39.9455 36.8275 40.0884 36.9092 40.2246 36.9705C40.3607 37.0385 40.49 37.093 40.6126 37.1339C40.6738 37.1543 40.7351 37.1679 40.7896 37.1883C40.844 37.2019 40.8985 37.2155 40.9529 37.2292C41.055 37.2496 41.1435 37.2632 41.2116 37.2632C41.2457 37.2632 41.2797 37.2632 41.3069 37.2632C41.3137 37.2632 41.3205 37.2632 41.3273 37.2632C41.3954 37.2632 41.4294 37.2632 41.4363 37.2632C41.4363 37.2632 41.4158 37.2632 41.3818 37.2768L41.375 37.2904ZM38.5363 35.5409C37.0115 34.5267 36.0585 34.1386 36.0517 34.1454C36.0585 34.1318 37.7263 34.0774 39.7753 34.833C41.8039 35.5341 41.9468 37.0249 41.9672 37.059C40.1224 37.3857 39.4213 36.1196 38.5363 35.5409ZM43.7371 38.5157C43.5329 38.5906 43.3287 38.6655 43.1245 38.7404C42.9271 38.8153 42.7228 38.8901 42.5322 38.965C42.151 39.1148 41.797 39.2509 41.4907 39.3666C40.8781 39.6049 40.4696 39.7615 40.4696 39.7615C40.4696 39.7615 40.5649 39.707 40.7351 39.6253C40.9053 39.5436 41.1504 39.4143 41.4499 39.2782C41.7494 39.142 42.0966 38.9854 42.4778 38.8289C42.6684 38.7472 42.8658 38.6723 43.0632 38.5906C43.2674 38.5157 43.4716 38.434 43.6759 38.3592C43.7916 38.3183 43.9073 38.2775 44.023 38.2366C44.1047 38.2639 44.1864 38.2979 44.2613 38.3251C44.0843 38.3864 43.9073 38.4545 43.7303 38.5157H43.7371ZM46.2082 38.3251C46.4124 38.4 46.6166 38.4749 46.8208 38.5498C47.025 38.6247 47.2157 38.7063 47.4063 38.788C47.5016 38.8289 47.5901 38.8697 47.6854 38.9037C47.7739 38.9446 47.8623 38.9854 47.9508 39.0263C48.121 39.1012 48.2844 39.176 48.4274 39.2509C48.5771 39.3258 48.7065 39.3939 48.8222 39.4551C48.9379 39.5164 49.04 39.5777 49.1217 39.6185C49.2851 39.7138 49.3804 39.7683 49.3804 39.7683C49.3804 39.7683 49.2783 39.7274 49.1081 39.6526C49.0196 39.6117 48.9175 39.5641 48.7949 39.5164C48.6724 39.4688 48.5363 39.4075 48.3865 39.3462C48.2367 39.2781 48.0734 39.2169 47.9032 39.1488C47.8147 39.1148 47.7262 39.0807 47.6377 39.0399C47.5492 39.0059 47.4539 38.9718 47.3586 38.931C47.2633 38.8969 47.168 38.8561 47.0727 38.8221C46.9774 38.788 46.8753 38.7472 46.7732 38.7131C46.5758 38.6383 46.3715 38.5634 46.1673 38.4953C45.9631 38.4204 45.7589 38.3524 45.5547 38.2843C45.3505 38.2162 45.153 38.1481 44.9624 38.0869C44.7718 38.0256 44.5812 37.9643 44.4042 37.9031C44.2273 37.8486 44.0571 37.7942 43.9005 37.7465C43.5874 37.6512 43.3287 37.5695 43.1449 37.5151C42.9611 37.4606 42.859 37.4266 42.859 37.4266C42.859 37.4266 42.9679 37.4402 43.1517 37.481C43.3355 37.5219 43.6078 37.5763 43.9209 37.6512C44.2409 37.7261 44.6085 37.8282 44.9965 37.9439C45.1939 38.0052 45.3913 38.0665 45.5955 38.1345C45.7997 38.2026 46.004 38.2707 46.2082 38.3456V38.3251ZM46.7596 37.4946C46.6711 37.5219 46.5553 37.5559 46.4328 37.5967C46.3035 37.6376 46.1605 37.6852 46.004 37.7329C45.8474 37.7805 45.6772 37.8418 45.5002 37.8963C45.4458 37.9099 45.3913 37.9303 45.3368 37.9507C45.262 37.9235 45.1871 37.9031 45.1122 37.8827C45.2347 37.8486 45.3505 37.8078 45.4662 37.7805C45.65 37.7329 45.8202 37.6784 45.9767 37.6444C46.1333 37.6036 46.2831 37.5695 46.4124 37.5423C46.5417 37.5151 46.6575 37.4946 46.7528 37.4742C46.9434 37.4334 47.0455 37.4198 47.0455 37.4198C47.0455 37.4198 46.9434 37.4538 46.7596 37.5083V37.4946ZM58.8902 26.4668C58.8357 26.5962 58.7608 26.7868 58.6723 27.0114C58.6315 27.1271 58.5838 27.2497 58.543 27.379C58.5226 27.4471 58.4953 27.5151 58.4749 27.5832C58.4545 27.6513 58.4273 27.7262 58.4069 27.7942C58.3592 27.9372 58.3184 28.087 58.2775 28.2435C58.2367 28.4001 58.2026 28.5498 58.1686 28.7064C58.1414 28.8698 58.1073 29.0264 58.0733 29.1829C58.0393 29.3395 57.9916 29.4961 57.9371 29.6458C57.8827 29.7956 57.8214 29.9317 57.7602 30.0611C57.6989 30.1904 57.624 30.3061 57.5559 30.4082C57.5219 30.4559 57.4879 30.5035 57.4538 30.5512C57.4198 30.592 57.3858 30.6329 57.3517 30.6737C57.2905 30.7486 57.2292 30.8031 57.1815 30.8507C57.1339 30.8984 57.093 30.9256 57.0658 30.946C57.0386 30.9664 57.025 30.9732 57.025 30.9732C57.025 30.9732 57.0726 30.9324 57.1407 30.8643C57.1475 30.8507 57.1611 30.8439 57.1747 30.8303C57.2224 30.7826 57.2768 30.7146 57.3313 30.6397C57.3858 30.5648 57.447 30.4695 57.5151 30.3674C57.5764 30.2653 57.6376 30.1496 57.6921 30.0202C57.7465 29.8909 57.801 29.7547 57.8487 29.6118C57.8963 29.4688 57.9372 29.3191 57.9712 29.1625C58.0052 29.0059 58.0325 28.8494 58.0597 28.686C58.0937 28.5226 58.1346 28.3592 58.1754 28.2027C58.2162 28.0461 58.2639 27.8895 58.3116 27.7466C58.332 27.6717 58.3592 27.6036 58.3864 27.5288C58.4137 27.4607 58.4341 27.3926 58.4613 27.3245C58.509 27.1952 58.5634 27.0727 58.6111 26.9569C58.7064 26.7323 58.7949 26.5553 58.8629 26.426C58.8697 26.4124 58.8766 26.3987 58.8834 26.3851C58.8902 26.3715 58.897 26.3579 58.9038 26.3443C58.9446 26.2762 58.9651 26.2422 58.9651 26.2354C58.9651 26.2354 58.9514 26.2558 58.9378 26.2966C58.9242 26.3239 58.9106 26.3511 58.897 26.3919C58.897 26.4056 58.8834 26.4192 58.8766 26.4396L58.8902 26.4668ZM57.1611 30.6533C57.3041 30.3402 57.4879 29.9998 57.7397 29.6322C57.6308 29.9726 57.4538 30.3197 57.1611 30.6533ZM58.2911 21.9127C58.2911 21.9127 58.2911 21.9536 58.2979 21.974C58.3115 22.0625 58.3252 22.151 58.3456 22.2463C58.366 22.3416 58.3864 22.4437 58.4069 22.5458C58.4273 22.6479 58.4545 22.7568 58.4885 22.8589C58.5158 22.9474 58.543 23.0359 58.5702 23.1176C58.5566 23.1585 58.543 23.2061 58.5294 23.247C58.5294 23.2402 58.5294 23.2265 58.5158 23.2197C58.4817 23.1108 58.4477 23.0019 58.4137 22.893C58.3864 22.7841 58.3592 22.6752 58.3388 22.5662C58.3184 22.4573 58.2979 22.3552 58.2843 22.2599C58.2707 22.1578 58.2571 22.0693 58.2503 21.9808C58.2367 21.8038 58.2299 21.6609 58.2299 21.5588C58.2299 21.4635 58.2299 21.409 58.2299 21.4022C58.2299 21.4158 58.2435 21.62 58.2843 21.9127H58.2911ZM58.2435 20.6602C58.4341 20.8644 58.6655 21.0278 58.9514 21.1095C59.0263 21.2524 59.108 21.3818 59.2101 21.5043C59.1352 21.6745 59.0535 21.8447 58.9787 22.0285C58.7132 21.6949 58.4205 21.3682 58.2435 20.6602ZM58.5838 24.1796C58.9855 22.328 59.707 21.0822 59.7139 21.0754C59.7139 21.0754 59.5301 21.94 59.5096 23.458C59.5028 23.88 59.6049 24.3157 59.6186 24.799C59.5845 24.8195 59.1284 25.2347 58.5566 25.8337C58.4477 25.4525 58.4137 24.9148 58.5838 24.1796ZM59.6186 24.8058C59.6254 25.2075 59.5641 25.6499 59.319 26.1605C59.3599 25.7725 59.4484 25.33 59.6186 24.8058ZM59.7683 25.2279C59.7479 25.3572 59.7207 25.4798 59.6934 25.5955C59.6798 25.6499 59.6594 25.7044 59.6458 25.7521C59.6254 25.7997 59.6117 25.8474 59.5913 25.8882C59.5573 25.9699 59.5232 26.0448 59.496 26.0992C59.4688 26.1537 59.4416 26.1945 59.4211 26.2286C59.4007 26.2558 59.3939 26.2694 59.3939 26.2694C59.3939 26.2694 59.4211 26.2218 59.462 26.1333C59.462 26.1196 59.4756 26.106 59.4824 26.0924C59.5096 26.0312 59.5369 25.9631 59.5641 25.8746C59.5913 25.7861 59.6186 25.6908 59.6458 25.5819C59.6662 25.473 59.6866 25.3504 59.7002 25.2279C59.7139 25.0985 59.7207 24.9692 59.7207 24.8331C59.7207 24.6969 59.7139 24.554 59.7002 24.411C59.6798 24.2681 59.6662 24.1251 59.6458 23.9822C59.6322 23.8324 59.6186 23.6826 59.6117 23.5329C59.6049 23.3831 59.6049 23.2402 59.6049 23.0972C59.6049 22.9543 59.6049 22.8181 59.6186 22.6888C59.6186 22.5594 59.6322 22.4369 59.6458 22.328C59.6662 22.1033 59.6934 21.9195 59.7139 21.7902C59.7343 21.6609 59.7547 21.5928 59.7547 21.5928C59.7547 21.6132 59.7343 21.7766 59.7207 22.0216C59.7207 22.0216 59.7207 22.0217 59.7207 22.0285C59.7207 22.0625 59.7207 22.1033 59.7139 22.1374C59.7139 22.151 59.7139 22.1578 59.7139 22.1714C59.7139 22.2191 59.7139 22.2735 59.707 22.328C59.707 22.4369 59.6934 22.5594 59.6934 22.6888C59.6934 22.75 59.6934 22.8181 59.6934 22.8862C59.6934 22.9542 59.6934 23.0223 59.6934 23.0904C59.6934 23.2265 59.7002 23.3695 59.707 23.5124C59.7139 23.6554 59.7275 23.7984 59.7411 23.9413C59.7615 24.0843 59.7751 24.234 59.7955 24.377C59.8092 24.5267 59.816 24.6697 59.8092 24.8126C59.8092 24.9556 59.7955 25.0985 59.7751 25.2279H59.7683ZM59.9998 21.3273C59.9317 20.9937 59.8908 20.5989 59.8976 20.1156C59.8976 20.1156 59.6254 20.6057 59.3054 21.3001C59.1012 21.021 58.9038 20.5649 58.8493 19.8433C58.6996 18.1279 58.9923 16.8073 58.9923 16.8005C58.9923 16.8005 59.0604 17.6037 59.4416 18.8971C59.6322 19.5778 60.1972 20.1224 59.993 21.3341L59.9998 21.3273ZM57.8555 17.6241C57.8827 17.6922 57.944 17.8488 58.0393 18.053C58.0733 18.1211 58.1073 18.1959 58.1482 18.2708C58.189 18.3457 58.2299 18.4274 58.2775 18.5023C58.3252 18.584 58.3728 18.6657 58.4273 18.7405C58.4681 18.8086 58.5158 18.8699 58.5634 18.9311C58.5634 18.972 58.5634 19.0128 58.5634 19.0605C58.5634 19.0537 58.5498 19.0469 58.5498 19.0401C58.4885 18.9584 58.4341 18.8767 58.3796 18.795C58.3252 18.7133 58.2775 18.6316 58.2299 18.5431C58.1822 18.4614 58.1414 18.3797 58.1073 18.2981C58.0733 18.2164 58.0393 18.1415 58.0052 18.0666C57.944 17.9237 57.9031 17.8011 57.8759 17.7126C57.8486 17.6309 57.835 17.5765 57.835 17.5765C57.835 17.5765 57.835 17.5901 57.8487 17.6105L57.8555 17.6241ZM57.6649 16.957C57.8555 17.0455 58.0733 17.0796 58.3116 17.0523C58.4273 17.1612 58.5566 17.2633 58.6928 17.3382C58.6723 17.5084 58.6519 17.6854 58.6315 17.8692C58.3252 17.6786 57.9984 17.5016 57.6649 16.957ZM57.8895 16.0108C57.3313 14.5949 57.2632 13.3628 57.2632 13.356C57.2632 13.356 57.5083 14.0231 58.155 14.9965C58.3592 15.3165 58.6791 15.5411 58.9174 15.9291C58.897 16.0312 58.8085 16.5077 58.7268 17.1408C58.4613 16.9911 58.1482 16.6779 57.8963 16.0108H57.8895ZM56.494 14.4247C56.494 14.4247 56.6165 14.5881 56.7663 14.7515C56.8071 14.7991 56.8548 14.8536 56.9092 14.9012C56.9637 14.9557 57.0182 15.0033 57.0726 15.0578C57.1339 15.1122 57.1952 15.1667 57.2564 15.2144C57.3041 15.2552 57.3517 15.2892 57.4062 15.3233C57.413 15.3573 57.4266 15.3982 57.4402 15.4322C57.3721 15.3845 57.3041 15.3369 57.236 15.2824C57.1747 15.228 57.1067 15.1735 57.0522 15.1191C56.9909 15.0646 56.9365 15.0033 56.8888 14.9489C56.8412 14.8944 56.7935 14.84 56.7527 14.7855C56.671 14.6834 56.6029 14.5881 56.5621 14.52C56.5212 14.4587 56.5008 14.4179 56.494 14.4179C56.494 14.4179 56.494 14.4179 56.494 14.4247ZM58.931 15.9563C59.0467 16.147 59.142 16.3784 59.2033 16.6847C59.108 16.4805 59.0195 16.2423 58.931 15.9563ZM60.4695 18.0666C60.4695 18.1619 60.4763 18.264 60.4899 18.3661C60.4899 18.3866 60.4899 18.4138 60.4899 18.4342C60.4695 18.3934 60.4422 18.3593 60.4218 18.3253C60.4218 18.2368 60.415 18.1483 60.4082 18.0598C60.4082 17.9577 60.4082 17.8624 60.4082 17.7739C60.4082 17.6854 60.415 17.5969 60.4218 17.522C60.4354 17.3655 60.449 17.2429 60.4627 17.1544C60.4763 17.0659 60.4899 17.0183 60.4899 17.0183C60.4899 17.0183 60.4695 17.2225 60.4558 17.5356C60.4558 17.6105 60.4558 17.699 60.4558 17.7875C60.4558 17.876 60.4558 17.9713 60.4558 18.0666H60.4695ZM60.4695 16.6643C60.4695 16.6643 60.3469 17.2225 60.3537 18.2368C60.238 18.0734 60.1087 17.9373 59.9793 17.7943C60.204 17.0796 60.4695 16.6643 60.4695 16.6643ZM59.4348 18.3389C59.4552 18.3934 59.4688 18.4546 59.4892 18.5091C59.5232 18.6248 59.5709 18.7405 59.6117 18.8631C59.6594 18.9788 59.707 19.0945 59.7615 19.2102C59.816 19.326 59.8704 19.4417 59.9249 19.5574C59.9725 19.6731 60.0202 19.7957 60.0542 19.9182C60.0951 20.0407 60.1155 20.1633 60.1359 20.279C60.1563 20.3947 60.1699 20.5104 60.1699 20.6125C60.1699 20.667 60.1699 20.7146 60.1699 20.7623C60.1699 20.81 60.1699 20.8576 60.1699 20.8984C60.1699 20.9801 60.1563 21.055 60.1427 21.1163C60.1359 21.1775 60.1223 21.2184 60.1155 21.2524C60.1087 21.2797 60.1019 21.2933 60.1019 21.3001C60.1019 21.3001 60.1155 21.232 60.1291 21.1163C60.1291 21.055 60.1359 20.9869 60.1359 20.9053C60.1359 20.8236 60.1359 20.7283 60.1223 20.6262C60.1155 20.524 60.0951 20.4151 60.0746 20.3062C60.0542 20.1973 60.0202 20.0816 59.9861 19.9658C59.9521 19.8501 59.9045 19.7344 59.8568 19.6187C59.8023 19.503 59.7479 19.394 59.6934 19.2783C59.639 19.1558 59.5913 19.0332 59.5437 18.9107C59.496 18.7882 59.4552 18.6657 59.4211 18.5499C59.3803 18.4274 59.3531 18.3117 59.3258 18.2028C59.2986 18.0938 59.2714 17.9849 59.251 17.8828C59.2101 17.6854 59.1829 17.5152 59.1693 17.3995C59.1557 17.2838 59.1488 17.2225 59.1488 17.2157C59.1488 17.2157 59.1693 17.345 59.2169 17.5424C59.2373 17.6378 59.2646 17.7467 59.2918 17.8624C59.319 17.9577 59.3463 18.0598 59.3735 18.1687C59.3871 18.2232 59.4075 18.2776 59.4211 18.3321L59.4348 18.3389ZM58.6451 13.4853C58.6655 13.5534 58.6791 13.6283 58.7064 13.7031C58.7268 13.778 58.754 13.8597 58.7813 13.9414C58.8085 14.0231 58.8357 14.1048 58.8698 14.1933C58.8766 14.2137 58.8834 14.2273 58.8902 14.2477C58.8629 14.2273 58.8357 14.2001 58.8085 14.1796C58.7813 14.1048 58.754 14.0299 58.7336 13.9618C58.7064 13.8801 58.686 13.7984 58.6655 13.7167C58.6451 13.6419 58.6315 13.567 58.6111 13.4989C58.5838 13.3628 58.5634 13.247 58.5566 13.1654C58.5498 13.0905 58.543 13.0496 58.543 13.0428C58.543 13.0496 58.577 13.2334 58.6451 13.4921V13.4853ZM58.4341 12.7365C58.4341 12.7365 58.4681 13.2607 58.7336 14.1184C58.5975 14.0231 58.4545 13.9482 58.3116 13.8733C58.3252 13.179 58.4341 12.7297 58.4409 12.7297L58.4341 12.7365ZM57.5764 13.8461C57.624 13.9346 57.6853 14.0435 57.767 14.1728C57.8078 14.2477 57.8623 14.3294 57.9099 14.4043C57.9644 14.486 58.0188 14.5677 58.0801 14.6562C58.1414 14.7447 58.2026 14.8263 58.2707 14.9148C58.3388 15.0033 58.4069 15.085 58.4817 15.1599C58.5566 15.2416 58.6315 15.3165 58.7064 15.3982C58.7813 15.4798 58.8493 15.5683 58.9106 15.6568C59.0331 15.8338 59.1284 16.0312 59.1897 16.2014C59.2237 16.2899 59.2441 16.3716 59.2646 16.4465C59.2782 16.5214 59.2918 16.5826 59.2986 16.6371C59.2986 16.6507 59.2986 16.6643 59.2986 16.6779C59.3054 16.7596 59.3054 16.8073 59.3054 16.8073C59.3054 16.8073 59.3054 16.746 59.2782 16.6439C59.2714 16.5894 59.251 16.5282 59.2305 16.4601C59.2101 16.392 59.1829 16.3103 59.1488 16.2286C59.0808 16.0653 58.9855 15.8883 58.8629 15.7181C58.8017 15.6296 58.7336 15.5547 58.6655 15.473C58.5906 15.3981 58.5158 15.3165 58.4409 15.2416C58.366 15.1599 58.2911 15.0714 58.2231 14.9829C58.155 14.8944 58.0937 14.8059 58.0324 14.7174C57.9712 14.6289 57.9167 14.5404 57.8691 14.4519C57.8146 14.3634 57.7738 14.2818 57.7329 14.2069C57.6512 14.0503 57.59 13.9142 57.5491 13.8189C57.5355 13.7916 57.5287 13.7712 57.5219 13.7576C57.5015 13.7167 57.4947 13.6895 57.4879 13.6759C57.4879 13.6759 57.5219 13.744 57.5832 13.8529L57.5764 13.8461ZM56.2285 10.7283C56.2626 10.7896 56.3034 10.8441 56.3442 10.9053C56.3851 10.9666 56.4327 11.0279 56.4736 11.0891C56.4872 11.1027 56.494 11.1164 56.5076 11.13C56.4804 11.1164 56.4532 11.1096 56.4259 11.1027C56.3851 11.0483 56.351 10.9938 56.3102 10.9394C56.2285 10.81 56.1604 10.6875 56.106 10.5786C56.0515 10.4697 56.0107 10.3744 55.9835 10.3131C55.9562 10.2518 55.9426 10.211 55.9426 10.211C55.9426 10.211 55.9494 10.2314 55.963 10.2586C55.963 10.2586 55.963 10.2654 55.963 10.2723C55.963 10.2723 55.963 10.2791 55.963 10.2859C55.9971 10.3471 56.0447 10.4492 56.1196 10.5718C56.1468 10.6262 56.1809 10.6807 56.2217 10.7352L56.2285 10.7283ZM55.7792 9.97954C55.7792 9.97954 55.929 10.422 56.3442 11.0823C56.2081 11.0483 56.0788 11.0279 55.9426 11.0143C55.786 10.4152 55.7792 9.98635 55.7792 9.98635V9.97954ZM55.7384 11.5997C55.7997 11.6541 55.8677 11.7086 55.9358 11.7631C56.0039 11.8175 56.0788 11.872 56.1536 11.9196C56.2285 11.9741 56.3102 12.0149 56.3851 12.0626C56.4668 12.1034 56.5485 12.1511 56.6233 12.1919C56.705 12.2396 56.7799 12.2872 56.8548 12.3485C56.9977 12.4642 57.1203 12.5935 57.2156 12.7229C57.2632 12.7841 57.3041 12.8522 57.3313 12.9067C57.3653 12.9611 57.3858 13.0156 57.4062 13.0564C57.4402 13.1313 57.4538 13.179 57.4538 13.1926C57.4538 13.1926 57.4334 13.1381 57.3926 13.0632C57.3721 13.0224 57.3449 12.9748 57.3109 12.9203C57.2768 12.8658 57.236 12.8114 57.1883 12.7501C57.093 12.6344 56.9705 12.5119 56.8276 12.4097C56.7595 12.3553 56.6846 12.3076 56.6029 12.2668C56.5212 12.226 56.4464 12.1851 56.3647 12.1375C56.283 12.0898 56.2013 12.0353 56.1264 11.9809C56.0515 11.9264 55.9766 11.872 55.9018 11.8107C55.8337 11.7562 55.7656 11.695 55.7044 11.6337C55.6431 11.5724 55.5818 11.518 55.5342 11.4635C55.4321 11.3546 55.3504 11.2593 55.2891 11.1912C55.2347 11.1232 55.2074 11.0823 55.2074 11.0823C55.2074 11.0823 55.3436 11.2321 55.5546 11.4295C55.6091 11.4771 55.6635 11.5316 55.7316 11.5861L55.7384 11.5997ZM54.9487 10.9053C54.9487 10.9053 55.3027 11.4091 56.0651 12.0353C56.4464 12.3621 56.9773 12.3893 57.3653 13.1858C57.236 13.0428 57.1067 12.8726 56.9705 12.6548C57.0045 12.7501 57.025 13.1586 57.0862 13.6963C56.8276 13.6691 56.4736 13.5125 56.0856 12.9952C55.2891 11.9605 54.9487 10.9121 54.9487 10.9053ZM54.8602 12.2668C54.9079 12.294 54.9624 12.3281 55.0168 12.3553C55.0713 12.3825 55.1325 12.4097 55.1938 12.4438C55.2551 12.471 55.3163 12.4982 55.3844 12.5187C55.4321 12.5391 55.4865 12.5527 55.5342 12.5663C55.5546 12.5935 55.5682 12.6208 55.5886 12.648C55.5206 12.6276 55.4525 12.6072 55.3844 12.5799C55.3163 12.5527 55.2551 12.5255 55.1938 12.4982C55.1325 12.471 55.0713 12.437 55.0168 12.4029C54.9624 12.3689 54.9079 12.3349 54.8602 12.3076C54.7649 12.2464 54.6901 12.1851 54.6356 12.1375C54.588 12.0966 54.5607 12.0694 54.5607 12.0694C54.5607 12.0694 54.5743 12.083 54.6016 12.0966C54.588 12.0898 54.5811 12.083 54.5743 12.0762C54.5948 12.0898 54.6288 12.117 54.6833 12.1511C54.7309 12.1851 54.7922 12.226 54.8671 12.2668H54.8602ZM55.4797 13.4036C54.7105 12.7501 54.3293 11.9673 54.3225 11.9605C54.3225 11.9605 54.656 12.294 55.3231 12.6276C55.4253 12.6752 55.5274 12.7025 55.6363 12.7297C55.8882 13.1109 56.1809 13.4513 56.5212 13.6555C56.3374 13.7644 55.9766 13.8325 55.4729 13.3968L55.4797 13.4036ZM56.6914 13.7508C56.8276 13.8121 56.9637 13.8529 57.1135 13.8733C57.1339 14.0435 57.1611 14.2205 57.1883 14.4111C56.8684 14.3498 56.5348 14.2954 56.0992 13.8801C56.2898 13.9005 56.4872 13.8597 56.6914 13.7508ZM57.4811 16.6575C57.4811 16.6575 57.4811 16.6711 57.4811 16.6779C57.3517 16.569 57.2156 16.4192 57.0862 16.2082C56.4532 15.2144 56.2489 14.2477 56.2489 14.2409C56.2489 14.2409 56.5212 14.7242 57.1475 15.3301C57.2428 15.4254 57.3449 15.4935 57.4538 15.5615C57.6104 16.0653 57.8282 16.535 58.1414 16.8958C57.9848 16.9162 57.7534 16.8958 57.4947 16.6847C57.4947 16.6711 57.4811 16.6643 57.4743 16.6507L57.4811 16.6575ZM57.9508 19.714C57.5832 18.4138 57.6512 17.3178 57.6512 17.311C57.6512 17.311 57.801 17.9237 58.2843 18.8222C58.3592 18.9584 58.4545 19.0809 58.5498 19.2102C58.5566 19.7957 58.6247 20.3743 58.8357 20.878C58.577 20.8031 58.1822 20.5513 57.9508 19.714ZM57.6853 23.6622C57.7125 22.1578 58.1278 21.0414 58.1278 21.0346C58.1278 21.0346 58.1005 21.7357 58.3184 22.8794C58.3524 23.0564 58.4137 23.2197 58.4749 23.3967C58.2979 24.0094 58.1822 24.6425 58.2231 25.2551C58.0461 25.119 57.8282 24.8603 57.7329 24.3634C57.7329 24.3089 57.7465 24.2476 57.7533 24.1864C57.7533 24.1864 57.7397 24.2068 57.7125 24.2408C57.6853 24.0706 57.6785 23.88 57.6785 23.6622H57.6853ZM58.3796 26.0175C58.2707 26.1333 58.155 26.2626 58.0393 26.3919C57.8895 25.9699 57.7193 25.5478 57.7125 24.8603C57.8418 25.1258 58.0188 25.364 58.2639 25.5546C58.2911 25.7112 58.3252 25.8678 58.3796 26.0243V26.0175ZM59.1012 25.7248C59.1012 25.7248 58.6315 26.5417 58.1005 28.1142C57.9508 28.5498 57.9099 29.0468 57.7533 29.5573C57.6036 29.6186 57.0318 29.8705 56.3238 30.2517C56.3306 29.7956 56.4668 29.1829 56.9161 28.4477C57.9371 26.7051 59.0876 25.7316 59.1012 25.7316V25.7248ZM57.4743 25.4117C57.4743 25.4117 57.447 25.5274 57.4062 25.7248C57.3926 25.8133 57.3721 25.9154 57.3517 26.038C57.3381 26.1333 57.3245 26.2354 57.3109 26.3375C57.3109 26.3919 57.2973 26.4464 57.2905 26.5009C57.2905 26.5553 57.2768 26.6166 57.2768 26.671C57.2632 26.7868 57.2632 26.9093 57.2564 27.0318C57.2564 27.1339 57.2564 27.236 57.2564 27.3382C57.2292 27.379 57.202 27.4198 57.1679 27.4539C57.1679 27.4403 57.1679 27.4335 57.1679 27.4198C57.1679 27.2905 57.1679 27.1612 57.1679 27.0386C57.1679 26.9161 57.1815 26.7868 57.1952 26.671C57.2088 26.5485 57.2224 26.4396 57.2428 26.3307C57.2632 26.2218 57.2836 26.1196 57.2973 26.0243C57.3381 25.8337 57.3789 25.684 57.413 25.5751C57.447 25.4729 57.4674 25.4117 57.4674 25.4117H57.4743ZM56.0039 28.3048C56.0175 28.2639 56.0311 28.2299 56.0515 28.1891C56.0515 28.1891 56.0379 28.1959 56.0107 28.2163C56.0379 28.0121 56.0924 27.7738 56.1809 27.5151C56.6982 25.9767 57.4811 24.9828 57.4879 24.9828C57.4879 24.9828 57.236 25.6976 57.093 26.9774C57.0658 27.1748 57.0794 27.3722 57.0862 27.5832C56.6982 28.1414 56.3783 28.7405 56.2149 29.4008C56.0856 29.1897 55.9562 28.8358 56.0039 28.3116V28.3048ZM55.8201 28.8289C55.8677 29.1217 55.9698 29.4212 56.1468 29.7139C56.1128 29.9249 56.0992 30.1428 56.106 30.3606C55.9698 30.4355 55.8337 30.5103 55.6975 30.592C55.6703 30.0883 55.6159 29.5641 55.8269 28.8289H55.8201ZM52.9746 31.9535C53.0767 31.8242 53.1857 31.6812 53.315 31.5451C53.315 31.5451 53.2469 31.5587 53.1244 31.5927C53.2061 31.4293 53.3082 31.2523 53.4443 31.0685C54.4314 29.6662 55.5342 28.9242 55.541 28.9174C55.5342 28.9174 55.0713 29.5709 54.5403 30.8439C54.4586 31.0345 54.4042 31.2455 54.3497 31.4702C53.7847 31.9058 53.2741 32.4028 52.8997 33.0222C52.8385 32.7772 52.8113 32.4164 52.9678 31.9535H52.9746ZM55.4048 29.3599C55.4048 29.3599 55.2687 29.5982 55.0985 29.9658C55.0577 30.0543 55.01 30.1564 54.9624 30.2653C54.9419 30.3197 54.9147 30.3742 54.8943 30.4287C54.8739 30.4831 54.8466 30.5444 54.8262 30.6057C54.7786 30.7214 54.7377 30.8439 54.6969 30.9732C54.6628 31.0754 54.6288 31.1843 54.6016 31.2864C54.5607 31.3136 54.5199 31.3476 54.479 31.3749C54.479 31.3613 54.479 31.3545 54.4858 31.3408C54.5199 31.2047 54.5607 31.0754 54.6084 30.946C54.6492 30.8167 54.6969 30.6941 54.7513 30.5716C54.799 30.4491 54.8534 30.3402 54.9011 30.2313C54.9487 30.1223 55.0032 30.027 55.0509 29.9385C55.1462 29.7547 55.2346 29.6118 55.3027 29.5097C55.364 29.4076 55.4048 29.3531 55.4048 29.3531V29.3599ZM53.9208 32.3075C55.5001 30.8848 56.9841 30.2993 56.9909 30.3061C56.9841 30.3061 56.2626 30.9869 55.2278 32.4232C54.9555 32.7976 54.7649 33.2673 54.4722 33.7166C54.2408 33.7166 53.5941 33.7234 52.8044 33.7983C52.9746 33.3558 53.3014 32.8384 53.914 32.3075H53.9208ZM54.3837 33.8595C54.1455 34.1931 53.846 34.5062 53.3967 34.7513C53.6622 34.4586 53.9753 34.1591 54.3837 33.8595ZM52.75 33.3354C52.6751 33.4919 52.607 33.6553 52.5526 33.8255C52.4164 33.8391 52.2803 33.8527 52.1373 33.8732C52.2667 33.4307 52.3688 32.961 52.6751 32.43C52.6547 32.7159 52.6751 33.0154 52.75 33.3354ZM52.1237 32.607C52.0352 32.6887 51.9059 32.8112 51.7561 32.9678C51.6812 33.0427 51.6064 33.1244 51.5247 33.2197C51.4838 33.2673 51.443 33.3081 51.4021 33.3626C51.3613 33.4103 51.3136 33.4579 51.2728 33.5124C51.1843 33.6145 51.1026 33.7234 51.0209 33.8323C50.9529 33.9208 50.8848 34.0161 50.8167 34.1114C50.7623 34.125 50.7146 34.1386 50.6601 34.1523C50.6601 34.1386 50.6738 34.1318 50.6806 34.1182C50.7623 33.9957 50.8507 33.88 50.9324 33.7642C51.0209 33.6485 51.1094 33.5464 51.1979 33.4443C51.2388 33.3898 51.2864 33.3422 51.3341 33.3013C51.3749 33.2537 51.4226 33.206 51.4634 33.1652C51.5519 33.0767 51.6336 32.995 51.7153 32.9269C51.8718 32.784 52.0148 32.6751 52.1101 32.6002C52.2054 32.5253 52.2667 32.4845 52.2667 32.4845C52.2667 32.4845 52.2394 32.5117 52.185 32.5593C52.1646 32.573 52.1441 32.5934 52.1237 32.6138V32.607ZM49.7412 33.383C51.1911 32.3892 52.5526 32.0828 52.5594 32.0828C52.5526 32.0828 51.8718 32.5525 50.9052 33.6281C50.7554 33.7915 50.6329 33.9821 50.5036 34.1795C49.7956 34.3701 49.1217 34.656 48.5431 35.1257C48.5839 34.6968 48.8018 33.9957 49.7344 33.3762L49.7412 33.383ZM49.7888 34.8466C51.8378 34.091 53.5056 34.1454 53.5124 34.1591C53.5056 34.1523 52.5526 34.5335 51.0277 35.5546C50.1428 36.1332 49.4416 37.3925 47.5969 37.0726C47.6173 37.0385 47.767 35.5478 49.7888 34.8466ZM52.9746 36.9092C52.8997 36.916 52.8113 36.9296 52.716 36.9501C52.6206 36.9637 52.5185 36.9841 52.4096 37.0045C52.3552 37.0181 52.3007 37.0249 52.2394 37.0454C52.185 37.059 52.1237 37.0726 52.0625 37.0862C51.9467 37.1134 51.8242 37.1543 51.6949 37.1951C51.6676 37.2019 51.6336 37.2155 51.6064 37.2223C51.654 37.1747 51.7017 37.1202 51.7425 37.0726C51.8514 37.0385 51.9603 37.0113 52.0625 36.9841C52.185 36.9569 52.3007 36.9364 52.4096 36.916C52.5185 36.8956 52.6206 36.8888 52.716 36.8752C52.9066 36.8548 53.0631 36.8548 53.1652 36.8616C53.1788 36.8616 53.1925 36.8616 53.2061 36.8616C53.2878 36.8616 53.3354 36.8684 53.3354 36.8684C53.3354 36.8684 53.1925 36.8684 52.9678 36.9024L52.9746 36.9092ZM53.7847 36.739C53.7847 36.739 53.104 36.6573 51.865 36.9364C52.0625 36.6914 52.2326 36.4259 52.396 36.1536C53.281 36.3578 53.7847 36.7254 53.7847 36.739ZM52.8589 34.656C52.8589 34.656 52.8249 34.6764 52.8113 34.6832C52.6751 34.7581 52.4845 34.8738 52.2531 35.0168C52.1986 35.0508 52.1373 35.0917 52.0761 35.1325C52.0148 35.1733 51.9535 35.2142 51.8855 35.255C51.8174 35.2959 51.7561 35.3435 51.688 35.3912C51.62 35.4388 51.5519 35.4865 51.4838 35.5341C51.3477 35.6294 51.2047 35.7384 51.0686 35.8473C50.9256 35.9562 50.7895 36.0719 50.6533 36.1876C50.5172 36.3102 50.3742 36.4327 50.2381 36.5552C50.0951 36.671 49.9522 36.7799 49.8024 36.8752C49.6527 36.9705 49.5097 37.0454 49.3668 37.1066C49.2238 37.1679 49.0877 37.2155 48.9583 37.2496C48.8971 37.27 48.8358 37.2768 48.7745 37.2904C48.7133 37.2972 48.6588 37.3108 48.6112 37.3108C48.509 37.3176 48.4205 37.3245 48.3457 37.3245C48.2708 37.3245 48.2163 37.3176 48.1823 37.3108C48.1619 37.3108 48.1483 37.3108 48.1414 37.304C48.1346 37.304 48.1278 37.304 48.1278 37.304C48.1278 37.304 48.2095 37.3108 48.3525 37.304C48.4274 37.304 48.509 37.2904 48.6112 37.27C48.6588 37.2632 48.7133 37.2428 48.7745 37.2292C48.829 37.2087 48.8903 37.1951 48.9515 37.1747C49.074 37.1339 49.2034 37.0794 49.3395 37.0113C49.4757 36.9432 49.6118 36.8616 49.7548 36.7731C49.8977 36.6846 50.0339 36.5757 50.17 36.4599C50.3062 36.3442 50.4423 36.2149 50.5785 36.0923C50.7214 35.9698 50.8644 35.8541 51.0073 35.7452C51.1503 35.6362 51.2932 35.5341 51.4362 35.4388C51.5042 35.3912 51.5791 35.3435 51.6472 35.3027C51.7153 35.255 51.7833 35.2142 51.8514 35.1802C51.9808 35.0985 52.1101 35.0304 52.2326 34.9623C52.4709 34.833 52.6683 34.7445 52.8113 34.6764C52.8453 34.6628 52.8793 34.6492 52.9066 34.6356C52.9202 34.6356 52.927 34.6288 52.9338 34.622C52.9474 34.622 52.961 34.6083 52.9746 34.6083C53.0087 34.5947 53.0291 34.5879 53.0359 34.5879C53.0359 34.5879 52.9746 34.622 52.8657 34.6764L52.8589 34.656ZM55.9018 31.8446C55.8609 31.9058 55.8133 31.9671 55.7724 32.0352C55.7248 32.0965 55.6839 32.1645 55.6363 32.2326C55.5478 32.3687 55.4593 32.5117 55.364 32.6546C55.2755 32.7976 55.187 32.9474 55.1053 33.0971C55.0236 33.2537 54.9419 33.4103 54.8534 33.56C54.7649 33.7166 54.6696 33.8595 54.5675 33.9957C54.4654 34.1318 54.3633 34.2544 54.2544 34.3633C54.1455 34.4722 54.0434 34.5675 53.9413 34.6424C53.8868 34.6832 53.8392 34.7173 53.7915 34.7513C53.7439 34.7785 53.6962 34.8126 53.6554 34.833C53.5669 34.8806 53.492 34.9215 53.4239 34.9487C53.3626 34.9759 53.3082 34.9896 53.2742 35.0032C53.2537 35.0032 53.2469 35.01 53.2333 35.01C53.2265 35.01 53.2197 35.01 53.2197 35.01C53.2197 35.01 53.2742 34.9896 53.3763 34.9419C53.3899 34.9351 53.4035 34.9283 53.4239 34.9215C53.4852 34.8874 53.5601 34.8466 53.6417 34.7853C53.7234 34.7309 53.8187 34.656 53.914 34.5743C54.0093 34.4926 54.1114 34.3973 54.2067 34.2884C54.302 34.1795 54.4042 34.057 54.4995 33.9276C54.5948 33.7983 54.6833 33.6553 54.7649 33.5056C54.8466 33.3558 54.9283 33.1992 55.01 33.0427C55.0985 32.8861 55.187 32.7295 55.2823 32.5866C55.3776 32.4368 55.4729 32.2939 55.5682 32.1645C55.6159 32.0965 55.6635 32.0284 55.7112 31.9671C55.7588 31.9058 55.8065 31.8446 55.8541 31.7833C55.9494 31.6676 56.0379 31.5587 56.1196 31.4566C56.2898 31.2592 56.4395 31.1026 56.5417 31.0005C56.6438 30.8916 56.7118 30.8371 56.7118 30.8371C56.7118 30.8371 56.6574 30.8984 56.5553 31.0141C56.46 31.1298 56.3238 31.3 56.1673 31.5042C56.0856 31.6063 56.0039 31.722 55.9154 31.8378L55.9018 31.8446ZM56.9297 33.0699C56.882 33.1039 56.8412 33.1312 56.7935 33.1652C56.7459 33.1992 56.6982 33.2333 56.6506 33.2741C56.5553 33.349 56.46 33.4239 56.3647 33.5056C56.3442 33.526 56.317 33.5464 56.2966 33.5668C56.3238 33.5056 56.3442 33.4443 56.3715 33.3898C56.46 33.3218 56.5417 33.2537 56.6233 33.1924C56.7186 33.1175 56.8139 33.0563 56.9092 33.0018C56.9977 32.9406 57.0862 32.8929 57.1679 32.8453C57.3313 32.75 57.4674 32.6887 57.5627 32.6478C57.658 32.607 57.7125 32.5866 57.7125 32.5866C57.6989 32.5866 57.5832 32.6546 57.4062 32.7568C57.4062 32.7568 57.3994 32.7568 57.3926 32.7568C57.3653 32.7704 57.3381 32.7908 57.3109 32.8044C57.3041 32.8044 57.2973 32.8112 57.2836 32.818C57.2496 32.8384 57.2088 32.8657 57.1747 32.8861C57.093 32.9338 57.0114 32.995 56.9229 33.0563L56.9297 33.0699ZM56.4259 33.2333C56.5212 32.9542 56.5825 32.6751 56.6438 32.3892C57.4879 32.2054 58.0529 32.2939 58.0529 32.3007C58.0529 32.3007 57.4266 32.5117 56.4191 33.2333H56.4259Z" fill="#262626"/>
<path d="M34.9897 10.3807C34.9897 10.3807 34.9964 10.3741 35.0031 10.3674L34.9897 10.3807Z" fill="#262626"/>
<path d="M32.5926 12.6409C32.5926 12.6409 32.5861 12.6539 32.5796 12.6604L32.5926 12.6409Z" fill="#262626"/>
<path d="M32.0693 16.6637C32.0693 16.6637 32.0693 16.6504 32.076 16.6504V16.6637H32.0693Z" fill="#262626"/>
<path d="M41.0479 10.4286C41.0479 10.4286 42.4502 10.0474 44.7715 10.0474C47.0927 10.0474 48.495 10.4286 48.495 10.4286L48.6857 9.63218L49.6387 5.65671C49.6387 5.65671 48.9579 7.07263 48.1002 6.86841C48.1002 6.86841 48.9171 7.36535 48.7129 8.20264C48.5291 8.95145 47.7531 9.08759 47.474 9.45519C47.3787 9.22374 46.9226 8.82891 46.9226 8.41367C46.9226 7.95077 47.4059 7.79421 47.4059 7.79421C46.9362 7.79421 46.7592 6.97733 46.7592 6.97733C46.7592 6.97733 46.5822 7.79421 46.1125 7.79421C46.1125 7.79421 46.5958 7.95077 46.5958 8.41367C46.5958 8.82211 46.1465 9.06717 46.0512 9.29181C45.813 8.95145 45.0642 8.7268 45.0642 7.99842C45.0642 7.1339 45.9764 6.84118 45.9764 6.84118C45.0982 6.84118 44.7647 5.30273 44.7647 5.30273C44.7647 5.30273 44.4311 6.84118 43.553 6.84118C43.553 6.84118 44.4651 7.12709 44.4651 7.99842C44.4651 8.7268 43.7163 8.95145 43.4781 9.29181C43.3828 9.06717 42.9335 8.82891 42.9335 8.41367C42.9335 7.95077 43.4168 7.79421 43.4168 7.79421C42.9471 7.79421 42.7701 6.97733 42.7701 6.97733C42.7701 6.97733 42.5931 7.79421 42.1234 7.79421C42.1234 7.79421 42.6067 7.95077 42.6067 8.41367C42.6067 8.82891 42.1506 9.22374 42.0553 9.45519C41.7762 9.08759 41.0002 8.95825 40.8164 8.20264C40.6122 7.35854 41.4291 6.86841 41.4291 6.86841C40.5714 7.07263 39.8906 5.65671 39.8906 5.65671L40.8436 9.63218L41.0343 10.4286H41.0479Z" fill="#262626"/>
<path d="M33.9616 22.2189C34.0637 23.4102 34.3564 24.4722 34.7308 25.3571C35.0984 26.2421 35.5409 26.9568 35.9493 27.5014C36.3577 28.0528 36.7389 28.4272 36.9908 28.6859C37.2563 28.9309 37.3992 29.0603 37.3992 29.0603C37.3992 29.0603 37.2767 28.9105 37.0453 28.6314C36.8274 28.3455 36.5143 27.9235 36.1739 27.3516C35.8404 26.7798 35.5 26.0446 35.2209 25.1801C34.9486 24.3088 34.7716 23.2877 34.7512 22.1849C34.7444 21.0753 34.9146 19.8772 35.3298 18.6928C35.7383 17.5083 36.3986 16.3442 37.3039 15.33L37.4741 15.1393C37.5354 15.0781 37.5967 15.0168 37.6511 14.9556L37.8281 14.7718L38.0187 14.5948L38.2229 14.411L38.4135 14.2476L38.6041 14.0842L38.8152 13.9276C39.3734 13.5124 39.9792 13.1516 40.6191 12.8521C41.9057 12.2599 43.3352 11.9467 44.7715 11.9467C46.2079 11.9467 47.6374 12.2599 48.924 12.8521C49.5639 13.1516 50.1697 13.5124 50.7279 13.9276C51.2861 14.3429 51.7899 14.8126 52.246 15.3231C53.1377 16.3238 53.8048 17.4947 54.2133 18.6791C54.6285 19.8636 54.7987 21.0617 54.7919 22.1713C54.7919 22.7227 54.7306 23.2536 54.6489 23.7574C54.5741 24.2611 54.4515 24.7308 54.3222 25.1665C54.0431 26.0378 53.7027 26.7662 53.3692 27.338C53.0356 27.9098 52.7157 28.3319 52.4978 28.6178C52.2664 28.8969 52.1507 29.0467 52.1507 29.0467C52.1507 29.0467 52.2936 28.9173 52.5591 28.6723C52.811 28.4136 53.1922 28.0392 53.6006 27.4878C54.0091 26.9432 54.4515 26.2284 54.8191 25.3435C55.1935 24.4585 55.4862 23.3966 55.5884 22.2053C55.636 21.6063 55.6428 20.98 55.5884 20.3333C55.5339 19.6866 55.4046 19.0263 55.2139 18.3592C54.8327 17.025 54.1588 15.6907 53.1786 14.5063C52.2187 13.3422 50.9526 12.3143 49.5026 11.6268C49.1146 11.4362 48.7062 11.2728 48.2977 11.1367L48.4135 10.6465C48.4135 10.6465 46.9295 10.2517 44.7784 10.2517C42.6273 10.2517 41.1433 10.6465 41.1433 10.6465L41.259 11.1367C40.8437 11.2796 40.4421 11.4362 40.0541 11.6268C38.5973 12.3211 37.3448 13.3354 36.3782 14.5131C35.4047 15.6907 34.7308 17.025 34.3496 18.3592C33.9616 19.6934 33.8731 21.014 33.9752 22.2053L33.9616 22.2189Z" fill="#262626"/>
<path d="M63.9751 21.0753C63.9751 20.98 63.9615 20.8847 63.9547 20.7894C63.9411 20.5988 63.9275 20.415 63.9138 20.2312C63.8934 20.0474 63.873 19.8636 63.8526 19.6798C63.7573 18.9515 63.6279 18.2571 63.4578 17.6104C63.3829 17.2837 63.2876 16.9705 63.1923 16.671C63.097 16.3715 62.9881 16.0856 62.8928 15.8133C62.7838 15.541 62.6885 15.2823 62.5796 15.0441C62.4639 14.8058 62.3618 14.5744 62.2597 14.3633C62.1508 14.1523 62.0555 13.9549 61.9533 13.7779C61.858 13.6009 61.7559 13.4375 61.6742 13.2946C61.5109 13.0019 61.3543 12.7908 61.259 12.6343C61.1569 12.4845 61.1024 12.4028 61.1024 12.4028C61.1024 12.4028 61.1365 12.4913 61.2113 12.6547C61.2794 12.8181 61.3951 13.0631 61.5109 13.3695C61.5721 13.526 61.6402 13.6962 61.7151 13.88C61.7832 14.0706 61.858 14.2748 61.9397 14.4927C62.0078 14.7105 62.0895 14.9488 62.1644 15.1938C62.2393 15.4389 62.3141 15.7044 62.389 15.9767C62.5252 16.5281 62.6681 17.1203 62.7838 17.7534C62.9064 18.3864 62.9744 19.0604 63.0425 19.7615C63.1038 20.4627 63.1106 21.1842 63.1038 21.9194C63.0902 22.6546 63.0221 23.3966 62.9268 24.1386C62.8315 24.8806 62.6817 25.609 62.5115 26.3238C62.3346 27.0385 62.1235 27.7261 61.8853 28.3864C61.7627 28.7131 61.6402 29.0331 61.5041 29.3462C61.3815 29.6593 61.2386 29.9589 61.1024 30.2516C60.9663 30.5443 60.8097 30.8166 60.6804 31.0889C60.5306 31.3543 60.3945 31.613 60.2515 31.8581C59.9588 32.3414 59.6797 32.7839 59.421 33.1651C59.2849 33.3557 59.1624 33.5259 59.0466 33.6961C58.9241 33.8594 58.8152 34.0024 58.7131 34.1385C58.5157 34.4108 58.3455 34.6082 58.2298 34.7512C58.1208 34.8941 58.0596 34.969 58.0596 34.969C58.0596 34.969 58.1344 34.9078 58.2706 34.792C58.3387 34.7308 58.4204 34.6627 58.5225 34.5742C58.5701 34.5334 58.6246 34.4857 58.679 34.4381C58.7335 34.3836 58.7879 34.3291 58.8492 34.2747C58.9717 34.159 59.1011 34.0296 59.2508 33.8867C59.3938 33.7369 59.5368 33.5735 59.7001 33.4033C60.0133 33.0494 60.3536 32.6409 60.694 32.1712C60.871 31.9398 61.0344 31.6811 61.2113 31.4292C61.2998 31.2999 61.3747 31.1569 61.4632 31.0208C61.5449 30.8846 61.6334 30.7417 61.7151 30.5919C62.0486 30.0133 62.3686 29.3802 62.6477 28.6995C62.7226 28.5293 62.7838 28.3591 62.8519 28.1821C62.92 28.012 62.9881 27.835 63.0425 27.6512C63.1038 27.4742 63.165 27.2904 63.2263 27.1134C63.2808 26.9296 63.3284 26.7458 63.3829 26.562C63.5803 25.82 63.7437 25.0508 63.8458 24.2748C63.9411 23.4987 63.9955 22.7159 64.0023 21.9467C64.0023 21.7561 64.0023 21.5655 63.9955 21.3749V21.0889L63.9751 21.0753Z" fill="#262626"/>
<path d="M30.8508 34.1386C30.7487 34.0092 30.6397 33.8595 30.5172 33.6961C30.4015 33.5327 30.279 33.3557 30.1428 33.1651C29.8841 32.7839 29.5982 32.3482 29.3123 31.8581C29.1626 31.6199 29.0332 31.3544 28.8835 31.0889C28.7473 30.8166 28.5976 30.5443 28.4614 30.2516C28.3253 29.9589 28.1823 29.6594 28.0598 29.3462C27.9236 29.0331 27.8079 28.7131 27.6786 28.3864C27.4403 27.7261 27.2293 27.0317 27.0523 26.3238C26.8753 25.609 26.7324 24.8806 26.637 24.1386C26.5417 23.3966 26.4805 22.6547 26.4601 21.9195C26.4532 21.1843 26.4601 20.4627 26.5145 19.7615C26.5826 19.0672 26.6507 18.3865 26.7732 17.7534C26.8821 17.1203 27.0251 16.5213 27.168 15.9767C27.2497 15.7044 27.3246 15.4457 27.3927 15.1939C27.4743 14.9488 27.5492 14.7173 27.6173 14.4927C27.699 14.2749 27.7739 14.0706 27.8351 13.8869C27.9032 13.6962 27.9781 13.5261 28.0393 13.3763C28.1619 13.0632 28.2708 12.8249 28.3389 12.6615C28.4069 12.4982 28.4478 12.4097 28.4478 12.4097C28.4478 12.4097 28.3933 12.4914 28.2912 12.6411C28.1959 12.7909 28.0394 13.0087 27.876 13.3014C27.7943 13.4444 27.6922 13.6078 27.5969 13.7847C27.5016 13.9617 27.3995 14.1591 27.2905 14.3702C27.1884 14.5812 27.0863 14.8126 26.9706 15.0509C26.8617 15.296 26.7664 15.5546 26.6575 15.8201C26.5622 16.0924 26.4533 16.3783 26.3579 16.6778C26.2695 16.9774 26.1742 17.2905 26.0925 17.6173C25.9223 18.2639 25.7929 18.9583 25.6976 19.6867C25.6772 19.8705 25.6568 20.0543 25.6364 20.2381C25.616 20.4219 25.6091 20.6125 25.5955 20.7963C25.5615 21.1707 25.5615 21.5519 25.5547 21.9399C25.5547 22.7091 25.616 23.492 25.7113 24.268C25.8202 25.044 25.9835 25.8064 26.181 26.5552C26.2354 26.739 26.2831 26.9228 26.3375 27.1066C26.392 27.2904 26.4601 27.4674 26.5213 27.6444C26.5826 27.8214 26.6439 27.9984 26.7119 28.1686C26.78 28.3387 26.8413 28.5157 26.9161 28.6859C27.1952 29.3598 27.5152 29.9929 27.8487 30.5715C27.9304 30.7213 28.0189 30.8574 28.1006 30.9936C28.1823 31.1297 28.264 31.2727 28.3525 31.402C28.5295 31.6607 28.6997 31.9126 28.8698 32.144C29.2102 32.6137 29.5506 33.0222 29.8637 33.3761C30.0203 33.5463 30.17 33.7165 30.313 33.8595C30.4559 34.0024 30.5921 34.1318 30.7146 34.2543C30.7759 34.3156 30.8303 34.37 30.8848 34.4245C30.9393 34.4721 30.9937 34.5198 31.0414 34.5606C31.1367 34.6491 31.2252 34.7172 31.2932 34.7784C31.4294 34.8942 31.5043 34.9554 31.5043 34.9554C31.5043 34.9554 31.443 34.8806 31.3341 34.7376C31.2252 34.5947 31.0482 34.3972 30.8508 34.1249V34.1386Z" fill="#262626"/>
<path d="M79.7132 30.3198C80.2578 30.2449 80.8296 30.17 81.4218 30.0747C81.7214 30.0339 82.0209 29.9862 82.3272 29.9454L82.5587 29.9114L82.6744 29.8977L82.7969 29.8773C82.865 29.8705 82.9671 29.8365 83.0488 29.8092C83.1305 29.7752 83.2122 29.7548 83.287 29.7139C83.6002 29.571 83.8861 29.3463 84.1107 29.0672C84.3286 28.7881 84.4851 28.441 84.5124 28.0666C84.5192 27.9713 84.5124 27.8896 84.5124 27.8147V27.5764C84.5124 27.4199 84.5124 27.2565 84.5124 27.0999C84.5124 26.78 84.5124 26.4669 84.5124 26.1469C84.5124 25.5206 84.4987 24.9012 84.4919 24.3021C84.4783 23.1041 84.4511 21.9877 84.4239 21.0278C84.3694 19.1082 84.2945 17.8352 84.2945 17.8352C84.2945 17.8352 84.2196 19.115 84.1652 21.0278C84.1379 21.9877 84.1107 23.1041 84.0971 24.3021C84.0971 24.9012 84.0767 25.5206 84.0767 26.1469C84.0767 26.4601 84.0767 26.78 84.0767 27.0999C84.0767 27.2565 84.0767 27.4199 84.0767 27.5764V27.8147C84.0767 27.8964 84.0767 27.9781 84.0767 28.0393C84.0426 28.5771 83.6342 29.0809 83.1237 29.3123C83.0624 29.3463 82.9943 29.3668 82.9331 29.394C82.865 29.4144 82.8173 29.4348 82.7356 29.4485L82.6335 29.4689L82.5178 29.4893L82.2864 29.5301C81.98 29.5846 81.6805 29.6323 81.3878 29.6867C80.7956 29.7888 80.2306 29.8909 79.686 29.993C79.1482 30.0883 78.6377 30.1836 78.1611 30.2789C76.2755 30.6329 75.0298 30.912 75.0298 30.912C75.0298 30.912 76.3027 30.7895 78.202 30.5376C78.6785 30.4764 79.189 30.4083 79.7336 30.3334L79.7132 30.3198Z" fill="#262626"/>
<path d="M7.17496 29.5979C7.81485 29.7205 8.73383 29.9111 9.82981 30.1085C10.3812 30.2106 10.9802 30.3195 11.6065 30.4352C12.2396 30.5441 12.9067 30.6667 13.5942 30.7824C14.2954 30.9186 15.1599 30.8777 15.8202 30.3603C16.147 30.1085 16.3988 29.7 16.4261 29.2644C16.4261 29.2099 16.4329 29.1555 16.4329 29.1078V28.9717V28.6926V28.1344C16.4329 27.3856 16.4329 26.6436 16.4329 25.9084C16.4329 25.1732 16.4193 24.4516 16.4125 23.7505C16.3988 22.3482 16.3716 21.048 16.3444 19.9248C16.3172 18.8084 16.2763 17.8758 16.2559 17.2223C16.2491 16.8955 16.2287 16.6368 16.2219 16.4667C16.2151 16.2897 16.2082 16.2012 16.2082 16.2012C16.2082 16.2012 16.2082 16.2965 16.1946 16.4667C16.1878 16.6436 16.1742 16.8955 16.1606 17.2223C16.1402 17.8758 16.0993 18.8084 16.0721 19.9248C16.0449 21.0412 16.0176 22.3482 16.004 23.7505C16.004 24.4516 15.9836 25.1732 15.9836 25.9084C15.9836 26.6436 15.9836 27.3924 15.9768 28.1344V28.6926V28.9717V29.1078C15.9768 29.1555 15.9768 29.1895 15.9768 29.2303C15.9564 29.5367 15.7862 29.8226 15.5411 30.02C15.2961 30.2242 14.9761 30.3399 14.6494 30.4012C14.3158 30.4557 13.9959 30.442 13.6555 30.3876C12.9612 30.2855 12.294 30.1902 11.661 30.1017C11.0279 30.0132 10.422 29.9315 9.87065 29.8566C8.76106 29.7069 7.83527 29.5979 7.18858 29.5162C6.86182 29.4754 6.60995 29.4482 6.43296 29.4278C6.25597 29.4073 6.16748 29.4005 6.16748 29.4005C6.16748 29.4005 6.25597 29.4209 6.43296 29.455C6.60315 29.489 6.85502 29.5435 7.17496 29.6047V29.5979Z" fill="#262626"/>
</g>
<defs>
<clipPath id="clip0_0_2194">
<rect width="89.55" height="46.276" fill="white"/>
</clipPath>
</defs>
</svg>
