<svg width="51" height="74" viewBox="0 0 51 74" fill="none" xmlns="http://www.w3.org/2000/svg">
<g clip-path="url(#clip0_0_2089)">
<path d="M29.21 9.46C29.11 9.04 29 8.66 28.87 8.29C28.93 8.12 28.96 7.93 28.96 7.74C28.96 6.98 28.48 6.33 27.8 6.08C27.47 5.58 27.11 5.17 26.73 4.83C27.05 3.56 27.14 2.24 26.58 1.28C26.23 0.69 25.5 0 24 0C23.98 0 23.95 0 23.93 0C22.32 0.02 21.57 0.76 21.23 1.38C20.7 2.32 20.8 3.56 21.11 4.71C20.82 5.02 20.59 5.37 20.42 5.78C20.37 5.9 20.33 6.01 20.28 6.13C19.68 6.41 19.26 7.02 19.26 7.73C19.26 7.96 19.31 8.18 19.39 8.39C18.64 10.17 17.51 12.45 15.17 15.93C14.29 17.24 13.21 18.67 12.07 20.2C6.97 26.99 0 36.31 0 48.09C0 51.79 0.63 55.27 1.88 58.42C3.09 61.49 4.86 64.19 7.14 66.44C11.66 70.92 18.01 73.39 25.02 73.39C31.28 73.39 37.62 70.76 42.42 66.18C47.26 61.56 50.03 55.42 50.03 49.34C50.03 37.47 42.28 27.73 36.04 19.9C32.72 15.74 29.86 12.14 29.21 9.45V9.46ZM48.76 50.26C48.76 50.58 48.71 50.9 48.69 51.21C48.67 51.53 48.62 51.84 48.57 52.16C48.38 53.42 48.09 54.65 47.68 55.82C47.27 56.99 46.77 58.12 46.2 59.18C45.05 61.3 43.6 63.16 42.04 64.71C40.48 66.27 38.8 67.52 37.16 68.51C35.52 69.51 33.89 70.2 32.41 70.69C30.93 71.18 29.6 71.46 28.5 71.63C27.4 71.78 26.52 71.83 25.92 71.84C25.72 71.84 25.55 71.84 25.42 71.84C25.17 71.86 24.97 71.86 24.84 71.85C24.71 71.85 24.64 71.85 24.64 71.85C24.64 71.85 24.71 71.85 24.84 71.83C24.97 71.82 25.16 71.79 25.4 71.73C25.89 71.63 26.59 71.39 27.37 70.92C28.15 70.44 29.01 69.72 29.84 68.75C30.25 68.27 30.67 67.73 31.06 67.13C31.46 66.54 31.84 65.89 32.21 65.19C32.57 64.49 32.92 63.75 33.24 62.96C33.56 62.18 33.86 61.35 34.13 60.49C34.67 58.77 35.1 56.91 35.38 54.97C35.66 53.03 35.8 50.99 35.76 48.95C35.76 48.69 35.75 48.42 35.74 48.16C35.74 47.89 35.73 47.63 35.71 47.37C35.68 46.85 35.66 46.34 35.62 45.82C35.57 45.3 35.54 44.77 35.48 44.25C35.42 43.73 35.37 43.2 35.29 42.68C35.02 40.59 34.62 38.51 34.15 36.48C34.03 35.97 33.91 35.47 33.78 34.97C33.72 34.72 33.65 34.47 33.59 34.22C33.52 33.97 33.45 33.72 33.38 33.48C33.25 32.99 33.1 32.5 32.96 32.01C32.82 31.52 32.67 31.04 32.52 30.57C31.92 28.67 31.3 26.84 30.68 25.11C30.05 23.38 29.46 21.74 28.91 20.22C28.36 18.71 27.88 17.3 27.48 16.04C27.08 14.79 26.79 13.67 26.59 12.74C26.48 12.28 26.42 11.86 26.35 11.5C26.3 11.14 26.26 10.83 26.23 10.57C26.19 10.07 26.17 9.8 26.17 9.8C26.17 9.8 26.23 10.06 26.34 10.55C26.4 10.79 26.48 11.09 26.58 11.44C26.69 11.79 26.81 12.19 26.96 12.63C27.26 13.51 27.68 14.57 28.18 15.77C28.69 16.97 29.3 18.31 29.95 19.78C30.61 21.25 31.33 22.84 32.05 24.55C32.77 26.26 33.5 28.08 34.17 30C34.51 30.96 34.84 31.94 35.14 32.94C35.22 33.19 35.29 33.44 35.37 33.69C35.44 33.94 35.51 34.2 35.59 34.45C35.74 34.96 35.87 35.48 36 36C36.53 38.08 36.95 40.22 37.24 42.39C37.38 43.47 37.49 44.56 37.57 45.65C37.61 46.19 37.63 46.75 37.65 47.29C37.66 47.57 37.67 47.83 37.67 48.1C37.67 48.37 37.67 48.63 37.67 48.89C37.69 51.07 37.48 53.2 37.11 55.23C36.74 57.26 36.2 59.19 35.53 60.96C35.19 61.84 34.83 62.69 34.44 63.49C34.05 64.29 33.62 65.04 33.19 65.74C32.75 66.44 32.3 67.09 31.83 67.68C31.36 68.27 30.87 68.79 30.38 69.26C29.89 69.72 29.41 70.13 28.92 70.46C28.44 70.79 27.97 71.05 27.53 71.25C26.8 71.59 26.15 71.73 25.66 71.8C25.73 71.8 25.8 71.8 25.88 71.79C26.47 71.76 27.34 71.67 28.44 71.49C29.53 71.29 30.84 70.97 32.29 70.45C32.66 70.33 33.02 70.17 33.4 70.01C33.78 69.86 34.16 69.67 34.55 69.49C34.94 69.31 35.33 69.09 35.73 68.89C36.12 68.66 36.53 68.44 36.93 68.19C38.53 67.19 40.16 65.92 41.67 64.37C42.42 63.59 43.15 62.75 43.82 61.83C44.48 60.91 45.13 59.95 45.67 58.9C46.22 57.86 46.7 56.76 47.09 55.62C47.48 54.48 47.76 53.28 47.93 52.06C47.97 51.76 48.02 51.45 48.04 51.14C48.06 50.83 48.1 50.52 48.11 50.21C48.11 49.9 48.12 49.6 48.13 49.29L48.1 48.34C48.1 47.7 48.01 47.09 47.96 46.47C47.94 46.32 47.93 46.16 47.91 46.01L47.83 45.55L47.68 44.62C47.23 42.15 46.43 39.75 45.44 37.47C44.45 35.2 43.25 33.05 41.98 31.05C39.43 27.05 36.68 23.55 34.33 20.55C33.15 19.05 32.09 17.66 31.19 16.4C30.29 15.14 29.55 14 29.01 13.03C28.45 12.06 28.14 11.24 27.94 10.68C27.85 10.4 27.8 10.17 27.75 10.03C27.71 9.88 27.69 9.81 27.69 9.81C27.69 9.81 27.71 9.89 27.76 10.03C27.81 10.18 27.87 10.4 27.97 10.67C28.19 11.22 28.54 12.02 29.12 12.97C29.69 13.92 30.46 15.03 31.39 16.26C32.32 17.49 33.43 18.84 34.62 20.33C35.82 21.81 37.12 23.41 38.46 25.14C39.8 26.87 41.17 28.73 42.46 30.75C43.76 32.76 44.98 34.92 46 37.23C47.02 39.53 47.86 41.98 48.33 44.51L48.48 45.46L48.55 45.94C48.57 46.1 48.58 46.26 48.6 46.42C48.66 47.06 48.74 47.71 48.74 48.34L48.77 49.29C48.77 49.63 48.75 49.94 48.74 50.26H48.76ZM20.71 6.7C22.02 6.36 22.64 7.5 24.49 8.12C26.34 8.74 28.3 7.91 28.3 7.91C26.67 9.65 22.18 9.15 20.91 8.79C19.64 8.43 20.03 6.87 20.72 6.69L20.71 6.7ZM24.35 71.85C24.35 71.85 3.11 71.02 1.89 48.62C1.35 38.74 6.37 31.57 11.6 24.18C16.48 17.28 21.59 9.81 21.59 9.81C21.59 9.81 9.24 31.09 9.24 48.89C9.24 64.34 18.28 70.64 24.34 71.84L24.35 71.85ZM22.96 2.35C23.09 2.11 23.43 1.99 23.96 1.98C23.98 1.98 23.99 1.98 24 1.98C24.68 1.98 24.82 2.21 24.87 2.29C25.06 2.61 25.06 3.14 24.93 3.78C24.52 3.65 24.12 3.59 23.73 3.59C23.45 3.59 23.17 3.62 22.9 3.68C22.79 3.12 22.78 2.64 22.95 2.35H22.96Z" fill="#262626"/>
</g>
<defs>
<clipPath id="clip0_0_2089">
<rect width="50.02" height="73.39" fill="white"/>
</clipPath>
</defs>
</svg>
