<svg width="46" height="77" viewBox="0 0 46 77" fill="none" xmlns="http://www.w3.org/2000/svg">
<g clip-path="url(#clip0_0_2098)">
<path d="M44.4499 31.68C44.4499 28.14 42.4699 25.95 40.6299 25.95H39.8299V16.62C39.8299 11.62 38.0699 -0.0100098 21.7999 -0.0100098C14.7999 -0.0100098 10.5599 1.78999 8.0099 4.39999C5.9499 5.45999 4.0999 6.88999 2.7099 8.76999C-0.350102 12.93 -0.820103 18.57 1.3099 25.54L4.0399 34.48L3.9099 34.52C2.9299 34.84 2.1699 35.76 1.8199 37.05C1.5899 37.9 1.4399 39.31 2.0299 41.14C2.3299 42.07 2.6199 43.67 2.9499 45.53C3.4999 48.61 4.2599 52.82 5.6299 57.06C6.9999 61.3 8.8399 65.17 10.1899 67.99C10.9999 69.69 11.6999 71.16 11.9999 72.09C12.9699 75.12 15.0699 76.49 16.5999 76.49C16.8699 76.49 17.1399 76.45 17.3899 76.37L18.8999 75.89L20.4099 75.41C21.3899 75.09 22.1499 74.17 22.4999 72.88C22.7299 72.03 22.8799 70.62 22.2899 68.79C21.9899 67.86 21.6999 66.26 21.3699 64.4C20.8199 61.32 20.0599 57.11 18.6899 52.87C17.3199 48.63 15.4799 44.76 14.1299 41.94C13.3199 40.24 12.6199 38.77 12.3199 37.84C11.3499 34.81 9.2499 33.44 7.7199 33.44C7.4499 33.44 7.1799 33.48 6.9299 33.56L5.9399 33.88L3.2099 24.97C1.2699 18.63 1.6399 13.58 4.3099 9.96999C4.6199 9.54999 4.9599 9.15999 5.3199 8.78999C4.4799 11.13 4.2799 13.64 4.2799 15.9C4.2799 19.81 5.6299 23.71 7.9799 26.61C9.9199 29.01 13.4699 31.86 19.3599 31.86C24.2099 31.86 29.0599 30.22 32.6499 27.37C35.1499 25.39 36.9099 22.97 37.8299 20.31V25.96H37.4599C35.6199 25.96 33.6399 28.15 33.6399 31.69C33.6399 32.67 33.4199 34.28 33.1699 36.15C32.7499 39.25 32.1799 43.49 32.1799 47.95C32.1799 52.41 32.7499 56.65 33.1699 59.75C33.4199 61.62 33.6399 63.24 33.6399 64.21C33.6399 67.75 35.6199 69.94 37.4599 69.94H40.6199C42.4599 69.94 44.4399 67.75 44.4399 64.21C44.4399 63.23 44.6599 61.62 44.9099 59.75C45.3299 56.65 45.8999 52.41 45.8999 47.95C45.8999 43.49 45.3299 39.25 44.9099 36.15C44.6599 34.28 44.4399 32.66 44.4399 31.69L44.4499 31.68ZM11.1999 38.58C11.2799 38.8 11.4299 39.12 11.6099 39.53C11.9799 40.34 12.5599 41.48 13.2499 42.85C13.5899 43.54 13.9599 44.28 14.3399 45.07C14.7199 45.86 15.1099 46.7 15.4899 47.58C15.6799 48.02 15.8799 48.47 16.0599 48.92C16.2499 49.37 16.4399 49.84 16.6199 50.31C16.9899 51.25 17.3199 52.22 17.6499 53.19C17.9599 54.17 18.2499 55.15 18.4999 56.13C18.6299 56.62 18.7499 57.1 18.8599 57.58C18.9799 58.06 19.0799 58.54 19.1799 59.01C19.3799 59.95 19.5499 60.86 19.7099 61.72C19.8699 62.58 19.9999 63.4 20.1199 64.16C20.3699 65.67 20.5499 66.93 20.7299 67.81C20.8199 68.25 20.8799 68.59 20.9499 68.82C21.0099 69.05 21.0399 69.18 21.0399 69.18C21.0399 69.18 20.9999 69.06 20.9299 68.83C20.8899 68.72 20.8499 68.58 20.7999 68.41C20.7499 68.24 20.6999 68.05 20.6499 67.83C20.4399 66.96 20.1699 65.71 19.8799 64.21C19.7299 63.46 19.5699 62.65 19.3899 61.79C19.2099 60.93 19.0199 60.03 18.7999 59.1C18.5899 58.17 18.3499 57.21 18.0899 56.24C17.8399 55.27 17.5399 54.29 17.2399 53.33C17.0799 52.85 16.9199 52.36 16.7499 51.88C16.5799 51.4 16.4199 50.93 16.2299 50.46C15.8699 49.52 15.5099 48.61 15.1399 47.73C14.7699 46.85 14.3999 46 14.0499 45.2C13.6899 44.4 13.3499 43.65 13.0299 42.95C12.3899 41.56 11.8799 40.39 11.5399 39.56C11.4499 39.35 11.3899 39.16 11.3299 39C11.2699 38.84 11.2199 38.7 11.1899 38.58C11.1199 38.35 11.0799 38.23 11.0799 38.23C11.0799 38.23 11.1299 38.35 11.2099 38.57L11.1999 38.58ZM13.1299 71.36C13.0399 71.14 12.8799 70.83 12.6899 70.43C12.4899 70.03 12.2399 69.55 11.9599 68.99C11.6799 68.44 11.3499 67.81 11.0099 67.13C10.6599 66.45 10.2899 65.7 9.9199 64.91C9.5499 64.11 9.1499 63.28 8.7699 62.39C8.5799 61.95 8.3899 61.5 8.1999 61.04C8.0099 60.58 7.8299 60.12 7.6499 59.64C7.4699 59.17 7.2899 58.69 7.1199 58.2C6.9499 57.71 6.7899 57.24 6.6299 56.75C6.3199 55.77 6.0299 54.78 5.7799 53.81C5.6499 53.32 5.5299 52.84 5.4099 52.35C5.2899 51.87 5.1899 51.39 5.0899 50.92C4.8799 49.98 4.7099 49.07 4.5499 48.2C4.3899 47.34 4.2599 46.52 4.1399 45.76C4.0199 45 3.9199 44.31 3.8199 43.7C3.7199 43.09 3.6399 42.55 3.5699 42.11C3.4899 41.67 3.4399 41.33 3.3899 41.09C3.3399 40.85 3.3199 40.73 3.3199 40.73C3.3199 40.73 3.3699 40.85 3.4499 41.07C3.4899 41.18 3.5399 41.32 3.5999 41.49C3.6599 41.65 3.7199 41.85 3.7899 42.06C4.0599 42.92 4.3899 44.15 4.7599 45.64C4.9399 46.38 5.1399 47.18 5.3599 48.03C5.5799 48.88 5.8099 49.77 6.0399 50.69C6.2799 51.61 6.5399 52.56 6.8099 53.52C7.0799 54.48 7.3799 55.45 7.6799 56.41C7.8399 56.88 7.9999 57.38 8.1599 57.85C8.3299 58.32 8.4799 58.8 8.6599 59.27C8.9999 60.21 9.3399 61.13 9.6799 62.02C10.0299 62.91 10.3599 63.77 10.6799 64.58C10.9999 65.39 11.3099 66.16 11.5899 66.87C12.1599 68.29 12.6099 69.49 12.8899 70.34C12.9599 70.55 13.0199 70.74 13.0699 70.91C13.1199 71.08 13.1599 71.22 13.1899 71.34C13.2499 71.57 13.2799 71.7 13.2799 71.7C13.2799 71.7 13.2299 71.58 13.1299 71.36ZM9.4299 37.21C6.1799 39.06 4.2099 40.45 3.8899 40.35C3.5699 40.25 3.6099 39.96 3.4899 39.12L9.4399 37.21H9.4299ZM9.9599 38.84C6.5899 40.73 4.5299 42.15 4.1999 42.05C3.8699 41.95 3.9099 41.66 3.7999 40.82L9.9599 38.84ZM14.0999 71.55C13.7599 71.51 13.5799 71.22 13.1699 70.28L19.4699 68.37C16.0999 70.27 14.6799 71.62 14.0999 71.55ZM20.0399 70.14C16.7999 71.99 15.4399 73.33 14.8799 73.25C14.5499 73.21 14.3799 72.92 13.9699 71.98L20.0399 70.14ZM4.1099 36.54C3.4799 37.1 2.9699 38.23 2.9699 38.23C3.0699 36.9 3.6599 35.99 4.3299 35.77C4.5899 35.69 4.8099 35.62 4.9999 35.55C5.5699 35.37 5.8399 35.28 5.8399 35.28C5.8399 35.28 6.0299 35.22 6.4199 35.09C6.6499 35.01 6.9599 34.92 7.3499 34.79C7.3499 34.79 5.0799 35.67 4.1199 36.52L4.1099 36.54ZM30.3899 5.64999C29.3699 5.17999 28.1999 4.82999 26.8799 4.58999C26.4399 4.32999 25.9799 4.09999 25.4999 3.89999C27.3299 4.27999 28.9699 4.86999 30.3899 5.64999ZM22.0599 6.18999C23.1599 6.18999 24.1799 6.23999 25.1099 6.33999C27.3399 8.69999 28.3999 12.39 28.3999 15.92C28.3999 21.43 24.7699 24.99 19.1499 24.99C16.6799 24.99 14.7499 23.99 13.3999 22.03C12.1699 20.23 11.7299 18.01 11.7299 16.53C11.7299 12.09 12.7999 6.18999 22.0699 6.18999H22.0599ZM7.4199 16.29C7.4199 13.57 8.0399 8.31999 12.4299 5.41999C9.6299 7.75999 8.0499 11.57 8.0499 16.47C8.0499 18.9 8.5499 21.02 9.3699 22.83C8.0999 21.11 7.4299 18.9 7.4299 16.29H7.4199ZM11.1799 27.07C11.9599 27.53 12.8199 27.91 13.7499 28.21C14.4299 28.7 15.1399 29.11 15.8499 29.44C13.9999 28.97 12.4499 28.14 11.1799 27.07ZM19.4399 27.06C17.6499 27.06 16.0299 26.83 14.6099 26.4C13.5899 25.61 12.6499 24.59 11.8899 23.36C13.6099 25.74 16.1099 26.99 19.1499 26.99C25.8799 26.99 30.3899 22.55 30.3899 15.93C30.3899 13.83 30.0499 11.68 29.3699 9.70999C30.3799 11.36 30.9499 13.35 30.9499 15.56C30.9499 22.33 26.2199 27.06 19.4499 27.06H19.4399ZM29.5699 24.82C31.7399 22.4 32.9299 19.13 32.9299 15.56C32.9299 12.77 32.1299 10.17 30.6499 8.05999C31.1499 8.37999 31.5799 8.74999 31.9599 9.15999C33.5199 10.85 34.2199 13.36 34.2199 17.3C34.2199 20.76 31.5599 23.37 29.5699 24.83V24.82ZM35.5899 20.55C35.9899 19.53 36.2099 18.44 36.2099 17.29C36.2099 13.64 35.6399 11.01 34.3699 9.03999C35.7999 10.95 36.5799 13.27 36.5799 15.93C36.5799 17.53 36.2399 19.09 35.5899 20.56V20.55ZM44.6899 51C44.6599 51.5 44.6299 52 44.5899 52.49C44.5499 52.98 44.4999 53.47 44.4599 53.95C44.3699 54.91 44.2499 55.82 44.1299 56.7C44.0099 57.57 43.8899 58.39 43.7799 59.15C43.5499 60.66 43.3399 61.92 43.2399 62.81C43.1899 63.25 43.1499 63.6 43.1399 63.84C43.1299 64.08 43.1199 64.21 43.1199 64.21C43.1199 64.21 43.1199 64.08 43.1199 63.84C43.1199 63.72 43.1199 63.57 43.1199 63.4C43.1199 63.23 43.1299 63.03 43.1499 62.8C43.2099 61.91 43.3399 60.64 43.5199 59.11C43.6099 58.35 43.6999 57.53 43.7999 56.65C43.8899 55.78 43.9799 54.86 44.0699 53.91C44.1499 52.96 44.2199 51.97 44.2699 50.97C44.3199 49.97 44.3399 48.95 44.3499 47.94C44.3499 47.43 44.3499 46.92 44.3299 46.41C44.3099 45.9 44.2999 45.4 44.2699 44.9C44.2199 43.9 44.1599 42.92 44.0699 41.96C43.9899 41.01 43.8999 40.09 43.7999 39.22C43.6999 38.35 43.6099 37.52 43.5199 36.76C43.3399 35.24 43.2099 33.97 43.1499 33.07C43.1299 32.85 43.1299 32.65 43.1199 32.47C43.1199 32.3 43.1099 32.15 43.1199 32.03C43.1199 31.79 43.1199 31.66 43.1199 31.66C43.1199 31.66 43.1199 31.79 43.1399 32.03C43.1399 32.27 43.1899 32.62 43.2399 33.06C43.3399 33.95 43.5499 35.21 43.7799 36.72C43.8999 37.48 44.0199 38.3 44.1299 39.17C44.2499 40.04 44.3599 40.96 44.4599 41.92C44.5099 42.4 44.5599 42.88 44.5899 43.38C44.6299 43.87 44.6699 44.37 44.6899 44.87C44.7499 45.88 44.7699 46.91 44.7799 47.92C44.7699 48.95 44.7499 49.97 44.6899 50.98V51ZM34.9199 63.84C34.8999 63.6 34.8399 63.25 34.7799 62.81C34.7099 62.37 34.6299 61.83 34.5299 61.22C34.4299 60.61 34.3099 59.92 34.1999 59.16C34.0799 58.4 33.9599 57.58 33.8399 56.71C33.7299 55.84 33.6099 54.92 33.5199 53.96C33.4699 53.48 33.4299 53 33.3899 52.5C33.3499 52.01 33.3199 51.51 33.2899 51C33.2599 50.5 33.2399 49.98 33.2299 49.47C33.2199 48.96 33.2099 48.46 33.2099 47.93C33.2099 46.9 33.2399 45.87 33.2999 44.87C33.3299 44.37 33.3599 43.87 33.3999 43.37C33.4399 42.88 33.4799 42.39 33.5299 41.91C33.6199 40.95 33.7399 40.03 33.8499 39.16C33.9599 38.29 34.0899 37.47 34.2099 36.71C34.3199 35.95 34.4399 35.26 34.5399 34.65C34.6399 34.04 34.7199 33.5 34.7899 33.06C34.8499 32.62 34.9099 32.27 34.9299 32.03C34.9599 31.79 34.9699 31.66 34.9699 31.66C34.9699 31.66 34.9699 31.79 34.9899 32.03C34.9899 32.15 34.9999 32.3 35.0099 32.47C35.0099 32.64 35.0099 32.85 35.0099 33.07C35.0099 33.97 34.9399 35.25 34.8399 36.77C34.7899 37.53 34.7299 38.36 34.6699 39.23C34.6199 40.1 34.5599 41.02 34.4999 41.97C34.4499 42.92 34.3999 43.9 34.3699 44.9C34.3399 45.9 34.3199 46.91 34.3199 47.92C34.3199 48.42 34.3199 48.94 34.3299 49.44C34.3499 49.94 34.3499 50.44 34.3699 50.94C34.3999 51.94 34.4499 52.92 34.4999 53.87C34.5599 54.82 34.6099 55.74 34.6699 56.61C34.7299 57.48 34.7799 58.31 34.8399 59.07C34.9399 60.6 34.9999 61.88 35.0099 62.77C35.0099 62.99 35.0099 63.19 35.0099 63.37C35.0099 63.54 35.0099 63.69 34.9899 63.81C34.9799 64.05 34.9699 64.18 34.9699 64.18C34.9699 64.18 34.9599 64.05 34.9299 63.81L34.9199 63.84ZM37.4499 27.28H37.8199V27.31H39.8099V27.28H40.6099C40.6099 27.28 38.1799 27.43 36.9999 27.94C36.2299 28.28 35.3999 29.2 35.3999 29.2C35.8999 27.96 36.7399 27.28 37.4399 27.28H37.4499ZM35.3899 31.91H41.8699C38.0799 32.68 35.6899 33.39 35.3999 33.2C35.1099 33.01 35.2499 32.74 35.3999 31.91H35.3899ZM41.8699 62.93C38.0799 63.7 36.3099 64.55 35.7899 64.31C35.4799 64.17 35.3999 63.84 35.2899 62.82L41.8699 62.93ZM41.8699 64.79C38.2199 65.56 36.5199 66.41 36.0099 66.17C35.7099 66.03 35.6299 65.7 35.5299 64.68L41.8699 64.79ZM35.6299 31.48C35.3499 31.29 35.4799 31.02 35.6299 30.19H41.8799C38.2199 30.96 35.9199 31.67 35.6399 31.48H35.6299Z" fill="#262626"/>
</g>
<defs>
<clipPath id="clip0_0_2098">
<rect width="45.9" height="76.5" fill="white"/>
</clipPath>
</defs>
</svg>
