<svg width="61" height="66" viewBox="0 0 61 66" fill="none" xmlns="http://www.w3.org/2000/svg">
<g clip-path="url(#clip0_0_2216)">
<path d="M48.7625 6.10855C45.8696 4.12732 42.6824 2.59115 39.3014 1.55028C35.9634 0.523777 32.5106 -0.000244141 29.0507 -0.000244141C27.4571 -0.000244141 25.8563 0.11461 24.2914 0.337139C19.1947 1.06216 15.8353 2.03124 13.0644 3.56023C9.96335 5.26868 7.61603 7.72369 5.67786 11.2913C3.83302 14.6867 2.82087 17.96 2.66295 21.0252C2.51938 23.832 3.10801 26.3659 4.36422 28.3328C5.06052 29.4167 5.45533 30.4217 5.48405 31.1611C5.50558 31.6779 5.34766 31.9866 4.90978 32.3096C2.16046 34.3267 0.4879 37.4063 0.0859106 41.2108C-0.359149 45.403 0.782213 48.7768 3.48128 51.2462C5.08924 52.7177 5.29023 53.7945 5.08924 55.0579C4.66571 57.7641 5.08924 59.9176 6.38135 61.6333C7.8888 63.636 10.4371 64.8348 14.1627 65.3086C17.0628 65.6747 20.9032 65.8901 24.4278 65.8901C32.6183 65.8901 38.0954 64.8564 40.694 62.8177C43.8596 60.334 46.0921 58.1805 49.186 55.1943C50.1048 54.3113 51.0524 53.3925 52.1363 52.3588C55.0364 49.6023 57.6421 44.6421 59.2931 38.763C60.8939 33.0562 61.3246 27.5719 60.4776 23.7243C58.805 16.1224 54.9718 10.3581 48.7625 6.10137V6.10855ZM46.6233 46.1998C46.6233 46.1998 46.6807 46.1567 46.7884 46.0777C46.8961 45.9988 47.0468 45.8696 47.2335 45.7116C47.4201 45.5537 47.6355 45.3455 47.8795 45.1015C48.1236 44.8574 48.382 44.5775 48.6548 44.2616C48.9276 43.9458 49.2075 43.5868 49.4875 43.2064C49.7603 42.8188 50.0546 42.4096 50.3202 41.9645C50.4566 41.7492 50.5858 41.5123 50.7222 41.2898C50.8514 41.0529 50.9806 40.816 51.1026 40.5791C51.2247 40.335 51.3467 40.091 51.4615 39.8397L51.6338 39.4665C51.6912 39.3372 51.7415 39.2152 51.7989 39.086C51.8492 38.9568 51.9138 38.8348 51.964 38.7055L52.1148 38.3179C52.2153 38.0595 52.3086 37.8011 52.4019 37.5427C52.4952 37.2842 52.5814 37.0258 52.6603 36.7746C52.7034 36.6454 52.7465 36.5233 52.7824 36.3941C52.8183 36.2649 52.8541 36.1429 52.8972 36.0137C53.0551 35.5112 53.1772 35.023 53.2992 34.5564C53.4141 34.0899 53.5289 33.6448 53.6151 33.2285C53.6653 33.0203 53.7084 32.8265 53.7514 32.6326C53.7873 32.446 53.8304 32.2594 53.8591 32.0943C53.895 31.922 53.9309 31.7641 53.9596 31.6205C53.9883 31.4697 54.017 31.3405 54.0386 31.2185C54.0816 30.9744 54.1319 30.7806 54.1534 30.6514C54.1821 30.5222 54.1965 30.4504 54.1965 30.4504C54.1965 30.4504 54.1965 30.5222 54.2109 30.6586C54.218 30.795 54.2396 30.9888 54.2467 31.24C54.2467 31.3692 54.2611 31.5056 54.2683 31.6564C54.2683 31.8071 54.2683 31.9722 54.2683 32.1445C54.2683 32.3168 54.2683 32.5034 54.2683 32.7044C54.2611 32.8982 54.2467 33.1064 54.2324 33.3218C54.2109 33.7525 54.1534 34.2191 54.096 34.7144C54.0242 35.2025 53.9453 35.7265 53.8232 36.2577C53.7945 36.3941 53.7658 36.5233 53.7371 36.6597C53.7012 36.7961 53.6653 36.9253 53.6294 37.0617C53.5935 37.1981 53.5576 37.3345 53.5217 37.4709C53.4858 37.6073 53.4356 37.7436 53.3925 37.88C53.3064 38.1528 53.2202 38.4328 53.1126 38.6984L52.9618 39.1075C52.9116 39.2439 52.847 39.3803 52.7967 39.5095C52.7393 39.6459 52.6819 39.7751 52.6173 39.9115L52.4306 40.3063C52.3086 40.5719 52.165 40.8232 52.0286 41.0744C51.7487 41.5769 51.44 42.0578 51.117 42.5029C50.8011 42.9551 50.4494 43.3571 50.112 43.7304C49.7674 44.0965 49.4229 44.4267 49.0855 44.7067C48.7481 44.9866 48.4251 45.2307 48.1308 45.4245C47.8365 45.6183 47.5637 45.7691 47.3412 45.8839C46.8889 46.1136 46.609 46.1926 46.609 46.1926L46.6233 46.1998ZM45.3815 38.885C45.3815 38.7486 45.3958 38.5907 45.403 38.4041C45.403 38.3107 45.4173 38.2102 45.4245 38.1097C45.4389 38.0092 45.4532 37.8944 45.4676 37.7867C45.4963 37.557 45.5322 37.3129 45.5681 37.0545C45.6183 36.7961 45.6758 36.5233 45.7404 36.2434C45.7547 36.1716 45.7691 36.0998 45.7906 36.028C45.8122 35.9562 45.8337 35.8844 45.848 35.8127C45.8911 35.6691 45.9342 35.5255 45.9773 35.382C46.0562 35.0876 46.1711 34.8077 46.2788 34.5134C46.3792 34.2262 46.5156 33.9463 46.6377 33.6663C46.6951 33.5299 46.7741 33.3936 46.8387 33.2643C46.9104 33.1351 46.9751 32.9987 47.0468 32.8767C47.1976 32.6326 47.3412 32.3886 47.4919 32.1732C47.5709 32.0656 47.6355 31.9579 47.7144 31.8574C47.7934 31.7569 47.8652 31.6636 47.937 31.5774C48.0877 31.398 48.2241 31.24 48.3605 31.1108C48.4897 30.9744 48.6117 30.8668 48.7194 30.7806C48.9276 30.6083 49.0568 30.5294 49.0568 30.5294C49.0568 30.5294 49.0352 30.5581 48.985 30.6155C48.9419 30.6658 48.8773 30.7519 48.7984 30.8596C48.7194 30.9673 48.6333 31.0965 48.5256 31.2472C48.4753 31.319 48.4251 31.4051 48.3677 31.4913C48.3174 31.5774 48.2528 31.6636 48.1954 31.7641C48.0805 31.9579 47.9585 32.166 47.8436 32.3886C47.7144 32.6111 47.6068 32.8552 47.4775 33.1064C47.3627 33.3577 47.2407 33.6233 47.1258 33.8889C47.0684 34.0252 47.0109 34.1616 46.9607 34.298L46.8746 34.499L46.7956 34.7072C46.6951 34.9871 46.5802 35.2599 46.4941 35.5399C46.408 35.8198 46.2931 36.0854 46.2213 36.3582C46.1424 36.6238 46.0562 36.8822 45.9773 37.1263C45.9127 37.3775 45.8409 37.6073 45.7834 37.8298C45.7547 37.9375 45.7188 38.0451 45.6901 38.1385C45.6614 38.239 45.6399 38.3323 45.6183 38.4184C45.5753 38.5979 45.525 38.7486 45.4891 38.8778C45.4173 39.1362 45.3671 39.2798 45.3671 39.2798C45.3671 39.2798 45.3671 39.1291 45.3743 38.8635L45.3815 38.885ZM7.60885 33.6448C7.55142 33.7238 7.49399 33.8099 7.43657 33.8889C7.37196 33.9606 7.30018 34.0324 7.23557 34.1114C7.16379 34.1832 7.10636 34.2621 7.0274 34.3267C6.94844 34.3913 6.87665 34.456 6.79769 34.5206C6.51056 34.7718 6.20189 34.9943 5.95782 35.2384C5.6994 35.4825 5.44816 35.7552 5.21127 36.028C4.7375 36.5951 4.33551 37.234 4.01966 37.9087C3.69663 38.5835 3.44539 39.3014 3.27311 40.0264C3.18697 40.3925 3.11518 40.7514 3.05776 41.1175C3.0434 41.2108 3.02904 41.2969 3.01469 41.3903L2.99315 41.5195L2.9788 41.663C2.95726 41.8497 2.93573 42.0363 2.92137 42.2158C2.87112 42.9193 2.85676 43.6227 2.91419 44.2688C2.97162 44.922 3.08647 45.5322 3.25157 46.0777C3.41668 46.6233 3.61767 47.1186 3.8402 47.5278C3.9407 47.7431 4.06991 47.9226 4.17041 48.102C4.28526 48.2743 4.39294 48.4322 4.48625 48.5686C4.59393 48.705 4.68725 48.8271 4.76621 48.9347C4.84517 49.0424 4.92413 49.1214 4.98156 49.1932C5.10359 49.3367 5.1682 49.4085 5.1682 49.4085C5.1682 49.4085 5.08924 49.3439 4.94567 49.229C4.87389 49.1716 4.78057 49.0998 4.68007 49.0065C4.57957 48.9132 4.46472 48.8055 4.34269 48.6835C4.22783 48.5543 4.09144 48.4107 3.94788 48.2528C3.88327 48.1666 3.81149 48.0805 3.7397 47.9944C3.70381 47.9513 3.66792 47.901 3.63203 47.858C3.59614 47.8077 3.56742 47.7575 3.53153 47.7072C3.2444 47.3052 2.97162 46.8171 2.74191 46.25C2.5122 45.6829 2.32556 45.0441 2.21789 44.3477C2.10303 43.6514 2.05996 42.9193 2.09586 42.144C2.09586 41.9502 2.11739 41.7707 2.13175 41.5841V41.4405L2.15328 41.2898C2.16046 41.1893 2.17482 41.0959 2.182 40.9954C2.20353 40.8016 2.23942 40.6078 2.26096 40.4068C2.28967 40.213 2.33992 40.012 2.37581 39.8182C2.54809 39.0286 2.81369 38.2461 3.16543 37.4996C3.52435 36.7602 3.97659 36.0567 4.51497 35.4394C4.65136 35.2886 4.78057 35.1307 4.93131 34.9943C5.08206 34.8579 5.21127 34.7144 5.37637 34.5852C5.68504 34.3052 5.99371 34.1042 6.28085 33.8745C6.81205 33.4653 7.22121 32.9557 7.44374 32.3814C7.66627 31.8143 7.71652 31.2041 7.66627 30.6442C7.61603 30.0843 7.48681 29.5675 7.3576 29.1152C7.20686 28.6702 7.06329 28.2754 6.91972 27.9667C6.84794 27.8088 6.78333 27.6724 6.73309 27.5504C6.67566 27.4283 6.62541 27.3278 6.58234 27.2417C6.50338 27.0766 6.46031 26.9833 6.46031 26.9833C6.46031 26.9833 6.51773 27.0622 6.63259 27.213C6.69001 27.2848 6.75462 27.3781 6.83358 27.4858C6.90537 27.6006 6.99151 27.7298 7.08483 27.8734C7.27146 28.1677 7.47964 28.5338 7.68781 28.986C7.88163 29.4383 8.08262 29.9623 8.19747 30.5725C8.30515 31.1826 8.32668 31.8933 8.09698 32.6039C8.06826 32.6901 8.03237 32.7834 8.00366 32.8695C7.9893 32.9126 7.97494 32.9628 7.95341 33.0059L7.8888 33.1351C7.84573 33.2213 7.80266 33.3074 7.75959 33.3936C7.71652 33.4797 7.65192 33.5587 7.60167 33.6376L7.60885 33.6448ZM7.44374 56.6084C8.05391 57.0032 8.92967 57.4339 10.0997 57.7139C9.91311 57.6062 9.73365 57.4842 9.56854 57.3334C9.19527 57.0032 8.92249 56.5653 8.75739 56.1346C8.59228 55.7039 8.5205 55.2804 8.47025 54.8856C8.42718 54.4908 8.41282 54.1247 8.39129 53.7945C8.36975 53.4643 8.3554 53.1556 8.32668 52.8972C8.29797 52.6316 8.24772 52.4019 8.20465 52.2224C8.14723 52.043 8.10415 51.8922 8.05391 51.7989C8.01084 51.7056 7.9893 51.6482 7.9893 51.6482C7.9893 51.6482 8.02519 51.6912 8.09698 51.7702C8.16876 51.8492 8.2549 51.9784 8.3554 52.1578C8.44872 52.3373 8.54921 52.5598 8.62818 52.8326C8.71432 53.0982 8.7861 53.4069 8.85071 53.7371C8.91531 54.0673 8.97992 54.4262 9.05888 54.7923C9.13784 55.1584 9.24552 55.5245 9.40344 55.869C9.56137 56.2136 9.78389 56.5223 10.071 56.7663C10.3582 57.0104 10.7171 57.1899 11.1047 57.3119C11.4852 57.4483 11.9087 57.5057 12.325 57.5703C12.5332 57.5847 12.7486 57.6062 12.9496 57.6206C13.1577 57.6206 13.3659 57.6349 13.5669 57.6421C13.7751 57.6421 13.9761 57.6421 14.1699 57.6421C14.3709 57.6421 14.5647 57.6277 14.7513 57.6206C15.1318 57.6134 15.4907 57.5775 15.8209 57.5631C16.1511 57.5416 16.4598 57.5129 16.7326 57.4985C17.0053 57.477 17.2422 57.4555 17.436 57.4411C17.8309 57.4124 18.0534 57.398 18.0534 57.398C23.229 56.3643 28.2467 54.1319 25.1959 51.8061C22.0733 49.4229 21.2119 45.9988 21.3483 42.5532C21.5564 37.3488 24.1191 35.7265 29.9551 34.2837C35.3389 32.9557 37.0545 29.0219 32.0225 25.5261C27.6006 22.4465 21.1832 25.2246 10.7243 24.7221C10.7099 24.5785 10.6884 24.4278 10.674 24.2627C10.6453 24.076 10.6453 23.8678 10.6309 23.6597C10.6238 23.4443 10.6022 23.2218 10.6094 22.9849C10.6094 22.748 10.6094 22.4968 10.6094 22.2455C10.6238 21.9871 10.6453 21.7215 10.6597 21.4487C10.6668 21.3123 10.6812 21.176 10.6884 21.0324C10.7027 20.896 10.7243 20.7524 10.7386 20.6089C10.7745 20.3217 10.8104 20.0274 10.8463 19.7331C10.9037 19.4388 10.9611 19.1373 11.0186 18.8286C11.0473 18.6779 11.076 18.52 11.1047 18.3692C11.1334 18.2113 11.1765 18.0605 11.2124 17.9098C11.3703 17.2925 11.5067 16.6608 11.7221 16.0434C11.8226 15.7348 11.9159 15.4261 12.0164 15.1174C12.0594 14.9595 12.1169 14.8087 12.1743 14.658C12.2317 14.5072 12.2891 14.3565 12.3466 14.2058C12.5763 13.61 12.7845 13.007 13.0501 12.4542C13.1721 12.1743 13.3013 11.9015 13.4162 11.6287C13.4736 11.4923 13.5382 11.3631 13.5956 11.2267C13.653 11.0975 13.7105 10.9611 13.7822 10.8391C14.0407 10.3366 14.2847 9.86284 14.5073 9.42496C14.6221 9.20961 14.7226 8.99426 14.8375 8.80044C14.9523 8.60663 15.06 8.41999 15.1605 8.24771C15.3615 7.90315 15.541 7.60165 15.6845 7.35041C15.9788 6.8551 16.1439 6.56797 16.1439 6.56797C16.1439 6.56797 15.9573 6.84075 15.6271 7.30734C15.462 7.54423 15.261 7.83136 15.0313 8.16157C14.9164 8.32667 14.7944 8.49895 14.6652 8.68559C14.5432 8.87223 14.4211 9.0804 14.2847 9.28857C14.0191 9.7121 13.7392 10.1643 13.4377 10.6453C13.3587 10.7673 13.2869 10.8893 13.2223 11.0186C13.1506 11.1478 13.0788 11.277 13.007 11.4062C12.8634 11.6718 12.7127 11.9374 12.5691 12.2102C12.2533 12.7485 11.9948 13.3372 11.7077 13.9258C11.6359 14.0765 11.5641 14.2201 11.4923 14.3709C11.4206 14.5216 11.3488 14.6724 11.2914 14.8231C11.1693 15.1318 11.0401 15.4404 10.9181 15.7491C10.6525 16.3593 10.4587 17.0053 10.2433 17.6298C10.1931 17.7878 10.1356 17.9385 10.0926 18.0964C10.0495 18.2544 10.0064 18.4123 9.96335 18.5702C9.87721 18.8861 9.79107 19.1947 9.71211 19.4962C9.6475 19.8049 9.5829 20.1136 9.51829 20.4079C9.48958 20.5586 9.45369 20.7022 9.42498 20.8529C9.40344 21.0037 9.38191 21.1472 9.36037 21.2908C9.3173 21.5779 9.28141 21.8651 9.23834 22.1379C9.2168 22.4106 9.18809 22.6762 9.16655 22.9347C9.13784 23.1931 9.13784 23.4371 9.13066 23.674C9.13066 23.9109 9.10913 24.1334 9.12348 24.3488C9.12348 24.4421 9.12348 24.5354 9.13066 24.6288C8.7215 24.6 8.30515 24.557 7.88162 24.5139C6.80487 24.4062 5.99371 24.3201 5.38355 24.2483C4.76621 21.3339 5.2687 17.314 7.88162 12.4973C11.3129 6.16598 15.9142 4.05554 24.6503 2.8065C26.1075 2.59833 27.5791 2.49783 29.0578 2.49783C34.8795 2.49783 40.737 4.10579 45.8337 7.18531C45.2953 6.94842 44.7426 6.72589 44.1827 6.51054C43.0198 6.0583 41.8138 5.66349 40.5935 5.33329L40.1269 5.20408L39.6746 5.08922C39.3732 5.01026 39.086 4.9313 38.7702 4.85952C38.4615 4.78773 38.16 4.71595 37.8513 4.64416C37.5498 4.57238 37.2412 4.51495 36.9397 4.45035C35.7265 4.20628 34.5278 4.00529 33.3505 3.86172C32.1804 3.72533 31.0462 3.62483 29.9623 3.58894C28.8784 3.56023 27.859 3.56741 26.9187 3.62483C25.9783 3.68944 25.1169 3.77558 24.3632 3.90479C23.6094 4.02682 22.9562 4.17039 22.4322 4.31396C21.901 4.45035 21.499 4.59391 21.2262 4.69441C20.9534 4.79491 20.8099 4.86669 20.8099 4.86669C20.8099 4.86669 20.9606 4.82362 21.2478 4.77337C21.5349 4.72313 21.9512 4.65852 22.4896 4.60827C23.028 4.55802 23.674 4.50777 24.4206 4.49342C25.1672 4.48624 26.007 4.48624 26.9259 4.54367C27.8375 4.60109 28.8281 4.68006 29.869 4.82362C30.9099 4.96001 32.001 5.13229 33.1136 5.362C34.2334 5.58453 35.382 5.85013 36.5449 6.1588C36.832 6.23776 37.1263 6.31672 37.4135 6.39569C37.7006 6.47465 37.9877 6.56079 38.282 6.63975C38.5692 6.71871 38.8707 6.81921 39.165 6.90535L39.61 7.04174L40.0336 7.17813C41.1893 7.55141 42.3163 7.98211 43.4146 8.42717C44.5129 8.8794 45.5681 9.38189 46.5587 9.89873C47.5565 10.4228 48.4897 10.9683 49.3439 11.5354C50.2053 12.0953 50.9878 12.6624 51.6769 13.2223C53.0623 14.335 54.096 15.3974 54.7421 16.1726C55.0651 16.5603 55.3091 16.8689 55.4527 17.0843C55.4527 17.0843 55.4527 17.0843 55.4527 17.0915C56.0557 18.2328 56.5797 19.4388 57.0248 20.7165C55.5245 24.3057 47.6714 25.16 43.4361 31.1467C40.1915 35.7337 39.8828 40.9021 39.9044 45.6614C39.811 44.8861 39.7464 44.075 39.7177 43.2279C39.689 42.2804 39.6962 41.3041 39.7608 40.292C39.7751 40.0264 39.7967 39.7823 39.811 39.5382C39.8254 39.2942 39.8541 39.0358 39.8828 38.7845C39.9044 38.5333 39.9402 38.282 39.969 38.0308C40.0049 37.7795 40.0407 37.5283 40.0766 37.2842C40.2346 36.2936 40.4571 35.3174 40.7658 34.3913C40.8447 34.1616 40.9237 33.9319 41.017 33.7094C41.096 33.4797 41.1965 33.2643 41.2898 33.049C41.4908 32.6183 41.6989 32.1948 41.9358 31.8C42.4024 30.996 42.948 30.2781 43.5223 29.6393C44.0965 29.0004 44.6995 28.4333 45.2666 27.9165C45.8409 27.4068 46.3792 26.9474 46.8674 26.5454C47.3627 26.1434 47.7934 25.7917 48.1523 25.5045C48.5112 25.2174 48.7912 24.9805 48.985 24.8226C49.1788 24.6646 49.2793 24.5713 49.2793 24.5713C49.2793 24.5713 49.1501 24.6072 48.9132 24.6934C48.6763 24.7723 48.3318 24.9015 47.9011 25.081C47.4704 25.2605 46.9535 25.4973 46.3721 25.7988C45.7978 26.1003 45.1589 26.4808 44.4913 26.9402C43.8237 27.4068 43.1346 27.9667 42.467 28.6271C41.7923 29.2875 41.1319 30.0484 40.5504 30.917C39.9618 31.7784 39.4521 32.7475 39.0501 33.7668C38.6481 34.7862 38.3538 35.8557 38.1241 36.9253C38.0164 37.4637 37.9159 37.9949 37.837 38.5333C37.8011 38.7989 37.758 39.0645 37.7293 39.3372C37.7006 39.61 37.6647 39.8828 37.6432 40.134C37.5427 41.1893 37.4852 42.2445 37.4852 43.271C37.4852 44.2903 37.5427 45.2881 37.6503 46.2213C37.7508 47.1617 37.9088 48.0446 38.0882 48.8486C38.2677 49.6597 38.4759 50.3919 38.6984 51.0308C38.9137 51.6697 39.1363 52.2224 39.3301 52.6675C39.4449 52.9259 39.5526 53.1484 39.6388 53.3351C39.3301 53.9022 38.8994 54.5769 38.3108 55.2804C37.4781 56.271 36.3152 57.2904 34.8651 58.1015C34.1401 58.5107 33.3505 58.8696 32.5106 59.1711C32.3025 59.2429 32.0943 59.3218 31.8789 59.3864C31.6636 59.451 31.4482 59.5157 31.2329 59.5803C31.0103 59.6377 30.795 59.6879 30.5725 59.7454L30.4863 59.7669C30.4863 59.7669 30.4289 59.7813 30.4074 59.7884L30.2351 59.8243L29.8905 59.9033C28.9573 60.1115 28.0457 60.2909 27.134 60.4704C26.6746 60.5565 26.2224 60.6427 25.7773 60.7216C25.3251 60.8006 24.8872 60.8724 24.4493 60.9513C23.5736 61.0949 22.7265 61.2241 21.9225 61.339C21.1185 61.4538 20.3576 61.5543 19.6542 61.6333C18.2472 61.7984 17.0628 61.9061 16.2373 61.9707C15.4117 62.0353 14.938 62.0568 14.938 62.0568C14.938 62.0568 15.4117 62.0783 16.2444 62.0927C17.0771 62.107 18.2616 62.107 19.6901 62.0712C20.4007 62.0568 21.176 62.0281 21.9943 61.985C22.8126 61.9491 23.674 61.8917 24.5642 61.8343C25.0092 61.7984 25.4615 61.7625 25.9209 61.7266C26.3803 61.6835 26.8397 61.6404 27.3063 61.5974C28.2395 61.5041 29.1942 61.4036 30.1346 61.2815L30.4863 61.2385L30.6658 61.2169C30.6658 61.2169 30.716 61.2169 30.7591 61.2026L30.8524 61.1882C31.0965 61.1523 31.3406 61.1164 31.5846 61.0734C31.8287 61.0231 32.0656 60.98 32.3096 60.9298C32.5537 60.8867 32.7834 60.8149 33.0275 60.7575C33.4654 60.6427 33.9032 60.5134 34.3268 60.3699C27.1627 63.0833 14.4857 62.7962 14.4857 62.7962C8.64971 62.064 7.32171 59.4798 7.45092 56.5725L7.44374 56.6084ZM38.1169 61.4897C38.1169 61.4897 38.081 61.5112 38.0595 61.5184C38.081 61.5112 38.0954 61.4969 38.1169 61.4897ZM37.7652 61.6548C37.7652 61.6548 37.7078 61.6763 37.6791 61.6907C37.7078 61.6763 37.7365 61.6692 37.7652 61.6548ZM37.4493 61.784C37.4135 61.7984 37.3704 61.8127 37.3273 61.8271C37.3704 61.8127 37.4063 61.7984 37.4493 61.784ZM37.1191 61.9061C37.0761 61.9204 37.0402 61.9348 36.9971 61.9491C37.0402 61.9348 37.0833 61.9204 37.1191 61.9061ZM36.753 62.0353C36.753 62.0353 36.6813 62.0568 36.6454 62.0712C36.6813 62.0568 36.7172 62.0496 36.753 62.0353ZM36.2936 62.1788C36.2936 62.1788 36.2362 62.1932 36.2075 62.2004C36.2362 62.1932 36.2649 62.186 36.2936 62.1788ZM35.9204 62.2865C35.8773 62.3009 35.827 62.308 35.7768 62.3224C35.827 62.308 35.8701 62.3009 35.9204 62.2865ZM15.5194 62.9541C15.5194 62.9541 15.4907 62.9541 15.4763 62.9541C15.4907 62.9541 15.5051 62.9541 15.5194 62.9541ZM15.0241 62.8967C15.0241 62.8967 14.9523 62.8895 14.9236 62.8823C14.9595 62.8823 14.9954 62.8895 15.0241 62.8967ZM24.356 63.392C24.4062 63.392 24.4565 63.392 24.5139 63.392C24.4924 63.392 24.4637 63.392 24.4421 63.392C24.4134 63.392 24.3847 63.392 24.356 63.392ZM15.9645 62.99C16.0004 62.99 16.0363 62.9972 16.0721 63.0043C16.0363 63.0043 16.0004 62.9972 15.9645 62.99ZM16.5675 63.0474C16.5675 63.0474 16.6177 63.0474 16.6392 63.0474C16.6177 63.0474 16.589 63.0474 16.5675 63.0474ZM17.0987 63.0905C17.0987 63.0905 17.1704 63.0905 17.2063 63.0977C17.1704 63.0977 17.1346 63.0977 17.0987 63.0905ZM17.7304 63.1407C17.7304 63.1407 17.795 63.1407 17.8237 63.1407C17.795 63.1407 17.7591 63.1407 17.7304 63.1407ZM18.3118 63.1838C18.3118 63.1838 18.3764 63.1838 18.4051 63.1838C18.3764 63.1838 18.3405 63.1838 18.3118 63.1838ZM19.5967 63.2628C19.5967 63.2628 19.647 63.2628 19.6685 63.2628C19.647 63.2628 19.6183 63.2628 19.5967 63.2628ZM20.9463 63.3202C20.9463 63.3202 20.975 63.3202 20.9822 63.3202C20.9678 63.3202 20.9534 63.3202 20.9463 63.3202ZM22.3389 63.3633C22.3389 63.3633 22.3461 63.3633 22.3532 63.3633C22.3532 63.3633 22.3461 63.3633 22.3389 63.3633ZM23.7171 63.3848C23.7171 63.3848 23.7674 63.3848 23.7889 63.3848C23.7674 63.3848 23.7387 63.3848 23.7171 63.3848ZM35.1092 62.4731C35.059 62.4875 35.0159 62.4947 34.9656 62.509C35.0159 62.5019 35.0661 62.4875 35.1092 62.4731ZM34.5995 62.5808C34.5995 62.5808 34.5565 62.588 34.5349 62.5952C34.5565 62.5952 34.578 62.588 34.5995 62.5808ZM34.1329 62.6741C34.0827 62.6813 34.0324 62.6957 33.975 62.7029C34.0253 62.6957 34.0827 62.6813 34.1329 62.6741ZM33.2428 62.8249C33.1854 62.8321 33.128 62.8392 33.0705 62.8536C33.128 62.8464 33.1854 62.8392 33.2428 62.8249ZM32.7403 62.8967C32.6973 62.8967 32.6542 62.911 32.6111 62.9182C32.6542 62.9182 32.6973 62.9038 32.7403 62.8967ZM32.1589 62.9756C32.1086 62.9756 32.0584 62.99 32.0081 62.9972C32.0584 62.9972 32.1086 62.9828 32.1589 62.9756ZM31.6851 63.0331C31.6205 63.0331 31.5631 63.0474 31.4985 63.0546C31.5631 63.0546 31.6205 63.0402 31.6851 63.0331ZM31.197 63.0833C31.1324 63.0833 31.0678 63.0977 31.0103 63.1048C31.075 63.1048 31.1396 63.0905 31.197 63.0833ZM30.6801 63.1336C30.6299 63.1336 30.5725 63.1407 30.5222 63.1479C30.5796 63.1479 30.6299 63.1407 30.6801 63.1336ZM30.0341 63.191C29.991 63.191 29.9551 63.191 29.9121 63.1982C29.9551 63.1982 29.991 63.1982 30.0341 63.191ZM29.5316 63.2269C29.4742 63.2269 29.4096 63.2341 29.3521 63.2412C29.4096 63.2412 29.4742 63.2341 29.5316 63.2269ZM29.0219 63.2628C28.9573 63.2628 28.8927 63.2699 28.8281 63.2771C28.8927 63.2771 28.9573 63.2699 29.0219 63.2628ZM28.4907 63.2915C28.4333 63.2915 28.3759 63.2915 28.3113 63.2987C28.3687 63.2987 28.4261 63.2987 28.4907 63.2915ZM27.8662 63.3202C27.8662 63.3202 27.8231 63.3202 27.8016 63.3202C27.8231 63.3202 27.8447 63.3202 27.8662 63.3202ZM26.7679 63.3561C26.7033 63.3561 26.6387 63.3561 26.5813 63.3561C26.6459 63.3561 26.7105 63.3561 26.7679 63.3561ZM38.3323 61.3605C38.3323 61.3605 38.3969 61.3246 38.4256 61.3102C38.3969 61.3246 38.3682 61.3461 38.3323 61.3605ZM38.5979 61.2097C38.5979 61.2097 38.6625 61.1739 38.6912 61.1523C38.6625 61.1739 38.6338 61.1882 38.5979 61.2097ZM38.8563 61.0446C38.8563 61.0446 38.9066 61.0088 38.9281 60.9944C38.9066 61.0088 38.8778 61.0303 38.8563 61.0446ZM43.2064 57.398C43.5223 57.1109 43.8453 56.8166 44.1683 56.5151C43.8453 56.8166 43.5294 57.1109 43.2064 57.398ZM45.4676 55.2804C45.7978 54.9646 46.1424 54.6344 46.4869 54.3042C46.1352 54.6415 45.7978 54.9646 45.4676 55.2804Z" fill="#262626"/>
<path d="M32.7767 34.7646C32.9203 34.7359 33.0782 34.6928 33.2505 34.6425C33.4228 34.5995 33.6022 34.5349 33.796 34.4703C33.9899 34.4057 34.1909 34.3195 34.4062 34.2334C34.6144 34.1401 34.8369 34.0324 35.0594 33.9103C35.5045 33.6591 35.9783 33.3504 36.4161 32.9269C36.4736 32.8767 36.5238 32.8192 36.5813 32.769C36.6315 32.7116 36.6817 32.6541 36.7392 32.5967C36.8469 32.4818 36.9402 32.3526 37.0335 32.2234C37.134 32.0942 37.2129 31.9506 37.2991 31.8071C37.335 31.7353 37.378 31.6563 37.4139 31.5846C37.4498 31.5056 37.4929 31.4338 37.5216 31.3548C37.658 31.039 37.737 30.6944 37.7944 30.3427C37.8303 29.9838 37.8375 29.6177 37.7729 29.2588C37.6652 28.5337 37.3493 27.859 36.9617 27.2703C36.5597 26.6817 36.0788 26.1721 35.5619 25.7342C35.4399 25.6193 35.2963 25.5188 35.1671 25.4183C35.0379 25.3107 34.9015 25.2173 34.7651 25.124L34.5641 24.9804L34.5139 24.9446L34.478 24.923L34.4565 24.9087L34.356 24.8441C34.2267 24.7579 34.0904 24.679 33.9396 24.6C33.351 24.2841 32.7695 24.0688 32.1953 23.9109C31.6282 23.7601 31.0826 23.674 30.573 23.6237C30.0705 23.5735 29.6039 23.5735 29.2019 23.5735C28.7927 23.5735 28.441 23.6022 28.1538 23.6237C27.8667 23.6453 27.637 23.674 27.4791 23.6955C27.3283 23.7171 27.2422 23.7242 27.2422 23.7242C27.2422 23.7242 27.5724 23.7529 28.1467 23.8104C28.4338 23.8391 28.7784 23.8822 29.1732 23.9324C29.568 23.9898 30.013 24.0616 30.4868 24.1621C30.9606 24.2626 31.4631 24.399 31.9799 24.5856C32.4896 24.7723 33.0208 25.0163 33.5017 25.3107C33.5663 25.3465 33.6238 25.3824 33.6884 25.4255L33.8822 25.5619L33.9827 25.6265L34.0042 25.6409L34.0186 25.6552L34.0616 25.6911L34.2411 25.8275C34.3631 25.9208 34.4852 26.0141 34.6 26.1146C34.7149 26.2151 34.8441 26.3084 34.9518 26.4161C35.4112 26.8325 35.8419 27.2919 36.1793 27.7944C36.2654 27.9236 36.3515 28.0456 36.4161 28.182L36.5238 28.3758L36.6171 28.5768C36.6817 28.7132 36.7176 28.8496 36.7751 28.986C36.7966 29.0578 36.811 29.1224 36.8325 29.1942C36.854 29.2659 36.8684 29.3305 36.8756 29.4023L36.9115 29.6105C36.9186 29.6823 36.9186 29.7541 36.9258 29.8187C36.9402 29.9622 36.9258 30.0986 36.9258 30.235C36.9043 30.3714 36.8971 30.515 36.8612 30.6442C36.8469 30.7088 36.8325 30.7806 36.8181 30.8452C36.7966 30.9098 36.7751 30.9744 36.7535 31.039C36.5813 31.563 36.2654 32.0224 35.9137 32.4244C35.5619 32.8264 35.1671 33.1566 34.7795 33.4366C34.3918 33.7165 34.0042 33.9391 33.6597 34.1257C33.4802 34.219 33.3151 34.298 33.1643 34.3698C33.0064 34.4415 32.8629 34.5133 32.7336 34.5636C32.6044 34.621 32.4824 34.6713 32.3819 34.7143C32.2742 34.7574 32.1881 34.7861 32.1163 34.8148C31.9727 34.8722 31.8938 34.901 31.8938 34.901C31.8938 34.901 31.9727 34.8866 32.1307 34.8651C32.2814 34.8435 32.5111 34.8076 32.7911 34.7359L32.7767 34.7646Z" fill="#262626"/>
<path d="M23.8537 38.8131C23.7675 38.9639 23.6742 39.129 23.5881 39.3228C23.4948 39.5094 23.4086 39.7248 23.3153 39.9473C23.2291 40.177 23.143 40.4139 23.0712 40.6723C22.9994 40.9308 22.9277 41.1892 22.8774 41.4691C22.8487 41.6055 22.82 41.7419 22.7984 41.8855C22.7841 42.0219 22.7626 42.1654 22.7482 42.309C22.7123 42.589 22.698 42.8761 22.6908 43.1489C22.6908 43.2207 22.6908 43.2853 22.6836 43.3571C22.6836 43.4288 22.6836 43.4934 22.6836 43.5652C22.6836 43.7016 22.698 43.838 22.698 43.9672C22.698 44.2328 22.7554 44.4841 22.7841 44.7281C22.8056 44.8502 22.8128 44.965 22.8415 45.0799C22.8702 45.1875 22.8918 45.2952 22.9205 45.4029C22.9707 45.6111 23.0138 45.7977 23.0712 45.9556C23.1287 46.1207 23.1861 46.2571 23.2292 46.372C23.3225 46.6017 23.3799 46.7309 23.3799 46.7309C23.3799 46.7309 23.3799 46.5873 23.3799 46.3433C23.3799 46.2212 23.3799 46.0777 23.3655 45.9054C23.3584 45.7403 23.3655 45.5465 23.3655 45.3455C23.3655 45.1445 23.3584 44.9219 23.3655 44.6922C23.3655 44.5774 23.3655 44.4553 23.3727 44.3333C23.3727 44.2759 23.3727 44.2113 23.3727 44.1467C23.3727 44.0821 23.3799 44.0246 23.3871 43.96C23.4086 43.7088 23.4014 43.4504 23.4373 43.1848C23.466 42.9192 23.4732 42.6536 23.5163 42.388C23.5306 42.2516 23.545 42.1224 23.5594 41.9932C23.5809 41.864 23.5952 41.7276 23.6168 41.5984C23.6455 41.3399 23.6957 41.0815 23.7388 40.8303C23.7819 40.579 23.825 40.3421 23.868 40.1124C23.9183 39.8827 23.9542 39.6674 24.0044 39.4664C24.0834 39.0644 24.1695 38.7342 24.2269 38.4973C24.2844 38.2604 24.3203 38.124 24.3203 38.124C24.3203 38.124 24.2269 38.2317 24.0906 38.4327C24.026 38.5332 23.9398 38.6624 23.8537 38.8131Z" fill="#262626"/>
<path d="M15.4191 58.8765C15.4191 58.8765 15.6991 58.9052 16.1801 58.9124C16.4241 58.9124 16.7184 58.9124 17.0558 58.9052C17.3932 58.898 17.7736 58.8765 18.19 58.8406C19.0227 58.776 19.9846 58.6468 21.0111 58.4242C21.5208 58.3094 22.052 58.1802 22.576 58.0151C23.1072 57.85 23.6384 57.6561 24.1552 57.4193C24.6721 57.1824 25.1817 56.9096 25.6483 56.5794C26.1149 56.2564 26.5528 55.8616 26.8974 55.438C27.2491 55.0073 27.5362 54.5264 27.6798 54.0095C27.8234 53.4927 27.7875 52.94 27.608 52.5164C27.4357 52.0857 27.1701 51.7627 26.9117 51.5258C26.6605 51.2817 26.4021 51.1166 26.1939 50.9874C25.9857 50.8582 25.8062 50.7864 25.6842 50.729C25.5622 50.6788 25.4976 50.6572 25.4976 50.6572C25.4976 50.6572 25.555 50.6931 25.6555 50.7721C25.756 50.851 25.9067 50.9731 26.079 51.131C26.2513 51.2889 26.4523 51.4971 26.6461 51.7555C26.8328 52.0139 27.0122 52.3298 27.0984 52.6815C27.1845 53.0333 27.163 53.4209 27.0122 53.8014C26.8686 54.1818 26.603 54.5551 26.28 54.8996C26.1149 55.0791 25.9355 55.237 25.7488 55.395C25.5622 55.5529 25.354 55.6964 25.1387 55.8328C24.708 56.1056 24.2414 56.3497 23.7604 56.565C23.2795 56.7876 22.777 56.9742 22.2817 57.1465C21.7864 57.3188 21.2839 57.4767 20.7957 57.6131C19.8195 57.893 18.8935 58.1156 18.0967 58.295C17.2999 58.4817 16.6251 58.618 16.1513 58.7185C15.6776 58.819 15.4048 58.8693 15.4048 58.8693L15.4191 58.8765Z" fill="#262626"/>
</g>
<defs>
<clipPath id="clip0_0_2216">
<rect width="60.9085" height="65.8903" fill="white"/>
</clipPath>
</defs>
</svg>
