<svg width="57" height="73" viewBox="0 0 57 73" fill="none" xmlns="http://www.w3.org/2000/svg">
<g clip-path="url(#clip0_0_2114)">
<path d="M36.6 16.96C38 15.12 38.77 12.87 38.77 10.56C38.77 4.74 34.03 0 28.21 0C22.39 0 17.65 4.74 17.65 10.56C17.65 12.88 18.42 15.13 19.82 16.96C8.12 20.61 0 31.59 0 43.91C0 59.47 12.66 72.12 28.21 72.12C43.76 72.12 56.42 59.46 56.42 43.91C56.42 31.59 48.3 20.61 36.6 16.97V16.96ZM34.66 4.44C34.79 4.52 34.93 4.62 35.09 4.75C35.24 4.88 35.43 5.03 35.6 5.21C35.69 5.3 35.78 5.39 35.88 5.5C35.97 5.6 36.06 5.72 36.15 5.83C36.33 6.06 36.5 6.32 36.67 6.6C36.82 6.89 36.98 7.18 37.09 7.51C37.15 7.67 37.22 7.83 37.26 8L37.38 8.51L37.44 8.76L37.47 9.02C37.48 9.19 37.5 9.36 37.51 9.53C37.53 9.7 37.51 9.87 37.51 10.04C37.5 10.21 37.49 10.37 37.48 10.53C37.44 10.85 37.36 11.15 37.3 11.44C37.25 11.73 37.12 11.98 37.03 12.22C36.94 12.46 36.86 12.67 36.75 12.85C36.65 13.03 36.55 13.18 36.48 13.31C36.33 13.56 36.23 13.69 36.23 13.69C36.23 13.69 36.26 13.52 36.32 13.24C36.35 13.1 36.39 12.93 36.43 12.74C36.49 12.55 36.5 12.33 36.54 12.09C36.56 11.97 36.58 11.85 36.6 11.72C36.62 11.59 36.65 11.46 36.65 11.33C36.66 11.06 36.69 10.78 36.7 10.49C36.68 10.2 36.7 9.9 36.67 9.6C36.65 9.45 36.63 9.3 36.61 9.15L36.58 8.92L36.53 8.7L36.43 8.25C36.39 8.1 36.34 7.96 36.3 7.81C36.22 7.52 36.09 7.25 35.99 6.97C35.94 6.83 35.86 6.71 35.81 6.58C35.75 6.45 35.7 6.32 35.62 6.21C35.49 5.98 35.36 5.75 35.23 5.55C35.11 5.34 34.98 5.17 34.87 5C34.75 4.85 34.65 4.7 34.56 4.59C34.47 4.48 34.4 4.39 34.35 4.33C34.3 4.27 34.27 4.24 34.27 4.24C34.27 4.24 34.43 4.31 34.67 4.47L34.66 4.44ZM35.82 10.56C35.82 12.69 34.92 14.72 33.35 16.16C32.95 16.09 32.56 16.02 32.18 15.97V14.09C33.02 13.63 33.54 12.76 33.54 11.79V7.12C33.54 5.67 32.36 4.49 30.91 4.49H25.51C24.06 4.49 22.88 5.67 22.88 7.12V11.79C22.88 12.76 23.41 13.63 24.24 14.09V15.97C23.86 16.02 23.47 16.09 23.07 16.16C21.5 14.72 20.6 12.69 20.6 10.56C20.6 6.36 24.01 2.95 28.21 2.95C32.41 2.95 35.82 6.36 35.82 10.56ZM32.42 9.34C32.42 8.69 32.45 8.04 32.48 7.56C32.5 7.32 32.52 7.11 32.54 6.97C32.56 6.83 32.57 6.75 32.57 6.75C32.57 6.75 32.58 6.83 32.6 6.97C32.61 7.11 32.64 7.31 32.66 7.56C32.7 8.05 32.72 8.69 32.72 9.34C32.72 9.99 32.69 10.64 32.66 11.12C32.64 11.36 32.62 11.57 32.6 11.71C32.58 11.85 32.57 11.93 32.57 11.93C32.57 11.93 32.56 11.85 32.54 11.71C32.53 11.57 32.5 11.37 32.48 11.12C32.44 10.63 32.42 9.99 32.42 9.34ZM31.49 13.8V16.33C31.44 16.33 31.38 16.32 31.33 16.31V13.8H31.49ZM26.47 6.02L26.06 10.07H26.05L25.75 7.05L25.4 11.23H25.39L25.08 7.55L24.73 12.16H24.72L24.32 6.83C24.08 6.98 23.88 7.15 23.75 7.33C23.75 7.33 23.78 5.41 25.33 5.41H30.8C30.8 5.41 28.49 5.54 26.47 6.02ZM27.04 13.8V16.16C26.9 16.16 26.76 16.17 26.62 16.18V13.8H27.04ZM26.25 13.8V16.21C25.91 16.23 25.57 16.26 25.24 16.3V13.8H26.25ZM19.64 14.69C19.53 14.49 19.41 14.24 19.28 13.94C19.16 13.64 19.02 13.31 18.92 12.93C18.81 12.55 18.7 12.13 18.64 11.68C18.56 11.23 18.52 10.75 18.52 10.24C18.52 9.74 18.56 9.22 18.65 8.69C18.75 8.17 18.88 7.64 19.08 7.14C19.27 6.63 19.52 6.15 19.79 5.7C19.93 5.47 20.08 5.26 20.23 5.05C20.39 4.85 20.55 4.65 20.71 4.46C20.88 4.28 21.05 4.09 21.22 3.92C21.4 3.76 21.57 3.6 21.74 3.45C21.91 3.3 22.09 3.17 22.26 3.04C22.43 2.91 22.6 2.79 22.76 2.69C22.93 2.58 23.08 2.48 23.23 2.38C23.38 2.29 23.54 2.21 23.68 2.13C23.96 1.98 24.21 1.85 24.42 1.76C24.84 1.58 25.08 1.48 25.08 1.48C25.08 1.48 24.87 1.64 24.51 1.91C24.33 2.04 24.12 2.21 23.87 2.41C23.62 2.6 23.36 2.83 23.07 3.08C22.92 3.2 22.78 3.34 22.64 3.48C22.5 3.63 22.33 3.76 22.19 3.92C22.05 4.08 21.9 4.24 21.74 4.41C21.6 4.59 21.45 4.76 21.3 4.94C21.17 5.13 21.03 5.32 20.89 5.51C20.77 5.71 20.64 5.92 20.51 6.12C20.28 6.54 20.05 6.98 19.89 7.44C19.7 7.89 19.58 8.37 19.47 8.84C19.38 9.32 19.3 9.79 19.28 10.25C19.26 10.71 19.25 11.16 19.28 11.59C19.3 12.02 19.35 12.43 19.4 12.8C19.51 13.55 19.66 14.17 19.79 14.6C19.85 14.82 19.9 14.99 19.94 15.1C19.98 15.21 20 15.28 20 15.28C20 15.28 19.84 15.07 19.63 14.67L19.64 14.69ZM3.86 35.13C5.12 31.59 7.2 28.29 9.88 25.58C12.59 22.9 15.89 20.81 19.43 19.56C22.96 18.29 26.74 17.91 30.25 18.22C33.82 18.53 37.14 19.61 39.99 21.16C41.41 21.93 42.73 22.82 43.9 23.78C45.08 24.75 46.12 25.78 47.04 26.84C48.87 28.97 50.18 31.21 51.05 33.3C51.94 35.38 52.42 37.3 52.67 38.89C52.93 40.48 52.95 41.75 52.97 42.6C52.95 43.46 52.94 43.91 52.94 43.91C52.94 43.91 52.9 43.46 52.84 42.6C52.74 41.75 52.59 40.51 52.21 38.98C51.84 37.45 51.21 35.63 50.23 33.68C49.73 32.71 49.16 31.7 48.44 30.71C47.74 29.72 46.95 28.71 46.03 27.75C44.18 25.84 41.88 24.07 39.17 22.72C36.47 21.38 33.34 20.51 30.1 20.29C28.45 20.18 26.79 20.24 25.12 20.47C24.7 20.52 24.29 20.6 23.87 20.68C23.45 20.75 23.04 20.86 22.63 20.96C21.81 21.16 20.99 21.41 20.19 21.7C16.97 22.87 13.99 24.79 11.53 27.25C9.07 29.7 7.15 32.69 5.98 35.91C5.4 37.52 4.99 39.17 4.75 40.84L4.66 41.46L4.6 42.07L4.55 42.68L4.53 43.33L4.51 43.95V44.57C4.52 44.78 4.52 44.98 4.53 45.19L4.57 45.8C4.79 49.07 5.66 52.18 7 54.88C8.35 57.59 10.11 59.9 12.03 61.74C13.96 63.57 16.01 64.96 17.96 65.94C19.91 66.92 21.73 67.55 23.26 67.92C24.8 68.3 26.04 68.45 26.88 68.55C27.73 68.62 28.19 68.65 28.19 68.65C28.19 68.65 27.73 68.66 26.88 68.68C26.02 68.65 24.76 68.64 23.17 68.38C21.58 68.12 19.66 67.64 17.58 66.76C15.5 65.88 13.26 64.58 11.12 62.75C10.06 61.83 9.03 60.78 8.06 59.61C7.09 58.44 6.21 57.12 5.44 55.7C3.89 52.85 2.8 49.52 2.5 45.97C2.19 42.43 2.57 38.68 3.84 35.14L3.86 35.13ZM7.77 53.41C8.64 55.23 9.9 57.16 11.57 59C13.26 60.82 15.39 62.52 17.92 63.8C20.44 65.09 23.37 65.94 26.43 66.17C29.51 66.41 32.74 66.01 35.78 64.9C38.82 63.8 41.65 61.98 43.97 59.66C46.29 57.34 48.11 54.51 49.21 51.47C50.31 48.43 50.71 45.2 50.48 42.12C50.24 39.04 49.39 36.13 48.11 33.6C46.83 31.07 45.13 28.94 43.31 27.25C41.47 25.58 39.55 24.32 37.72 23.45C35.89 22.58 34.2 22.04 32.77 21.74C31.34 21.43 30.2 21.33 29.42 21.25C28.64 21.21 28.22 21.2 28.22 21.2C28.22 21.2 28.64 21.2 29.42 21.2C30.2 21.24 31.36 21.29 32.8 21.57C34.24 21.84 35.97 22.33 37.85 23.16C39.72 23.99 41.73 25.21 43.62 26.89C45.51 28.58 47.28 30.73 48.65 33.31C50.01 35.88 50.96 38.87 51.21 42.05C51.47 45.22 51.08 48.56 49.95 51.72C48.83 54.88 46.96 57.82 44.57 60.24C42.15 62.64 39.21 64.5 36.05 65.62C32.9 66.75 29.55 67.14 26.38 66.88C23.19 66.63 20.2 65.69 17.63 64.32C15.05 62.96 12.9 61.18 11.21 59.29C9.53 57.39 8.31 55.39 7.48 53.52C6.65 51.64 6.16 49.91 5.89 48.47C5.61 47.03 5.56 45.87 5.52 45.09C5.52 44.31 5.52 43.89 5.52 43.89C5.52 43.89 5.54 44.31 5.57 45.09C5.64 45.87 5.75 47.01 6.06 48.44C6.37 49.86 6.9 51.56 7.78 53.39L7.77 53.41ZM6.74 43.91C6.74 32.05 16.35 22.43 28.22 22.43C40.09 22.43 49.7 32.05 49.7 43.91C49.7 55.77 40.09 65.39 28.22 65.39C16.35 65.39 6.74 55.77 6.74 43.91ZM55.07 41.76C55.37 45.47 54.91 49.37 53.59 53.05C52.28 56.73 50.1 60.17 47.3 62.99C44.48 65.79 41.05 67.97 37.36 69.28C33.68 70.6 29.77 71.06 26.07 70.76C22.35 70.47 18.85 69.38 15.84 67.8C12.82 66.22 10.3 64.15 8.31 61.94C6.33 59.72 4.89 57.39 3.9 55.2C2.91 53.01 2.33 50.98 2 49.29C1.67 47.6 1.6 46.24 1.54 45.32C1.53 44.4 1.52 43.91 1.52 43.91C1.52 43.91 1.54 44.4 1.57 45.32C1.65 46.24 1.76 47.59 2.11 49.27C2.46 50.95 3.08 52.95 4.1 55.11C5.12 57.27 6.59 59.55 8.55 61.72C10.53 63.87 13.04 65.89 16.03 67.42C19.01 68.95 22.46 69.97 26.09 70.26C29.73 70.54 33.55 70.08 37.16 68.77C40.76 67.47 44.12 65.32 46.87 62.58C49.62 59.83 51.76 56.48 53.06 52.87C54.36 49.27 54.83 45.44 54.55 41.8C54.27 38.16 53.25 34.71 51.71 31.73C50.18 28.74 48.17 26.23 46.01 24.25C43.84 22.28 41.55 20.81 39.4 19.8C37.24 18.78 35.24 18.17 33.56 17.81C31.88 17.45 30.53 17.34 29.61 17.27C28.69 17.24 28.2 17.22 28.2 17.22C28.2 17.22 28.69 17.22 29.61 17.24C30.53 17.3 31.89 17.37 33.58 17.7C35.27 18.03 37.3 18.61 39.49 19.6C41.68 20.59 44.02 22.03 46.23 24.01C48.43 26 50.5 28.52 52.09 31.54C53.68 34.55 54.76 38.05 55.05 41.77L55.07 41.76Z" fill="#262626"/>
<path d="M24.9199 6.50998H24.9899V6.47998C24.9899 6.47998 24.9399 6.49998 24.9199 6.50998Z" fill="#262626"/>
<path d="M18.83 59.87L18.09 61.1501L18.42 61.34L19.16 60.0601C21.79 61.5401 24.81 62.4001 28.03 62.43V63.91H28.41V62.43C31.63 62.4001 34.65 61.5401 37.28 60.0601L38.02 61.34L38.35 61.1501L37.61 59.87C40.29 58.29 42.53 56.0601 44.13 53.39L45.39 54.12L45.58 53.7901L44.32 53.0601C45.82 50.43 46.7 47.4 46.74 44.17H48.15V43.7901H46.74C46.72 40.5501 45.87 37.51 44.38 34.87L45.57 34.18L45.38 33.85L44.19 34.5401C42.6 31.8401 40.36 29.58 37.67 27.98L38.34 26.81L38.01 26.6201L37.34 27.7901C34.7 26.2901 31.65 25.41 28.4 25.38V24.05H28.02V25.38C24.77 25.41 21.73 26.2901 19.08 27.7901L18.41 26.6201L18.08 26.81L18.75 27.98C16.06 29.58 13.82 31.8401 12.23 34.5401L11.04 33.85L10.85 34.18L12.04 34.87C10.56 37.51 9.70002 40.5601 9.68002 43.7901H8.27002V44.17H9.68002C9.73002 47.4 10.6 50.43 12.1 53.0601L10.84 53.7901L11.03 54.12L12.29 53.4001C13.89 56.0701 16.13 58.3 18.81 59.8801L18.83 59.87ZM28.06 26.34V27.0201H28.36V26.34C29.15 26.36 29.9 26.57 30.55 26.92L30.21 27.5201L30.47 27.67L30.81 27.08C31.46 27.48 32.01 28.03 32.41 28.68L31.82 29.0201L31.97 29.2801L32.57 28.9401C32.92 29.6 33.13 30.34 33.15 31.13H32.47V31.43H33.15C33.13 32.22 32.92 32.97 32.57 33.62L31.97 33.28L31.82 33.5401L32.41 33.8801C32.01 34.5301 31.46 35.08 30.81 35.48L30.47 34.89L30.21 35.0401L30.55 35.64C29.99 35.94 29.36 36.14 28.69 36.21C28.62 34.82 28.55 33.45 28.47 32.23C28.88 32.11 29.18 31.7401 29.18 31.2901C29.18 30.8001 28.82 30.4 28.35 30.33C28.26 28.87 28.2 27.92 28.2 27.92C28.2 27.92 28.14 28.87 28.05 30.33C27.58 30.41 27.23 30.8101 27.23 31.2901C27.23 31.7401 27.53 32.11 27.94 32.23C27.87 33.45 27.79 34.82 27.72 36.21C27.05 36.14 26.43 35.95 25.86 35.64L26.2 35.0401L25.94 34.89L25.6 35.48C24.95 35.08 24.4 34.5301 24 33.8801L24.59 33.5401L24.44 33.28L23.84 33.62C23.49 32.96 23.28 32.22 23.26 31.43H23.94V31.13H23.26C23.28 30.34 23.49 29.5901 23.84 28.9401L24.44 29.2801L24.59 29.0201L24 28.68C24.4 28.03 24.95 27.48 25.6 27.08L25.94 27.67L26.2 27.5201L25.86 26.92C26.52 26.57 27.26 26.36 28.05 26.34H28.06ZM28.18 35.44C28.17 36.46 28.15 37.5401 28.14 38.6301C28.11 39.7101 28.08 40.8 28.06 41.82C28.03 42.84 27.99 43.79 27.96 44.6C27.93 45.41 27.89 46.09 27.87 46.57C27.84 47.04 27.83 47.32 27.83 47.32C27.83 47.32 27.83 47.05 27.82 46.57C27.82 46.1 27.8 45.42 27.81 44.6C27.81 43.79 27.81 42.84 27.82 41.82C27.83 40.8 27.85 39.7201 27.86 38.6301C27.89 37.5501 27.92 36.46 27.94 35.44C27.96 34.42 28.01 33.47 28.04 32.66C28.07 31.85 28.11 31.1701 28.13 30.6901C28.16 30.2201 28.17 29.9401 28.17 29.9401C28.17 29.9401 28.17 30.2101 28.18 30.6901C28.18 31.16 28.2 31.84 28.19 32.66C28.19 33.47 28.19 34.42 28.18 35.44ZM27.57 31.0301C27.53 31.1101 27.52 31.1901 27.5 31.2801C27.49 31.3601 27.47 31.44 27.47 31.51C27.47 31.58 27.47 31.64 27.47 31.68C27.47 31.72 27.47 31.75 27.47 31.75C27.47 31.75 27.46 31.7301 27.44 31.6901C27.43 31.6501 27.4 31.5901 27.39 31.5201C27.37 31.45 27.36 31.3601 27.37 31.2701C27.37 31.18 27.4 31.07 27.43 30.98C27.51 30.79 27.65 30.64 27.78 30.56C27.91 30.48 28 30.46 28 30.46C28 30.46 27.7 30.7201 27.58 31.0401L27.57 31.0301ZM13.9 52.0201L12.88 52.6101C11.45 50.1101 10.62 47.23 10.58 44.17H11.8V43.7901H10.58C10.6 40.7101 11.41 37.8201 12.82 35.3101L13.9 35.94L14.09 35.6101L13.01 34.98C14.52 32.42 16.65 30.27 19.21 28.75L19.85 29.8601L20.18 29.67L19.54 28.56C21.48 27.46 23.66 26.71 25.97 26.41C24.14 27.26 22.86 29.12 22.86 31.2701C22.86 34.0601 25 36.35 27.72 36.6101C27.62 38.7001 27.54 40.78 27.52 42.39C26.81 42.67 26.3 43.36 26.3 44.17C26.3 44.98 26.79 45.66 27.49 45.9501C27.47 47.8701 27.54 47.9901 28.22 47.9901C28.9 47.9901 28.96 47.8701 28.95 45.9501C29.65 45.66 30.14 44.98 30.14 44.17C30.14 43.36 29.63 42.67 28.92 42.39C28.9 40.78 28.82 38.6901 28.72 36.6101C31.44 36.35 33.58 34.0601 33.58 31.2701C33.58 29.12 32.31 27.27 30.47 26.41C32.78 26.71 34.95 27.45 36.9 28.56L36.26 29.67L36.59 29.8601L37.23 28.75C39.78 30.27 41.92 32.42 43.43 34.98L42.35 35.6101L42.54 35.94L43.62 35.3101C45.03 37.8201 45.84 40.7101 45.86 43.7901H44.64V44.17H45.86C45.81 47.24 44.98 50.1101 43.56 52.6101L42.54 52.0201L42.35 52.35L43.37 52.94C41.85 55.47 39.72 57.59 37.17 59.1L36.6 58.1101L36.27 58.3L36.84 59.2901C34.34 60.7001 31.47 61.5101 28.41 61.5401V60.4001H28.03V61.5401C24.97 61.5101 22.1 60.6901 19.6 59.2901L20.17 58.3L19.84 58.1101L19.27 59.1C16.73 57.6 14.59 55.48 13.07 52.94L14.09 52.35L13.9 52.0201ZM27.48 42.7001C27.48 42.7001 27.37 42.82 27.24 43C27.17 43.09 27.11 43.2 27.04 43.32C26.98 43.4401 26.91 43.57 26.87 43.71C26.82 43.84 26.79 43.99 26.76 44.12C26.76 44.19 26.74 44.25 26.73 44.32C26.72 44.38 26.73 44.4401 26.72 44.5C26.71 44.6101 26.72 44.71 26.71 44.78C26.71 44.85 26.71 44.89 26.71 44.89C26.71 44.89 26.69 44.85 26.66 44.7901C26.63 44.7301 26.59 44.63 26.57 44.51C26.56 44.45 26.54 44.39 26.54 44.32C26.54 44.25 26.53 44.18 26.54 44.1C26.54 44.02 26.54 43.9401 26.57 43.8601C26.59 43.7801 26.6 43.7 26.63 43.62C26.69 43.46 26.76 43.32 26.85 43.19C26.94 43.07 27.04 42.96 27.14 42.89C27.33 42.74 27.49 42.7001 27.49 42.7001H27.48Z" fill="#262626"/>
<path d="M35.4898 31.31C35.4898 31.31 35.4898 31.23 35.5198 31.2C35.5398 31.17 35.5798 31.15 35.6298 31.15C35.6798 31.15 35.7298 31.17 35.7498 31.21C35.7698 31.25 35.7798 31.32 35.7798 31.41C35.7798 31.5 35.7698 31.56 35.7498 31.6C35.7298 31.64 35.6898 31.66 35.6398 31.66C35.5798 31.66 35.5398 31.64 35.5198 31.61C35.4998 31.58 35.4898 31.53 35.4898 31.46H34.8498V32.01C34.8498 32.01 34.9298 32.06 34.9798 32.08C35.0298 32.1 35.0898 32.13 35.1498 32.14C35.2198 32.16 35.2898 32.17 35.3698 32.19C35.4498 32.2 35.5398 32.21 35.6398 32.21C35.9198 32.21 36.1298 32.14 36.2798 32C36.4298 31.86 36.5098 31.66 36.5098 31.41C36.5098 31.31 36.4898 31.22 36.4598 31.13C36.4298 31.05 36.3898 30.97 36.3298 30.91C36.2698 30.85 36.1998 30.8 36.1198 30.77C36.0398 30.74 35.9398 30.72 35.8298 30.72C35.7698 30.72 35.7098 30.72 35.6298 30.75C35.5598 30.77 35.4998 30.79 35.4498 30.82L35.4698 30.53H36.3898V30H34.9198L34.8198 31.12L34.9398 31.31H35.4598H35.4898Z" fill="#262626"/>
<path d="M39.08 37.1299H38.81V37.5799H40.11V37.1299H39.87V35.4399H39.34L38.73 35.5799V35.8899H39.08V37.1299Z" fill="#262626"/>
<path d="M40.4499 37.3699C40.5299 37.4599 40.6399 37.5199 40.7599 37.5599C40.8799 37.5999 41.0099 37.6199 41.1599 37.6199C41.3099 37.6199 41.4399 37.5999 41.5599 37.5599C41.6799 37.5199 41.7799 37.4599 41.8599 37.3699C41.9399 37.2799 42.0099 37.1699 42.0499 37.0299C42.0999 36.8899 42.1199 36.7199 42.1199 36.5199C42.1199 36.3199 42.0999 36.1499 42.0499 36.0099C41.9999 35.8699 41.9399 35.7499 41.8599 35.6699C41.7799 35.5899 41.6799 35.5199 41.5599 35.4799C41.4399 35.4399 41.3099 35.4199 41.1599 35.4199C41.0099 35.4199 40.8799 35.4399 40.7599 35.4799C40.6399 35.5199 40.5399 35.5799 40.4499 35.6699C40.3699 35.7599 40.2999 35.8699 40.2599 36.0099C40.2099 36.1499 40.1899 36.3199 40.1899 36.5199C40.1899 36.7199 40.2099 36.8899 40.2599 37.0299C40.3099 37.1699 40.3699 37.2899 40.4499 37.3699ZM40.9699 36.0999C40.9699 36.0299 40.9899 35.9799 41.0199 35.9399C41.0499 35.8999 41.0999 35.8899 41.1599 35.8899C41.2199 35.8899 41.2699 35.9099 41.2999 35.9399C41.3299 35.9699 41.3499 36.0199 41.3499 36.0999V36.9299C41.3499 36.9999 41.3299 37.0499 41.2999 37.0899C41.2699 37.1199 41.2199 37.1399 41.1599 37.1399C41.0999 37.1399 41.0499 37.1199 41.0199 37.0899C40.9899 37.0599 40.9699 37.0099 40.9699 36.9299V36.0999Z" fill="#262626"/>
<path d="M41.9398 42.8501H41.4098L40.7998 42.9901V43.3101H41.1398V44.5501H40.8798V45.0001H42.1698V44.5501H41.9398V42.8501Z" fill="#262626"/>
<path d="M42.9398 44.1601C42.9398 44.1601 42.9398 44.0801 42.9698 44.0501C42.9898 44.0201 43.0298 44.0001 43.0798 44.0001C43.1298 44.0001 43.1798 44.0201 43.1998 44.0601C43.2198 44.1001 43.2298 44.1701 43.2298 44.2601C43.2298 44.3501 43.2198 44.4101 43.1998 44.4501C43.1798 44.4901 43.1398 44.5101 43.0898 44.5101C43.0298 44.5101 42.9898 44.4901 42.9698 44.4601C42.9498 44.4301 42.9398 44.3801 42.9398 44.3101H42.2998V44.8601C42.2998 44.8601 42.3798 44.9001 42.4298 44.9301C42.4798 44.9501 42.5398 44.9801 42.6098 44.9901C42.6798 45.0101 42.7498 45.0201 42.8298 45.0401C42.9098 45.0501 42.9998 45.0601 43.0998 45.0601C43.3798 45.0601 43.5898 44.9901 43.7398 44.8501C43.8898 44.7101 43.9698 44.5101 43.9698 44.2601C43.9698 44.1601 43.9498 44.0701 43.9298 43.9801C43.8998 43.9001 43.8598 43.8201 43.7998 43.7601C43.7398 43.7001 43.6698 43.6501 43.5898 43.6201C43.5098 43.5901 43.4098 43.5701 43.2998 43.5701C43.2398 43.5701 43.1798 43.5701 43.0998 43.6001C43.0298 43.6201 42.9698 43.6401 42.9198 43.6701L42.9398 43.3801H43.8498V42.8501H42.3798L42.2798 43.9701L42.3998 44.1601H42.9198H42.9398Z" fill="#262626"/>
<path d="M40.1101 51.58H39.5701V51.74H39.2301C39.3201 51.67 39.4101 51.59 39.5101 51.51C39.6101 51.43 39.7001 51.34 39.7801 51.25C39.8601 51.16 39.9301 51.06 39.9801 50.96C40.0301 50.86 40.0601 50.75 40.0601 50.64C40.0601 50.43 40.0001 50.28 39.8701 50.17C39.7401 50.06 39.5501 50.01 39.2901 50.01C39.2001 50.01 39.1101 50.01 39.0201 50.02C38.9301 50.03 38.8501 50.04 38.7701 50.06C38.6901 50.08 38.6301 50.1 38.5701 50.12C38.5101 50.14 38.4601 50.16 38.4101 50.18V50.83H38.9601V50.69C38.9601 50.62 38.9801 50.57 39.0101 50.53C39.0401 50.5 39.0901 50.48 39.1501 50.48C39.2101 50.48 39.2601 50.5 39.2901 50.53C39.3201 50.56 39.3401 50.61 39.3401 50.69C39.3401 50.73 39.3201 50.79 39.2701 50.86C39.2201 50.93 39.1501 51.01 39.0701 51.1C38.9801 51.19 38.8801 51.29 38.7601 51.4C38.6401 51.51 38.5101 51.62 38.3701 51.75V52.17H40.1201V51.56L40.1101 51.58Z" fill="#262626"/>
<path d="M40.4101 51.98C40.4901 52.07 40.5901 52.13 40.7101 52.17C40.8301 52.21 40.9601 52.23 41.1101 52.23C41.2601 52.23 41.3901 52.21 41.5101 52.17C41.6301 52.13 41.7301 52.07 41.8101 51.98C41.8901 51.89 41.9601 51.78 42.0001 51.64C42.0501 51.5 42.0701 51.33 42.0701 51.13C42.0701 50.93 42.0501 50.76 42.0001 50.62C41.9501 50.48 41.8901 50.36 41.8101 50.28C41.7301 50.19 41.6201 50.13 41.5101 50.09C41.3901 50.05 41.2601 50.03 41.1101 50.03C40.9601 50.03 40.8301 50.05 40.7101 50.09C40.5901 50.13 40.4901 50.2 40.4101 50.28C40.3301 50.37 40.2601 50.48 40.2101 50.62C40.1601 50.76 40.1401 50.93 40.1401 51.13C40.1401 51.33 40.1601 51.5 40.2101 51.64C40.2601 51.78 40.3201 51.89 40.4101 51.98ZM40.9301 50.71C40.9301 50.64 40.9501 50.59 40.9801 50.55C41.0101 50.52 41.0601 50.5 41.1201 50.5C41.1801 50.5 41.2301 50.52 41.2601 50.55C41.2901 50.58 41.3101 50.63 41.3101 50.71V51.54C41.3101 51.61 41.2901 51.66 41.2601 51.7C41.2301 51.73 41.1801 51.75 41.1201 51.75C41.0601 51.75 41.0101 51.73 40.9801 51.7C40.9501 51.67 40.9301 51.62 40.9301 51.54V50.71Z" fill="#262626"/>
<path d="M35.4299 56.9699H34.8899V57.1299H34.5499C34.6399 57.0599 34.7299 56.9799 34.8299 56.8999C34.9299 56.8199 35.0199 56.7299 35.0999 56.6399C35.1799 56.5499 35.2499 56.4499 35.2999 56.3499C35.3499 56.2499 35.3799 56.1399 35.3799 56.0299C35.3799 55.8199 35.3099 55.6699 35.1899 55.5599C35.0599 55.4499 34.8699 55.3999 34.6099 55.3999C34.5199 55.3999 34.4299 55.3999 34.3399 55.4099C34.2499 55.4199 34.1699 55.4299 34.0899 55.4499C34.0099 55.4699 33.9499 55.4899 33.8899 55.5099C33.8299 55.5299 33.7799 55.5499 33.7299 55.5699V56.2199H34.2799V56.0799C34.2799 56.0099 34.2999 55.9599 34.3299 55.9199C34.3599 55.8899 34.4099 55.8699 34.4699 55.8699C34.5299 55.8699 34.5799 55.8899 34.6099 55.9199C34.6399 55.9499 34.6599 55.9999 34.6599 56.0799C34.6599 56.1199 34.6399 56.1799 34.5899 56.2499C34.5399 56.3199 34.4799 56.3999 34.3899 56.4899C34.2999 56.5799 34.1999 56.6799 34.0799 56.7899C33.9599 56.8999 33.8299 57.0099 33.6899 57.1399V57.5599H35.4399V56.9499L35.4299 56.9699Z" fill="#262626"/>
<path d="M35.52 56.5499L35.64 56.7399H36.16C36.16 56.7399 36.16 56.6599 36.19 56.6299C36.21 56.5999 36.25 56.5799 36.3 56.5799C36.35 56.5799 36.4 56.5999 36.42 56.6399C36.44 56.6799 36.45 56.7499 36.45 56.8399C36.45 56.9299 36.44 56.9899 36.42 57.0299C36.4 57.0699 36.36 57.0899 36.31 57.0899C36.25 57.0899 36.21 57.0699 36.19 57.0399C36.17 56.9999 36.16 56.9599 36.16 56.8899H35.52V57.4399C35.52 57.4399 35.6 57.4899 35.65 57.5099C35.7 57.5299 35.76 57.5599 35.83 57.5799C35.9 57.5999 35.97 57.6099 36.05 57.6299C36.13 57.6399 36.22 57.6499 36.32 57.6499C36.6 57.6499 36.81 57.5799 36.96 57.4399C37.11 57.2999 37.19 57.0999 37.19 56.8499C37.19 56.7499 37.17 56.6599 37.15 56.5699C37.12 56.4899 37.08 56.4099 37.02 56.3499C36.96 56.2899 36.89 56.2399 36.81 56.2099C36.73 56.1799 36.63 56.1599 36.52 56.1599C36.46 56.1599 36.4 56.1599 36.32 56.1899C36.25 56.2099 36.19 56.2299 36.14 56.2599L36.16 55.9699H37.07V55.4399H35.6L35.5 56.5599L35.52 56.5499Z" fill="#262626"/>
<path d="M26.77 59.7C26.83 59.72 26.9 59.73 26.98 59.74C27.06 59.75 27.15 59.76 27.25 59.76C27.4 59.76 27.52 59.74 27.63 59.71C27.74 59.68 27.83 59.64 27.9 59.58C27.97 59.52 28.02 59.45 28.06 59.37C28.09 59.29 28.11 59.2 28.11 59.1C28.11 59.03 28.1 58.97 28.08 58.92C28.06 58.87 28.04 58.82 28.01 58.79C27.98 58.75 27.95 58.72 27.91 58.7C27.88 58.67 27.84 58.65 27.82 58.63V58.6C27.82 58.6 27.87 58.56 27.9 58.53C27.93 58.5 27.96 58.47 27.98 58.43C28 58.39 28.03 58.35 28.04 58.3C28.06 58.25 28.06 58.2 28.06 58.13C28.06 57.94 27.99 57.78 27.86 57.68C27.73 57.57 27.53 57.52 27.27 57.52C27.17 57.52 27.07 57.52 26.99 57.54C26.91 57.55 26.83 57.57 26.77 57.58C26.71 57.6 26.65 57.62 26.6 57.64C26.55 57.66 26.51 57.68 26.48 57.7V58.26H27.03V58.21C27.03 58.14 27.05 58.09 27.08 58.05C27.11 58.02 27.16 58 27.22 58C27.28 58 27.33 58.02 27.36 58.05C27.39 58.08 27.41 58.13 27.41 58.2C27.41 58.26 27.39 58.3 27.36 58.33C27.33 58.36 27.28 58.38 27.21 58.38H27.01V58.8H27.21C27.28 58.8 27.33 58.82 27.36 58.85C27.39 58.88 27.41 58.93 27.41 59C27.41 59.09 27.39 59.15 27.36 59.18C27.33 59.21 27.28 59.23 27.22 59.23C27.16 59.23 27.11 59.21 27.08 59.18C27.05 59.15 27.03 59.1 27.03 59.02V58.94H26.48V59.52C26.48 59.52 26.56 59.56 26.6 59.59C26.65 59.61 26.7 59.63 26.76 59.65L26.77 59.7Z" fill="#262626"/>
<path d="M28.4402 59.5101C28.5202 59.6001 28.6302 59.6601 28.7502 59.7001C28.8702 59.7401 29.0002 59.7601 29.1502 59.7601C29.3002 59.7601 29.4302 59.7401 29.5502 59.7001C29.6702 59.6601 29.7702 59.6001 29.8502 59.5101C29.9302 59.4201 30.0002 59.3101 30.0502 59.1701C30.1002 59.0301 30.1202 58.8601 30.1202 58.6601C30.1202 58.4601 30.1002 58.2901 30.0502 58.1501C30.0002 58.0101 29.9402 57.8901 29.8502 57.8101C29.7702 57.7201 29.6702 57.6601 29.5502 57.6201C29.4302 57.5801 29.3002 57.5601 29.1502 57.5601C29.0002 57.5601 28.8702 57.5801 28.7502 57.6201C28.6302 57.6601 28.5302 57.7201 28.4402 57.8101C28.3602 57.9001 28.2902 58.0101 28.2502 58.1501C28.2002 58.2901 28.1802 58.4601 28.1802 58.6601C28.1802 58.8601 28.2002 59.0301 28.2502 59.1701C28.3002 59.3101 28.3602 59.4301 28.4402 59.5101ZM28.9602 58.2401C28.9602 58.1701 28.9802 58.1201 29.0102 58.0801C29.0402 58.0501 29.0902 58.0301 29.1502 58.0301C29.2102 58.0301 29.2602 58.0501 29.2902 58.0801C29.3202 58.1101 29.3402 58.1601 29.3402 58.2401V59.0701C29.3402 59.1401 29.3202 59.1901 29.2902 59.2301C29.2602 59.2601 29.2102 59.2801 29.1502 59.2801C29.0902 59.2801 29.0402 59.2601 29.0102 59.2301C28.9802 59.2001 28.9602 59.1501 28.9602 59.0701V58.2401Z" fill="#262626"/>
<path d="M20.6099 56.5599C20.6099 56.5599 20.5399 56.5099 20.5099 56.4899V56.4599C20.5099 56.4599 20.5599 56.4199 20.5899 56.3899C20.6199 56.3599 20.6499 56.3299 20.6699 56.2899C20.6899 56.2499 20.7099 56.2099 20.7299 56.1599C20.7499 56.1099 20.7499 56.0599 20.7499 55.9899C20.7499 55.7999 20.6799 55.6399 20.5499 55.5399C20.4199 55.4299 20.2199 55.3799 19.9599 55.3799C19.8499 55.3799 19.7599 55.3799 19.6799 55.3999C19.5999 55.4099 19.5199 55.4299 19.4599 55.4399C19.3999 55.4599 19.3399 55.4799 19.2899 55.4999C19.2399 55.5199 19.1999 55.5399 19.1699 55.5599V56.1199H19.7199V56.0699C19.7199 55.9999 19.7399 55.9499 19.7699 55.9099C19.7999 55.8799 19.8499 55.8599 19.9099 55.8599C19.9699 55.8599 20.0199 55.8799 20.0499 55.9099C20.0799 55.9399 20.0999 55.9899 20.0999 56.0599C20.0999 56.1199 20.0899 56.1599 20.0599 56.1899C20.0299 56.2199 19.9799 56.2399 19.9099 56.2399H19.7199V56.6599H19.9199C19.9899 56.6599 20.0399 56.6799 20.0699 56.7099C20.0999 56.7399 20.1099 56.7899 20.1099 56.8599C20.1099 56.9499 20.0899 57.0099 20.0599 57.0399C20.0299 57.0699 19.9799 57.0899 19.9199 57.0899C19.8599 57.0899 19.8099 57.0699 19.7799 57.0399C19.7499 57.0099 19.7299 56.9599 19.7299 56.8799V56.7999H19.1799V57.3799C19.1799 57.3799 19.2599 57.4299 19.2999 57.4499C19.3499 57.4699 19.3999 57.4899 19.4599 57.5099C19.5199 57.5299 19.5899 57.5399 19.6699 57.5499C19.7499 57.5599 19.8399 57.5699 19.9399 57.5699C20.0899 57.5699 20.2099 57.5599 20.3199 57.5199C20.4299 57.4899 20.5199 57.4499 20.5899 57.3899C20.6599 57.3299 20.7099 57.2599 20.7499 57.1799C20.7799 57.0999 20.7999 57.0099 20.7999 56.9099C20.7999 56.8399 20.7999 56.7799 20.7699 56.7299C20.7499 56.6799 20.7199 56.6299 20.6999 56.5999C20.6699 56.5599 20.6399 56.5299 20.6099 56.5099V56.5599Z" fill="#262626"/>
<path d="M22.4202 56.3499C22.3602 56.2899 22.2902 56.2399 22.2102 56.2099C22.1302 56.1799 22.0302 56.1599 21.9202 56.1599C21.8602 56.1599 21.8002 56.1599 21.7202 56.1899C21.6502 56.2099 21.5902 56.2299 21.5402 56.2599L21.5602 55.9699H22.4802V55.4399H21.0102L20.9102 56.5599L21.0302 56.7499H21.5502C21.5502 56.7499 21.5502 56.6699 21.5802 56.6399C21.6002 56.6099 21.6402 56.5899 21.6902 56.5899C21.7402 56.5899 21.7902 56.6099 21.8102 56.6499C21.8302 56.6899 21.8402 56.7599 21.8402 56.8499C21.8402 56.9399 21.8302 56.9999 21.8102 57.0399C21.7902 57.0799 21.7502 57.0999 21.7002 57.0999C21.6402 57.0999 21.6002 57.0799 21.5802 57.0499C21.5602 57.0099 21.5502 56.9699 21.5502 56.8999H20.9102V57.4499C20.9102 57.4499 20.9902 57.4999 21.0402 57.5199C21.0902 57.5399 21.1502 57.5699 21.2102 57.5899C21.2802 57.6099 21.3502 57.6199 21.4302 57.6399C21.5102 57.6499 21.6002 57.6599 21.7002 57.6599C21.9802 57.6599 22.1902 57.5899 22.3402 57.4499C22.4902 57.3099 22.5702 57.1099 22.5702 56.8599C22.5702 56.7599 22.5502 56.6699 22.5202 56.5799C22.4902 56.4999 22.4502 56.4199 22.3902 56.3599L22.4202 56.3499Z" fill="#262626"/>
<path d="M15.3099 52.0001H14.9599V52.4901H16.1999V52.0001H16.0299V51.8501H16.2499V51.4301H16.0299V51.0501H15.3099V51.4301H15.0699L15.3999 50.3401H14.7499L14.4199 51.3801V51.8501H15.3099V52.0001Z" fill="#262626"/>
<path d="M17.6901 50.3601C17.5701 50.3201 17.4401 50.3 17.2901 50.3C17.1401 50.3 17.0101 50.3201 16.8901 50.3601C16.7701 50.4001 16.6701 50.46 16.5901 50.55C16.5101 50.64 16.4401 50.75 16.4001 50.89C16.3501 51.03 16.3301 51.2001 16.3301 51.4001C16.3301 51.6001 16.3501 51.77 16.4001 51.91C16.4501 52.05 16.5101 52.16 16.5901 52.25C16.6701 52.34 16.7801 52.4 16.8901 52.44C17.0101 52.48 17.1401 52.5 17.2901 52.5C17.4401 52.5 17.5701 52.48 17.6901 52.44C17.8101 52.4 17.9101 52.34 17.9901 52.25C18.0701 52.16 18.1401 52.05 18.1801 51.91C18.2301 51.77 18.2501 51.6001 18.2501 51.4001C18.2501 51.2001 18.2301 51.03 18.1801 50.89C18.1301 50.75 18.0701 50.63 17.9901 50.55C17.9101 50.46 17.8101 50.4001 17.6901 50.3601ZM17.4701 51.8301C17.4701 51.9001 17.4501 51.9501 17.4201 51.9901C17.3901 52.0201 17.3401 52.0401 17.2801 52.0401C17.2201 52.0401 17.1701 52.0201 17.1401 51.9901C17.1101 51.9601 17.0901 51.9101 17.0901 51.8301V51C17.0901 50.93 17.1101 50.88 17.1401 50.84C17.1701 50.81 17.2201 50.7901 17.2801 50.7901C17.3401 50.7901 17.3901 50.81 17.4201 50.84C17.4501 50.87 17.4701 50.92 17.4701 51V51.8301Z" fill="#262626"/>
<path d="M14.2998 44.5101H14.1398V44.3601H14.3598V43.9401H14.1398V43.5601H13.4198V43.9401H13.1698L13.5098 42.8501H12.8598L12.5298 43.8901V44.3601H13.4198V44.5101H13.0698V45.0001H14.2998V44.5101Z" fill="#262626"/>
<path d="M15.2602 44.5101C15.2002 44.5101 15.1602 44.4901 15.1402 44.4601C15.1202 44.4201 15.1102 44.3701 15.1102 44.3101H14.4702V44.8601C14.4702 44.8601 14.5502 44.9001 14.6002 44.9301C14.6502 44.9501 14.7102 44.9801 14.7702 45.0001C14.8402 45.0201 14.9102 45.0301 14.9902 45.0501C15.0702 45.0601 15.1602 45.0701 15.2602 45.0701C15.5402 45.0701 15.7502 45.0001 15.9002 44.8601C16.0502 44.7201 16.1302 44.5201 16.1302 44.2701C16.1302 44.1701 16.1102 44.0801 16.0802 43.9901C16.0502 43.9101 16.0102 43.8301 15.9502 43.7701C15.8902 43.7101 15.8202 43.6601 15.7402 43.6301C15.6502 43.6001 15.5602 43.5801 15.4502 43.5801C15.3902 43.5801 15.3302 43.5801 15.2502 43.6101C15.1802 43.6301 15.1202 43.6501 15.0702 43.6801L15.0902 43.3901H16.0002V42.8601H14.5302L14.4302 43.9801L14.5502 44.1701H15.0702C15.0702 44.1701 15.0702 44.0901 15.1002 44.0601C15.1202 44.0301 15.1602 44.0101 15.2102 44.0101C15.2602 44.0101 15.3102 44.0301 15.3302 44.0701C15.3502 44.1101 15.3602 44.1801 15.3602 44.2701C15.3602 44.3601 15.3502 44.4201 15.3302 44.4601C15.3102 44.5001 15.2702 44.5201 15.2202 44.5201L15.2602 44.5101Z" fill="#262626"/>
<path d="M15.0902 36.75C15.0902 36.75 15.0902 36.6699 15.1202 36.6399C15.1402 36.6099 15.1802 36.59 15.2302 36.59C15.2802 36.59 15.3302 36.61 15.3502 36.65C15.3702 36.69 15.3802 36.7599 15.3802 36.8499C15.3802 36.9399 15.3702 37 15.3502 37.04C15.3302 37.08 15.2902 37.0999 15.2402 37.0999C15.1802 37.0999 15.1402 37.0799 15.1202 37.0499C15.1002 37.0099 15.0902 36.97 15.0902 36.9H14.4502V37.45C14.4502 37.45 14.5302 37.5 14.5802 37.52C14.6302 37.54 14.6902 37.57 14.7602 37.59C14.8302 37.61 14.9002 37.6199 14.9802 37.6399C15.0602 37.6499 15.1502 37.66 15.2502 37.66C15.5302 37.66 15.7402 37.59 15.8902 37.45C16.0402 37.31 16.1202 37.11 16.1202 36.86C16.1202 36.76 16.1002 36.67 16.0802 36.58C16.0502 36.5 16.0102 36.42 15.9502 36.36C15.8902 36.3 15.8202 36.25 15.7402 36.22C15.6602 36.19 15.5602 36.1699 15.4502 36.1699C15.3902 36.1699 15.3302 36.17 15.2502 36.2C15.1802 36.22 15.1202 36.24 15.0702 36.27L15.0902 35.9799H16.0002V35.45H14.5302L14.4302 36.57L14.5502 36.7599H15.0702L15.0902 36.75Z" fill="#262626"/>
<path d="M16.4602 37.3699C16.5402 37.4599 16.6502 37.5199 16.7702 37.5599C16.8902 37.5999 17.0202 37.6199 17.1702 37.6199C17.3202 37.6199 17.4502 37.5999 17.5702 37.5599C17.6902 37.5199 17.7902 37.4499 17.8702 37.3699C17.9502 37.2799 18.0202 37.1699 18.0602 37.0299C18.1102 36.8899 18.1302 36.7199 18.1302 36.5199C18.1302 36.3199 18.1102 36.1499 18.0602 36.0099C18.0102 35.8699 17.9502 35.7499 17.8702 35.6699C17.7902 35.5799 17.6902 35.5199 17.5702 35.4799C17.4502 35.4399 17.3202 35.4199 17.1702 35.4199C17.0202 35.4199 16.8902 35.4399 16.7702 35.4799C16.6502 35.5199 16.5502 35.5799 16.4602 35.6699C16.3802 35.7599 16.3102 35.8699 16.2702 36.0099C16.2202 36.1499 16.2002 36.3199 16.2002 36.5199C16.2002 36.7199 16.2202 36.8899 16.2702 37.0299C16.3202 37.1699 16.3802 37.2799 16.4602 37.3699ZM16.9802 36.0999C16.9802 36.0299 17.0002 35.9799 17.0302 35.9399C17.0602 35.9099 17.1102 35.8899 17.1702 35.8899C17.2302 35.8899 17.2802 35.9099 17.3102 35.9399C17.3402 35.9699 17.3602 36.0199 17.3602 36.0999V36.9299C17.3602 36.9999 17.3402 37.0499 17.3102 37.0899C17.2802 37.1199 17.2302 37.1399 17.1702 37.1399C17.1102 37.1399 17.0602 37.1199 17.0302 37.0899C17.0002 37.0599 16.9802 37.0099 16.9802 36.9299V36.0999Z" fill="#262626"/>
<path d="M19.7401 31.6201C19.7401 31.6201 19.7501 31.5401 19.7701 31.5101C19.7901 31.4801 19.8301 31.4601 19.8801 31.4601C19.9301 31.4601 19.9801 31.4801 20.0001 31.5201C20.0201 31.5601 20.0301 31.6301 20.0301 31.7201C20.0301 31.8101 20.0201 31.8701 20.0001 31.9101C19.9801 31.9501 19.9401 31.9701 19.8901 31.9701C19.8301 31.9701 19.7901 31.9501 19.7701 31.9201C19.7501 31.8901 19.7401 31.8401 19.7401 31.7701H19.1001V32.3201C19.1001 32.3201 19.1801 32.3601 19.2301 32.3901C19.2801 32.4101 19.3401 32.4401 19.4001 32.4601C19.4701 32.4801 19.5401 32.4901 19.6201 32.5101C19.7001 32.5201 19.7901 32.5301 19.8901 32.5301C20.1701 32.5301 20.3801 32.4601 20.5301 32.3201C20.6801 32.1801 20.7601 31.9801 20.7601 31.7301C20.7601 31.6301 20.7401 31.5401 20.7101 31.4501C20.6801 31.3701 20.6401 31.2901 20.5801 31.2301C20.5201 31.1701 20.4501 31.1201 20.3701 31.0901C20.2801 31.0601 20.1901 31.0401 20.0801 31.0401C20.0201 31.0401 19.9601 31.0401 19.8801 31.0701C19.8101 31.0901 19.7501 31.1101 19.7001 31.1401L19.7201 30.8501H20.6301V30.3201H19.1601L19.0601 31.4401L19.1801 31.6301H19.7001L19.7401 31.6201Z" fill="#262626"/>
<path d="M21.5399 31.6201C21.5399 31.6201 21.5399 31.5401 21.5699 31.5101C21.5899 31.4801 21.6299 31.4601 21.6799 31.4601C21.7299 31.4601 21.7799 31.4801 21.7999 31.5201C21.8199 31.5601 21.8299 31.6301 21.8299 31.7201C21.8299 31.8101 21.8199 31.8701 21.7999 31.9101C21.7799 31.9501 21.7399 31.9701 21.6899 31.9701C21.6299 31.9701 21.5899 31.9501 21.5699 31.9201C21.5499 31.8901 21.5399 31.8401 21.5399 31.7701H20.8999V32.3201C20.8999 32.3201 20.9799 32.3601 21.0299 32.3901C21.0799 32.4101 21.1399 32.4401 21.1999 32.4601C21.2699 32.4801 21.3399 32.4901 21.4199 32.5101C21.4999 32.5201 21.5899 32.5301 21.6899 32.5301C21.9699 32.5301 22.1799 32.4601 22.3299 32.3201C22.4799 32.1801 22.5599 31.9801 22.5599 31.7301C22.5599 31.6301 22.5399 31.5401 22.5099 31.4501C22.4799 31.3701 22.4399 31.2901 22.3799 31.2301C22.3199 31.1701 22.2499 31.1201 22.1699 31.0901C22.0899 31.0601 21.9899 31.0401 21.8799 31.0401C21.8199 31.0401 21.7599 31.0401 21.6799 31.0701C21.6099 31.0901 21.5499 31.1101 21.4999 31.1401L21.5199 30.8501H22.4299V30.3201H20.9599L20.8599 31.4401L20.9799 31.6301H21.4999L21.5399 31.6201Z" fill="#262626"/>
</g>
<defs>
<clipPath id="clip0_0_2114">
<rect width="56.43" height="72.12" fill="white"/>
</clipPath>
</defs>
</svg>
