<svg width="57" height="66" viewBox="0 0 57 66" fill="none" xmlns="http://www.w3.org/2000/svg">
<g clip-path="url(#clip0_0_2221)">
<path d="M32.4776 8.19277C30.4115 7.41065 28.4823 7.12387 26.905 7.04565C25.3212 6.96744 24.0763 7.11083 23.242 7.24119C22.8184 7.29333 22.5055 7.37806 22.2904 7.41065C22.0754 7.45627 21.9646 7.47582 21.9646 7.47582C21.9646 7.47582 21.8538 7.50189 21.6452 7.56055C21.4366 7.61921 21.1173 7.68439 20.7132 7.82126C19.905 8.06242 18.7187 8.47955 17.324 9.24212C15.9357 9.99817 14.3258 11.0931 12.8072 12.6965C11.8621 13.6872 10.9496 14.8669 10.161 16.2356L10.3696 16.3595C10.0958 16.8287 9.84163 17.3176 9.60047 17.8259L9.39191 17.7282C9.21593 18.1127 9.03995 18.5038 8.88353 18.9144C8.40774 20.1853 8.04926 21.5541 7.85373 23.001C7.65168 24.4479 7.64516 25.9665 7.81462 27.5112C7.98408 29.0494 8.38166 30.6137 8.96826 32.1258C9.27459 32.8818 9.61351 33.6314 10.0241 34.3483C10.2197 34.7133 10.4478 35.0653 10.6694 35.4172L10.9887 35.88L11.0344 35.8474L11.0735 35.906C11.1908 36.082 11.3081 36.2515 11.4385 36.4209C12.2336 37.5029 13.1657 38.5066 14.202 39.3995C15.7923 40.7357 17.6238 41.8306 19.6247 42.5736C20.4524 42.8865 21.3063 43.1277 22.1731 43.3167C23.04 43.5057 23.9264 43.6165 24.8193 43.6817C25.7122 43.7403 26.6052 43.7208 27.4981 43.6556C28.3975 43.5774 29.2579 43.434 30.1573 43.2384C31.0176 43.0364 31.8845 42.7822 32.7188 42.4628C33.553 42.137 34.3677 41.7655 35.1433 41.3223C35.919 40.879 36.6685 40.3902 37.3659 39.8427C38.0633 39.2887 38.7281 38.7021 39.3407 38.0634C41.7914 35.515 43.4339 32.2822 44.0856 28.9712C44.1313 28.7626 44.1704 28.5606 44.1964 28.352C44.229 28.1435 44.2616 27.9349 44.2942 27.7328C44.3333 27.3157 44.392 26.9051 44.405 26.488C44.4637 25.6602 44.4376 24.839 44.392 24.0243C44.2616 22.4079 43.9422 20.8241 43.4208 19.3641C43.2709 18.9405 43.108 18.5298 42.932 18.1257L42.7821 18.1909C42.3519 17.2068 41.8435 16.2747 41.27 15.4209C40.4618 14.2216 39.5428 13.1593 38.5651 12.2468C37.8743 11.6015 37.1508 11.0345 36.4208 10.5326L36.5577 10.3306C35.2085 9.39203 33.8137 8.68812 32.4776 8.18625V8.19277ZM38.2132 12.6118C39.1517 13.5112 40.0316 14.554 40.8007 15.7272C41.3482 16.5615 41.8305 17.4675 42.2346 18.4256L39.2951 19.7095C40.0251 21.3846 40.4879 23.3008 40.527 25.3474C40.54 25.4973 40.527 25.6537 40.5205 25.8036C40.5139 25.96 40.5074 26.1099 40.4944 26.2664C40.4879 26.4228 40.4813 26.5727 40.4683 26.7291L40.4553 26.9638C40.4488 27.055 40.4357 27.1202 40.4227 27.1984C40.3249 27.8111 40.2663 28.4368 40.0773 29.0559C39.8882 29.9163 39.5819 30.744 39.2039 31.5587L41.9739 32.8427C41.7458 33.325 41.4981 33.7943 41.2244 34.2571L38.6108 32.7384C38.4478 33.0122 38.2784 33.2794 38.1089 33.5531C37.9329 33.8399 37.7113 34.0941 37.5093 34.3744L37.2029 34.7785C37.0921 34.9088 36.9748 35.0327 36.8575 35.1565C36.6229 35.4042 36.4013 35.6714 36.1536 35.906C35.1629 36.8641 34.0223 37.6789 32.7905 38.3632C31.5456 39.0215 30.1899 39.4843 28.8016 39.7841L27.7458 39.947L27.4785 39.9861L27.2113 39.9992L26.6769 40.0252L26.1424 40.0513C25.9664 40.0643 25.7839 40.0383 25.608 40.0383H25.458L25.3277 42.9061C25.1713 42.9061 25.0148 42.893 24.8584 42.8865C24.1089 42.8344 23.3659 42.7431 22.6294 42.5997L23.229 39.7645C22.7923 39.6733 22.3621 39.569 21.932 39.4451L21.1042 42.2347C20.6936 42.1174 20.283 41.9871 19.8789 41.8306C16.6983 40.6574 13.9413 38.5587 11.9925 35.9777C11.8686 35.8213 11.7448 35.6584 11.634 35.4889L11.5949 35.4368L14.1042 33.7031C14.0716 33.6574 14.039 33.6118 14.013 33.5662C13.8174 33.2794 13.661 32.9796 13.485 32.6863C13.4003 32.5364 13.309 32.393 13.2308 32.2431L13.0158 31.7803C12.8789 31.4675 12.7159 31.1742 12.6051 30.8548C12.4943 30.5355 12.3835 30.2226 12.2727 29.9032C11.8947 28.6258 11.6275 27.3287 11.6144 26.0448C11.5623 25.406 11.634 24.7738 11.6666 24.1481C11.6666 24.0699 11.6731 23.9982 11.6861 23.9069L11.7252 23.6788C11.7513 23.5289 11.7774 23.3725 11.7969 23.2226C11.823 23.0727 11.8491 22.9228 11.8686 22.7729C11.8947 22.623 11.9143 22.4731 11.9599 22.3231C12.201 21.2803 12.5595 20.2961 12.9832 19.3837L10.0306 18.0149C10.2588 17.5196 10.5064 17.0373 10.7671 16.5811L13.5893 18.217C14.0064 17.5 14.4757 16.8287 14.9841 16.2291C16.3593 14.6062 17.9562 13.433 19.4878 12.6444C21.0195 11.8362 22.499 11.4712 23.7113 11.2626C24.0176 11.217 24.3044 11.1779 24.5782 11.1388C24.8519 11.1062 25.1126 11.1127 25.3472 11.0931C25.5884 11.0801 25.81 11.0736 26.012 11.0606C26.2141 11.054 26.4031 11.0801 26.5661 11.0801C27.2243 11.1192 27.5828 11.1388 27.5828 11.1388C27.5828 11.1388 27.9283 11.1909 28.5865 11.2952C28.7495 11.3278 28.932 11.3408 29.134 11.3864C29.3296 11.4386 29.5446 11.4907 29.7793 11.5559C30.0139 11.6211 30.2681 11.6732 30.5288 11.758C30.7895 11.8557 31.0633 11.9535 31.35 12.0643C32.2365 12.4162 33.2532 12.8986 34.283 13.6155L36.1471 10.9237C36.8575 11.419 37.5484 11.973 38.2132 12.6118Z" fill="#262626"/>
<path d="M31.4088 28.2997C31.4348 28.2475 31.4609 28.1889 31.487 28.1367C31.5913 27.9151 31.6825 27.6935 31.7542 27.4654C31.9106 26.944 32.0214 26.4096 32.0279 25.8881C32.054 25.6339 32.0214 25.3602 32.0084 25.093C32.0084 24.9757 31.9693 24.8388 31.9562 24.715C31.9302 24.5911 31.9237 24.4608 31.8911 24.3434C31.7933 23.9133 31.6434 23.5027 31.4609 23.1181C31.2002 22.5706 30.8743 22.0818 30.5028 21.6712C30.1443 21.2801 29.7598 20.9608 29.3687 20.7C29.1602 20.5567 28.9516 20.4328 28.743 20.3285C28.1043 19.9961 27.4851 19.8462 26.9767 19.768C26.8464 19.7485 26.729 19.7354 26.6117 19.7159C26.4944 19.7028 26.3901 19.7028 26.2924 19.7028C26.0968 19.6963 25.9209 19.6898 25.784 19.7028C25.5102 19.7224 25.3668 19.7289 25.3538 19.7289C25.3538 19.7289 25.2039 19.755 24.9367 19.8006C24.7998 19.8202 24.6369 19.8658 24.4413 19.9179C24.3436 19.944 24.2393 19.9701 24.1285 20.0092C24.0242 20.0483 23.9069 20.0939 23.7896 20.146C23.3138 20.3481 22.7467 20.6349 22.2058 21.1107C21.7756 21.4757 21.3454 21.9449 20.9935 22.512L21.0391 22.538C20.9804 22.6293 20.9283 22.7205 20.8762 22.8183C20.8436 22.877 20.811 22.9421 20.7849 23.0073L20.7328 22.9812C20.7328 22.9812 20.7328 22.9878 20.7328 22.9943C20.3417 23.7829 20.1005 24.741 20.1071 25.7382C20.1071 25.8621 20.1201 25.9924 20.1331 26.1228C20.1462 26.2466 20.1462 26.3965 20.1722 26.5073C20.2244 26.7615 20.2505 27.0222 20.3352 27.2699C20.4655 27.7848 20.7002 28.2736 20.9739 28.7429C21.0065 28.8015 21.0456 28.8537 21.0782 28.9058L21.1173 28.8798C21.3519 29.2317 21.6257 29.5641 21.9255 29.877C22.3361 30.2811 22.8184 30.62 23.3333 30.9003C23.6527 31.0697 23.9981 31.2066 24.3501 31.3109V31.3304C24.5587 31.3956 24.7737 31.4477 24.9888 31.4868V31.4738C24.9888 31.4738 25.0019 31.4738 25.0084 31.4738C25.2821 31.5129 25.5559 31.5585 25.8426 31.5651C25.8426 31.5651 25.8817 31.5716 25.9013 31.5716C26.1685 31.5911 26.5009 31.5455 26.7682 31.5325C27.3417 31.4543 27.9022 31.3239 28.4367 31.0958C28.9646 30.8611 29.46 30.5678 29.8966 30.2029C30.3268 29.8313 30.7179 29.4077 31.0307 28.9449C31.1676 28.7299 31.2914 28.5083 31.4088 28.2867V28.2997ZM30.7765 28.1954L27.0745 26.0511C27.0745 26.0511 27.1071 25.9924 27.1266 25.9598L31.0242 27.7652C30.946 27.9151 30.8678 28.0585 30.7765 28.1954ZM30.379 21.7885C30.7114 22.2056 31.0047 22.6945 31.2197 23.2289L27.1397 25.0082C27.0549 24.8127 26.9115 24.6433 26.7356 24.5194L29.3166 20.7913C29.6881 21.0585 30.0531 21.3909 30.379 21.7885ZM21.0261 22.903C21.0717 22.8053 21.1173 22.714 21.1694 22.6228L25.0736 24.8909C25.0736 24.8909 25.041 24.9496 25.0214 24.9822L20.9413 23.092C20.9674 23.0269 20.9935 22.9682 21.0261 22.903ZM23.6462 30.2876C23.1769 30.0529 22.7467 29.7662 22.3557 29.4207C22.0689 29.16 21.8082 28.8732 21.5801 28.5669L25.1257 26.1228C25.2756 26.3379 25.4972 26.4943 25.7514 26.5725L24.5521 30.62C24.2393 30.5287 23.9395 30.4245 23.6462 30.2876ZM25.1452 30.7634L26.0186 26.6246C26.0186 26.6246 26.0512 26.6246 26.0642 26.6246L25.8752 30.8286C25.6341 30.8286 25.3864 30.7894 25.1387 30.7634H25.1452Z" fill="#262626"/>
<path d="M51.5423 59.1481V25.4647C51.5423 11.4255 40.1168 0 26.0777 0H22.1605C21.424 0 20.8309 0.593111 20.8309 1.32961C20.8309 2.06611 21.424 2.65922 22.1605 2.65922H24.8132V4.90783C14.0264 5.5596 5.48171 14.5149 5.48171 25.4647C5.48171 36.4144 14.7043 46.0606 26.0777 46.0606C37.451 46.0606 46.6736 36.838 46.6736 25.4647C46.6736 14.0913 38.1289 5.56612 27.3421 4.90783V2.69181C39.3347 3.3501 48.8831 13.3091 48.8831 25.4647V58.8288C44.5423 58.3856 38.5786 58.0923 31.9045 58.0336C32.5302 57.4405 32.8952 56.6844 32.8626 55.8697C32.83 54.9638 32.3216 54.1621 31.5199 53.5951C30.249 52.487 28.0004 51.7897 28.0004 51.7897C27.3486 51.5094 26.5991 51.3595 25.7909 51.3856C23.4706 51.4703 21.6391 52.9889 21.6978 54.7813C21.6978 54.9051 21.7173 55.029 21.7434 55.1528L1.0953 58.6789C0.378353 58.8027 -0.103957 59.4805 0.0198791 60.1975C0.13068 60.8427 0.684685 61.2925 1.3169 61.2925C1.3886 61.2925 1.46681 61.2925 1.5385 61.2729L2.61392 61.0904V63.1305C2.61392 64.5448 14.6 65.6854 29.3821 65.6854C44.1643 65.6854 56.1503 64.5383 56.1503 63.1305V60.5755C56.1503 60.0411 54.4492 59.5522 51.5423 59.1416V59.1481ZM25.5432 4.7514C25.478 4.44507 25.4454 4.03446 25.452 3.62384C25.452 3.21323 25.4976 2.80261 25.5628 2.49628C25.5888 2.33985 25.6214 2.21602 25.6475 2.12477C25.6605 2.07915 25.6736 2.04004 25.6736 2.02049C25.6801 2.00093 25.6736 1.98138 25.6736 1.98138C25.6736 1.98138 25.7061 2.027 25.7387 2.11825C25.7713 2.2095 25.8104 2.33985 25.843 2.48976C25.9147 2.79609 25.9538 3.21323 25.9473 3.62384C25.9473 4.03446 25.8952 4.44507 25.8235 4.7514C25.7583 5.05774 25.667 5.25978 25.667 5.25978C25.667 5.25978 25.5888 5.05122 25.5302 4.74489L25.5432 4.7514ZM37.0926 9.5745C40.1624 11.6993 42.424 14.554 43.8123 17.7477L43.1149 18.054C43.2909 18.4646 43.4604 18.8753 43.6103 19.3054C43.7471 19.6704 43.8514 20.055 43.9753 20.433C44.0665 20.8175 44.1903 21.2021 44.262 21.5997C44.3011 21.7952 44.3402 21.9907 44.3859 22.1863C44.425 22.3818 44.451 22.5904 44.4836 22.7859C44.5553 23.19 44.5879 23.5941 44.6335 24.0047C44.6922 24.8259 44.7248 25.6602 44.6727 26.501C44.6596 26.9246 44.6075 27.3418 44.5684 27.7654C44.5358 27.974 44.5097 28.1891 44.4771 28.3976C44.451 28.6062 44.4119 28.8213 44.3663 29.0298C44.0926 30.4833 43.6298 31.9302 42.9976 33.312L43.6233 33.6053C43.3756 34.1462 43.1019 34.6677 42.8086 35.1695L42.2155 34.8241C41.4985 36.0755 40.6317 37.2617 39.6214 38.3306C37.1512 40.9703 33.8533 42.893 30.2555 43.7207C29.3756 43.9098 28.4501 44.0531 27.5376 44.1248C26.7881 44.1705 26.0385 44.19 25.289 44.1509L25.2629 44.7831C24.2527 44.7375 23.249 44.6137 22.2648 44.4181L22.3952 43.7859C22.2909 43.7664 22.1866 43.7468 22.0823 43.7207C21.6456 43.6165 21.2089 43.5057 20.7853 43.3753L20.6028 44.001C16.1903 42.6975 12.5925 39.9535 10.1679 36.4405L10.7545 36.0364L10.4352 35.5671C10.2201 35.2021 9.98545 34.8501 9.79643 34.4721C9.38582 33.7356 9.0469 32.973 8.74708 32.204C8.61021 31.8129 8.4603 31.4349 8.3495 31.0438C8.29084 30.8483 8.22567 30.6527 8.17352 30.4572C8.12138 30.2617 8.07576 30.0662 8.02362 29.8706C7.91933 29.473 7.86067 29.0885 7.77594 28.6974C7.71729 28.3064 7.64559 27.9153 7.613 27.5243C7.45006 25.9665 7.46309 24.4283 7.67166 22.9684C7.88023 21.5084 8.24522 20.1267 8.73405 18.8492C8.89047 18.4386 9.06645 18.041 9.24894 17.6565L8.53852 17.324C8.78619 16.7831 9.05993 16.2617 9.35323 15.7598L10.0311 16.1509C10.8327 14.7821 11.7583 13.5959 12.7164 12.6052C14.2545 11.0019 15.8774 9.90691 17.2788 9.15737C18.6801 8.40132 19.8728 7.9907 20.6875 7.74955C21.0916 7.61919 21.411 7.55402 21.6261 7.49536C21.8411 7.44321 21.9519 7.41063 21.9519 7.41063C21.9519 7.41063 22.0627 7.38456 22.2778 7.34545C22.4929 7.30634 22.8123 7.22161 23.2359 7.16947C24.0767 7.0326 25.3281 6.88269 26.9184 6.95439C28.5022 7.01956 30.4445 7.30634 32.5237 8.07543C33.8663 8.57078 35.2741 9.27469 36.6428 10.2132L37.0926 9.56799V9.5745ZM48.0553 17.2393C47.3775 15.2905 46.4585 13.4591 45.3505 11.8361C44.249 10.2067 42.9846 8.77283 41.6354 7.57357C40.2862 6.38083 38.8589 5.41621 37.4641 4.67971C36.0693 3.94321 34.7136 3.40876 33.4883 3.04377C32.2564 2.67226 31.1549 2.46369 30.2359 2.33334C29.3235 2.2095 28.5935 2.15084 28.0981 2.13129C27.6028 2.10522 27.3356 2.10522 27.3356 2.10522C27.3356 2.10522 27.6028 2.10522 28.0981 2.10522C28.5935 2.10522 29.3235 2.13781 30.2425 2.24209C31.1615 2.35289 32.2825 2.53539 33.5274 2.87431C34.7723 3.21974 36.1605 3.70857 37.5814 4.43855C39.0023 5.16202 40.4622 6.12012 41.857 7.31286C43.2453 8.51212 44.5684 9.94601 45.6959 11.6015C46.83 13.2505 47.7751 15.1145 48.479 17.0959C49.1894 19.0773 49.6391 21.1825 49.8347 23.3073C49.9324 24.3697 49.9585 25.4451 49.9455 26.4945C49.9455 27.5503 49.9455 28.5997 49.939 29.6425C49.939 31.7282 49.9259 33.7747 49.9194 35.7561C49.9194 37.7375 49.9064 39.6602 49.8868 41.4786C49.8738 43.2971 49.8542 45.0178 49.8412 46.6016C49.8216 49.7757 49.7695 52.4219 49.7434 54.2729C49.7108 56.1239 49.6913 57.1798 49.6913 57.1798C49.6913 57.1798 49.6717 56.1239 49.6391 54.2729C49.6196 52.4219 49.5609 49.7757 49.5414 46.6016C49.5283 45.0178 49.5153 43.2971 49.4958 41.4786C49.4762 39.6602 49.4697 37.744 49.4632 35.7561C49.4632 33.7747 49.4501 31.7217 49.4436 29.6425C49.4436 28.5997 49.4436 27.5503 49.4371 26.4945C49.4371 25.4386 49.4241 24.3958 49.3328 23.3529C49.1503 21.2673 48.7136 19.1946 48.0293 17.2524L48.0553 17.2393ZM48.5898 59.6565V59.6304C48.5898 59.6304 48.5963 59.6696 48.6224 59.7347C48.6419 59.7999 48.7006 59.8716 48.7984 59.9042C48.8961 59.9368 49.0265 59.9498 49.1699 59.9563C49.3133 59.9563 49.4697 59.9694 49.6326 59.9694C49.952 59.9824 50.2714 60.002 50.506 60.0345C50.7472 60.0671 50.9036 60.1062 50.9036 60.1062C50.9036 60.1062 50.7406 60.1519 50.506 60.1779C50.2648 60.2105 49.9455 60.2301 49.6196 60.2236C49.5414 60.2236 49.4566 60.217 49.3784 60.2105C49.3002 60.2105 49.222 60.191 49.1438 60.1779C48.9939 60.1519 48.844 60.1128 48.7267 60.028C48.668 59.9889 48.6224 59.9368 48.6028 59.8846C48.5833 59.8325 48.5768 59.7804 48.5768 59.7478C48.5768 59.7087 48.5833 59.6826 48.5833 59.663L48.5898 59.6565ZM47.195 60.0867V60.0476C47.2211 59.9433 47.2928 59.8716 47.3579 59.826C47.4883 59.7347 47.6187 59.7021 47.736 59.6761C47.9771 59.6239 48.1727 59.6239 48.3095 59.6174C48.4464 59.6174 48.5246 59.6239 48.5246 59.6239C48.5246 59.6239 48.4464 59.637 48.3095 59.663C48.1727 59.6891 47.9836 59.7347 47.7686 59.8064C47.6643 59.8455 47.547 59.8977 47.4622 59.9694C47.4231 60.0085 47.397 60.0476 47.3905 60.0802V60.0932V60.1062V60.1323C47.3905 60.1388 47.4101 60.1649 47.4231 60.1779C47.4948 60.2431 47.6447 60.2887 47.7816 60.3148C47.925 60.3474 48.0749 60.3669 48.2313 60.38C48.5376 60.4126 48.8505 60.4256 49.1373 60.4452C49.4306 60.4647 49.7043 60.4777 49.939 60.4973C50.1736 60.5103 50.3691 60.5364 50.506 60.5494C50.6429 60.5625 50.7211 60.5755 50.7211 60.5755C50.7211 60.5755 50.4082 60.6146 49.939 60.6472C49.4697 60.6733 48.844 60.6993 48.2052 60.6342C48.0488 60.6146 47.8859 60.5951 47.7295 60.556C47.573 60.5169 47.4101 60.4712 47.2667 60.3344C47.2341 60.2953 47.2015 60.2561 47.182 60.1975C47.182 60.1845 47.1754 60.1649 47.1689 60.1519V60.1258V60.1128C47.1689 60.0867 47.1689 60.0932 47.1689 60.0867H47.195ZM30.6791 53.5234C30.9073 53.582 31.0246 53.6407 31.0246 53.6407C31.0246 53.6407 30.8942 53.6081 30.6661 53.569C30.438 53.5299 30.1056 53.5038 29.7145 53.5168C29.3235 53.5299 28.8672 53.6081 28.4175 53.7906C27.9678 53.9666 27.5311 54.2599 27.1791 54.6249C26.9966 54.8139 26.8337 55.0094 26.7034 55.2245C26.573 55.4396 26.4687 55.6612 26.397 55.8893C26.2601 56.3455 26.2471 56.8083 26.3188 57.1928C26.3905 57.5774 26.4948 57.8902 26.5925 58.0988C26.6838 58.3074 26.7555 58.4247 26.7555 58.4247C26.7555 58.4247 26.6642 58.3269 26.5469 58.1249C26.4296 57.9228 26.2667 57.623 26.1754 57.2254C26.0842 56.8344 26.0385 56.339 26.1754 55.8306C26.3058 55.3288 26.6121 54.8399 26.9901 54.4554C27.1857 54.2533 27.3942 54.0839 27.6223 53.934C27.8505 53.7906 28.0916 53.6733 28.3328 53.5885C28.8216 53.4191 29.2974 53.3735 29.7015 53.38C30.1056 53.393 30.438 53.4647 30.6596 53.5234H30.6791ZM23.7052 57.4926C24.0246 57.6882 24.3765 57.8772 24.7415 58.0597C22.9492 58.0923 21.2154 58.1379 19.5665 58.1966L23.7052 57.4926ZM31.8393 57.2971C31.8914 57.2319 31.9501 57.1668 32.0022 57.1016C32.0544 57.0364 32.0935 56.9647 32.1391 56.906C32.1847 56.8409 32.2238 56.7757 32.2499 56.7105C32.2825 56.6453 32.3151 56.5802 32.3477 56.5215C32.3803 56.3912 32.4454 56.2738 32.4585 56.163C32.4715 56.0522 32.5041 55.961 32.4976 55.8763C32.4976 55.7133 32.4976 55.6155 32.4976 55.6155C32.4976 55.6155 32.5171 55.7068 32.5432 55.8697C32.5628 55.9479 32.5432 56.0522 32.5432 56.1761C32.5432 56.2999 32.5041 56.4237 32.478 56.5671C32.4259 56.704 32.3868 56.8604 32.2955 57.0038C32.2564 57.0755 32.2173 57.1537 32.1652 57.2254C32.113 57.2971 32.0609 57.3688 32.0088 57.4405C31.9566 57.5122 31.8849 57.5774 31.8263 57.6491C31.7611 57.7208 31.6959 57.7859 31.6242 57.8511C31.5525 57.9098 31.4808 57.9815 31.4026 58.0401L31.168 58.2096C31.005 58.3139 30.8421 58.4116 30.6726 58.5029C30.5032 58.5876 30.3337 58.6658 30.1642 58.7245C29.9948 58.7962 29.8253 58.8353 29.6689 58.8809C29.5125 58.9265 29.3561 58.9461 29.2127 58.9722C29.0693 58.9982 28.9389 59.0047 28.8216 59.0113C28.7043 59.0243 28.6065 59.0178 28.5218 59.0243C28.3588 59.0243 28.2611 59.0243 28.2611 59.0243C28.2611 59.0243 28.3523 59.0047 28.5153 58.9787C28.5935 58.9656 28.6978 58.9526 28.8086 58.9265C28.9194 58.9005 29.0432 58.8744 29.1801 58.8353C29.3104 58.7897 29.4603 58.7571 29.6102 58.7049C29.7602 58.6528 29.9166 58.5941 30.073 58.5224C30.2359 58.4573 30.3924 58.3725 30.5553 58.2943C30.7183 58.2096 30.8747 58.1118 31.0246 58.0141L31.2462 57.8576C31.3179 57.8055 31.3831 57.7403 31.4548 57.6817C31.5264 57.623 31.5916 57.5643 31.6503 57.4992C31.7089 57.434 31.7806 57.3818 31.8328 57.3101L31.8393 57.2971ZM22.0823 54.7748C22.0888 54.5271 22.141 54.2664 22.2322 54.0122C22.3235 53.758 22.4668 53.5103 22.6363 53.2822C22.8058 53.0541 23.0013 52.8586 23.2294 52.6695C23.6661 52.298 24.194 52.0438 24.7024 51.9005C25.2173 51.7571 25.7061 51.718 26.1298 51.718C26.9706 51.731 27.505 51.9135 27.505 51.9135C27.505 51.9135 27.3682 51.8874 27.127 51.8679C26.8858 51.8483 26.5404 51.8353 26.1363 51.8613C25.7257 51.8874 25.2499 51.9526 24.7741 52.1155C24.2918 52.272 23.8095 52.5262 23.4054 52.8716C23.2099 53.0411 23.0143 53.2366 22.8579 53.4451C22.695 53.6537 22.5711 53.8753 22.4799 54.1034C22.3495 54.4293 22.2974 54.7617 22.3039 55.0681L22.1149 55.1006C22.1084 54.9964 22.1019 54.8921 22.1019 54.7813L22.0823 54.7748ZM1.11485 59.5848C1.11485 59.5848 1.46029 59.5131 2.06644 59.3828C2.67258 59.2655 3.53292 59.0764 4.57575 58.8809C5.61859 58.6854 6.82436 58.4442 8.1279 58.2096C8.77967 58.0923 9.45099 57.975 10.1354 57.8511C10.8197 57.7338 11.5171 57.61 12.208 57.4926C13.5963 57.258 14.991 57.0234 16.2946 56.8213C17.5981 56.6128 18.8234 56.4368 19.8663 56.2738C20.9091 56.1109 21.789 56.0001 22.4017 55.9154C23.0143 55.8371 23.3663 55.7915 23.3663 55.7915C23.3663 55.7915 23.0208 55.8632 22.4147 55.9936C21.8086 56.1109 20.9482 56.2999 19.9054 56.4954C18.8626 56.691 17.6568 56.9321 16.3532 57.1668C15.0497 57.4079 13.6614 57.6491 12.2732 57.8902C11.5758 58.0075 10.8849 58.1249 10.194 58.2357C9.50965 58.3465 8.83181 58.4573 8.18004 58.5615C6.8765 58.7701 5.65117 58.9461 4.60834 59.109C3.56551 59.272 2.68562 59.3763 2.07296 59.4675C1.46029 59.5457 1.10834 59.5913 1.10834 59.5913L1.11485 59.5848ZM55.7527 60.7776C55.7071 60.8884 55.5898 61.0187 55.4203 61.1426C55.0749 61.3902 54.5209 61.6314 53.7974 61.8008C53.074 61.9638 52.1876 62.1072 51.1773 62.2506C50.1606 62.3874 49.02 62.5243 47.7686 62.6416C46.5172 62.7655 45.1615 62.8567 43.7276 62.9545C43.0106 62.9936 42.2741 63.0392 41.5181 63.0783C40.762 63.1109 39.9929 63.137 39.2108 63.1696C36.0758 63.2804 32.7322 63.3325 29.3886 63.3325C26.0451 63.3195 22.7015 63.2608 19.5665 63.1435C18.0022 63.0913 16.4836 63.0131 15.0497 62.9154C13.6158 62.8176 12.2601 62.7198 11.0087 62.596C9.75732 62.4722 8.61673 62.3418 7.59997 62.1984C6.58972 62.055 5.70331 61.9182 4.97985 61.7422C4.2629 61.5597 3.70238 61.3381 3.35694 61.11C3.29828 61.0709 3.25266 61.0318 3.20704 60.9926L3.59158 60.9275C3.95005 61.0122 4.45843 61.0904 5.09065 61.1882C5.80108 61.3055 6.67445 61.4293 7.67818 61.5336C8.6819 61.6379 9.8225 61.7357 11.0674 61.8139C12.3123 61.8921 13.6614 61.9768 15.0953 62.0355C16.5227 62.0941 18.0348 62.1463 19.5925 62.1984C22.7145 62.2962 26.0451 62.3353 29.3821 62.3223C32.7127 62.3223 36.0497 62.2766 39.1717 62.1724C40.7294 62.1137 42.2416 62.055 43.6689 61.9964C45.0963 61.9312 46.4455 61.8465 47.6903 61.7683C50.1801 61.6053 52.2462 61.3902 53.6606 61.136C54.371 61.0187 54.925 60.9535 55.29 60.8688C55.4725 60.8297 55.6028 60.7776 55.681 60.7254C55.7593 60.6733 55.7723 60.6081 55.7723 60.6146C55.7723 60.6146 55.7984 60.6733 55.7527 60.7841V60.7776Z" fill="#262626"/>
<path d="M38.5587 18.9014C37.5746 17.0699 36.2841 15.623 34.9805 14.5606C34.6872 14.3129 34.3874 14.0913 34.0941 13.8893L34.218 13.7133C33.2012 13.0029 32.1909 12.5205 31.3111 12.1686C31.0243 12.0578 30.7505 11.96 30.4963 11.8623C30.2356 11.7775 29.988 11.7254 29.7598 11.6602C29.5317 11.6016 29.3166 11.5429 29.1211 11.4907C28.9256 11.4386 28.7431 11.4256 28.5801 11.393C27.9349 11.2887 27.5894 11.2366 27.5829 11.2366C27.5829 11.2366 27.231 11.217 26.5727 11.1844C26.4097 11.1844 26.2273 11.1583 26.0252 11.1649C25.8232 11.1714 25.6015 11.1844 25.3669 11.1975C25.1258 11.2105 24.8716 11.2105 24.5978 11.2431C24.3306 11.2822 24.0373 11.3278 23.7375 11.3734C22.5317 11.582 21.0652 11.9535 19.5531 12.7617C18.041 13.5503 16.4507 14.7105 15.1081 16.3399C14.6127 16.9395 14.1565 17.6044 13.7524 18.3213L13.8827 18.393C13.6676 18.758 13.4721 19.1425 13.2896 19.5336L13.1658 19.4749C12.7486 20.3809 12.4097 21.352 12.1816 22.3753C12.136 22.5187 12.1229 22.6686 12.0969 22.8185C12.0773 22.9684 12.0512 23.1183 12.0252 23.2748C11.9991 23.4247 11.9796 23.5811 11.9535 23.731L11.9209 23.9591C11.9209 24.0243 11.9144 24.109 11.9079 24.1807C11.8883 24.7934 11.8166 25.4191 11.8818 26.0448C11.9079 27.3092 12.1881 28.5736 12.5727 29.8185C12.6835 30.1249 12.7943 30.4312 12.9116 30.744C13.0289 31.0504 13.1918 31.3437 13.3287 31.6435L13.5438 32.0932C13.6285 32.2366 13.7133 32.38 13.798 32.5234C13.974 32.8036 14.1369 33.1034 14.3259 33.3772C15.0885 34.4852 16.0205 35.4824 17.0634 36.3688C18.1257 37.2357 19.325 37.9331 20.5894 38.4806C21.8799 39.0085 23.1965 39.3148 24.6109 39.4908C25.9665 39.6081 27.3744 39.5886 28.73 39.3409C30.0857 39.0671 31.4023 38.637 32.6211 38.0113C33.8269 37.366 34.9479 36.5839 35.9256 35.6584C36.1733 35.4303 36.3883 35.1761 36.623 34.9349C36.7338 34.8111 36.8511 34.6938 36.9619 34.5699L37.2682 34.1724C37.4638 33.9051 37.6854 33.6575 37.8613 33.3772C38.0308 33.11 38.1937 32.8493 38.3567 32.582C38.3567 32.582 38.3697 32.556 38.3828 32.5429C38.5848 32.1714 38.7673 31.7999 38.9433 31.4284H38.9628C39.3409 30.6398 39.6537 29.8316 39.8492 28.9973C40.0383 28.4042 40.1034 27.7654 40.2142 27.1593C40.2273 27.0876 40.2403 27.0029 40.2468 26.9377L40.2599 26.7096C40.2664 26.5597 40.2794 26.4033 40.2859 26.2533C40.2925 26.1034 40.3055 25.947 40.312 25.7971C40.3185 25.6472 40.3381 25.4973 40.325 25.3474C40.3055 23.3334 39.8688 21.4368 39.1649 19.7747L39.015 19.8399C38.8781 19.5206 38.7282 19.2077 38.5718 18.9079L38.5587 18.9014ZM38.1416 31.3437L37.933 31.7543L37.8288 31.9629L37.7049 32.1584C37.7049 32.1584 37.6919 32.1845 37.6789 32.1975L31.6239 28.6844C31.5392 28.8474 31.4479 29.0103 31.3502 29.1668C31.0243 29.6686 30.6267 30.1249 30.1705 30.5355C29.7077 30.9331 29.1798 31.2655 28.6192 31.5327C28.0522 31.7869 27.4461 31.9498 26.8269 32.0411C26.501 32.0541 26.2338 32.0932 25.9014 32.0671C25.8753 32.0671 25.8492 32.0671 25.8232 32.0671L25.5233 38.7543C25.2431 38.7413 24.9628 38.7282 24.6826 38.7022L23.7049 38.5522C23.6397 38.5392 23.5745 38.5327 23.5029 38.5262L24.8911 31.9563C24.663 31.9042 24.4349 31.8455 24.2133 31.7738L22.3036 38.2394H22.2775L22.0429 38.1742L21.8148 38.0895L20.8958 37.7571C19.703 37.2422 18.569 36.5839 17.5587 35.7692C16.6136 34.9675 15.7598 34.0681 15.0559 33.0709L20.785 29.1211C20.7459 29.056 20.7068 28.9973 20.6676 28.9386C20.0876 27.9349 19.8203 26.8073 19.8203 25.7645C19.8269 24.6956 20.1006 23.718 20.5243 22.9032L13.8371 19.8008C13.8958 19.677 13.9544 19.5597 14.0131 19.4358C14.1239 19.1816 14.2542 18.9405 14.3976 18.7058L20.8045 22.4209C21.1825 21.8343 21.6258 21.3455 22.0755 20.9675C22.6425 20.4852 23.2291 20.1854 23.7179 19.9833C23.8418 19.9377 23.9591 19.8921 24.0699 19.8464C24.1807 19.8073 24.2915 19.7813 24.3893 19.7552C24.5913 19.6965 24.7608 19.6509 24.9042 19.6379C25.1844 19.5923 25.3343 19.5662 25.3343 19.5662C25.3343 19.5662 25.4842 19.5531 25.7645 19.5336C25.9014 19.514 26.0773 19.5206 26.2924 19.5336C26.3967 19.5336 26.5075 19.5336 26.6248 19.5466C26.7421 19.5597 26.866 19.5792 27.0029 19.5988C27.5243 19.6835 28.1695 19.8334 28.8343 20.1723C29.0494 20.2766 29.271 20.407 29.4861 20.5504L33.7813 14.352C34.068 14.5476 34.3483 14.7626 34.6286 15.0038C35.8734 16.0336 37.1183 17.4219 38.0373 19.1947C38.1872 19.4815 38.3241 19.7878 38.4545 20.0941L31.6891 23.0401C31.8846 23.4312 32.041 23.8548 32.1518 24.3046C32.1909 24.4284 32.204 24.5653 32.2301 24.6956C32.2496 24.8325 32.2887 24.9563 32.2952 25.0997C32.3148 25.3669 32.3474 25.6276 32.3343 25.9144C32.3343 26.4815 32.2366 27.0355 32.0801 27.596C32.0215 27.798 31.9498 27.9936 31.8716 28.1826L38.2524 31.1416C38.2133 31.2198 38.1742 31.298 38.1351 31.3697L38.1416 31.3437Z" fill="#262626"/>
</g>
<defs>
<clipPath id="clip0_0_2221">
<rect width="56.15" height="65.6919" fill="white"/>
</clipPath>
</defs>
</svg>
