<svg width="36" height="71" viewBox="0 0 36 71" fill="none" xmlns="http://www.w3.org/2000/svg">
<g clip-path="url(#clip0_0_2153)">
<path d="M22.8818 65.2727C27.2226 64.9291 30.4764 61.1213 30.1328 56.7805C29.7892 52.4397 25.9814 49.1859 21.6406 49.5295C17.2998 49.8731 14.046 53.681 14.3896 58.0217C14.7333 62.3625 18.5411 65.6163 22.8818 65.2727ZM21.6967 50.2308C25.6518 49.9222 29.116 52.8815 29.4245 56.8366C29.7331 60.7917 26.7738 64.2559 22.8187 64.5644C18.8636 64.873 15.3994 61.9137 15.0909 57.9586C14.7823 54.0035 17.7416 50.5393 21.6967 50.2308ZM15.6659 61.1143C15.3363 60.5182 15.126 59.9642 14.9997 59.4944C14.8665 59.0245 14.8174 58.6458 14.7823 58.3864C14.8244 58.6458 14.8805 59.0245 15.0208 59.4873C15.161 59.9502 15.3784 60.5042 15.708 61.0862C16.0446 61.6682 16.5074 62.2853 17.1105 62.8534C17.7136 63.4144 18.4709 63.9263 19.3475 64.2909C20.2241 64.6556 21.2199 64.866 22.2507 64.866C23.2815 64.866 24.3475 64.6486 25.3362 64.1998C26.325 63.751 27.2226 63.0708 27.9379 62.2363C28.6532 61.4018 29.1791 60.406 29.4666 59.3611C29.7541 58.3163 29.8032 57.2293 29.6419 56.2055C29.4806 55.1887 29.116 54.235 28.6181 53.4285C28.1202 52.6221 27.4961 51.9559 26.8439 51.444C26.1847 50.9391 25.5115 50.5744 24.8804 50.336C24.2493 50.0976 23.6742 49.9713 23.1904 49.9082C22.7065 49.8451 22.3278 49.8451 22.0684 49.8451C21.8089 49.8591 21.6687 49.8591 21.6687 49.8591C21.6687 49.8591 21.8089 49.8521 22.0684 49.8381C22.3278 49.8381 22.7135 49.8241 23.1974 49.8802C23.6813 49.9363 24.2633 50.0555 24.9014 50.2869C25.5396 50.5183 26.2338 50.8689 26.9 51.3808C27.5662 51.8928 28.2044 52.559 28.7163 53.3724C29.2282 54.1859 29.6139 55.1466 29.7752 56.1844C29.9435 57.2223 29.8944 58.3303 29.6069 59.3962C29.3193 60.4621 28.7794 61.4789 28.0571 62.3344C27.3278 63.183 26.4091 63.8772 25.3993 64.326C24.3895 64.7818 23.3026 64.9992 22.2577 64.9922C21.2058 64.9922 20.196 64.7678 19.3124 64.3821C18.4289 64.0034 17.6715 63.4775 17.0614 62.9025C16.4583 62.3204 15.9955 61.6963 15.6729 61.1002L15.6659 61.1143Z" fill="#262626"/>
<path d="M10.6169 58.0494C10.7291 58.8208 10.9746 59.5571 11.9353 59.8867C11.9493 59.9077 11.9703 59.9288 11.9914 59.9568C12.0194 60.2514 12.0755 60.6721 12.1667 61.1069C11.8161 61.0297 11.4374 60.9386 10.9535 60.5389C10.9535 60.5389 11.192 61.2962 11.5426 61.9835C11.9142 62.6637 12.3911 63.2808 13.4079 63.2597C13.436 63.2738 13.457 63.2878 13.4851 63.3088C13.6113 63.5753 13.8076 63.954 14.039 64.3327C13.6884 64.3817 13.2957 64.4238 12.7067 64.2134C12.7067 64.2134 13.1905 64.8446 13.7585 65.3705C14.3406 65.8894 14.9998 66.2962 15.9535 65.9315C15.9815 65.9315 16.0096 65.9455 16.0376 65.9455C16.248 66.1559 16.5636 66.4434 16.9142 66.7169C16.5986 66.8782 16.248 67.0535 15.6239 67.0605C15.6239 67.0605 16.2901 67.4883 17.0054 67.7898C17.7276 68.0774 18.492 68.2386 19.2564 67.5725C19.2844 67.5725 19.3125 67.5654 19.3405 67.5584C19.614 67.6846 20.0067 67.8459 20.4275 67.9862C20.189 68.2457 19.9156 68.5332 19.3335 68.7506C19.3335 68.7506 20.1049 68.9259 20.8833 68.9609C21.6617 68.982 22.4331 68.8698 22.9239 67.9862C22.952 67.9722 22.973 67.9581 23.0011 67.9441C23.2956 67.9652 23.7234 67.9862 24.1652 67.9722C24.0319 68.3018 23.8706 68.6594 23.3938 69.0661C23.3938 69.0661 24.1792 68.9679 24.9225 68.7365C25.6588 68.4911 26.3461 68.1264 26.5003 67.1236C26.5214 67.1026 26.5424 67.0816 26.5564 67.0535C26.844 66.9694 27.2507 66.8431 27.6644 66.6819C27.6504 67.0395 27.6223 67.4252 27.3138 67.9722C27.3138 67.9722 28.0221 67.6075 28.6392 67.1377C29.2493 66.6538 29.7682 66.0718 29.5718 65.083C29.5859 65.0549 29.5929 65.0269 29.6069 64.9988C29.8523 64.8235 30.1889 64.5641 30.5185 64.2695C30.6237 64.6061 30.7359 64.9848 30.6307 65.6019C30.6307 65.6019 31.1707 65.0199 31.5914 64.3677C31.9982 63.7015 32.2857 62.9792 31.7668 62.1097C31.7668 62.0816 31.7668 62.0536 31.7668 62.0255C31.9351 61.7801 32.1595 61.4224 32.3769 61.0297C32.5942 61.3102 32.8257 61.6258 32.9379 62.2429C32.9379 62.2429 33.2464 61.5136 33.4147 60.7563C33.569 59.9919 33.597 59.2135 32.8046 58.5754C32.7976 58.5473 32.7836 58.5193 32.7766 58.4912C32.8537 58.2037 32.9449 57.79 33.008 57.3482C33.3095 57.5375 33.6321 57.7549 33.9547 58.2949C33.9547 58.2949 33.9897 57.5024 33.8986 56.7311C33.7864 55.9597 33.5409 55.2234 32.5802 54.8938C32.5592 54.8727 32.5452 54.8517 32.5241 54.8236C32.4961 54.5291 32.44 54.1084 32.3488 53.6736C32.6994 53.7507 33.0781 53.8419 33.562 54.2416C33.562 54.2416 33.3235 53.4843 32.9729 52.797C32.6013 52.1168 32.1244 51.4997 31.1076 51.5207C31.0795 51.5067 31.0585 51.4927 31.0304 51.4717C30.9042 51.2052 30.7079 50.8265 30.4764 50.4478C30.8271 50.3987 31.2198 50.3567 31.8088 50.567C31.8088 50.567 31.325 49.9359 30.757 49.41C30.1749 48.891 29.5157 48.4843 28.562 48.849C28.534 48.849 28.5059 48.8349 28.4779 48.8349C28.2675 48.6246 27.9519 48.337 27.6013 48.0636C27.9169 47.9023 28.2675 47.727 28.8916 47.7199C28.8916 47.7199 28.2254 47.2922 27.5101 46.9906C26.7879 46.7031 26.0235 46.5418 25.2591 47.208C25.2311 47.208 25.203 47.215 25.175 47.222C24.9015 47.0958 24.5088 46.9345 24.088 46.7943C24.3264 46.5348 24.5999 46.2473 25.182 46.0299C25.182 46.0299 24.4106 45.8546 23.6322 45.8195C22.8538 45.7985 22.0824 45.9107 21.5916 46.7943C21.5635 46.8083 21.5425 46.8223 21.5144 46.8364C21.2199 46.8153 20.7921 46.7943 20.3503 46.8083C20.4836 46.4787 20.6449 46.1211 21.1217 45.7144C21.1217 45.7144 20.3363 45.8125 19.593 46.0439C18.8567 46.2894 18.1694 46.654 18.0152 47.6568C17.9941 47.6779 17.9731 47.6989 17.9591 47.727C17.6715 47.8111 17.2648 47.9373 16.8511 48.0986C16.8651 47.741 16.8932 47.3553 17.2017 46.8083C17.2017 46.8083 16.4934 47.173 15.8763 47.6428C15.2662 48.1267 14.7473 48.7087 14.9437 49.6975C14.9296 49.7255 14.9226 49.7536 14.9086 49.7816C14.6632 49.9569 14.3266 50.2164 13.997 50.5109C13.8918 50.1743 13.7796 49.7957 13.8848 49.1785C13.8848 49.1785 13.3448 49.7606 12.9241 50.4128C12.5173 51.0789 12.2298 51.8012 12.7487 52.6708C12.7487 52.6988 12.7487 52.7269 12.7487 52.7549C12.5804 53.0004 12.356 53.358 12.1386 53.7507C11.9213 53.4702 11.6898 53.1547 11.5776 52.5376C11.5776 52.5376 11.2691 53.2669 11.1008 54.0242C10.9465 54.7886 10.9185 55.567 11.7109 56.2051C11.7179 56.2332 11.7319 56.2612 11.7389 56.2893C11.6618 56.5768 11.5706 56.9905 11.5075 57.4323C11.206 57.243 10.8834 57.0256 10.5608 56.4856C10.5608 56.4856 10.5258 57.278 10.6169 58.0494ZM12.7698 59.2486C12.7558 59.1644 12.7347 59.0732 12.7067 58.9891C12.6786 58.8979 12.6436 58.8068 12.6015 58.7156C12.5594 58.6244 12.5173 58.5263 12.4682 58.4351C12.4262 58.3369 12.3841 58.2388 12.349 58.1476C12.314 58.0494 12.2789 57.9583 12.2508 57.8671C12.2368 57.818 12.2228 57.7759 12.2088 57.7339C12.1947 57.6918 12.1877 57.6427 12.1737 57.6006C12.1527 57.5165 12.1316 57.4323 12.1176 57.3622C12.0896 57.2149 12.0685 57.0887 12.0615 57.0045C12.0545 56.9204 12.0475 56.8713 12.0475 56.8713C12.0475 56.8713 12.0545 56.9204 12.0755 57.0045C12.0966 57.0887 12.1246 57.2149 12.1667 57.3622C12.1737 57.3973 12.1877 57.4393 12.2018 57.4744C12.2158 57.5165 12.2228 57.5515 12.2368 57.5936C12.2509 57.6357 12.2649 57.6778 12.2789 57.7198C12.2929 57.7619 12.307 57.811 12.321 57.8531C12.349 57.9442 12.3841 58.0354 12.4192 58.1266C12.4542 58.2177 12.4963 58.3159 12.5384 58.4071C12.5804 58.4982 12.6295 58.5964 12.6716 58.6876C12.7137 58.7857 12.7487 58.8769 12.7698 58.9751C12.7978 59.0662 12.8119 59.1644 12.8259 59.2486C12.8399 59.3327 12.8399 59.4169 12.8399 59.494C12.8399 59.5291 12.8399 59.5641 12.8399 59.5992C12.8399 59.6343 12.8329 59.6623 12.8259 59.6904C12.8119 59.7465 12.8048 59.7955 12.7908 59.8376C12.7768 59.8797 12.7628 59.9077 12.7558 59.9218C12.7487 59.9428 12.7417 59.9498 12.7417 59.9498C12.7417 59.9498 12.7628 59.9077 12.7768 59.8306C12.7838 59.7885 12.7908 59.7394 12.7978 59.6833C12.7978 59.6553 12.7978 59.6202 12.7978 59.5922C12.7978 59.5571 12.7978 59.5221 12.7978 59.487C12.7978 59.4169 12.7838 59.3327 12.7698 59.2486ZM12.7417 55.6301C12.7417 55.5389 12.7417 55.4337 12.7417 55.3356C12.7347 55.2374 12.7277 55.1322 12.7137 55.027C12.7137 54.9218 12.6997 54.8166 12.6997 54.7114C12.6997 54.6063 12.6997 54.5081 12.6997 54.4099C12.6997 54.3608 12.6997 54.3117 12.7067 54.2697C12.7067 54.2206 12.7137 54.1785 12.7207 54.1364C12.7277 54.0523 12.7417 53.9681 12.7487 53.891C12.7698 53.7437 12.7978 53.6175 12.8189 53.5333C12.8399 53.4492 12.8539 53.4001 12.8539 53.4001C12.8539 53.4001 12.8469 53.4492 12.8329 53.5333C12.8189 53.6175 12.8048 53.7437 12.7908 53.898C12.7908 53.9331 12.7908 53.9751 12.7838 54.0172C12.7838 54.0593 12.7838 54.1014 12.7768 54.1434C12.7768 54.1855 12.7768 54.2346 12.7768 54.2767C12.7768 54.3258 12.7768 54.3678 12.7768 54.4169C12.7768 54.5151 12.7768 54.6133 12.7768 54.7114C12.7768 54.8096 12.7838 54.9148 12.7908 55.013C12.7978 55.1182 12.8119 55.2234 12.8189 55.3215C12.8189 55.4267 12.8189 55.5249 12.8189 55.6231C12.8119 55.7213 12.7978 55.8124 12.7768 55.8966C12.7558 55.9807 12.7347 56.0579 12.7067 56.128C12.6926 56.163 12.6786 56.1911 12.6646 56.2262C12.6506 56.2542 12.6365 56.2823 12.6225 56.3103C12.5945 56.3594 12.5664 56.4015 12.5384 56.4365C12.5173 56.4716 12.4893 56.4926 12.4753 56.5067C12.4612 56.5207 12.4542 56.5277 12.4542 56.5277C12.4542 56.5277 12.4823 56.4926 12.5314 56.4225C12.5524 56.3874 12.5804 56.3454 12.6015 56.2893C12.6155 56.2612 12.6225 56.2332 12.6365 56.2051C12.6506 56.1771 12.6576 56.142 12.6716 56.1069C12.6926 56.0368 12.7137 55.9597 12.7277 55.8755C12.7417 55.7914 12.7558 55.7002 12.7558 55.6091L12.7417 55.6301ZM14.1022 51.9134C14.1302 51.8153 14.1653 51.7101 14.2003 51.6119C14.2354 51.5137 14.2705 51.4226 14.3055 51.3314C14.3266 51.2893 14.3406 51.2402 14.3616 51.1982C14.3827 51.1561 14.3967 51.114 14.4177 51.0789C14.4528 51.0018 14.4949 50.9247 14.5299 50.8616C14.6001 50.7283 14.6702 50.6231 14.7123 50.553C14.7613 50.4829 14.7894 50.4408 14.7894 50.4408C14.7894 50.4408 14.7613 50.4829 14.7263 50.56C14.6842 50.6372 14.6281 50.7494 14.565 50.8896C14.551 50.9247 14.5299 50.9597 14.5159 50.9948C14.5019 51.0299 14.4808 51.0719 14.4668 51.114C14.4528 51.1561 14.4318 51.1982 14.4177 51.2402C14.4037 51.2823 14.3827 51.3244 14.3686 51.3735C14.3336 51.4646 14.2985 51.5558 14.2705 51.647C14.2354 51.7451 14.2073 51.8363 14.1793 51.9345C14.1512 52.0327 14.1232 52.1378 14.0951 52.236C14.0671 52.3342 14.025 52.4324 13.99 52.5235C13.9479 52.6147 13.9058 52.6918 13.8567 52.769C13.8076 52.8461 13.7585 52.9092 13.7095 52.9653C13.6814 52.9934 13.6604 53.0214 13.6393 53.0425C13.6113 53.0635 13.5902 53.0845 13.5692 53.1056C13.5271 53.1406 13.4851 53.1687 13.45 53.1897C13.4149 53.2108 13.3869 53.2248 13.3658 53.2318C13.3448 53.2388 13.3378 53.2458 13.3378 53.2458C13.3378 53.2458 13.3799 53.2248 13.443 53.1757C13.478 53.1547 13.5131 53.1196 13.5552 53.0775C13.5762 53.0565 13.5973 53.0354 13.6183 53.0074C13.6393 52.9793 13.6604 52.9583 13.6814 52.9303C13.7235 52.8742 13.7726 52.804 13.8146 52.7339C13.8567 52.6638 13.8988 52.5796 13.9339 52.4955C13.9689 52.4113 14.004 52.3132 14.032 52.222C14.0601 52.1238 14.0881 52.0256 14.1092 51.9205L14.1022 51.9134ZM16.4724 49.4591C16.5355 49.3749 16.5986 49.2908 16.6617 49.2136C16.7249 49.1365 16.795 49.0593 16.8581 48.9892C16.8932 48.9541 16.9212 48.9191 16.9563 48.884C16.9913 48.849 17.0194 48.8209 17.0544 48.7858C17.1176 48.7227 17.1807 48.6666 17.2368 48.6175C17.349 48.5194 17.4471 48.4422 17.5173 48.3861C17.5383 48.3721 17.5593 48.3581 17.5734 48.3441C17.5734 48.3441 17.5734 48.3581 17.5664 48.3651C17.5523 48.3791 17.5383 48.3861 17.5243 48.4002C17.4612 48.4563 17.37 48.5474 17.2578 48.6526C17.2298 48.6807 17.2017 48.7087 17.1737 48.7368C17.1456 48.7648 17.1176 48.7999 17.0895 48.8279C17.0615 48.856 17.0264 48.891 16.9983 48.9261C16.9703 48.9612 16.9352 48.9962 16.9072 49.0313C16.8441 49.1014 16.781 49.1785 16.7178 49.2557C16.6547 49.3328 16.5916 49.417 16.5355 49.4941C16.4794 49.5783 16.4163 49.6624 16.3532 49.7466C16.2901 49.8307 16.227 49.9079 16.1568 49.978C16.0867 50.0481 16.0166 50.1112 15.9465 50.1603C15.8763 50.2164 15.8062 50.2585 15.7431 50.2935C15.708 50.3146 15.68 50.3286 15.6449 50.3426C15.6169 50.3567 15.5818 50.3637 15.5608 50.3777C15.5047 50.3987 15.4556 50.4128 15.4205 50.4198C15.3784 50.4268 15.3504 50.4338 15.3294 50.4338C15.3083 50.4338 15.2943 50.4338 15.2943 50.4338C15.2943 50.4338 15.3364 50.4338 15.4205 50.4057C15.4626 50.3917 15.5047 50.3777 15.5608 50.3496C15.5888 50.3356 15.6169 50.3216 15.6449 50.3076C15.673 50.2935 15.701 50.2725 15.7361 50.2585C15.7992 50.2164 15.8623 50.1743 15.9254 50.1182C15.9885 50.0621 16.0587 49.999 16.1218 49.9289C16.1849 49.8588 16.248 49.7816 16.3111 49.7045C16.3672 49.6203 16.4303 49.5362 16.4864 49.452L16.4724 49.4591ZM18.6884 49.1715C18.6884 49.1715 18.7094 49.2206 18.7234 49.2487C18.464 49.1926 18.0011 49.1154 17.5173 49.1856C17.5734 49.0243 17.6295 48.849 17.7066 48.6736C17.8609 48.8981 18.1484 49.1645 18.6954 49.1715H18.6884ZM19.8104 47.7971C19.9015 47.741 19.9857 47.6989 20.0698 47.6498C20.1119 47.6288 20.154 47.6077 20.1961 47.5867C20.2381 47.5657 20.2802 47.5446 20.3153 47.5306C20.3924 47.4955 20.4696 47.4605 20.5397 47.4324C20.6799 47.3763 20.7991 47.3413 20.8833 47.3132C20.9674 47.2852 21.0165 47.2781 21.0165 47.2781C21.0165 47.2781 20.9674 47.2992 20.8903 47.3272C20.8062 47.3623 20.694 47.4114 20.5537 47.4745C20.5186 47.4885 20.4836 47.5096 20.4485 47.5236C20.4135 47.5376 20.3714 47.5587 20.3363 47.5797C20.2942 47.6007 20.2592 47.6218 20.2171 47.6428C20.175 47.6638 20.1329 47.6849 20.0909 47.7059C20.0067 47.748 19.9226 47.8041 19.8384 47.8532C19.7543 47.9023 19.6701 47.9584 19.586 48.0145C19.5018 48.0776 19.4177 48.1337 19.3265 48.1898C19.2424 48.2459 19.1512 48.295 19.06 48.337C18.9689 48.3791 18.8847 48.4142 18.8006 48.4422C18.7164 48.4703 18.6393 48.4843 18.5621 48.4983C18.5271 48.4983 18.492 48.5053 18.457 48.5124C18.4219 48.5124 18.3938 48.5124 18.3658 48.5124C18.3097 48.5124 18.2606 48.5124 18.2185 48.4983C18.1764 48.4983 18.1484 48.4843 18.1274 48.4773C18.1063 48.4773 18.0993 48.4703 18.0993 48.4703C18.0993 48.4703 18.1414 48.4773 18.2255 48.4843C18.2676 48.4843 18.3167 48.4843 18.3728 48.4843C18.4009 48.4843 18.4359 48.4843 18.464 48.4703C18.499 48.4703 18.5341 48.4563 18.5692 48.4492C18.6393 48.4352 18.7164 48.4142 18.8006 48.3861C18.8777 48.3581 18.9619 48.323 19.046 48.2809C19.1302 48.2389 19.2143 48.1898 19.2985 48.1337C19.3826 48.0776 19.4668 48.0145 19.5509 47.9584C19.6421 47.9023 19.7262 47.8392 19.8174 47.7901L19.8104 47.7971ZM23.2465 47.5446C23.3447 47.5236 23.4429 47.5096 23.541 47.4955C23.5901 47.4955 23.6392 47.4815 23.6813 47.4815C23.7304 47.4815 23.7725 47.4745 23.8145 47.4675C23.8987 47.4605 23.9828 47.4535 24.06 47.4535C24.2143 47.4535 24.3335 47.4535 24.4246 47.4535C24.5088 47.4535 24.5579 47.4675 24.5579 47.4675C24.5579 47.4675 24.5088 47.4675 24.4176 47.4675C24.3265 47.4675 24.2002 47.4815 24.053 47.4955C24.0179 47.4955 23.9758 47.5026 23.9337 47.5096C23.8917 47.5096 23.8496 47.5166 23.8075 47.5236C23.7654 47.5236 23.7234 47.5306 23.6743 47.5376C23.6322 47.5376 23.5831 47.5516 23.534 47.5587C23.4429 47.5727 23.3447 47.5937 23.2465 47.6077C23.1483 47.6288 23.0502 47.6498 22.952 47.6779C22.8538 47.7059 22.7486 47.734 22.6505 47.755C22.5523 47.776 22.4471 47.7971 22.3489 47.8041C22.2507 47.8111 22.1596 47.8181 22.0684 47.8041C21.9772 47.8041 21.9001 47.7901 21.823 47.776C21.7879 47.769 21.7528 47.762 21.7178 47.748C21.6897 47.741 21.6547 47.727 21.6266 47.7199C21.5705 47.6989 21.5284 47.6779 21.4934 47.6568C21.4583 47.6358 21.4303 47.6218 21.4162 47.6077C21.4022 47.5937 21.3882 47.5867 21.3882 47.5867C21.3882 47.5867 21.4233 47.6148 21.5004 47.6428C21.5355 47.6568 21.5845 47.6779 21.6406 47.6919C21.6687 47.6989 21.6967 47.7059 21.7318 47.7129C21.7669 47.7129 21.7949 47.727 21.837 47.727C21.9071 47.734 21.9913 47.741 22.0754 47.741C22.1596 47.741 22.2507 47.741 22.3419 47.727C22.4331 47.7199 22.5312 47.6989 22.6294 47.6709C22.7276 47.6428 22.8258 47.6218 22.9239 47.5867C23.0291 47.5587 23.1273 47.5376 23.2325 47.5166L23.2465 47.5446ZM24.8243 48.8139C24.8243 48.8139 24.8033 48.87 24.7963 48.8981C24.635 48.6877 24.3264 48.33 23.9127 48.0706C24.06 47.9794 24.2142 47.8882 24.3896 47.7971C24.3615 48.0636 24.4176 48.4563 24.8243 48.8139ZM26.5635 48.4773C26.6616 48.4913 26.7598 48.5124 26.858 48.5334C26.9071 48.5404 26.9491 48.5544 26.9982 48.5685C27.0403 48.5825 27.0894 48.5895 27.1315 48.6035C27.2156 48.6246 27.2928 48.6526 27.3629 48.6736C27.5101 48.7227 27.6223 48.7648 27.6995 48.7999C27.7766 48.8349 27.8187 48.856 27.8187 48.856C27.8187 48.856 27.7696 48.8419 27.6855 48.8139C27.6013 48.7858 27.4821 48.7508 27.3348 48.7157C27.2998 48.7087 27.2577 48.6947 27.2226 48.6877C27.1806 48.6807 27.1455 48.6666 27.0964 48.6596C27.0543 48.6526 27.0123 48.6386 26.9632 48.6316C26.9211 48.6246 26.872 48.6105 26.8229 48.6035C26.7318 48.5825 26.6336 48.5685 26.5354 48.5544C26.4372 48.5404 26.332 48.5264 26.2339 48.5194C26.1287 48.5124 26.0235 48.4983 25.9253 48.4913C25.8201 48.4773 25.7219 48.4563 25.6238 48.4352C25.5256 48.4142 25.4414 48.3791 25.3573 48.3441C25.2731 48.309 25.203 48.2739 25.1399 48.2319C25.1048 48.2108 25.0768 48.1898 25.0487 48.1758C25.0207 48.1547 24.9997 48.1337 24.9786 48.1197C24.9365 48.0846 24.9015 48.0495 24.8734 48.0145C24.8454 47.9864 24.8314 47.9584 24.8173 47.9443C24.8033 47.9233 24.8033 47.9163 24.8033 47.9163C24.8033 47.9163 24.8314 47.9514 24.8875 48.0075C24.9155 48.0355 24.9576 48.0636 24.9997 48.0986C25.0207 48.1126 25.0487 48.1337 25.0768 48.1477C25.1048 48.1617 25.1329 48.1828 25.168 48.1968C25.2311 48.2319 25.3082 48.2669 25.3853 48.295C25.4625 48.323 25.5536 48.3511 25.6448 48.3721C25.736 48.3931 25.8341 48.4072 25.9323 48.4212C26.0305 48.4282 26.1357 48.4422 26.2409 48.4492C26.3461 48.4633 26.4513 48.4773 26.5494 48.4913L26.5635 48.4773ZM29.3615 50.4899C29.4526 50.539 29.5368 50.5951 29.6209 50.6442C29.663 50.6722 29.6981 50.6933 29.7401 50.7213C29.7752 50.7494 29.8173 50.7704 29.8523 50.7984C29.9225 50.8475 29.9926 50.8966 30.0487 50.9457C30.1679 51.0369 30.2591 51.121 30.3222 51.1841C30.3853 51.2402 30.4204 51.2823 30.4204 51.2823C30.4204 51.2823 30.3783 51.2473 30.3152 51.1982C30.245 51.1421 30.1469 51.0719 30.0206 50.9808C29.9926 50.9597 29.9575 50.9387 29.9225 50.9106C29.8874 50.8896 29.8523 50.8616 29.8173 50.8405C29.7822 50.8195 29.7401 50.7914 29.7051 50.7704C29.663 50.7494 29.6279 50.7213 29.5859 50.6933C29.5017 50.6442 29.4176 50.5951 29.3334 50.546C29.2422 50.4969 29.1581 50.4548 29.0669 50.4057C28.9688 50.3637 28.8776 50.3146 28.7864 50.2725C28.6953 50.2234 28.6041 50.1743 28.527 50.1182C28.4428 50.0621 28.3727 50.006 28.3096 49.9429C28.2465 49.8868 28.1904 49.8237 28.1413 49.7606C28.1202 49.7325 28.0992 49.7045 28.0782 49.6764C28.0641 49.6484 28.0431 49.6203 28.0291 49.5993C28.001 49.5502 27.98 49.5011 27.966 49.4661C27.9519 49.431 27.9449 49.3959 27.9379 49.3749C27.9379 49.3539 27.9379 49.3469 27.9379 49.3469C27.9379 49.3469 27.9519 49.3889 27.987 49.4591C28.008 49.4941 28.0291 49.5362 28.0641 49.5853C28.0782 49.6063 28.0992 49.6344 28.1202 49.6624C28.1413 49.6905 28.1623 49.7115 28.1904 49.7396C28.2395 49.7957 28.2955 49.8518 28.3587 49.9079C28.4218 49.964 28.4989 50.0201 28.5761 50.0691C28.6532 50.1182 28.7444 50.1673 28.8285 50.2164C28.9197 50.2585 29.0108 50.3006 29.109 50.3426C29.2002 50.3917 29.2983 50.4408 29.3895 50.4899H29.3615ZM31.2969 53.337C31.367 53.4141 31.4231 53.4913 31.4863 53.5684C31.5143 53.6035 31.5424 53.6455 31.5704 53.6806C31.5985 53.7157 31.6265 53.7577 31.6475 53.7928C31.6966 53.8629 31.7387 53.9331 31.7808 53.9962C31.8579 54.1224 31.921 54.2346 31.9561 54.3117C31.9982 54.3889 32.0122 54.4309 32.0122 54.4309C32.0122 54.4309 31.9841 54.3889 31.9421 54.3117C31.893 54.2346 31.8229 54.1294 31.7387 54.0102C31.7177 53.9821 31.6966 53.9471 31.6686 53.912C31.6475 53.877 31.6195 53.8419 31.5914 53.8068C31.5634 53.7718 31.5353 53.7367 31.5073 53.7016C31.4792 53.6666 31.4512 53.6315 31.4231 53.5894C31.367 53.5123 31.2969 53.4422 31.2338 53.365C31.1707 53.2879 31.1006 53.2178 31.0304 53.1406C30.9533 53.0705 30.8832 52.9934 30.8131 52.9162C30.7429 52.8391 30.6798 52.762 30.6237 52.6778C30.5676 52.6007 30.5185 52.5165 30.4764 52.4394C30.4344 52.3622 30.4063 52.2851 30.3783 52.215C30.3643 52.1799 30.3572 52.1449 30.3502 52.1168C30.3502 52.0817 30.3362 52.0537 30.3292 52.0256C30.3222 51.9695 30.3152 51.9205 30.3152 51.8784C30.3152 51.8363 30.3152 51.8083 30.3152 51.7872C30.3152 51.7662 30.3152 51.7522 30.3152 51.7522C30.3152 51.7522 30.3152 51.7942 30.3222 51.8784C30.3222 51.9205 30.3362 51.9695 30.3502 52.0256C30.3572 52.0537 30.3643 52.0817 30.3783 52.1168C30.3923 52.1449 30.3993 52.1799 30.4133 52.215C30.4414 52.2851 30.4765 52.3552 30.5185 52.4254C30.5606 52.5025 30.6097 52.5726 30.6658 52.6498C30.7219 52.7269 30.785 52.797 30.8551 52.8742C30.9253 52.9443 31.0024 53.0214 31.0725 53.0915C31.1426 53.1687 31.2198 53.2458 31.2829 53.323L31.2969 53.337ZM31.7317 55.574C31.7457 55.6581 31.7668 55.7493 31.7948 55.8335C31.8229 55.9246 31.8579 56.0158 31.9 56.1069C31.9421 56.1981 31.9841 56.2963 32.0332 56.3874C32.0753 56.4856 32.1174 56.5838 32.1524 56.675C32.1875 56.7731 32.2226 56.8643 32.2506 56.9555C32.2647 57.0045 32.2787 57.0466 32.2927 57.0887C32.3067 57.1308 32.3137 57.1799 32.3278 57.2219C32.3488 57.3061 32.3698 57.3902 32.3839 57.4604C32.4119 57.6076 32.4329 57.7339 32.44 57.818C32.447 57.9022 32.454 57.9512 32.454 57.9512C32.454 57.9512 32.447 57.9022 32.4259 57.818C32.4049 57.7339 32.3769 57.6076 32.3348 57.4604C32.3278 57.4253 32.3137 57.3832 32.2997 57.3482C32.2857 57.3061 32.2787 57.271 32.2646 57.2289C32.2506 57.1869 32.2366 57.1448 32.2226 57.1027C32.2085 57.0606 32.1945 57.0116 32.1805 56.9695C32.1524 56.8783 32.1174 56.7872 32.0823 56.696C32.0473 56.6048 32.0052 56.5067 31.9631 56.4155C31.921 56.3243 31.8719 56.2262 31.8299 56.135C31.7878 56.0368 31.7527 55.9457 31.7317 55.8475C31.7036 55.7563 31.6896 55.6581 31.6756 55.574C31.6616 55.4898 31.6616 55.4057 31.6616 55.3286C31.6616 55.2935 31.6616 55.2584 31.6616 55.2234C31.6616 55.1883 31.6686 55.1603 31.6756 55.1322C31.6896 55.0761 31.6966 55.027 31.7107 54.9849C31.7247 54.9429 31.7387 54.9148 31.7457 54.9008C31.7527 54.8797 31.7597 54.8727 31.7597 54.8727C31.7597 54.8727 31.7387 54.9148 31.7247 54.9919C31.7177 55.034 31.7107 55.0831 31.7036 55.1392C31.7036 55.1673 31.7036 55.2023 31.7036 55.2304C31.7036 55.2654 31.7036 55.3005 31.7036 55.3356C31.7036 55.4057 31.7177 55.4898 31.7317 55.574ZM31.7597 59.1925C31.7597 59.2836 31.7597 59.3888 31.7597 59.487C31.7668 59.5852 31.7738 59.6903 31.7878 59.7955C31.7878 59.9007 31.8018 60.0059 31.8018 60.1111C31.8018 60.2163 31.8018 60.3145 31.8018 60.4126C31.8018 60.4617 31.8018 60.5108 31.7948 60.5529C31.7948 60.602 31.7878 60.6441 31.7808 60.6861C31.7738 60.7703 31.7597 60.8544 31.7527 60.9316C31.7317 61.0788 31.7036 61.2051 31.6826 61.2892C31.6616 61.3734 31.6475 61.4224 31.6475 61.4224C31.6475 61.4224 31.6546 61.3734 31.6686 61.2892C31.6826 61.2051 31.6966 61.0788 31.7107 60.9246C31.7107 60.8895 31.7107 60.8474 31.7177 60.8053C31.7177 60.7633 31.7177 60.7212 31.7247 60.6791C31.7247 60.637 31.7247 60.588 31.7247 60.5459C31.7247 60.4968 31.7247 60.4547 31.7247 60.4056C31.7247 60.3075 31.7247 60.2093 31.7247 60.1111C31.7247 60.0129 31.7177 59.9077 31.7107 59.8096C31.7036 59.7044 31.6896 59.5992 31.6826 59.501C31.6826 59.3958 31.6826 59.2976 31.6826 59.1995C31.6896 59.1013 31.7036 59.0101 31.7247 58.926C31.7457 58.8418 31.7668 58.7647 31.7948 58.6946C31.8088 58.6595 31.8229 58.6315 31.8369 58.5964C31.8509 58.5683 31.8649 58.5403 31.879 58.5122C31.907 58.4632 31.9351 58.4211 31.9631 58.393C31.9841 58.358 32.0122 58.3369 32.0262 58.3229C32.0402 58.3089 32.0473 58.3019 32.0473 58.3019C32.0473 58.3019 32.0192 58.3369 31.9701 58.4071C31.9491 58.4421 31.921 58.4842 31.9 58.5403C31.886 58.5683 31.879 58.5964 31.8649 58.6244C31.8509 58.6525 31.8439 58.6876 31.8299 58.7226C31.8088 58.7927 31.7878 58.8699 31.7738 58.954C31.7597 59.0382 31.7457 59.1293 31.7457 59.2205L31.7597 59.1925ZM30.3993 62.9091C30.3713 63.0073 30.3362 63.1125 30.3011 63.2106C30.2661 63.3088 30.231 63.4 30.1959 63.4912C30.1749 63.5332 30.1609 63.5823 30.1398 63.6244C30.1188 63.6665 30.1048 63.7085 30.0837 63.7436C30.0487 63.8207 30.0066 63.8979 29.9715 63.961C29.9014 64.0942 29.8313 64.1994 29.7892 64.2695C29.7401 64.3397 29.7121 64.3817 29.7121 64.3817C29.7121 64.3817 29.7401 64.3397 29.7752 64.2625C29.8173 64.1854 29.8734 64.0732 29.9365 63.9329C29.9505 63.8979 29.9715 63.8628 29.9856 63.8277C29.9996 63.7927 30.0206 63.7506 30.0347 63.7085C30.0557 63.6665 30.0697 63.6244 30.0837 63.5823C30.0978 63.5402 30.1188 63.4982 30.1328 63.4491C30.1679 63.3579 30.203 63.2667 30.231 63.1756C30.2661 63.0774 30.2941 62.9862 30.3222 62.8881C30.3502 62.7899 30.3783 62.6847 30.4063 62.5865C30.4344 62.4884 30.4764 62.3902 30.5115 62.299C30.5536 62.2079 30.5957 62.1307 30.6448 62.0536C30.6938 61.9764 30.7429 61.9133 30.792 61.8572C30.8201 61.8292 30.8411 61.8011 30.8621 61.7801C30.8902 61.7591 30.9112 61.738 30.9323 61.717C30.9743 61.6819 31.0164 61.6539 31.0515 61.6328C31.0865 61.6118 31.1146 61.5978 31.1356 61.5908C31.1567 61.5837 31.1637 61.5767 31.1637 61.5767C31.1637 61.5767 31.1216 61.5978 31.0585 61.6469C31.0234 61.6679 30.9884 61.703 30.9463 61.745C30.9253 61.7661 30.9042 61.7871 30.8832 61.8152C30.8621 61.8432 30.8411 61.8642 30.8201 61.8923C30.778 61.9484 30.7289 62.0185 30.6868 62.0886C30.6448 62.1588 30.6027 62.2429 30.5676 62.3271C30.5326 62.4112 30.4975 62.5094 30.4694 62.6006C30.4414 62.6987 30.4133 62.7969 30.3923 62.9021L30.3993 62.9091ZM28.0291 65.3635C27.966 65.4476 27.9028 65.5318 27.8397 65.6089C27.7766 65.6861 27.7065 65.7632 27.6434 65.8333C27.6083 65.8684 27.5803 65.9035 27.5452 65.9385C27.5101 65.9736 27.4821 66.0016 27.447 66.0367C27.3839 66.0998 27.3208 66.1559 27.2647 66.205C27.1525 66.3032 27.0543 66.3803 26.9842 66.4364C26.9141 66.4855 26.872 66.5136 26.872 66.5136C26.872 66.5136 26.9071 66.4785 26.9772 66.4224C27.0403 66.3663 27.1315 66.2751 27.2437 66.1699C27.2717 66.1419 27.2998 66.1138 27.3278 66.0858C27.3559 66.0577 27.3839 66.0227 27.412 65.9946C27.44 65.9666 27.4751 65.9315 27.5031 65.8965C27.5312 65.8614 27.5662 65.8263 27.5943 65.7913C27.6574 65.7211 27.7205 65.644 27.7836 65.5669C27.8467 65.4897 27.9099 65.4056 27.966 65.3284C28.0221 65.2443 28.0852 65.1601 28.1483 65.076C28.2114 64.9918 28.2745 64.9147 28.3446 64.8446C28.4148 64.7744 28.4849 64.7113 28.555 64.6622C28.6251 64.6061 28.6953 64.5641 28.7584 64.529C28.7934 64.508 28.8215 64.4939 28.8566 64.4799C28.8846 64.4659 28.9197 64.4589 28.9407 64.4449C28.9968 64.4238 29.0459 64.4098 29.081 64.4028C29.123 64.3958 29.1511 64.3888 29.1721 64.3888C29.1932 64.3888 29.2072 64.3888 29.2072 64.3888C29.2072 64.3888 29.1651 64.3888 29.081 64.4168C29.0389 64.4308 28.9968 64.4449 28.9407 64.4729C28.9127 64.4869 28.8846 64.501 28.8566 64.515C28.8285 64.529 28.8005 64.55 28.7654 64.5641C28.7023 64.6061 28.6392 64.6482 28.5761 64.7043C28.5129 64.7604 28.4428 64.8235 28.3797 64.8866C28.3166 64.9568 28.2535 65.0339 28.1904 65.111C28.1343 65.1952 28.0711 65.2793 28.015 65.3635H28.0291ZM25.8131 65.651C25.8131 65.651 25.7921 65.6019 25.778 65.5739C26.0375 65.63 26.5003 65.7071 26.9842 65.637C26.9281 65.7983 26.872 65.9736 26.7949 66.1489C26.6406 65.9245 26.3531 65.658 25.8061 65.651H25.8131ZM24.6911 67.0255C24.5999 67.0816 24.5158 67.1236 24.4316 67.1727C24.3896 67.1938 24.3475 67.2148 24.3054 67.2358C24.2633 67.2569 24.2213 67.2779 24.1862 67.2919C24.1091 67.327 24.0319 67.3621 23.9618 67.3901C23.8215 67.4462 23.7023 67.4813 23.6182 67.5093C23.534 67.5374 23.4849 67.5444 23.4849 67.5444C23.4849 67.5444 23.534 67.5234 23.6112 67.4953C23.6953 67.4602 23.8075 67.4112 23.9478 67.348C23.9828 67.334 24.0179 67.313 24.053 67.299C24.088 67.2849 24.1301 67.2639 24.1652 67.2429C24.2072 67.2218 24.2423 67.2008 24.2844 67.1798C24.3265 67.1587 24.3685 67.1377 24.4106 67.1166C24.4948 67.0746 24.5789 67.0185 24.6631 66.9694C24.7472 66.9203 24.8314 66.8642 24.9155 66.8081C24.9997 66.745 25.0838 66.6889 25.175 66.6328C25.2591 66.5767 25.3503 66.5276 25.4414 66.4855C25.5326 66.4434 25.6168 66.4084 25.7009 66.3803C25.7851 66.3523 25.8622 66.3382 25.9393 66.3242C25.9744 66.3242 26.0095 66.3172 26.0445 66.3102C26.0796 66.3102 26.1076 66.3102 26.1357 66.3102C26.1918 66.3102 26.2409 66.3102 26.2829 66.3242C26.325 66.3242 26.3531 66.3382 26.3741 66.3453C26.3952 66.3453 26.4022 66.3523 26.4022 66.3523C26.4022 66.3523 26.3601 66.3453 26.2759 66.3382C26.2339 66.3382 26.1848 66.3382 26.1287 66.3382C26.1006 66.3382 26.0656 66.3382 26.0375 66.3523C26.0024 66.3523 25.9674 66.3663 25.9323 66.3733C25.8622 66.3873 25.7851 66.4084 25.7009 66.4364C25.6238 66.4645 25.5396 66.4995 25.4555 66.5416C25.3713 66.5837 25.2872 66.6328 25.203 66.6889C25.1189 66.745 25.0347 66.8081 24.9506 66.8642C24.8594 66.9203 24.7753 66.9834 24.6841 67.0325L24.6911 67.0255ZM21.255 67.2779C21.1568 67.299 21.0586 67.313 20.9604 67.327C20.9113 67.327 20.8623 67.341 20.8202 67.341C20.7711 67.341 20.729 67.3481 20.6869 67.3551C20.6028 67.3621 20.5186 67.3691 20.4415 67.3691C20.2872 67.3691 20.168 67.3691 20.0768 67.3691C19.9927 67.3691 19.9436 67.3551 19.9436 67.3551C19.9436 67.3551 19.9927 67.3551 20.0839 67.3551C20.175 67.3551 20.3013 67.341 20.4485 67.327C20.4836 67.327 20.5257 67.32 20.5677 67.313C20.6098 67.313 20.6519 67.306 20.694 67.299C20.736 67.299 20.7781 67.2919 20.8272 67.2849C20.8693 67.2849 20.9184 67.2709 20.9674 67.2639C21.0586 67.2499 21.1568 67.2288 21.255 67.2148C21.3531 67.1938 21.4513 67.1727 21.5495 67.1447C21.6477 67.1166 21.7528 67.0886 21.851 67.0675C21.9492 67.0465 22.0544 67.0255 22.1526 67.0185C22.2507 67.0114 22.3419 67.0044 22.4331 67.0185C22.5242 67.0185 22.6014 67.0325 22.6785 67.0465C22.7136 67.0535 22.7486 67.0605 22.7837 67.0746C22.8117 67.0816 22.8468 67.0956 22.8749 67.1026C22.931 67.1236 22.973 67.1447 23.0081 67.1657C23.0432 67.1868 23.0712 67.2008 23.0852 67.2148C23.0993 67.2288 23.1133 67.2358 23.1133 67.2358C23.1133 67.2358 23.0782 67.2078 23.0011 67.1798C22.966 67.1657 22.9169 67.1447 22.8608 67.1307C22.8328 67.1236 22.8047 67.1166 22.7697 67.1096C22.7346 67.1096 22.7066 67.0956 22.6645 67.0886C22.5944 67.0816 22.5102 67.0746 22.4261 67.0746C22.3419 67.0746 22.2507 67.0746 22.1596 67.0886C22.0684 67.0956 21.9702 67.1166 21.8721 67.1447C21.7739 67.1727 21.6757 67.2008 21.5775 67.2288C21.4723 67.2569 21.3742 67.2779 21.269 67.299L21.255 67.2779ZM19.6771 66.0087C19.6771 66.0087 19.6982 65.9526 19.7052 65.9245C19.8665 66.1349 20.175 66.4925 20.5888 66.752C20.4415 66.8431 20.2872 66.9343 20.1119 67.0255C20.14 66.759 20.0839 66.3663 19.6771 66.0087ZM17.938 66.3453C17.8398 66.3312 17.7417 66.3102 17.6435 66.2892C17.5944 66.2821 17.5523 66.2681 17.5032 66.2541C17.4612 66.2401 17.4121 66.2331 17.37 66.219C17.2859 66.198 17.2087 66.1699 17.1386 66.1489C16.9913 66.0998 16.8791 66.0577 16.802 66.0227C16.7249 65.9876 16.6828 65.9666 16.6828 65.9666C16.6828 65.9666 16.7319 65.9806 16.816 66.0087C16.9002 66.0367 17.0194 66.0718 17.1666 66.1068C17.2017 66.1138 17.2438 66.1279 17.2788 66.1349C17.3209 66.1419 17.356 66.1559 17.4051 66.1629C17.4471 66.1699 17.4892 66.184 17.5383 66.191C17.5804 66.198 17.6295 66.212 17.6786 66.219C17.7697 66.2401 17.8679 66.2541 17.9661 66.2681C18.0642 66.2821 18.1694 66.2962 18.2676 66.3032C18.3728 66.3102 18.478 66.3242 18.5762 66.3312C18.6814 66.3453 18.7795 66.3663 18.8777 66.3873C18.9759 66.4084 19.06 66.4434 19.1442 66.4785C19.2283 66.5136 19.2985 66.5486 19.3616 66.5907C19.3966 66.6117 19.4247 66.6328 19.4527 66.6468C19.4808 66.6678 19.5018 66.6889 19.5229 66.7029C19.5649 66.738 19.6 66.773 19.628 66.8081C19.6561 66.8361 19.6701 66.8642 19.6841 66.8782C19.6982 66.8992 19.6982 66.9063 19.6982 66.9063C19.6982 66.9063 19.6701 66.8712 19.614 66.8151C19.586 66.787 19.5439 66.759 19.5018 66.7239C19.4808 66.7099 19.4527 66.6889 19.4247 66.6748C19.3966 66.6608 19.3686 66.6398 19.3335 66.6258C19.2704 66.5907 19.1933 66.5556 19.1161 66.5276C19.039 66.4995 18.9478 66.4715 18.8567 66.4504C18.7655 66.4294 18.6673 66.4154 18.5692 66.4014C18.471 66.3943 18.3658 66.3803 18.2606 66.3733C18.1554 66.3593 18.0502 66.3453 17.952 66.3312L17.938 66.3453ZM15.14 64.3327C15.0489 64.2836 14.9647 64.2275 14.8806 64.1784C14.8385 64.1503 14.8034 64.1293 14.7613 64.1012C14.7263 64.0732 14.6842 64.0522 14.6491 64.0241C14.579 63.975 14.5089 63.9259 14.4528 63.8768C14.3336 63.7857 14.2424 63.7015 14.1793 63.6384C14.1162 63.5823 14.0811 63.5402 14.0811 63.5402C14.0811 63.5402 14.1232 63.5753 14.1863 63.6244C14.2564 63.6805 14.3546 63.7506 14.4808 63.8418C14.5089 63.8628 14.544 63.8839 14.579 63.9119C14.6141 63.9329 14.6491 63.961 14.6842 63.982C14.7193 64.0031 14.7613 64.0311 14.7964 64.0522C14.8385 64.0732 14.8735 64.1012 14.9156 64.1293C14.9998 64.1784 15.0839 64.2275 15.1681 64.2766C15.2592 64.3256 15.3434 64.3677 15.4345 64.4168C15.5327 64.4589 15.6239 64.508 15.715 64.55C15.8062 64.5991 15.8974 64.6482 15.9745 64.7043C16.0587 64.7604 16.1288 64.8165 16.1919 64.8796C16.255 64.9357 16.3111 64.9988 16.3602 65.062C16.3812 65.09 16.4023 65.1181 16.4233 65.1461C16.4373 65.1742 16.4584 65.2022 16.4724 65.2232C16.5005 65.2723 16.5215 65.3214 16.5355 65.3565C16.5495 65.3915 16.5566 65.4266 16.5636 65.4477C16.5636 65.4687 16.5636 65.4757 16.5636 65.4757C16.5636 65.4757 16.5495 65.4336 16.5145 65.3635C16.4934 65.3284 16.4724 65.2864 16.4373 65.2373C16.4233 65.2162 16.4023 65.1882 16.3812 65.1601C16.3602 65.1321 16.3392 65.111 16.3111 65.083C16.262 65.0269 16.2059 64.9708 16.1428 64.9147C16.0797 64.8586 16.0026 64.8025 15.9254 64.7534C15.8483 64.7043 15.7571 64.6552 15.673 64.6061C15.5818 64.5641 15.4906 64.522 15.3925 64.4799C15.3013 64.4308 15.2031 64.3817 15.112 64.3327H15.14ZM13.2046 61.4856C13.1344 61.4084 13.0783 61.3313 13.0152 61.2541C12.9872 61.2191 12.9591 61.177 12.9311 61.142C12.903 61.1069 12.875 61.0648 12.8539 61.0297C12.8048 60.9596 12.7628 60.8895 12.7207 60.8264C12.6436 60.7002 12.5804 60.588 12.5454 60.5108C12.5033 60.4337 12.4893 60.3916 12.4893 60.3916C12.4893 60.3916 12.5173 60.4337 12.5594 60.5108C12.6085 60.588 12.6786 60.6931 12.7628 60.8124C12.7838 60.8404 12.8048 60.8755 12.8329 60.9105C12.8539 60.9456 12.882 60.9807 12.91 61.0157C12.9381 61.0508 12.9661 61.0859 12.9942 61.1209C13.0222 61.156 13.0503 61.191 13.0783 61.2331C13.1344 61.3102 13.2046 61.3804 13.2677 61.4575C13.3308 61.5347 13.4009 61.6048 13.471 61.6819C13.5482 61.752 13.6183 61.8292 13.6884 61.9063C13.7585 61.9835 13.8217 62.0606 13.8778 62.1447C13.9339 62.2219 13.9829 62.306 14.025 62.3832C14.0671 62.4603 14.0951 62.5374 14.1232 62.6076C14.1372 62.6426 14.1442 62.6777 14.1512 62.7057C14.1512 62.7408 14.1653 62.7689 14.1723 62.7969C14.1793 62.853 14.1863 62.9021 14.1863 62.9442C14.1863 62.9862 14.1863 63.0143 14.1863 63.0353C14.1863 63.0564 14.1863 63.0704 14.1863 63.0704C14.1863 63.0704 14.1863 63.0283 14.1793 62.9442C14.1793 62.9021 14.1653 62.853 14.1512 62.7969C14.1442 62.7689 14.1372 62.7408 14.1232 62.7057C14.1092 62.6777 14.1022 62.6426 14.0881 62.6076C14.0601 62.5374 14.025 62.4673 13.9829 62.3972C13.9409 62.3201 13.8918 62.2499 13.8357 62.1728C13.7796 62.0957 13.7165 62.0255 13.6463 61.9484C13.5762 61.8783 13.4991 61.8011 13.429 61.731C13.3588 61.6539 13.2817 61.5767 13.2186 61.4996L13.2046 61.4856ZM13.4149 54.3608C13.8146 53.8699 14.2284 53.6806 14.2354 53.6876C14.2354 53.6876 13.99 54.0102 13.7726 54.7325C13.6954 54.9849 13.7095 55.3005 13.5973 55.588C13.6604 55.0831 13.5552 54.7255 13.4219 54.3608H13.4149ZM13.5412 55.8685C13.5412 55.8685 13.5482 55.8194 13.5552 55.7984C13.5832 55.7563 13.6043 55.7072 13.6323 55.6511C13.6534 55.595 13.6744 55.5319 13.6954 55.4688C13.7165 55.4057 13.7305 55.3286 13.7375 55.2584C13.7445 55.1813 13.7585 55.1041 13.7656 55.027C13.7796 54.9499 13.7936 54.8727 13.8076 54.7956C13.8217 54.7185 13.8427 54.6483 13.8637 54.5852C13.8848 54.5151 13.9058 54.452 13.9268 54.3959C13.9479 54.3398 13.9759 54.2837 13.997 54.2346C14.039 54.1364 14.0881 54.0593 14.1162 54.0102C14.1512 53.9611 14.1653 53.9331 14.1653 53.9331C14.1653 53.9331 14.1022 54.0593 14.025 54.2626C14.004 54.3117 13.9829 54.3678 13.9689 54.4309C13.9619 54.459 13.9479 54.4941 13.9409 54.5221C13.9339 54.5572 13.9198 54.5852 13.9128 54.6203C13.8918 54.6834 13.8778 54.7605 13.8637 54.8307C13.8497 54.9008 13.8357 54.9779 13.8217 55.0551C13.8146 55.1322 13.8006 55.2093 13.7936 55.2865C13.7796 55.3636 13.7656 55.4337 13.7445 55.5039C13.7235 55.574 13.6954 55.6371 13.6674 55.6862C13.6393 55.7423 13.6113 55.7914 13.5762 55.8335C13.5622 55.8545 13.5482 55.8685 13.5341 55.8896C13.5341 55.8896 13.5341 55.8825 13.5341 55.8755L13.5412 55.8685ZM13.4851 58.6525C13.3729 58.1546 13.1485 57.8531 12.903 57.5655C13.1134 56.9625 13.436 56.6539 13.443 56.6539C13.443 56.6539 13.3238 57.0396 13.3658 57.79C13.3799 58.0494 13.4991 58.3439 13.4921 58.6525H13.4851ZM13.5271 58.8699C13.5341 58.8208 13.5482 58.7647 13.5482 58.7086C13.5482 58.6455 13.5482 58.5824 13.5482 58.5122C13.5482 58.4421 13.5341 58.372 13.5201 58.3019C13.5061 58.2247 13.4851 58.1546 13.471 58.0775C13.457 58.0003 13.443 57.9232 13.436 57.8461C13.429 57.7689 13.4219 57.6988 13.4149 57.6287C13.4149 57.5585 13.4149 57.4884 13.4149 57.4323C13.4149 57.3692 13.4149 57.3131 13.4219 57.257C13.429 57.1518 13.443 57.0677 13.457 57.0045C13.471 56.9484 13.478 56.9134 13.478 56.9134C13.478 56.9134 13.457 57.0536 13.457 57.271C13.457 57.3271 13.457 57.3832 13.457 57.4463C13.457 57.4744 13.457 57.5094 13.457 57.5445C13.457 57.5796 13.457 57.6146 13.457 57.6427C13.457 57.7128 13.471 57.7829 13.478 57.8531C13.4851 57.9232 13.4991 58.0003 13.5131 58.0775C13.5271 58.1546 13.5482 58.2317 13.5622 58.3019C13.5762 58.379 13.5832 58.4491 13.5902 58.5263C13.5902 58.5964 13.5902 58.6665 13.5902 58.7296C13.5902 58.7927 13.5692 58.8488 13.5552 58.8979C13.5552 58.919 13.5412 58.94 13.5341 58.961C13.5341 58.961 13.5341 58.954 13.5341 58.947C13.5341 58.926 13.5341 58.8979 13.5271 58.8769V58.8699ZM14.2144 58.7156C14.3546 57.7619 13.6323 57.4534 13.5622 56.3804C13.7866 56.3594 14.039 56.2402 14.2494 55.8896C14.7052 55.041 14.1372 54.5081 14.4388 53.4702C14.6562 53.5263 14.9296 53.5053 15.2522 53.2458C15.9745 52.6077 15.6169 51.9064 16.255 51.0369C16.4373 51.1631 16.7108 51.2332 17.0965 51.1C17.9941 50.7423 17.8959 49.964 18.7936 49.3679C18.9198 49.5502 19.1512 49.7115 19.5579 49.7185C20.5186 49.6905 20.701 48.9261 21.7458 48.6736C21.8019 48.891 21.9632 49.1154 22.3489 49.2627C23.2605 49.5642 23.6953 48.9121 24.7612 49.0313C24.7402 49.2557 24.8173 49.5222 25.1259 49.7886C25.8832 50.3847 26.5074 49.9149 27.4751 50.3917C27.3839 50.5951 27.3559 50.8756 27.5592 51.2332C28.0641 52.0537 28.8145 51.8293 29.5578 52.6077C29.4035 52.769 29.2843 53.0214 29.3474 53.4211C29.5438 54.3678 30.3222 54.4099 30.757 55.3917C30.5536 55.4898 30.3572 55.6862 30.2801 56.0859C30.1398 57.0396 30.8621 57.3482 30.9323 58.4211C30.7079 58.4421 30.4554 58.5613 30.245 58.912C29.7892 59.7605 30.3572 60.2934 30.0557 61.3313C29.8383 61.2752 29.5648 61.2962 29.2422 61.5557C28.52 62.1938 28.8776 62.8951 28.2395 63.7646C28.0571 63.6384 27.7836 63.5683 27.3979 63.7015C26.5003 64.0592 26.5985 64.8376 25.7009 65.4336C25.5747 65.2513 25.3433 65.09 24.9365 65.083C23.9758 65.111 23.7935 65.8754 22.7486 66.1279C22.6925 65.9105 22.5312 65.6861 22.1455 65.5388C21.2339 65.2373 20.7991 65.8894 19.7332 65.7702C19.7543 65.5458 19.6771 65.2793 19.3686 65.0129C18.6112 64.4168 17.9871 64.8866 17.0194 64.4098C17.1105 64.2064 17.1386 63.9329 16.9352 63.5683C16.4303 62.7478 15.68 62.9722 14.9367 62.1938C15.0909 62.0325 15.2101 61.7801 15.147 61.3804C14.9507 60.4337 14.1723 60.3916 13.7375 59.4099C13.9409 59.3117 14.1372 59.1153 14.2144 58.7156ZM14.9857 51.5207C15.5327 51.1912 15.9815 51.1631 15.9815 51.1701C15.9815 51.1701 15.6449 51.3875 15.1891 51.9906C15.0348 52.201 14.9367 52.5025 14.7333 52.7269C14.9647 52.2781 14.9857 51.9064 14.9857 51.5207ZM14.586 52.9864C14.586 52.9864 14.6071 52.9443 14.6211 52.9232C14.6632 52.8882 14.6982 52.8531 14.7403 52.811C14.7824 52.769 14.8245 52.7129 14.8595 52.6568C14.9016 52.6007 14.9367 52.5376 14.9717 52.4744C15.0068 52.4043 15.0418 52.3412 15.0769 52.2711C15.112 52.201 15.154 52.1378 15.1961 52.0747C15.2382 52.0116 15.2803 51.9485 15.3223 51.8924C15.3644 51.8363 15.4065 51.7872 15.4486 51.7381C15.4906 51.689 15.5327 51.647 15.5678 51.6119C15.6449 51.5348 15.708 51.4787 15.7571 51.4436C15.8062 51.4085 15.8343 51.3875 15.8343 51.3875C15.8343 51.3875 15.7291 51.4787 15.5888 51.647C15.5538 51.689 15.5187 51.7311 15.4766 51.7802C15.4556 51.8012 15.4345 51.8293 15.4205 51.8573C15.3995 51.8854 15.3784 51.9134 15.3574 51.9415C15.3153 51.9976 15.2803 52.0607 15.2382 52.1238C15.1961 52.1869 15.1611 52.25 15.126 52.3202C15.0909 52.3903 15.0559 52.4604 15.0208 52.5235C14.9857 52.5937 14.9437 52.6568 14.9016 52.7129C14.8595 52.769 14.8104 52.8181 14.7684 52.8601C14.7263 52.9022 14.6772 52.9373 14.6351 52.9653C14.6141 52.9793 14.593 52.9934 14.579 53.0004C14.579 53.0004 14.579 52.9934 14.586 52.9864ZM17.4331 49.3959C18.0572 49.2767 18.492 49.3959 18.492 49.41C18.492 49.41 18.0993 49.5011 17.4682 49.9079C17.2508 50.0481 17.0544 50.3006 16.788 50.4478C17.1596 50.1042 17.3069 49.7606 17.4331 49.3959ZM16.5636 50.6372C16.5636 50.6372 16.5986 50.6091 16.6197 50.5951C16.6688 50.5811 16.7178 50.56 16.7739 50.532C16.83 50.5039 16.8861 50.4689 16.9422 50.4338C16.9983 50.3987 17.0544 50.3496 17.1105 50.3006C17.1666 50.2515 17.2227 50.1954 17.2788 50.1463C17.3349 50.0972 17.3981 50.0481 17.4612 49.999C17.5243 49.9499 17.5804 49.9149 17.6435 49.8728C17.6996 49.8307 17.7627 49.8027 17.8118 49.7676C17.8679 49.7396 17.917 49.7115 17.9661 49.6905C18.0642 49.6414 18.1484 49.6133 18.2045 49.5923C18.2606 49.5713 18.2957 49.5642 18.2957 49.5642C18.2957 49.5642 18.1624 49.6133 17.9731 49.7255C17.924 49.7536 17.8749 49.7816 17.8188 49.8167C17.7908 49.8307 17.7627 49.8518 17.7347 49.8658C17.7066 49.8868 17.6786 49.9008 17.6505 49.9219C17.5944 49.9569 17.5383 50.006 17.4752 50.0481C17.4191 50.0902 17.356 50.1393 17.2999 50.1884C17.2438 50.2445 17.1877 50.2935 17.1246 50.3426C17.0685 50.3917 17.0054 50.4408 16.9493 50.4759C16.8932 50.5179 16.83 50.546 16.7739 50.567C16.7178 50.5951 16.6617 50.6091 16.6127 50.6231C16.5916 50.6231 16.5706 50.6301 16.5495 50.6372C16.5495 50.6372 16.5566 50.6372 16.5636 50.6301V50.6372ZM19.2213 49.1014C19.2213 49.1014 19.2634 49.0874 19.2844 49.0804C19.3335 49.0804 19.3896 49.0804 19.4457 49.0734C19.5088 49.0664 19.5719 49.0523 19.6351 49.0383C19.6982 49.0243 19.7683 48.9962 19.8384 48.9682C19.9085 48.9401 19.9787 48.9121 20.0488 48.877C20.1189 48.849 20.1961 48.8209 20.2662 48.7999C20.3363 48.7788 20.4064 48.7578 20.4766 48.7438C20.5467 48.7297 20.6098 48.7157 20.6729 48.7087C20.736 48.7017 20.7921 48.6947 20.8482 48.6877C20.9534 48.6736 21.0446 48.6807 21.1007 48.6807C21.1638 48.6807 21.1918 48.6807 21.1918 48.6807C21.1918 48.6807 21.0516 48.6807 20.8342 48.7227C20.7781 48.7297 20.722 48.7438 20.6589 48.7578C20.6308 48.7578 20.5958 48.7718 20.5677 48.7788C20.5327 48.7858 20.5046 48.7929 20.4696 48.7999C20.3994 48.8139 20.3363 48.8349 20.2662 48.863C20.1961 48.884 20.1259 48.9121 20.0558 48.9401C19.9857 48.9682 19.9085 49.0032 19.8384 49.0313C19.7683 49.0593 19.6912 49.0804 19.628 49.0944C19.5579 49.1084 19.4948 49.1225 19.4317 49.1225C19.3686 49.1225 19.3125 49.1225 19.2634 49.1225C19.2424 49.1225 19.2143 49.1225 19.1933 49.1154C19.1933 49.1154 19.2003 49.1154 19.2073 49.1154L19.2213 49.1014ZM20.3223 48.7297C20.0698 48.7858 19.7963 48.9612 19.4948 49.0032C19.9646 48.8069 20.2241 48.5334 20.4696 48.2389C21.0937 48.337 21.4653 48.6035 21.4583 48.6105C21.4583 48.6105 21.0586 48.5614 20.3223 48.7297ZM23.7093 48.1828C24.2633 48.4913 24.5158 48.87 24.5158 48.87C24.5158 48.87 24.1581 48.6877 23.4078 48.5965C23.1483 48.5614 22.8398 48.6316 22.5383 48.5685C23.0432 48.5404 23.3798 48.3791 23.7164 48.1828H23.7093ZM22.2437 48.5685C22.2437 48.5685 22.2928 48.5685 22.3139 48.5685C22.3629 48.5895 22.412 48.6035 22.4681 48.6175C22.5242 48.6316 22.5944 48.6386 22.6575 48.6456C22.7276 48.6526 22.7977 48.6526 22.8749 48.6456C22.952 48.6456 23.0291 48.6456 23.1063 48.6316C23.1834 48.6316 23.2605 48.6316 23.3377 48.6316C23.4148 48.6316 23.4849 48.6386 23.5551 48.6526C23.6252 48.6596 23.6883 48.6736 23.7514 48.6877C23.8145 48.7017 23.8706 48.7157 23.9197 48.7297C24.0249 48.7578 24.102 48.7858 24.1652 48.8069C24.2213 48.8279 24.2493 48.8419 24.2493 48.8419C24.2493 48.8419 24.1161 48.7999 23.9057 48.7578C23.8496 48.7508 23.7935 48.7368 23.7304 48.7297C23.7023 48.7297 23.6673 48.7227 23.6322 48.7157C23.5971 48.7157 23.5691 48.7087 23.534 48.7017C23.4639 48.6947 23.3938 48.6877 23.3166 48.6877C23.2395 48.6877 23.1694 48.6877 23.0922 48.6877C23.0151 48.6877 22.938 48.6877 22.8608 48.6947C22.7837 48.6947 22.7066 48.6947 22.6364 48.6807C22.5663 48.6736 22.5032 48.6596 22.4401 48.6386C22.377 48.6246 22.3279 48.5965 22.2788 48.5755C22.2578 48.5685 22.2367 48.5544 22.2157 48.5404C22.2157 48.5404 22.2227 48.5404 22.2297 48.5404L22.2437 48.5685ZM29.4737 52.3272C29.4737 52.3272 29.3124 51.9555 28.8005 51.4015C28.6251 51.2122 28.3446 51.0649 28.1553 50.8265C28.562 51.128 28.9197 51.2192 29.2983 51.2823C29.5227 51.8784 29.4807 52.3272 29.4737 52.3272ZM27.9309 50.6372C27.9309 50.6372 27.966 50.6652 27.987 50.6862C28.008 50.7283 28.0431 50.7774 28.0782 50.8265C28.1132 50.8756 28.1553 50.9247 28.2044 50.9738C28.2535 51.0229 28.3096 51.0719 28.3657 51.121C28.4288 51.1701 28.4849 51.2122 28.548 51.2613C28.6111 51.3104 28.6672 51.3595 28.7233 51.4156C28.7794 51.4646 28.8285 51.5207 28.8776 51.5698C28.9267 51.6189 28.9688 51.675 29.0108 51.7241C29.0529 51.7732 29.088 51.8223 29.116 51.8644C29.1791 51.9485 29.2212 52.0256 29.2493 52.0817C29.2773 52.1378 29.2913 52.1659 29.2913 52.1659C29.2913 52.1659 29.2142 52.0467 29.081 51.8784C29.0459 51.8363 29.0108 51.7942 28.9688 51.7451C28.9477 51.7241 28.9267 51.6961 28.9056 51.675C28.8846 51.654 28.8636 51.6259 28.8355 51.6049C28.7864 51.5558 28.7373 51.5067 28.6812 51.4576C28.6251 51.4085 28.569 51.3594 28.5129 51.3104C28.4498 51.2613 28.3867 51.2122 28.3306 51.1701C28.2675 51.121 28.2184 51.0719 28.1693 51.0158C28.1202 50.9667 28.0782 50.9106 28.0431 50.8616C28.008 50.8125 27.98 50.7564 27.9589 50.7143C27.9519 50.6933 27.9379 50.6722 27.9309 50.6512C27.9309 50.6512 27.9309 50.6582 27.9449 50.6652L27.9309 50.6372ZM27.5452 50.2725C27.4611 50.0201 27.2998 49.5783 26.9982 49.1926C27.1665 49.1575 27.3418 49.1224 27.5382 49.1014C27.419 49.3468 27.3348 49.7325 27.6013 50.2024C27.5803 50.2234 27.5662 50.2445 27.5452 50.2725ZM27.2998 50.1603C27.2998 50.1603 27.0263 49.8658 26.3531 49.5222C26.1217 49.403 25.8061 49.3609 25.5466 49.1996C26.0305 49.3469 26.4022 49.3048 26.7808 49.2346C27.1946 49.7115 27.3068 50.1533 27.2998 50.1603ZM25.2731 49.1014C25.2731 49.1014 25.3152 49.1154 25.3363 49.1295C25.3713 49.1645 25.4204 49.1996 25.4695 49.2276C25.5186 49.2627 25.5747 49.2908 25.6378 49.3188C25.7009 49.3469 25.771 49.3749 25.8412 49.3959C25.9113 49.417 25.9884 49.445 26.0585 49.4661C26.1357 49.4941 26.2058 49.5222 26.2759 49.5502C26.3461 49.5783 26.4092 49.6133 26.4723 49.6414C26.5354 49.6694 26.5915 49.7045 26.6476 49.7396C26.7037 49.7746 26.7528 49.8027 26.7949 49.8377C26.886 49.9008 26.9491 49.9569 26.9982 49.992C27.0403 50.0341 27.0684 50.0551 27.0684 50.0551C27.0684 50.0551 26.9562 49.971 26.7738 49.8588C26.7247 49.8307 26.6757 49.8027 26.6196 49.7746C26.5915 49.7606 26.5635 49.7466 26.5354 49.7325C26.5074 49.7185 26.4793 49.7045 26.4442 49.6905C26.3811 49.6624 26.318 49.6344 26.2479 49.6063C26.1778 49.5783 26.1076 49.5502 26.0375 49.5292C25.9604 49.5081 25.8902 49.4801 25.8131 49.4591C25.743 49.431 25.6729 49.403 25.6097 49.3679C25.5466 49.3328 25.4905 49.2978 25.4414 49.2627C25.3924 49.2276 25.3503 49.1856 25.3082 49.1505C25.2942 49.1365 25.2802 49.1154 25.2661 49.1014C25.2661 49.1014 25.2731 49.1014 25.2802 49.1084L25.2731 49.1014ZM29.9014 52.9794C29.9014 52.9794 29.9014 52.9864 29.9014 52.9934C29.9154 53.0144 29.9225 53.0355 29.9365 53.0565C29.9435 53.1056 29.9575 53.1617 29.9715 53.2178C29.9926 53.2739 30.0136 53.337 30.0417 53.4001C30.0697 53.4632 30.1048 53.5263 30.1398 53.5894C30.1819 53.6526 30.224 53.7157 30.2661 53.7858C30.3081 53.8559 30.3432 53.919 30.3783 53.9892C30.4133 54.0593 30.4414 54.1224 30.4694 54.1855C30.4975 54.2486 30.5185 54.3117 30.5396 54.3748C30.5606 54.4309 30.5746 54.487 30.5887 54.5431C30.6167 54.6483 30.6307 54.7325 30.6377 54.7956C30.6448 54.8587 30.6448 54.8868 30.6448 54.8868C30.6448 54.8868 30.6167 54.7465 30.5466 54.5431C30.5326 54.4941 30.5115 54.438 30.4835 54.3819C30.4694 54.3538 30.4624 54.3258 30.4484 54.2907C30.4344 54.2626 30.4204 54.2276 30.4063 54.1995C30.3783 54.1364 30.3432 54.0733 30.3082 54.0032C30.2731 53.9401 30.238 53.8699 30.1959 53.8068C30.1539 53.7437 30.1118 53.6736 30.0697 53.6105C30.0276 53.5474 29.9996 53.4772 29.9715 53.4141C29.9435 53.351 29.9225 53.2879 29.9084 53.2248C29.8944 53.1617 29.8874 53.1056 29.8804 53.0565C29.8804 53.0355 29.8804 53.0074 29.8804 52.9864L29.9014 52.9794ZM31.0795 60.4617C30.6798 60.9526 30.2661 61.1419 30.2591 61.1349C30.2591 61.1349 30.5045 60.8124 30.7219 60.0901C30.799 59.8376 30.785 59.5221 30.8972 59.2345C30.8341 59.7394 30.9393 60.0971 31.0725 60.4617H31.0795ZM30.9533 58.954C30.9533 58.954 30.9463 59.0031 30.9393 59.0242C30.9112 59.0662 30.8902 59.1153 30.8621 59.1714C30.8411 59.2275 30.8201 59.2906 30.799 59.3537C30.778 59.4169 30.764 59.494 30.757 59.5641C30.7499 59.6413 30.7359 59.7184 30.7289 59.7955C30.7149 59.8727 30.7009 59.9498 30.6868 60.027C30.6728 60.1041 30.6518 60.1742 30.6307 60.2373C30.6097 60.3075 30.5887 60.3706 30.5676 60.4267C30.5466 60.4828 30.5185 60.5389 30.4975 60.588C30.4554 60.6861 30.4063 60.7633 30.3783 60.8124C30.3502 60.8614 30.3292 60.8895 30.3292 60.8895C30.3292 60.8895 30.3923 60.7633 30.4694 60.5599C30.4905 60.5108 30.5115 60.4547 30.5255 60.3916C30.5326 60.3636 30.5466 60.3285 30.5536 60.3004C30.5606 60.2654 30.5746 60.2373 30.5816 60.2023C30.6027 60.1392 30.6167 60.062 30.6307 59.9919C30.6448 59.9218 30.6588 59.8446 30.6728 59.7745C30.6798 59.6974 30.6938 59.6202 30.7009 59.5431C30.7149 59.466 30.7289 59.3958 30.7499 59.3257C30.771 59.2556 30.799 59.1925 30.8271 59.1434C30.8551 59.0873 30.8832 59.0382 30.9182 58.9961C30.9323 58.9751 30.9463 58.9611 30.9603 58.94C30.9603 58.94 30.9603 58.947 30.9603 58.954H30.9533ZM31.0094 56.1701C31.1216 56.6679 31.346 56.9695 31.5914 57.257C31.3811 57.8601 31.0585 58.1686 31.0515 58.1686C31.0515 58.1686 31.1707 57.7829 31.1286 57.0326C31.1146 56.7731 30.9954 56.4786 31.0024 56.1701H31.0094ZM30.9673 55.9527C30.9603 56.0018 30.9463 56.0579 30.9463 56.114C30.9463 56.1771 30.9463 56.2402 30.9463 56.3103C30.9463 56.3804 30.9603 56.4506 30.9743 56.5207C30.9884 56.5978 31.0094 56.6679 31.0234 56.7451C31.0375 56.8222 31.0515 56.8994 31.0585 56.9765C31.0655 57.0536 31.0725 57.1238 31.0795 57.1939C31.0795 57.264 31.0795 57.3341 31.0795 57.3902C31.0795 57.4533 31.0795 57.5094 31.0725 57.5655C31.0655 57.6707 31.0515 57.7549 31.0375 57.818C31.0234 57.8741 31.0164 57.9092 31.0164 57.9092C31.0164 57.9092 31.0375 57.7689 31.0375 57.5515C31.0375 57.4954 31.0375 57.4393 31.0375 57.3762C31.0375 57.3482 31.0375 57.3131 31.0375 57.278C31.0375 57.243 31.0375 57.2079 31.0375 57.1799C31.0375 57.1097 31.0234 57.0396 31.0164 56.9695C31.0094 56.8994 30.9954 56.8222 30.9814 56.7451C30.9673 56.6679 30.9463 56.5908 30.9323 56.5207C30.9182 56.4435 30.9112 56.3734 30.9042 56.2963C30.9042 56.2262 30.9042 56.156 30.9042 56.0929C30.9042 56.0298 30.9253 55.9737 30.9393 55.9246C30.9393 55.9036 30.9533 55.8825 30.9603 55.8615C30.9603 55.8615 30.9603 55.8685 30.9603 55.8755C30.9603 55.8966 30.9603 55.9246 30.9673 55.9457V55.9527ZM30.4694 54.0172C30.3713 53.7788 30.1539 53.5404 30.0557 53.2528C30.3292 53.6806 30.6448 53.891 30.9814 54.0733C30.9954 54.7114 30.792 55.1182 30.785 55.1112C30.785 55.1112 30.764 54.7114 30.4694 54.0102V54.0172ZM29.5087 63.3018C28.9617 63.6314 28.5129 63.6594 28.5129 63.6524C28.5129 63.6524 28.8495 63.435 29.3054 62.832C29.4596 62.6216 29.5578 62.3201 29.7612 62.0957C29.5298 62.5445 29.5087 62.9161 29.5087 63.3018ZM29.9084 61.8362C29.9084 61.8362 29.8874 61.8783 29.8734 61.8993C29.8313 61.9344 29.7962 61.9694 29.7542 62.0115C29.7121 62.0536 29.67 62.1097 29.6349 62.1658C29.5929 62.2219 29.5578 62.285 29.5227 62.3481C29.4877 62.4182 29.4526 62.4813 29.4176 62.5515C29.3825 62.6216 29.3404 62.6847 29.2983 62.7478C29.2563 62.8109 29.2142 62.874 29.1721 62.9301C29.13 62.9862 29.088 63.0353 29.0459 63.0844C29.0038 63.1335 28.9617 63.1756 28.9267 63.2106C28.8495 63.2878 28.7864 63.3439 28.7373 63.3789C28.6883 63.414 28.6602 63.435 28.6602 63.435C28.6602 63.435 28.7654 63.3439 28.9056 63.1756C28.9407 63.1335 28.9758 63.0914 29.0178 63.0423C29.0389 63.0213 29.0599 62.9933 29.0739 62.9652C29.095 62.9372 29.116 62.9091 29.1371 62.8811C29.1791 62.825 29.2142 62.7618 29.2563 62.7057C29.2983 62.6426 29.3334 62.5795 29.3685 62.5094C29.4035 62.4393 29.4386 62.3691 29.4737 62.306C29.5087 62.2359 29.5508 62.1728 29.5929 62.1167C29.6349 62.0606 29.684 62.0115 29.7261 61.9694C29.7682 61.9274 29.8173 61.8923 29.8593 61.8642C29.8804 61.8502 29.9014 61.8362 29.9154 61.8292C29.9154 61.8292 29.9154 61.8362 29.9084 61.8432V61.8362ZM27.0613 65.4266C26.4372 65.5458 26.0024 65.4266 26.0024 65.4126C26.0024 65.4126 26.3952 65.3214 27.0263 64.9147C27.2437 64.7744 27.44 64.522 27.7065 64.3747C27.3348 64.7183 27.1876 65.062 27.0613 65.4266ZM27.9309 64.1854C27.9309 64.1854 27.8958 64.2134 27.8748 64.2275C27.8257 64.2415 27.7766 64.2625 27.7205 64.2906C27.6644 64.3186 27.6083 64.3537 27.5522 64.3888C27.4961 64.4238 27.44 64.4729 27.3839 64.522C27.3278 64.5711 27.2717 64.6272 27.2156 64.6763C27.1595 64.7254 27.0964 64.7815 27.0333 64.8235C26.9702 64.8726 26.9141 64.9077 26.851 64.9498C26.7949 64.9918 26.7318 65.0199 26.6827 65.0549C26.6266 65.083 26.5775 65.111 26.5284 65.1321C26.4302 65.1812 26.3461 65.2092 26.29 65.2303C26.2339 65.2513 26.1988 65.2583 26.1988 65.2583C26.1988 65.2583 26.332 65.2092 26.5214 65.097C26.5705 65.069 26.6196 65.0409 26.6757 65.0059C26.7037 64.9918 26.7318 64.9708 26.7598 64.9568C26.7879 64.9357 26.8159 64.9217 26.844 64.9007C26.9001 64.8656 26.9562 64.8165 27.0193 64.7744C27.0754 64.7324 27.1315 64.6833 27.1946 64.6342C27.2507 64.5781 27.3068 64.529 27.3699 64.4799C27.426 64.4308 27.4891 64.3817 27.5452 64.3467C27.6013 64.3046 27.6644 64.2766 27.7205 64.2555C27.7766 64.2275 27.8327 64.2134 27.8818 64.1994C27.9028 64.1994 27.9239 64.1924 27.9449 64.1854C27.9449 64.1854 27.9379 64.1854 27.9309 64.1924V64.1854ZM25.2731 65.7211C25.2731 65.7211 25.2311 65.7352 25.21 65.7422C25.1609 65.7422 25.1048 65.7422 25.0487 65.7492C24.9856 65.7562 24.9225 65.7702 24.8594 65.7843C24.7963 65.7983 24.7262 65.8263 24.656 65.8544C24.5859 65.8824 24.5158 65.9105 24.4457 65.9455C24.3755 65.9736 24.2984 66.0016 24.2283 66.0227C24.1581 66.0437 24.088 66.0648 24.0179 66.0788C23.9478 66.0928 23.8847 66.1068 23.8215 66.1138C23.7584 66.1209 23.7023 66.1279 23.6462 66.1349C23.541 66.1489 23.4499 66.1419 23.3938 66.1419C23.3307 66.1419 23.3026 66.1419 23.3026 66.1419C23.3026 66.1419 23.4429 66.1419 23.6603 66.0998C23.7164 66.0928 23.7725 66.0788 23.8356 66.0648C23.8636 66.0648 23.8987 66.0507 23.9267 66.0437C23.9618 66.0367 23.9898 66.0297 24.0249 66.0227C24.095 66.0087 24.1581 65.9876 24.2283 65.9596C24.2984 65.9385 24.3685 65.9105 24.4387 65.8824C24.5088 65.8544 24.5859 65.8193 24.656 65.7913C24.7262 65.7632 24.8033 65.7422 24.8664 65.7282C24.9365 65.7141 24.9997 65.7001 25.0628 65.7001C25.1259 65.7001 25.182 65.7001 25.2311 65.7001C25.2521 65.7001 25.2802 65.7001 25.3012 65.7071C25.3012 65.7071 25.2942 65.7071 25.2872 65.7071L25.2731 65.7211ZM24.1722 66.0928C24.4246 66.0367 24.6981 65.8614 24.9997 65.8193C24.5298 66.0157 24.2703 66.2892 24.0249 66.5837C23.4008 66.4855 23.0291 66.219 23.0361 66.212C23.0361 66.212 23.4359 66.2611 24.1722 66.0928ZM20.7851 66.6398C20.2311 66.3312 19.9787 65.9526 19.9787 65.9526C19.9787 65.9526 20.3363 66.1349 21.0867 66.226C21.3461 66.2611 21.6547 66.191 21.9562 66.2541C21.4513 66.2821 21.1147 66.4434 20.7781 66.6398H20.7851ZM22.2507 66.2541C22.2507 66.2541 22.2016 66.2541 22.1806 66.2541C22.1315 66.2331 22.0824 66.219 22.0263 66.205C21.9702 66.191 21.9001 66.184 21.837 66.177C21.7669 66.1699 21.6967 66.1699 21.6196 66.177C21.5425 66.177 21.4653 66.177 21.3882 66.191C21.3111 66.191 21.2339 66.191 21.1568 66.191C21.0796 66.191 21.0095 66.184 20.9394 66.1699C20.8693 66.1629 20.8062 66.1489 20.743 66.1349C20.6799 66.1209 20.6238 66.1068 20.5747 66.0928C20.4696 66.0648 20.3924 66.0367 20.3293 66.0157C20.2732 65.9946 20.2452 65.9806 20.2452 65.9806C20.2452 65.9806 20.3784 66.0227 20.5888 66.0648C20.6449 66.0718 20.701 66.0858 20.7641 66.0928C20.7921 66.0928 20.8272 66.0998 20.8623 66.1068C20.8973 66.1068 20.9254 66.1138 20.9604 66.1209C21.0306 66.1279 21.1007 66.1349 21.1778 66.1349C21.255 66.1349 21.3251 66.1349 21.4022 66.1349C21.4794 66.1349 21.5565 66.1349 21.6336 66.1279C21.7108 66.1279 21.7879 66.1279 21.858 66.1419C21.9282 66.1489 21.9913 66.1629 22.0544 66.184C22.1175 66.198 22.1666 66.226 22.2157 66.2471C22.2367 66.2541 22.2578 66.2681 22.2718 66.2821C22.2718 66.2821 22.2648 66.2821 22.2577 66.2821L22.2507 66.2541ZM15.0208 62.4954C15.0208 62.4954 15.1821 62.867 15.694 63.421C15.8693 63.6104 16.1498 63.7576 16.3392 63.9961C15.9324 63.6945 15.5748 63.6034 15.1961 63.5402C14.9717 62.9442 15.0138 62.4954 15.0208 62.4954ZM16.5636 64.1854C16.5636 64.1854 16.5285 64.1573 16.5075 64.1363C16.4864 64.0942 16.4514 64.0451 16.4163 63.9961C16.3812 63.947 16.3392 63.8979 16.2901 63.8488C16.241 63.7997 16.1849 63.7506 16.1288 63.7015C16.0657 63.6524 16.0096 63.6104 15.9465 63.5613C15.8833 63.5122 15.8272 63.4631 15.7711 63.407C15.715 63.3579 15.666 63.3018 15.6169 63.2527C15.5678 63.2036 15.5257 63.1475 15.4836 63.0984C15.4416 63.0494 15.4065 63.0003 15.3784 62.9582C15.3153 62.874 15.2733 62.7969 15.2452 62.7408C15.2172 62.6847 15.2031 62.6567 15.2031 62.6567C15.2031 62.6567 15.2803 62.7759 15.4135 62.9442C15.4486 62.9862 15.4836 63.0283 15.5257 63.0774C15.5467 63.0984 15.5678 63.1265 15.5888 63.1475C15.6099 63.1686 15.6309 63.1966 15.6589 63.2177C15.708 63.2668 15.7571 63.3158 15.8132 63.3649C15.8693 63.414 15.9254 63.4631 15.9815 63.5122C16.0446 63.5613 16.1077 63.6104 16.1638 63.6524C16.227 63.7015 16.2761 63.7506 16.3251 63.8067C16.3742 63.8558 16.4163 63.9119 16.4514 63.961C16.4864 64.0101 16.5145 64.0662 16.5355 64.1083C16.5425 64.1293 16.5566 64.1503 16.5636 64.1714C16.5636 64.1714 16.5636 64.1644 16.5495 64.1573L16.5636 64.1854ZM16.9493 64.55C17.0334 64.8025 17.1947 65.2443 17.4962 65.63C17.3279 65.665 17.1526 65.7001 16.9563 65.7211C17.0755 65.4757 17.1596 65.09 16.8932 64.6202C16.9142 64.5991 16.9282 64.5781 16.9493 64.55ZM17.1947 64.6622C17.1947 64.6622 17.4682 64.9568 18.1414 65.3004C18.3728 65.4196 18.6884 65.4617 18.9478 65.623C18.464 65.4757 18.0923 65.5178 17.7136 65.5879C17.2999 65.111 17.1877 64.6693 17.1947 64.6622ZM19.2213 65.7211C19.2213 65.7211 19.1792 65.7071 19.1582 65.6931C19.1231 65.658 19.0741 65.623 19.025 65.5949C18.9759 65.5599 18.9198 65.5318 18.8567 65.5038C18.7936 65.4757 18.7234 65.4477 18.6533 65.4266C18.5832 65.4056 18.506 65.3775 18.4359 65.3565C18.3588 65.3284 18.2887 65.3004 18.2185 65.2723C18.1484 65.2443 18.0853 65.2092 18.0222 65.1812C17.9591 65.1531 17.903 65.1181 17.8469 65.083C17.7908 65.0479 17.7417 65.0199 17.6996 64.9848C17.6084 64.9217 17.5453 64.8656 17.4962 64.8305C17.4542 64.7885 17.4261 64.7674 17.4261 64.7674C17.4261 64.7674 17.5383 64.8516 17.7206 64.9638C17.7697 64.9918 17.8188 65.0199 17.8749 65.0479C17.903 65.062 17.931 65.076 17.9591 65.09C17.9871 65.104 18.0152 65.1181 18.0502 65.1321C18.1133 65.1601 18.1764 65.1882 18.2466 65.2162C18.3167 65.2443 18.3868 65.2723 18.457 65.2934C18.5341 65.3144 18.6042 65.3425 18.6814 65.3635C18.7515 65.3915 18.8216 65.4196 18.8847 65.4547C18.9478 65.4897 19.0039 65.5248 19.053 65.5598C19.1021 65.5949 19.1442 65.637 19.1863 65.6721C19.2003 65.6861 19.2143 65.7071 19.2283 65.7211C19.2283 65.7211 19.2213 65.7211 19.2143 65.7141L19.2213 65.7211ZM14.593 61.8432C14.593 61.8432 14.593 61.8362 14.593 61.8292C14.579 61.8081 14.572 61.7871 14.558 61.7661C14.551 61.717 14.5369 61.6609 14.5229 61.6048C14.5019 61.5487 14.4808 61.4856 14.4528 61.4224C14.4247 61.3593 14.3897 61.2962 14.3546 61.2331C14.3125 61.17 14.2705 61.1069 14.2284 61.0368C14.1863 60.9666 14.1512 60.9035 14.1162 60.8334C14.0811 60.7633 14.0531 60.7002 14.025 60.637C13.997 60.5739 13.9759 60.5108 13.9549 60.4477C13.9339 60.3916 13.9198 60.3355 13.9058 60.2794C13.8778 60.1742 13.8637 60.0901 13.8497 60.027C13.8427 59.9638 13.8427 59.9358 13.8427 59.9358C13.8427 59.9358 13.8707 60.076 13.9409 60.2794C13.9549 60.3285 13.9759 60.3846 14.004 60.4407C14.018 60.4687 14.025 60.4968 14.039 60.5319C14.0531 60.5599 14.0671 60.595 14.0811 60.623C14.1092 60.6861 14.1442 60.7492 14.1793 60.8194C14.2144 60.8825 14.2494 60.9526 14.2915 61.0157C14.3336 61.0788 14.3757 61.149 14.4177 61.2121C14.4598 61.2752 14.4879 61.3453 14.5159 61.4084C14.544 61.4715 14.565 61.5346 14.579 61.5978C14.593 61.6609 14.6001 61.717 14.6071 61.7661C14.6071 61.7871 14.6071 61.8152 14.6071 61.8362L14.593 61.8432ZM14.025 60.8124C14.1232 61.0508 14.3406 61.2892 14.4388 61.5767C14.1653 61.149 13.8497 60.9386 13.5131 60.7563C13.4991 60.1181 13.7024 59.7114 13.7095 59.7184C13.7095 59.7184 13.7305 60.1181 14.025 60.8194V60.8124ZM14.7473 62.3481C14.7473 62.3481 14.7964 62.3201 14.8174 62.306C14.8104 62.5725 14.8174 63.0423 14.9647 63.5052C14.7964 63.4771 14.6141 63.4491 14.4247 63.407C14.6141 63.2177 14.8315 62.8881 14.7403 62.3481H14.7473ZM22.7697 66.3733C22.7697 66.3733 22.7697 66.3172 22.7697 66.2892C22.9941 66.4294 23.4078 66.6608 23.8847 66.759C23.7795 66.8922 23.6673 67.0325 23.527 67.1727C23.4639 66.9133 23.2746 66.5626 22.7697 66.3663V66.3733ZM28.4077 63.94C28.4077 63.94 28.3727 63.8979 28.3517 63.8768C28.6111 63.8418 29.0739 63.7506 29.5087 63.5262C29.5087 63.7015 29.5157 63.8768 29.5087 64.0732C29.2913 63.9189 28.9267 63.7646 28.4148 63.94H28.4077ZM30.2661 61.4365C30.2661 61.4365 30.217 61.4084 30.1889 61.3944C30.4204 61.2682 30.8271 61.0297 31.1567 60.6651C31.2198 60.8264 31.2829 60.9947 31.339 61.177C31.0795 61.1069 30.6868 61.0858 30.2661 61.4295V61.4365ZM31.1567 58.4491C31.1567 58.4491 31.1006 58.4421 31.0725 58.4351C31.2478 58.2388 31.5494 57.8741 31.7317 57.4183C31.8439 57.5515 31.9631 57.6848 32.0823 57.839C31.8158 57.8601 31.4372 57.9793 31.1567 58.4421V58.4491ZM30.9743 55.3356C30.9743 55.3356 30.9182 55.3426 30.8902 55.3496C30.9884 55.1041 31.1426 54.6624 31.1637 54.1715C31.318 54.2556 31.4722 54.3398 31.6335 54.445C31.3881 54.5572 31.0725 54.7956 30.9743 55.3286V55.3356ZM29.7401 52.4744C29.7401 52.4744 29.691 52.5025 29.67 52.5165C29.677 52.25 29.67 51.7802 29.5227 51.3174C29.691 51.3454 29.8734 51.3735 30.0627 51.4156C29.8734 51.6049 29.656 51.9345 29.7471 52.4744H29.7401ZM21.7178 48.4492C21.7178 48.4492 21.7178 48.5053 21.7178 48.5334C21.4934 48.3931 21.0796 48.1617 20.6028 48.0636C20.708 47.9303 20.8202 47.7901 20.9604 47.6498C21.0235 47.9093 21.2129 48.2599 21.7178 48.4563V48.4492ZM16.0797 50.8826C16.0797 50.8826 16.1148 50.9247 16.1358 50.9457C15.8763 50.9808 15.4135 51.0719 14.9787 51.2963C14.9787 51.121 14.9717 50.9457 14.9787 50.7494C15.1961 50.9036 15.5608 51.0579 16.0727 50.8826H16.0797ZM14.2214 53.3861C14.2214 53.3861 14.2705 53.4141 14.2985 53.4282C14.0671 53.5544 13.6604 53.7928 13.3308 54.1575C13.2677 53.9962 13.2046 53.8279 13.1485 53.6455C13.4079 53.7157 13.8006 53.7367 14.2214 53.3931V53.3861ZM13.3308 56.3734C13.3308 56.3734 13.3869 56.3804 13.4149 56.3874C13.2396 56.5838 12.9381 56.9484 12.7558 57.4043C12.6436 57.271 12.5243 57.1378 12.4051 56.9835C12.6716 56.9625 13.0503 56.8433 13.3308 56.3804V56.3734ZM13.5131 59.487C13.5131 59.487 13.5692 59.48 13.5973 59.473C13.4991 59.7184 13.3448 60.1602 13.3238 60.6511C13.1695 60.5669 13.0152 60.4828 12.8539 60.3776C13.0994 60.2654 13.4149 60.027 13.5131 59.494V59.487ZM12.2368 60.1251C12.2368 60.1251 12.4823 60.6581 13.0994 61.4785C13.443 61.9484 14.1583 62.299 14.0671 63.3018C13.8357 63.2177 13.5832 63.1055 13.3097 62.9301C13.3097 62.9301 13.3238 62.9792 13.3588 63.0634C13.1414 62.8951 12.917 62.6216 12.7417 62.2008C12.2509 61.0718 12.2298 60.1321 12.2368 60.1251ZM11.5776 61.191C11.6267 61.2401 11.7039 61.3103 11.788 61.3874C11.8301 61.4295 11.8792 61.4715 11.9353 61.5136C11.9633 61.5347 11.9914 61.5557 12.0194 61.5767C12.0475 61.5978 12.0755 61.6188 12.1036 61.6469C12.1597 61.6889 12.2298 61.738 12.2929 61.7801C12.307 61.7871 12.321 61.8011 12.335 61.8081C12.342 61.8362 12.356 61.8713 12.3631 61.8993C12.328 61.8783 12.2859 61.8502 12.2508 61.8292C12.1877 61.7871 12.1246 61.738 12.0615 61.6889C12.0335 61.6679 12.0054 61.6398 11.9774 61.6188C11.9493 61.5978 11.9213 61.5697 11.9002 61.5487C11.8511 61.4996 11.802 61.4575 11.76 61.4154C11.6758 61.3313 11.6057 61.2541 11.5636 61.2051C11.5215 61.149 11.4935 61.1209 11.4935 61.1209C11.4935 61.1209 11.5215 61.149 11.5706 61.198L11.5776 61.191ZM12.0825 62.5094C11.4795 61.724 11.2691 60.9666 11.2691 60.9596C11.2691 60.9596 11.5566 61.3313 12.1877 61.8432C12.2508 61.8993 12.328 61.9414 12.4051 61.9905C12.5734 62.4182 12.8048 62.8179 13.1905 63.1265C12.9661 63.1405 12.5103 63.0844 12.0825 62.5094ZM13.7656 63.386C13.7656 63.386 14.1723 63.7997 15.0418 64.3677C15.5257 64.6903 16.3111 64.7744 16.5776 65.7492C16.3321 65.7492 16.0587 65.7281 15.7361 65.658C15.7361 65.658 15.7641 65.7001 15.8272 65.7632C15.5678 65.6791 15.2592 65.5037 14.9507 65.1671C14.1022 64.2766 13.7585 63.4 13.7656 63.393V63.386ZM13.5131 64.6132C13.5762 64.6412 13.6674 64.6833 13.7796 64.7254C13.8357 64.7464 13.8988 64.7674 13.9619 64.7955C13.997 64.8095 14.025 64.8165 14.0601 64.8305C14.0951 64.8446 14.1302 64.8516 14.1653 64.8656C14.2354 64.8866 14.3125 64.9077 14.3897 64.9287C14.4107 64.9287 14.4247 64.9357 14.4458 64.9427C14.4668 64.9708 14.4879 64.9918 14.5089 65.0199C14.4668 65.0129 14.4247 64.9988 14.3827 64.9918C14.3055 64.9708 14.2284 64.9498 14.1583 64.9217C14.1232 64.9077 14.0881 64.9007 14.0531 64.8866C14.018 64.8726 13.9829 64.8586 13.9549 64.8516C13.8918 64.8235 13.8287 64.8025 13.7796 64.7744C13.6674 64.7254 13.5832 64.6763 13.5201 64.6412C13.457 64.6061 13.429 64.5851 13.429 64.5851C13.429 64.5851 13.464 64.6061 13.5271 64.6342L13.5131 64.6132ZM14.4388 65.6791C13.6043 65.1461 13.1414 64.508 13.1414 64.501C13.1414 64.501 13.5341 64.7534 14.3055 65.0199C14.3827 65.0479 14.4738 65.069 14.558 65.083C14.8595 65.4336 15.2172 65.7211 15.687 65.8824C15.4836 65.9666 15.0278 66.0718 14.4318 65.6791H14.4388ZM16.3181 65.9245C16.3181 65.9245 16.8441 66.177 17.8539 66.4084C18.4219 66.5416 19.1863 66.3593 19.7683 67.1798C19.5369 67.2639 19.2704 67.341 18.9478 67.3831C18.9478 67.3831 18.9899 67.4112 19.067 67.4532C18.7936 67.4603 18.4429 67.4042 18.0432 67.1938C16.9422 66.6468 16.3181 65.9385 16.3251 65.9315L16.3181 65.9245ZM16.5005 67.1657C16.5706 67.1657 16.6688 67.1727 16.788 67.1798C16.8511 67.1798 16.9142 67.1798 16.9843 67.1798C17.0194 67.1798 17.0544 67.1798 17.0895 67.1798C17.1246 67.1798 17.1596 67.1798 17.2017 67.1798C17.2788 67.1798 17.356 67.1657 17.4331 67.1587C17.4542 67.1587 17.4682 67.1587 17.4892 67.1587C17.5173 67.1727 17.5453 67.1938 17.5734 67.2078C17.5313 67.2078 17.4822 67.2218 17.4401 67.2218C17.363 67.2288 17.2788 67.2358 17.2087 67.2358C17.1737 67.2358 17.1316 67.2358 17.0965 67.2358C17.0615 67.2358 17.0264 67.2358 16.9913 67.2358C16.9212 67.2358 16.8581 67.2358 16.795 67.2218C16.6758 67.2148 16.5776 67.1938 16.5075 67.1868C16.4373 67.1727 16.4023 67.1657 16.4023 67.1657C16.4023 67.1657 16.4444 67.1657 16.5145 67.1727L16.5005 67.1657ZM17.7347 67.853C16.7669 67.6426 16.1148 67.1938 16.1148 67.1868C16.1148 67.1868 16.5706 67.2919 17.384 67.2709C17.4682 67.2709 17.5523 67.2569 17.6435 67.2429C18.0432 67.4673 18.485 67.6215 18.9759 67.6075C18.8146 67.7618 18.4219 68.0142 17.7276 67.8459L17.7347 67.853ZM19.586 67.4462C19.586 67.4462 20.168 67.5023 21.1918 67.3761C21.7739 67.313 22.4261 66.8712 23.2535 67.4462C23.0642 67.6075 22.8398 67.7688 22.5523 67.9161C22.5523 67.9161 22.6014 67.9301 22.6925 67.9371C22.4331 68.0423 22.0894 68.1054 21.6406 68.0423C20.4205 67.902 19.593 67.4532 19.593 67.4392L19.586 67.4462ZM20.182 68.5472C20.2522 68.5262 20.3433 68.4981 20.4555 68.463C20.5116 68.442 20.5747 68.421 20.6379 68.3999C20.6729 68.3859 20.701 68.3789 20.736 68.3649C20.7711 68.3508 20.8062 68.3368 20.8342 68.3228C20.9043 68.2947 20.9745 68.2597 21.0446 68.2246C21.0586 68.2176 21.0796 68.2106 21.0937 68.2036C21.1217 68.2036 21.1568 68.2176 21.1848 68.2246C21.1428 68.2457 21.1077 68.2667 21.0656 68.2807C20.9955 68.3158 20.9184 68.3438 20.8482 68.3719C20.8132 68.3859 20.7781 68.3999 20.743 68.414C20.708 68.428 20.6729 68.435 20.6449 68.449C20.5818 68.4701 20.5186 68.4911 20.4555 68.5051C20.3363 68.5402 20.2452 68.5542 20.175 68.5682C20.1049 68.5823 20.0698 68.5823 20.0698 68.5823C20.0698 68.5823 20.1119 68.5752 20.175 68.5542L20.182 68.5472ZM21.5775 68.7646C20.5958 68.8978 19.8314 68.7015 19.8314 68.6945C19.8314 68.6945 20.3013 68.6313 21.0586 68.3438C21.1357 68.3158 21.2129 68.2737 21.297 68.2316C21.7528 68.3018 22.2157 68.2947 22.6715 68.1194C22.5733 68.3158 22.2928 68.6874 21.5845 68.7716L21.5775 68.7646ZM23.1764 67.7478C23.1764 67.7478 23.7374 67.6005 24.6631 67.1307C25.182 66.8712 25.6518 66.2331 26.6266 66.4925C26.5074 66.7099 26.3461 66.9343 26.1287 67.1798C26.1287 67.1798 26.1778 67.1798 26.2689 67.1517C26.0656 67.334 25.757 67.5164 25.3152 67.6075C24.1161 67.895 23.1834 67.7548 23.1834 67.7408L23.1764 67.7478ZM24.1091 68.5823C24.1652 68.5402 24.2423 68.4841 24.3405 68.4069C24.3896 68.3719 24.4387 68.3298 24.4877 68.2807C24.5158 68.2597 24.5438 68.2386 24.5649 68.2106C24.5929 68.1896 24.621 68.1615 24.649 68.1335C24.7051 68.0844 24.7612 68.0283 24.8103 67.9722C24.8243 67.9581 24.8314 67.9441 24.8454 67.9301C24.8804 67.9301 24.9085 67.9231 24.9436 67.9161C24.9155 67.9511 24.8804 67.9792 24.8524 68.0142C24.7963 68.0703 24.7402 68.1264 24.6841 68.1755C24.656 68.2036 24.628 68.2246 24.5999 68.2457C24.5719 68.2667 24.5438 68.2947 24.5158 68.3158C24.4597 68.3579 24.4106 68.3999 24.3615 68.435C24.2633 68.5051 24.1792 68.5542 24.1161 68.5893C24.053 68.6243 24.0179 68.6384 24.0179 68.6384C24.0179 68.6384 24.053 68.6173 24.1091 68.5752V68.5823ZM25.4975 68.3088C24.621 68.7646 23.8356 68.8417 23.8286 68.8417C23.8286 68.8417 24.2493 68.6243 24.8594 68.0914C24.9225 68.0353 24.9856 67.9722 25.0417 67.902C25.4975 67.8109 25.9253 67.6496 26.297 67.32C26.2689 67.5444 26.1357 67.9862 25.4975 68.3018V68.3088ZM26.6546 66.8081C26.6546 66.8081 27.1315 66.4785 27.8397 65.7211C28.2395 65.3004 28.4639 64.536 29.4666 64.4519C29.4246 64.6973 29.3544 64.9638 29.2352 65.2653C29.2352 65.2653 29.2773 65.2443 29.3544 65.1952C29.2212 65.4406 28.9968 65.7071 28.6181 65.9526C27.5943 66.6328 26.6686 66.8151 26.6616 66.8081H26.6546ZM28.0711 66.8572C28.0711 66.8572 28.1062 66.7941 28.1202 66.766C28.1343 66.7309 28.1553 66.7029 28.1693 66.6678C28.2044 66.6047 28.2324 66.5346 28.2675 66.4575C28.2745 66.4434 28.2815 66.4224 28.2885 66.4084C28.3166 66.3943 28.3446 66.3803 28.3727 66.3593C28.3587 66.4014 28.3376 66.4434 28.3166 66.4785C28.2815 66.5486 28.2465 66.6187 28.2114 66.6889C28.1904 66.7239 28.1763 66.752 28.1553 66.787C28.1343 66.8221 28.1202 66.8502 28.0992 66.8782C28.0641 66.9343 28.0291 66.9904 27.994 67.0395C27.9239 67.1377 27.8608 67.2148 27.8187 67.2709C27.7766 67.327 27.7486 67.3551 27.7486 67.3551C27.7486 67.3551 27.7696 67.32 27.8117 67.2639C27.8538 67.2078 27.9028 67.1236 27.966 67.0185C27.994 66.9694 28.0291 66.9133 28.0641 66.8502L28.0711 66.8572ZM29.0319 66.5416C28.3657 67.2709 27.6504 67.6145 27.6504 67.6145C27.6504 67.6145 27.966 67.2709 28.3657 66.5556C28.4078 66.4785 28.4428 66.4014 28.4709 66.3172C28.8636 66.0788 29.2142 65.7772 29.4526 65.3425C29.5017 65.5599 29.5298 66.0227 29.0389 66.5416H29.0319ZM29.5999 64.7324C29.5999 64.7324 29.9365 64.2555 30.3432 63.3088C30.5746 62.7759 30.5255 61.9835 31.4372 61.5627C31.4792 61.8011 31.5073 62.0816 31.4933 62.4042C31.4933 62.4042 31.5283 62.3691 31.5844 62.292C31.5424 62.5655 31.4302 62.8951 31.1497 63.2597C30.4203 64.2485 29.6139 64.7394 29.6069 64.7324H29.5999ZM30.8481 64.7674C30.8692 64.6973 30.8902 64.5991 30.9112 64.4869C30.9253 64.4308 30.9323 64.3677 30.9463 64.2976C30.9463 64.2625 30.9603 64.2275 30.9603 64.1924C30.9603 64.1573 30.9743 64.1223 30.9743 64.0802C30.9814 64.0031 30.9884 63.9259 30.9954 63.8488C30.9954 63.8278 30.9954 63.8137 30.9954 63.7927C31.0164 63.7717 31.0375 63.7436 31.0585 63.7226C31.0585 63.7646 31.0585 63.8137 31.0515 63.8558C31.0515 63.9329 31.0375 64.0171 31.0234 64.0872C31.0234 64.1223 31.0094 64.1644 31.0024 64.1994C31.0024 64.2345 30.9884 64.2695 30.9814 64.3046C30.9673 64.3747 30.9533 64.4378 30.9393 64.4939C30.9112 64.6132 30.8762 64.7043 30.8551 64.7674C30.8341 64.8305 30.8131 64.8656 30.8131 64.8656C30.8131 64.8656 30.8271 64.8305 30.8411 64.7604L30.8481 64.7674ZM31.7387 63.6665C31.36 64.5851 30.8131 65.1461 30.806 65.1461C30.806 65.1461 30.9884 64.7113 31.1146 63.9049C31.1286 63.8207 31.1356 63.7366 31.1356 63.6454C31.4231 63.2878 31.6546 62.8811 31.7247 62.3972C31.8439 62.5865 32.0262 63.0073 31.7457 63.6665H31.7387ZM31.6546 61.7731C31.6546 61.7731 31.8088 61.2121 31.8649 60.1812C31.9 59.5992 31.5844 58.8769 32.2927 58.1616C32.4189 58.372 32.5381 58.6244 32.6363 58.933C32.6363 58.933 32.6574 58.8909 32.6784 58.7998C32.7345 59.0732 32.7345 59.4239 32.6013 59.8587C32.2506 61.0368 31.6616 61.7731 31.6546 61.7731ZM32.8537 61.3804C32.8537 61.4505 32.8537 61.4856 32.8537 61.4856C32.8537 61.4856 32.8537 61.4435 32.8467 61.3734C32.8467 61.3032 32.8257 61.2051 32.8116 61.0858C32.8046 61.0297 32.7906 60.9596 32.7766 60.8965C32.7766 60.8614 32.7625 60.8264 32.7555 60.7913C32.7485 60.7563 32.7415 60.7212 32.7345 60.6861C32.7205 60.616 32.6994 60.5389 32.6784 60.4617C32.6784 60.4477 32.6714 60.4267 32.6644 60.4126C32.6784 60.3846 32.6854 60.3495 32.6994 60.3215C32.7135 60.3636 32.7275 60.4056 32.7345 60.4477C32.7555 60.5248 32.7766 60.602 32.7906 60.6791C32.7976 60.7142 32.8046 60.7563 32.8116 60.7913C32.8116 60.8264 32.8257 60.8614 32.8257 60.8965C32.8397 60.9666 32.8397 61.0297 32.8467 61.0929C32.8607 61.2121 32.8607 61.3102 32.8607 61.3804H32.8537ZM33.3025 60.041C33.2604 61.0297 32.9379 61.752 32.9308 61.752C32.9308 61.752 32.9519 61.2822 32.7976 60.4828C32.7836 60.3986 32.7555 60.3145 32.7275 60.2303C32.8747 59.7955 32.9519 59.3397 32.8537 58.8559C33.029 58.9891 33.3446 59.3257 33.3025 60.041ZM32.5802 58.2878C32.5802 58.2878 32.5311 57.7058 32.2296 56.717C32.0613 56.156 31.5143 55.588 31.9421 54.6764C32.1314 54.8307 32.3278 55.027 32.5311 55.2865C32.5311 55.2865 32.5311 55.2374 32.5311 55.1462C32.6784 55.3776 32.7976 55.7072 32.8186 56.163C32.8958 57.3902 32.5942 58.2878 32.5802 58.2878ZM33.562 57.5095C33.5339 57.4463 33.4848 57.3552 33.4287 57.25C33.4007 57.2009 33.3656 57.1448 33.3306 57.0817C33.3165 57.0536 33.2955 57.0186 33.2745 56.9905C33.2534 56.9625 33.2394 56.9274 33.2184 56.8994C33.1763 56.8362 33.1342 56.7731 33.0851 56.71C33.0781 56.696 33.0641 56.682 33.0501 56.6679C33.0501 56.6329 33.0501 56.6048 33.0501 56.5698C33.0781 56.6048 33.1062 56.6399 33.1272 56.675C33.1763 56.7381 33.2184 56.8082 33.2534 56.8713C33.2745 56.9064 33.2955 56.9344 33.3095 56.9695C33.3306 57.0045 33.3446 57.0326 33.3586 57.0607C33.3937 57.1238 33.4217 57.1799 33.4428 57.236C33.4918 57.3412 33.5269 57.4393 33.555 57.5024C33.576 57.5656 33.59 57.6076 33.59 57.6076C33.59 57.6076 33.576 57.5726 33.5409 57.5095H33.562ZM33.5339 56.0999C33.8355 57.0466 33.7723 57.832 33.7723 57.832C33.7723 57.832 33.6321 57.3832 33.2113 56.689C33.1693 56.6189 33.1132 56.5487 33.0571 56.4786C33.0501 56.0158 32.9659 55.567 32.7064 55.1392C32.9168 55.2023 33.3306 55.4127 33.5339 56.0999ZM32.2576 54.7044C32.2576 54.7044 32.0122 54.1715 31.3951 53.351C31.0515 52.8812 30.3362 52.5305 30.4274 51.5278C30.6588 51.6119 30.9112 51.7241 31.1847 51.8994C31.1847 51.8994 31.1707 51.8503 31.1356 51.7662C31.353 51.9345 31.5774 52.208 31.7527 52.6287C32.2436 53.7577 32.2647 54.6974 32.2576 54.7044ZM32.9168 53.6385C32.8677 53.5894 32.7906 53.5193 32.7064 53.4422C32.6644 53.4001 32.6153 53.358 32.5592 53.3159C32.5311 53.2949 32.5031 53.2739 32.475 53.2528C32.447 53.2318 32.4189 53.2108 32.3909 53.1827C32.3348 53.1406 32.2646 53.0916 32.2015 53.0495C32.1875 53.0425 32.1735 53.0284 32.1595 53.0214C32.1524 52.9934 32.1384 52.9583 32.1314 52.9303C32.1665 52.9513 32.2085 52.9793 32.2436 53.0004C32.3067 53.0425 32.3698 53.0915 32.433 53.1406C32.461 53.1617 32.489 53.1897 32.5171 53.2108C32.5452 53.2318 32.5732 53.2599 32.5942 53.2809C32.6433 53.33 32.6924 53.372 32.7345 53.4141C32.8186 53.4983 32.8888 53.5754 32.9308 53.6245C32.9729 53.6806 33.001 53.7087 33.001 53.7087C33.001 53.7087 32.9729 53.6806 32.9238 53.6315L32.9168 53.6385ZM32.4119 52.3202C33.015 53.1056 33.2254 53.8629 33.2254 53.8699C33.2254 53.8699 32.9379 53.4983 32.3067 52.9864C32.2436 52.9303 32.1665 52.8882 32.0893 52.8391C31.921 52.4113 31.6896 52.0116 31.3039 51.7031C31.5283 51.689 31.9841 51.7451 32.4119 52.3202ZM30.7289 51.4436C30.7289 51.4436 30.3222 51.0299 29.4526 50.4618C28.9688 50.1393 28.1833 50.0551 27.9169 49.0804C28.1623 49.0804 28.4358 49.1014 28.7584 49.1715C28.7584 49.1715 28.7303 49.1295 28.6672 49.0664C28.9267 49.1505 29.2352 49.3258 29.5438 49.6624C30.3923 50.553 30.7359 51.4296 30.7289 51.4366V51.4436ZM30.9814 50.2164C30.9182 50.1884 30.8271 50.1463 30.7149 50.1042C30.6588 50.0832 30.5957 50.0621 30.5326 50.0341C30.4975 50.0201 30.4694 50.013 30.4344 49.999C30.3993 49.985 30.3643 49.978 30.3292 49.964C30.2591 49.9429 30.1819 49.9219 30.1048 49.9008C30.0837 49.9008 30.0697 49.8938 30.0487 49.8868C30.0276 49.8588 30.0066 49.8377 29.9856 49.8097C30.0276 49.8167 30.0697 49.8307 30.1118 49.8377C30.1889 49.8588 30.2661 49.8798 30.3362 49.9079C30.3713 49.9219 30.4063 49.9289 30.4414 49.9429C30.4765 49.9569 30.5115 49.971 30.5396 49.978C30.6027 50.006 30.6658 50.0271 30.7149 50.0551C30.8271 50.1042 30.9112 50.1533 30.9743 50.1884C31.0375 50.2234 31.0655 50.2445 31.0655 50.2445C31.0655 50.2445 31.0304 50.2234 30.9673 50.1954L30.9814 50.2164ZM30.0557 49.1505C30.8902 49.6835 31.353 50.3216 31.353 50.3286C31.353 50.3286 30.9603 50.0762 30.1889 49.8097C30.1118 49.7816 30.0206 49.7606 29.9365 49.7466C29.6349 49.3959 29.2773 49.1084 28.8075 48.9471C29.0108 48.863 29.4666 48.7578 30.0627 49.1505H30.0557ZM28.1763 48.9051C28.1763 48.9051 27.6504 48.6526 26.6406 48.4212C26.0726 48.288 25.3082 48.4703 24.7262 47.6498C24.9576 47.5657 25.2241 47.4885 25.5466 47.4465C25.5466 47.4465 25.5046 47.4184 25.4274 47.3763C25.7009 47.3693 26.0515 47.4254 26.4513 47.6358C27.5522 48.1828 28.1763 48.891 28.1693 48.8981L28.1763 48.9051ZM27.994 47.6638C27.9239 47.6638 27.8257 47.6568 27.7065 47.6498C27.6434 47.6498 27.5803 47.6498 27.5101 47.6498C27.4751 47.6498 27.44 47.6498 27.405 47.6498C27.3699 47.6498 27.3348 47.6498 27.2928 47.6498C27.2156 47.6498 27.1385 47.6638 27.0613 47.6709C27.0403 47.6709 27.0263 47.6709 27.0052 47.6709C26.9772 47.6568 26.9491 47.6358 26.9211 47.6218C26.9632 47.6218 27.0123 47.6077 27.0543 47.6077C27.1315 47.6007 27.2156 47.5937 27.2857 47.5937C27.3208 47.5937 27.3629 47.5937 27.3979 47.5937C27.433 47.5937 27.4681 47.5937 27.5031 47.5937C27.5733 47.5937 27.6364 47.5937 27.6995 47.6077C27.8187 47.6148 27.9169 47.6358 27.987 47.6428C28.0571 47.6568 28.0922 47.6638 28.0922 47.6638C28.0922 47.6638 28.0501 47.6638 27.98 47.6568L27.994 47.6638ZM26.7598 46.9766C27.7275 47.187 28.3797 47.6358 28.3797 47.6428C28.3797 47.6428 27.9239 47.5376 27.1104 47.5587C27.0263 47.5587 26.9421 47.5727 26.851 47.5867C26.4513 47.3623 26.0095 47.208 25.5186 47.222C25.6799 47.0678 26.0726 46.8153 26.7668 46.9836L26.7598 46.9766ZM24.9085 47.3833C24.9085 47.3833 24.3265 47.3272 23.3026 47.4535C22.7206 47.5166 22.0684 47.9584 21.2409 47.3833C21.4303 47.2221 21.6547 47.0608 21.9422 46.9135C21.9422 46.9135 21.8931 46.8995 21.8019 46.8925C22.0614 46.7873 22.405 46.7242 22.8538 46.7873C24.074 46.9275 24.9015 47.3763 24.9015 47.3904L24.9085 47.3833ZM24.3124 46.2824C24.2423 46.3034 24.1511 46.3315 24.0389 46.3665C23.9828 46.3876 23.9197 46.4086 23.8566 46.4296C23.8215 46.4437 23.7935 46.4577 23.7584 46.4647C23.7234 46.4787 23.6883 46.4927 23.6603 46.5068C23.5901 46.5348 23.52 46.5699 23.4499 46.6049C23.4359 46.612 23.4148 46.619 23.4008 46.626C23.3727 46.626 23.3377 46.612 23.3096 46.6049C23.3517 46.5839 23.3868 46.5629 23.4288 46.5488C23.499 46.5138 23.5761 46.4857 23.6462 46.4577C23.6813 46.4437 23.7164 46.4296 23.7514 46.4156C23.7865 46.4016 23.8215 46.3946 23.8496 46.3805C23.9127 46.3595 23.9758 46.3385 24.0389 46.3244C24.1581 46.2894 24.2493 46.2754 24.3194 46.2613C24.3896 46.2473 24.4246 46.2473 24.4246 46.2473C24.4246 46.2473 24.3826 46.2543 24.3194 46.2754L24.3124 46.2824ZM22.9169 46.065C23.8987 45.9317 24.6631 46.1281 24.6631 46.1351C24.6631 46.1351 24.1932 46.1982 23.4359 46.4857C23.3587 46.5138 23.2816 46.5559 23.1974 46.5979C22.7416 46.5278 22.2788 46.5348 21.823 46.7101C21.9211 46.5138 22.2016 46.1421 22.9099 46.058L22.9169 46.065ZM21.3181 47.0818C21.3181 47.0818 20.7571 47.2291 19.8314 47.6989C19.2985 47.9654 18.8216 48.6246 17.8118 48.323C17.8258 48.302 18.0081 47.4815 19.1863 47.222C20.3854 46.9345 21.3181 47.0748 21.3181 47.0888V47.0818ZM20.3854 46.2473C20.3293 46.2894 20.2522 46.3455 20.154 46.4226C20.1049 46.4577 20.0558 46.4998 20.0067 46.5488C19.9787 46.5699 19.9576 46.5909 19.9296 46.619C19.9015 46.64 19.8735 46.6681 19.8454 46.6961C19.7893 46.7452 19.7332 46.8013 19.6841 46.8574C19.6701 46.8714 19.6631 46.8854 19.6491 46.8995C19.614 46.8995 19.586 46.9065 19.5509 46.9135C19.579 46.8784 19.614 46.8504 19.6421 46.8153C19.6982 46.7592 19.7543 46.7031 19.8104 46.654C19.8384 46.626 19.8665 46.6049 19.8945 46.5839C19.9226 46.5629 19.9506 46.5348 19.9787 46.5138C20.0348 46.4717 20.0839 46.4296 20.1329 46.3946C20.2311 46.3244 20.3153 46.2754 20.3784 46.2403C20.4415 46.2052 20.4766 46.1912 20.4766 46.1912C20.4766 46.1912 20.4415 46.2122 20.3854 46.2543V46.2473ZM18.9969 46.5208C19.8735 46.065 20.6589 45.9878 20.6659 45.9878C20.6659 45.9878 20.2451 46.2052 19.6351 46.7382C19.5719 46.7943 19.5088 46.8574 19.4527 46.9275C18.9969 47.0187 18.5692 47.18 18.1975 47.5096C18.2255 47.2852 18.3588 46.8434 18.9969 46.5278V46.5208ZM17.7417 48.0425C17.7417 48.0425 17.6996 48.1056 17.6856 48.1407C17.4892 48.295 17.1246 48.6105 16.6617 49.1084C16.262 49.5292 16.0376 50.2935 15.0348 50.3777C15.0769 50.1323 15.147 49.8658 15.2662 49.5642C15.2662 49.5642 15.2242 49.5853 15.147 49.6344C15.2803 49.3889 15.5047 49.1224 15.8833 48.877C16.7108 48.33 17.4752 48.0986 17.7417 48.0355V48.0425ZM16.4233 47.9724C16.4233 47.9724 16.3883 48.0355 16.3742 48.0636C16.3602 48.0986 16.3392 48.1267 16.3251 48.1617C16.2901 48.2248 16.262 48.295 16.227 48.3721C16.2199 48.3861 16.2129 48.4072 16.2059 48.4212C16.1779 48.4352 16.1498 48.4492 16.1218 48.4703C16.1358 48.4282 16.1568 48.3861 16.1779 48.3511C16.2129 48.2809 16.248 48.2108 16.2831 48.1407C16.3041 48.1056 16.3181 48.0776 16.3392 48.0425C16.3602 48.0075 16.3742 47.9794 16.3953 47.9514C16.4303 47.8953 16.4654 47.8392 16.5005 47.7901C16.5706 47.6919 16.6337 47.6148 16.6758 47.5587C16.7178 47.5026 16.7459 47.4745 16.7459 47.4745C16.7459 47.4745 16.7249 47.5096 16.6828 47.5657C16.6407 47.6218 16.5916 47.7059 16.5285 47.8111C16.5005 47.8602 16.4654 47.9163 16.4303 47.9794L16.4233 47.9724ZM15.4626 48.288C16.1288 47.5587 16.8441 47.215 16.8441 47.215C16.8441 47.215 16.5285 47.5587 16.1288 48.2739C16.0867 48.3511 16.0516 48.4282 16.0236 48.5124C15.6309 48.7508 15.2803 49.0523 15.0418 49.4871C14.9928 49.2697 14.9647 48.8069 15.4556 48.288H15.4626ZM14.8946 50.0972C14.8946 50.0972 14.558 50.574 14.1512 51.5207C13.9198 52.0537 13.9689 52.8461 13.0573 53.2669C13.0152 53.0284 12.9872 52.7479 13.0012 52.4254C13.0012 52.4254 12.9661 52.4604 12.91 52.5376C12.9521 52.2641 13.0643 51.9345 13.3448 51.5698C14.0741 50.5811 14.8806 50.0902 14.8876 50.0972H14.8946ZM13.6463 50.0621C13.6253 50.1323 13.6043 50.2304 13.5832 50.3426C13.5692 50.3987 13.5622 50.4618 13.5482 50.532C13.5482 50.567 13.5341 50.6021 13.5341 50.6372C13.5341 50.6722 13.5201 50.7073 13.5201 50.7494C13.5131 50.8265 13.5061 50.9036 13.4991 50.9808C13.4991 51.0018 13.4991 51.0158 13.4991 51.0369C13.478 51.0579 13.457 51.086 13.436 51.107C13.436 51.0649 13.436 51.0158 13.443 50.9738C13.443 50.8966 13.457 50.8125 13.471 50.7423C13.471 50.7073 13.4851 50.6652 13.4921 50.6301C13.4921 50.5951 13.5061 50.56 13.5131 50.525C13.5271 50.4548 13.5412 50.3917 13.5552 50.3356C13.5832 50.2164 13.6183 50.1252 13.6393 50.0621C13.6604 49.999 13.6814 49.964 13.6814 49.964C13.6814 49.964 13.6674 49.999 13.6534 50.0691L13.6463 50.0621ZM12.7558 51.1631C13.1344 50.2445 13.6814 49.6835 13.6884 49.6835C13.6884 49.6835 13.5061 50.1182 13.3799 50.9247C13.3658 51.0088 13.3588 51.093 13.3588 51.1841C13.0713 51.5418 12.8399 51.9485 12.7698 52.4324C12.6506 52.243 12.4682 51.8223 12.7487 51.1631H12.7558ZM12.8399 53.0565C12.8399 53.0565 12.6856 53.6175 12.6295 54.6483C12.5945 55.2304 12.91 55.9527 12.2018 56.6679C12.0755 56.4576 11.9563 56.2051 11.8581 55.8966C11.8581 55.8966 11.8371 55.9386 11.8161 56.0298C11.76 55.7563 11.76 55.4057 11.8932 54.9709C12.2438 53.7928 12.8329 53.0565 12.8399 53.0565ZM11.6408 53.4492C11.6408 53.3791 11.6408 53.344 11.6408 53.344C11.6408 53.344 11.6408 53.3861 11.6478 53.4562C11.6478 53.5263 11.6688 53.6245 11.6828 53.7437C11.6898 53.7998 11.7039 53.8699 11.7179 53.9331C11.7179 53.9681 11.7319 54.0032 11.7389 54.0382C11.7459 54.0733 11.753 54.1084 11.76 54.1434C11.774 54.2136 11.795 54.2907 11.8161 54.3678C11.8161 54.3819 11.8231 54.4029 11.8301 54.4169C11.8161 54.445 11.8091 54.48 11.795 54.5081C11.781 54.466 11.767 54.4239 11.76 54.3819C11.7389 54.3047 11.7179 54.2276 11.7039 54.1504C11.6969 54.1154 11.6898 54.0733 11.6828 54.0382C11.6828 54.0032 11.6688 53.9681 11.6688 53.9331C11.6618 53.8629 11.6548 53.7998 11.6478 53.7367C11.6337 53.6175 11.6337 53.5193 11.6337 53.4492H11.6408ZM11.192 54.7886C11.234 53.7998 11.5566 53.0775 11.5636 53.0775C11.5636 53.0775 11.5426 53.5474 11.6969 54.3468C11.7109 54.4309 11.7389 54.5151 11.767 54.5992C11.6197 55.034 11.5426 55.4898 11.6408 55.9737C11.4654 55.8405 11.1499 55.5039 11.192 54.7886ZM11.9142 56.5417C11.9142 56.5417 11.9633 57.1238 12.2649 58.1125C12.4332 58.6735 12.9802 59.2415 12.5524 60.1532C12.3631 59.9989 12.1667 59.8026 11.9633 59.5431C11.9633 59.5431 11.9633 59.5922 11.9633 59.6833C11.8161 59.4519 11.6969 59.1223 11.6758 58.6665C11.5987 57.4393 11.9002 56.5417 11.9142 56.5417ZM10.9325 57.3201C10.9605 57.3832 11.0096 57.4744 11.0657 57.5796C11.0938 57.6287 11.1288 57.6848 11.1639 57.7479C11.1779 57.7759 11.199 57.811 11.22 57.839C11.241 57.8671 11.2551 57.9022 11.2761 57.9302C11.3182 57.9933 11.3603 58.0564 11.4093 58.1195C11.4164 58.1336 11.4304 58.1476 11.4444 58.1616C11.4444 58.1967 11.4444 58.2247 11.4444 58.2598C11.4164 58.2247 11.3883 58.1897 11.3673 58.1546C11.3182 58.0915 11.2761 58.0214 11.241 57.9583C11.22 57.9232 11.199 57.8951 11.1849 57.8601C11.1639 57.825 11.1499 57.797 11.1359 57.7689C11.1008 57.7058 11.0727 57.6497 11.0517 57.5936C11.0026 57.4884 10.9676 57.3902 10.9395 57.3271C10.9185 57.264 10.9044 57.2219 10.9044 57.2219C10.9044 57.2219 10.9185 57.257 10.9535 57.3201H10.9325ZM10.7221 56.9975C10.7221 56.9975 10.8624 57.4463 11.2831 58.1406C11.3252 58.2107 11.3813 58.2808 11.4374 58.351C11.4444 58.8138 11.5286 59.2626 11.788 59.6904C11.5776 59.6272 11.1639 59.4169 10.9605 58.7296C10.659 57.7829 10.7221 56.9975 10.7221 56.9975Z" fill="#262626"/>
<path d="M17.8329 55.2096C18.0152 55.0413 18.1975 54.866 18.3869 54.6907C18.5762 54.5154 18.7655 54.333 18.9549 54.1507C19.1442 53.9684 19.3336 53.7861 19.5159 53.6037C19.7052 53.4214 19.8805 53.2391 20.0558 53.0708C20.2312 52.8955 20.3995 52.7272 20.5537 52.5659C20.715 52.4046 20.8623 52.2503 20.9955 52.1101C21.5425 51.542 21.8931 51.1423 21.8931 51.1423C21.8931 51.1423 21.4864 51.4789 20.8974 52.0049C20.7501 52.1381 20.5888 52.2784 20.4275 52.4326C20.2592 52.5869 20.0839 52.7482 19.9016 52.9165C19.7192 53.0848 19.5369 53.2531 19.3476 53.4354C19.1582 53.6107 18.9689 53.7931 18.7796 53.9754C18.5902 54.1577 18.4009 54.3401 18.2186 54.5224C18.0362 54.7047 17.8539 54.887 17.6786 55.0553C17.5033 55.2306 17.335 55.3989 17.1807 55.5602C17.0194 55.7215 16.8722 55.8758 16.7389 56.016C16.1919 56.5841 15.8413 56.9838 15.8413 56.9838C15.8413 56.9838 16.248 56.6472 16.8371 56.1212C16.9844 55.988 17.1456 55.8477 17.3069 55.6935C17.4752 55.5392 17.6505 55.3779 17.8329 55.2096Z" fill="#262626"/>
<path d="M17.2718 54.7115C17.398 54.5993 17.5383 54.4731 17.6715 54.3469C17.8117 54.2207 17.952 54.0874 18.0922 53.9542C18.2325 53.821 18.3798 53.6807 18.527 53.5405C18.6673 53.4002 18.8145 53.26 18.9548 53.1197C19.095 52.9795 19.2283 52.8462 19.3615 52.713C19.4948 52.5797 19.621 52.4465 19.7402 52.3273C19.8594 52.2011 19.9716 52.0818 20.0768 51.9767C20.4905 51.5349 20.75 51.2263 20.75 51.2263C20.75 51.2263 20.4344 51.4718 19.9786 51.8715C19.8664 51.9696 19.7402 52.0748 19.614 52.194C19.4877 52.3062 19.3475 52.4325 19.2142 52.5587C19.074 52.6849 18.9337 52.8182 18.7935 52.9514C18.6532 53.0846 18.506 53.2249 18.3587 53.3651C18.2185 53.5054 18.0712 53.6456 17.931 53.7859C17.7907 53.9261 17.6575 54.0664 17.5242 54.1926C17.391 54.3259 17.2648 54.4591 17.1455 54.5783C17.0263 54.7045 16.9141 54.8238 16.8089 54.9289C16.3952 55.3707 16.1357 55.6793 16.1357 55.6793C16.1357 55.6793 16.4513 55.4338 16.9071 55.0341C17.0193 54.936 17.1455 54.8308 17.2718 54.7115Z" fill="#262626"/>
<path d="M28.3725 1.29763C26.8999 1.73942 21.6755 1.80254 17.2787 1.69735C12.8257 1.59216 7.71357 0.743643 4.08808 0.799743C0.455585 0.848831 0.224171 3.66787 0.00678174 7.66502C-0.210607 11.6622 3.66032 15.5121 8.19743 21.8865C12.7345 28.2609 15.9463 37.0265 15.9463 37.0265C17.0052 39.6773 17.454 40.8624 17.454 40.8624C17.454 40.8624 19.5437 42.2719 20.6166 42.7207L20.6657 43.3519C20.1538 43.5833 19.8032 44.1022 19.8172 44.6842C13.4288 45.9044 8.82856 51.7809 9.34749 58.4148C9.90849 65.5325 16.1497 70.8621 23.2674 70.3081C30.3851 69.7541 35.7147 63.5059 35.1607 56.3882C34.6417 49.7543 29.179 44.6702 22.6713 44.4668C22.5872 43.8848 22.1664 43.429 21.6265 43.2817L21.5633 42.4683C22.2365 41.5496 23.2393 39.3337 23.2393 39.3337C21.7387 36.0448 21.8859 33.4992 23.029 31.2131C24.179 28.9271 27.1664 22.0898 28.7442 18.296C30.1607 14.895 32.3486 10.3859 33.8423 6.91468C35.336 3.44347 34.3332 3.27517 32.3066 1.03817C30.2799 -1.19883 29.9013 0.841818 28.3585 1.30465L28.3725 1.29763ZM5.56072 8.84313C5.4976 8.78002 5.39943 8.68885 5.28723 8.56964C5.05581 8.3242 4.71921 7.98059 4.34053 7.55282C4.1512 7.33543 3.94783 7.10402 3.73745 6.84456C3.52708 6.5921 3.30969 6.31861 3.0923 6.0311C2.87491 5.74359 2.65752 5.44205 2.44013 5.13349C2.33495 4.97922 2.22976 4.81793 2.12457 4.65664C2.02639 4.49535 1.92121 4.33406 1.82303 4.15875C1.78095 4.0746 1.73187 3.99746 1.68979 3.89929L1.62668 3.76605C1.60564 3.71696 1.59162 3.67489 1.57058 3.6258C1.5285 3.53464 1.50747 3.43646 1.47942 3.33828C1.45838 3.24011 1.43734 3.14193 1.42332 3.04376C1.40228 2.84039 1.4163 2.63703 1.4724 2.44068C1.5285 2.24433 1.63369 2.06901 1.76693 1.92876C2.03341 1.64125 2.37001 1.47996 2.68557 1.36776C3.00815 1.25556 3.3167 1.19946 3.60422 1.1644C3.89173 1.12933 4.15821 1.12232 4.38962 1.12232C4.62104 1.12232 4.83141 1.12933 4.9927 1.14336C5.161 1.15738 5.29424 1.17141 5.37839 1.17842C5.46955 1.18543 5.51163 1.19245 5.51163 1.19245C5.51163 1.19245 5.46254 1.19245 5.37138 1.19245C5.28021 1.19245 5.14698 1.19245 4.98569 1.19245C4.64909 1.19245 4.17223 1.2205 3.61123 1.31166C3.33073 1.36075 3.0362 1.43087 2.73466 1.54307C2.44013 1.65527 2.13859 1.82357 1.92121 2.06901C1.81602 2.19524 1.73187 2.3425 1.68979 2.49678C1.64772 2.65807 1.6407 2.82637 1.65473 3.00168C1.66174 3.08583 1.68278 3.177 1.70382 3.26115C1.73187 3.3453 1.7529 3.43646 1.78797 3.52061L1.83706 3.64684L1.89316 3.76605C1.92822 3.8502 1.98432 3.93435 2.02639 4.0185C2.11756 4.17979 2.22275 4.34108 2.31391 4.50237C2.4191 4.66365 2.51727 4.81793 2.62246 4.97922C2.72765 5.13349 2.83284 5.28777 2.93802 5.44205C3.04321 5.58931 3.1484 5.74359 3.25359 5.88384C3.46397 6.17135 3.66733 6.45185 3.86368 6.71132C4.06003 6.97078 4.24937 7.21622 4.4317 7.44062C4.60701 7.66502 4.77531 7.86839 4.91556 8.05071C5.06283 8.23304 5.18905 8.38731 5.29424 8.52055C5.50462 8.78002 5.63084 8.92728 5.63084 8.92728C5.63084 8.92728 5.59578 8.89222 5.53267 8.82911L5.56072 8.84313ZM21.3319 45.5959C27.8396 45.084 33.5478 49.9577 34.0597 56.4653C34.5716 62.9729 29.6979 68.6812 23.1902 69.1931C16.6826 69.705 10.9744 64.8313 10.4625 58.3236C9.95057 51.816 14.8243 46.1078 21.3319 45.5959ZM20.3782 44.5861C20.3993 44.3336 20.5255 44.1092 20.7218 43.9619V43.976C20.7429 44.2424 20.9743 44.4388 21.2408 44.4178C21.5072 44.3967 21.7036 44.1653 21.6826 43.8988V43.8848C21.8929 44.004 22.0542 44.2074 22.1173 44.4528C21.8298 44.4528 21.5423 44.4668 21.2478 44.4879C20.9603 44.5089 20.6657 44.544 20.3852 44.5861H20.3782ZM26.6054 45.7151C27.6572 46.0938 28.7863 46.6828 29.8872 47.5173C30.9742 48.3588 32.0261 49.4528 32.8605 50.7922C33.7021 52.1316 34.3262 53.7094 34.5926 55.4134C34.8661 57.1175 34.789 58.9337 34.3121 60.6869C33.8353 62.44 32.9517 64.102 31.7596 65.5045C30.5604 66.9 29.0527 68.036 27.3978 68.7793C25.7428 69.5227 23.9546 69.8803 22.2365 69.8803C20.5115 69.8803 18.8495 69.5086 17.3979 68.8915C15.9393 68.2744 14.6981 67.4049 13.6953 66.4652C12.6995 65.5115 11.9421 64.4877 11.4022 63.5059C10.8622 62.5312 10.5116 61.6125 10.2942 60.8411C10.0768 60.0698 9.98563 59.4456 9.92252 59.0179C9.88044 58.5901 9.8594 58.3657 9.8594 58.3657C9.8594 58.3657 9.88745 58.5901 9.92953 59.0179C9.99966 59.4386 10.0908 60.0627 10.3152 60.8341C10.5396 61.6055 10.8973 62.5101 11.4442 63.4778C11.9912 64.4456 12.7556 65.4554 13.7514 66.4021C14.7542 67.3348 15.9954 68.1833 17.44 68.7863C18.8845 69.3964 20.5255 69.7471 22.2365 69.7471C23.9476 69.7471 25.7078 69.3894 27.3417 68.6531C28.9756 67.9168 30.4623 66.7948 31.6474 65.4133C32.8255 64.0248 33.7021 62.3839 34.1789 60.6518C34.6558 58.9197 34.7329 57.1245 34.4664 55.4345C34.1999 53.7444 33.5969 52.1806 32.7694 50.8483C31.9419 49.5159 30.9111 48.4219 29.8311 47.5804C28.7442 46.7459 27.6292 46.1499 26.5843 45.7572C25.5395 45.3645 24.5857 45.1541 23.7933 45.0559C23.0009 44.9507 22.3698 44.9577 21.942 44.9577C21.5143 44.9788 21.2828 44.9858 21.2828 44.9858C21.2828 44.9858 21.5143 44.9717 21.942 44.9507C22.3698 44.9507 23.0009 44.9367 23.8003 45.0279C24.5928 45.119 25.5535 45.3224 26.6054 45.7011V45.7151ZM21.921 36.5847C21.8509 36.4305 21.7597 36.2411 21.6615 36.0237C21.5563 35.8064 21.4441 35.5679 21.3179 35.3015C21.1917 35.035 21.0584 34.7475 20.9112 34.4459C20.7639 34.1444 20.6096 33.8218 20.4554 33.4922C20.2941 33.1626 20.1328 32.819 19.9645 32.4754C19.8803 32.3001 19.7962 32.1248 19.712 31.9495C19.6279 31.7741 19.5367 31.5988 19.4526 31.4235C19.2843 31.0729 19.1089 30.7223 18.9336 30.3786C18.7653 30.035 18.597 29.6914 18.4287 29.3618C18.0991 28.7027 17.7906 28.0926 17.5311 27.5666L16.6546 25.8135C16.6546 25.8135 16.7668 25.9748 16.9491 26.2693C17.0402 26.4166 17.1524 26.5919 17.2717 26.7952C17.3979 26.9986 17.5381 27.23 17.6854 27.4895C17.8327 27.7419 17.994 28.0224 18.1552 28.317C18.3165 28.6115 18.4918 28.92 18.6672 29.2496C18.8355 29.5722 19.0248 29.9088 19.1931 30.2524C19.3684 30.596 19.5437 30.9467 19.719 31.2973C19.8944 31.6479 20.0627 32.0056 20.2239 32.3562C20.3922 32.7068 20.5465 33.0504 20.6938 33.387C20.8481 33.7236 20.9813 34.0532 21.1145 34.3618C21.1777 34.516 21.2408 34.6703 21.3039 34.8176C21.36 34.9649 21.4161 35.1051 21.4722 35.2454C21.5844 35.5188 21.6826 35.7713 21.7667 35.9957C21.8509 36.2201 21.921 36.4164 21.9771 36.5777C22.0893 36.9003 22.1594 37.0897 22.1594 37.0897C22.1594 37.0897 22.0753 36.9143 21.928 36.6058L21.921 36.5847ZM17.9869 27.1669C17.9869 27.1669 7.4541 9.48828 3.52007 5.46308C3.52007 5.46308 11.0515 6.96377 16.1356 6.91468C20.834 6.87261 28.106 5.92591 28.106 5.92591C28.106 5.92591 20.2239 21.2904 17.994 27.1739L17.9869 27.1669ZM31.1845 1.10829C31.1775 1.25556 31.1495 1.3888 31.1144 1.52204C31.0443 1.7815 30.9601 2.02694 30.862 2.26536C30.6726 2.7352 30.4482 3.177 30.2379 3.58372C30.0275 3.99045 29.8101 4.36913 29.6067 4.71975C29.2 5.414 28.8424 5.98201 28.5899 6.37471C28.4637 6.57107 28.3585 6.72534 28.2884 6.83053C28.2182 6.93572 28.1832 6.99182 28.1832 6.99182C28.1832 6.99182 28.3094 6.75339 28.5338 6.34666C28.7582 5.93292 29.0738 5.34387 29.4454 4.6356C29.6278 4.27796 29.8241 3.89227 30.0205 3.47853C30.2168 3.06479 30.4132 2.623 30.5955 2.16719C30.6796 1.93577 30.7638 1.69735 30.8199 1.45892C30.8479 1.33971 30.869 1.2205 30.869 1.10128C30.869 0.989082 30.855 0.876881 30.8129 0.848831C30.7989 0.834806 30.7778 0.820781 30.7357 0.813768C30.6937 0.813768 30.6446 0.813768 30.5885 0.820781C30.4833 0.841818 30.3641 0.890906 30.2519 0.939994C30.0205 1.04518 29.8031 1.18543 29.5787 1.3327L29.2491 1.5571L29.1649 1.6132C29.1299 1.63424 29.1088 1.64826 29.0738 1.6693C29.0107 1.70436 28.9475 1.74644 28.8844 1.77449C28.632 1.90071 28.3655 1.97785 28.106 2.04798C27.5801 2.18121 27.0612 2.24433 26.5563 2.29341C26.0514 2.3425 25.5675 2.35653 25.1047 2.36354C24.6418 2.37055 24.2071 2.36354 23.8074 2.34951C23.0009 2.32146 22.3347 2.27238 21.8649 2.22329C21.6335 2.20225 21.4511 2.18121 21.3249 2.16719C21.1987 2.15316 21.1356 2.14615 21.1356 2.14615C21.1356 2.14615 21.4021 2.15316 21.8719 2.16018C22.3417 2.16018 23.0079 2.1742 23.8074 2.16018C24.2071 2.15316 24.6418 2.13914 25.0977 2.1181C25.5535 2.09706 26.0373 2.05499 26.5282 2.0059C27.0191 1.9498 27.531 1.87266 28.0289 1.73942C28.2743 1.67631 28.5198 1.59216 28.7442 1.47996C28.8003 1.45191 28.8494 1.42386 28.9055 1.39581C28.9335 1.38178 28.9686 1.36075 28.9826 1.34672L29.0668 1.29062C29.179 1.21348 29.2912 1.13635 29.4034 1.06622C29.6348 0.918956 29.8662 0.778705 30.1186 0.659492C30.2449 0.603392 30.3781 0.547291 30.5324 0.519241C30.6095 0.505216 30.6937 0.498204 30.7848 0.505216C30.876 0.519241 30.9812 0.561317 31.0583 0.638454C31.1284 0.715593 31.1635 0.813768 31.1775 0.890906C31.1916 0.975057 31.1916 1.05219 31.1916 1.12232L31.1845 1.10829Z" fill="#262626"/>
</g>
<defs>
<clipPath id="clip0_0_2153">
<rect width="35.21" height="70.3428" fill="white"/>
</clipPath>
</defs>
</svg>
