<svg width="133" height="48" viewBox="0 0 133 48" fill="none" xmlns="http://www.w3.org/2000/svg">
<g clip-path="url(#clip0_0_2166)">
<path d="M119.475 25.3238L119.85 10.8431C119.876 9.97076 119.187 9.24673 118.315 9.22056C118.297 9.22056 118.288 9.22056 118.271 9.22056C117.416 9.22056 116.718 9.90098 116.692 10.7559L116.657 12.1254L67.9286 3.31486V1.4568C67.9286 0.654249 67.2744 0 66.4718 0C65.6693 0 65.015 0.654249 65.015 1.4568V3.31486L16.304 12.1341L16.2691 10.7646C16.2429 9.9097 15.545 9.22928 14.6901 9.22928C14.6727 9.22928 14.664 9.22928 14.6465 9.22928C13.7742 9.25545 13.0851 9.97949 13.1112 10.8518L13.4863 25.3325L1.6226 27.9321L0.00878906 28.2897L1.59643 28.7608L66.3148 47.7951L66.4893 47.8474L66.6637 47.7951L131.382 28.7608L132.97 28.2897L131.356 27.9321L119.492 25.3325L119.475 25.3238ZM118.175 11.5584C118.201 11.3142 118.227 11.131 118.236 11.0001C118.253 10.8693 118.262 10.7995 118.262 10.7995C118.262 10.7995 118.262 10.8693 118.28 11.0001C118.28 11.131 118.306 11.3229 118.315 11.5584C118.341 12.0382 118.376 12.7273 118.393 13.5561C118.402 13.966 118.419 14.4197 118.419 14.8907C118.419 15.3618 118.437 15.859 118.428 16.3824C118.428 16.8971 118.428 17.4292 118.419 17.9701C118.41 18.5109 118.402 19.0605 118.393 19.61C118.376 20.1596 118.358 20.7092 118.341 21.25C118.323 21.7909 118.288 22.323 118.271 22.8377C118.253 23.3523 118.219 23.8496 118.184 24.3206C118.158 24.7917 118.123 25.2366 118.088 25.6466C118.027 26.4666 117.957 27.1557 117.905 27.6355C117.852 28.1153 117.817 28.3857 117.817 28.3857C117.817 28.3857 117.791 28.1066 117.765 27.6268C117.739 27.147 117.704 26.4578 117.686 25.6291C117.678 25.2191 117.66 24.7655 117.66 24.2945C117.66 23.8234 117.643 23.3262 117.652 22.8028C117.652 22.2881 117.652 21.756 117.66 21.2151C117.669 20.6743 117.678 20.1247 117.686 19.5751C117.704 19.0256 117.721 18.476 117.739 17.9352C117.756 17.3943 117.791 16.8622 117.809 16.3475C117.826 15.8328 117.861 15.3356 117.896 14.8645C117.922 14.3935 117.957 13.9486 117.992 13.5386C118.053 12.7186 118.123 12.0295 118.175 11.5497V11.5584ZM66.7859 35.5912C66.7859 36.1756 66.7597 36.7427 66.7422 37.2835C66.7248 37.8243 66.7073 38.3303 66.6812 38.7926C66.6376 39.726 66.5852 40.5111 66.5503 41.0607C66.5067 41.6103 66.4805 41.9156 66.4805 41.9156C66.4805 41.9156 66.4456 41.6015 66.4107 41.0607C66.3671 40.5111 66.3235 39.7348 66.2799 38.7926C66.2537 38.3216 66.2363 37.8156 66.2188 37.2835C66.2014 36.7427 66.1839 36.1844 66.1752 35.5912C66.1665 35.0067 66.149 34.3961 66.149 33.7854C66.149 33.1748 66.149 32.5467 66.1403 31.9187C66.1403 31.2906 66.1403 30.6712 66.149 30.0519C66.149 29.4412 66.1665 28.8306 66.1752 28.2461C66.1752 27.6617 66.2014 27.0947 66.2188 26.5538C66.2363 26.013 66.2537 25.507 66.2799 25.0447C66.3235 24.1113 66.3759 23.3262 66.4107 22.7766C66.4282 22.5062 66.4544 22.2881 66.4631 22.1398C66.4718 21.9915 66.4805 21.913 66.4805 21.913C66.4805 21.913 66.4805 21.9915 66.498 22.1398C66.5067 22.2881 66.5329 22.4975 66.5503 22.7766C66.5939 23.3262 66.6376 24.1026 66.6812 25.0447C66.7073 25.5157 66.7248 26.0217 66.7422 26.5538C66.7597 27.0947 66.7771 27.6529 66.7859 28.2461C66.7946 28.8306 66.812 29.4412 66.8207 30.0519C66.8207 30.6625 66.8207 31.2906 66.8295 31.9187C66.8295 32.5467 66.8295 33.1661 66.8207 33.7854C66.8207 34.3961 66.8033 35.0067 66.7946 35.5912H66.7859ZM99.4983 20.9447L91.9963 19.3047L97.9805 17.9788L105.256 19.5141L99.4983 20.9447ZM107.637 20.02L115.654 21.7124L109.818 23.2041L101.836 21.4507L107.637 20.0113V20.02ZM97.7711 21.3722L96.1747 21.7647L88.6029 20.0462L90.1993 19.6885L97.7711 21.3634V21.3722ZM89.4752 23.4309L68.1641 28.7259V24.5823L81.6766 21.5902L89.4839 23.4309H89.4752ZM68.1641 23.4919V21.9217C68.1641 20.9883 67.4052 20.2294 66.4718 20.2294C65.5384 20.2294 64.7795 20.9883 64.7795 21.9217V23.4919L53.6485 21.0232L66.4805 17.9962L79.3125 21.0232L68.1816 23.4919H68.1641ZM64.7708 24.5823V28.7259L43.4597 23.4309L51.2671 21.5902L64.7795 24.5823H64.7708ZM36.7602 21.7734L35.1638 21.3809L42.7356 19.706L44.332 20.0637L36.7602 21.7821V21.7734ZM33.4366 20.9447L27.6792 19.5141L34.9544 17.9788L40.9386 19.3047L33.4366 20.9447ZM31.0987 21.4594L23.1169 23.2128L17.281 21.7211L25.2977 20.0288L31.0987 21.4681V21.4594ZM32.8347 21.8868L34.4572 22.2881L26.5451 24.0851L24.8528 23.6489L32.8347 21.8868ZM41.2003 23.963L64.7708 29.8163V33.8814L33.3319 25.821L41.2003 23.963ZM68.1641 29.8163L91.7346 23.963L99.603 25.821L68.1641 33.8814V29.8163ZM98.4777 22.2881L100.1 21.8868L108.082 23.6489L106.39 24.0851L98.4777 22.2881ZM110.376 24.1549L116.299 25.4634L116.273 26.3183L108.649 24.5911L110.368 24.1549H110.376ZM112.121 23.71L116.378 22.6196L116.326 24.6347L112.121 23.71ZM109.992 19.4268L116.5 17.813L116.422 20.7877L109.992 19.4268ZM114.834 17.1326L107.611 18.9296L100.475 17.4205L107.873 15.7805L114.834 17.1326ZM110.472 15.2048L116.596 13.8526L116.535 16.3824L110.481 15.2048H110.472ZM97.963 16.8884L67.9199 10.5378V8.00801L105.264 15.2745L97.9717 16.8884H97.963ZM95.4594 17.4467L89.5188 18.7639L67.9199 14.0271V11.6195L95.4594 17.4467ZM87.7393 19.1564L86.1691 19.5054L67.9199 15.3705V14.7773L87.7393 19.1564ZM46.7658 19.5054L45.1956 19.1564L65.015 14.7773V15.3705L46.7658 19.5054ZM43.4161 18.7639L37.4755 17.4467L65.015 11.6195V14.0271L43.4161 18.7639ZM34.9719 16.8884L27.6792 15.2745L65.0237 8.00801V10.5378L34.9719 16.8884ZM32.4596 17.4205L25.3239 18.9296L18.101 17.1326L25.0622 15.7805L32.4596 17.4205ZM16.4086 16.3824L16.3476 13.8526L22.4714 15.2048L16.4174 16.3824H16.4086ZM22.9511 19.4268L16.522 20.7877L16.4435 17.813L22.9511 19.4268ZM20.8226 23.71L16.618 24.6347L16.5657 22.6196L20.8226 23.71ZM22.5673 24.1549L24.2858 24.5911L16.6616 26.3183L16.6354 25.4634L22.5586 24.1549H22.5673ZM31.1162 26.3444L64.7795 34.9718V38.9584L22.2794 28.4206L31.1074 26.3357L31.1162 26.3444ZM68.1729 34.9718L101.836 26.3444L110.664 28.4293L68.1641 38.9671V34.9805L68.1729 34.9718ZM115.523 12.9978L107.881 14.6901L67.9286 6.92632V4.38783L115.514 12.9978H115.523ZM66.4107 2.10232C66.4544 1.69233 66.4805 1.4568 66.4805 1.4568C66.4805 1.4568 66.5154 1.69233 66.5503 2.10232C66.5939 2.51232 66.6376 3.1055 66.6812 3.81209C66.7073 4.16103 66.7248 4.54485 66.7422 4.95485C66.7597 5.35612 66.7771 5.78357 66.7859 6.22846C66.7946 6.67335 66.812 7.12696 66.8207 7.58929C66.8207 8.05163 66.8207 8.52269 66.8295 8.99375C66.8295 9.46481 66.8295 9.93587 66.8207 10.3982C66.8207 10.8605 66.8033 11.3142 66.7946 11.759C66.7946 12.2039 66.7684 12.6227 66.751 13.0326C66.7335 13.4339 66.7161 13.8177 66.6899 14.1754C66.6463 14.882 66.5939 15.4665 66.559 15.8852C66.5154 16.2952 66.4893 16.5307 66.4893 16.5307C66.4893 16.5307 66.4544 16.2952 66.4195 15.8852C66.3759 15.4752 66.3322 14.882 66.2886 14.1754C66.2625 13.8265 66.245 13.4426 66.2276 13.0326C66.2101 12.6314 66.1927 12.2039 66.1839 11.759C66.1752 11.3142 66.1578 10.8605 66.1578 10.3982C66.1578 9.93587 66.1578 9.46481 66.149 8.99375C66.149 8.52269 66.149 8.05163 66.1578 7.58929C66.1578 7.12696 66.1752 6.67335 66.1839 6.22846C66.1839 5.78357 66.2101 5.36485 66.2276 4.95485C66.245 4.55358 66.2625 4.16975 66.2886 3.81209C66.3322 3.1055 66.3846 2.52104 66.4195 2.10232H66.4107ZM65.0237 6.92632L25.0796 14.6988L17.438 13.0065L65.0237 4.38783V6.92632ZM14.7774 24.3294C14.7512 23.8583 14.7163 23.3611 14.6901 22.8464C14.664 22.3317 14.6291 21.7996 14.6204 21.2587C14.6029 20.7179 14.5855 20.1683 14.568 19.6188C14.5593 19.0692 14.5506 18.5196 14.5419 17.9788C14.5331 17.4379 14.5419 16.9058 14.5331 16.3911C14.5331 15.8765 14.5331 15.3792 14.5419 14.8994C14.5419 14.4284 14.5593 13.9748 14.568 13.5648C14.5855 12.7361 14.6204 12.0469 14.6465 11.5671C14.6553 11.3229 14.6727 11.1397 14.6814 11.0088C14.6901 10.878 14.6989 10.8082 14.6989 10.8082C14.6989 10.8082 14.6989 10.878 14.725 11.0088C14.7425 11.1397 14.7687 11.3229 14.7861 11.5671C14.8384 12.0469 14.9082 12.7361 14.9693 13.5561C15.0042 13.966 15.0391 14.4109 15.0653 14.882C15.0914 15.3531 15.1263 15.8503 15.1525 16.365C15.1787 16.8796 15.2048 17.4118 15.2223 17.9526C15.2397 18.4935 15.2572 19.043 15.2746 19.5926C15.2833 20.1422 15.2921 20.6917 15.3008 21.2326C15.3182 21.7734 15.3008 22.3055 15.3095 22.8202C15.3095 23.3349 15.3095 23.8321 15.3008 24.3119C15.3008 24.783 15.2833 25.2366 15.2746 25.6466C15.2572 26.4753 15.2223 27.1644 15.1961 27.6442C15.1699 28.124 15.1438 28.4032 15.1438 28.4032C15.1438 28.4032 15.1089 28.1327 15.0565 27.6529C15.0042 27.1732 14.9344 26.484 14.8733 25.664C14.8384 25.254 14.8036 24.8091 14.7774 24.3381V24.3294ZM66.4805 46.5477L3.42833 28.3944L13.5038 26.17L13.5299 27.0423L8.28723 28.2287L14.7163 30.0257L65.8525 44.2883L66.4805 44.4628L67.1086 44.2883L118.245 30.0257L124.674 28.2287L119.431 27.0423L119.457 26.17L129.533 28.3944L66.4893 46.5389L66.4805 46.5477Z" fill="#262626"/>
</g>
<defs>
<clipPath id="clip0_0_2166">
<rect width="132.961" height="47.83" fill="white"/>
</clipPath>
</defs>
</svg>
