<svg width="59" height="62" viewBox="0 0 59 62" fill="none" xmlns="http://www.w3.org/2000/svg">
<g clip-path="url(#clip0_0_2171)">
<path d="M54.1033 12.1296C53.4559 10.5788 53.2425 9.02787 53.0433 7.51967C52.7232 5.1222 52.3959 2.63935 50.0696 1.15961C49.1518 0.576247 48.163 0.305909 46.9465 0.305909C45.8153 0.305909 44.549 0.533562 42.9412 0.832357C40.0742 1.35169 36.1472 2.07022 29.8938 2.12002C29.7515 2.12002 29.6092 2.12002 29.467 2.12002C23.9464 2.12002 19.6138 1.30189 16.4552 0.697188C14.3992 0.305909 12.7771 0 11.4112 0C10.714 0 8.594 0 7.37037 1.9564C5.55625 4.85186 3.8204 11.8949 1.37313 26.2797C-0.24179 35.8198 0.0925761 42.8344 0.341572 47.9637C0.412713 49.415 0.469627 50.6671 0.476741 51.7555C0.476741 53.0859 0.327344 54.1886 0.192174 55.1561C0.00720618 56.4793 -0.135077 57.5251 0.220631 58.4998C0.789764 60.0507 2.30508 60.4988 3.39355 60.6909C5.44954 61.068 8.55843 61.63 11.8523 61.63C14.4276 61.63 16.7824 61.2814 18.8526 60.5984C20.745 59.9724 22.2532 59.7092 23.4697 59.4958C24.6222 59.2966 25.5328 59.1329 26.2727 58.7416C27.2758 58.201 27.8236 57.2975 27.8947 56.0525C28.0228 53.7333 29.0615 48.4901 29.5808 46.3274C29.595 46.2563 29.6164 46.1852 29.6306 46.114C29.6946 46.5195 29.7658 46.9677 29.8369 47.4586C30.1072 49.3367 30.1641 51.1224 30.2211 52.7017C30.2922 54.6581 30.342 56.1948 30.7475 57.39C31.5799 59.8657 34.703 61.196 40.5793 61.5731C41.12 61.6087 41.6677 61.6229 42.1942 61.6229C45.545 61.6229 48.0065 60.9115 49.9913 60.3423C50.5605 60.1787 51.1011 60.0222 51.6133 59.9013C52.1825 59.7661 52.7587 59.6523 53.3207 59.5384C54.4021 59.325 55.4265 59.1258 56.2376 58.7701C57.9663 58.016 58.1797 56.7497 58.1513 56.0596C58.137 55.6541 58.1726 53.8898 58.2153 51.8409C58.3433 45.7441 58.5497 35.5424 58.1228 30.7403C57.5039 23.7471 55.9316 16.4408 54.1175 12.1225L54.1033 12.1296ZM48.3835 31.9853C48.3835 31.8003 48.3693 31.6082 48.3622 31.4233C48.3266 30.6834 48.2768 29.9506 48.1914 29.2392C48.163 28.8835 48.0918 28.542 48.0492 28.2005C48.0065 27.8591 47.9424 27.5318 47.8855 27.2117C47.8357 26.8915 47.7575 26.5785 47.6934 26.2797C47.6365 25.9738 47.5583 25.6892 47.4943 25.4118C47.352 24.8569 47.2168 24.3447 47.0887 23.8965C46.9536 23.4483 46.8326 23.057 46.7259 22.744C46.6121 22.4238 46.5267 22.1748 46.4627 22.0041C46.3987 21.8334 46.3631 21.748 46.3631 21.748C46.3631 21.748 46.42 21.8263 46.5125 21.9828C46.605 22.1393 46.7401 22.3669 46.9038 22.6657C47.0603 22.9645 47.2453 23.3345 47.4373 23.7684C47.6294 24.2024 47.8357 24.6933 48.0278 25.2482C48.227 25.796 48.4191 26.4007 48.5898 27.0552C48.6681 27.3824 48.7677 27.7168 48.8317 28.0583C48.9029 28.4069 48.9811 28.7554 49.0309 29.1183C49.0878 29.4811 49.1518 29.851 49.1874 30.2281C49.223 30.6051 49.2799 30.9822 49.2941 31.3735C49.3012 31.5655 49.3155 31.7576 49.3226 31.9568L49.3368 32.2485V32.5402C49.3368 32.9244 49.3368 33.3156 49.3368 33.7069C49.3368 34.0911 49.3155 34.4823 49.3155 34.8594C49.3155 35.2365 49.3226 35.6135 49.3297 35.9834C49.3439 36.3605 49.3582 36.7304 49.3653 37.1004C49.3866 37.4703 49.408 37.8331 49.4293 38.1888C49.4578 38.5445 49.4933 38.8931 49.5147 39.2417C49.5502 39.5832 49.5787 39.9176 49.6072 40.2448C49.6854 40.8993 49.7566 41.5183 49.8277 42.0874C49.9131 42.6565 49.9842 43.1759 50.0553 43.6454C50.1336 44.1078 50.2047 44.5133 50.2617 44.8406C50.3257 45.1749 50.3755 45.431 50.4039 45.6089C50.4395 45.7868 50.4609 45.8792 50.4609 45.8792C50.4609 45.8792 50.4253 45.7868 50.3541 45.6231C50.2901 45.4524 50.1905 45.2034 50.0767 44.8833C49.9629 44.5631 49.8348 44.1718 49.6996 43.7165C49.6356 43.4889 49.5645 43.247 49.4933 42.9909C49.4222 42.7348 49.3582 42.4644 49.287 42.1799C49.223 41.8953 49.1518 41.6036 49.0807 41.2906C49.0167 40.9847 48.9527 40.6646 48.8957 40.3373C48.8388 40.0101 48.7819 39.6686 48.725 39.32C48.6752 38.9714 48.6325 38.6157 48.5827 38.2529C48.5471 37.89 48.5045 37.5201 48.4689 37.143C48.4404 36.766 48.412 36.3889 48.3906 36.0048C48.3764 35.6206 48.3622 35.2293 48.3551 34.8381C48.3551 34.4468 48.3622 34.0697 48.3693 33.6785C48.3693 33.2943 48.3835 32.9172 48.3906 32.5331V32.2485V31.9639L48.3835 31.9853ZM40.7287 13.5383C40.7073 13.0687 40.6718 12.6205 40.6433 12.2292C40.6149 11.838 40.5935 11.5107 40.5793 11.2759C40.5651 11.0412 40.5651 10.906 40.5651 10.906C40.5651 10.906 40.6433 11.0198 40.7642 11.2261C40.8852 11.4325 41.0346 11.7313 41.1911 12.1083C41.3405 12.4854 41.4899 12.9335 41.5824 13.4458C41.6322 13.7019 41.6606 13.9722 41.6677 14.2568C41.6677 14.3991 41.6677 14.5485 41.6464 14.6979L41.6251 14.8899V15.0536C41.6037 15.2883 41.6108 15.5373 41.6251 15.7792C41.6322 16.0282 41.6535 16.2701 41.6677 16.512C41.6962 16.9886 41.7318 17.4439 41.746 17.8423C41.7673 18.2336 41.7745 18.568 41.7745 18.8027C41.7745 18.9166 41.7745 19.0162 41.7745 19.0802C41.7745 19.1442 41.7745 19.1798 41.7745 19.1798C41.7745 19.1798 41.7602 19.1513 41.7247 19.0944C41.6962 19.0375 41.6464 18.9592 41.5966 18.8525C41.4899 18.6391 41.3476 18.3332 41.2124 17.9561C41.0773 17.5791 40.935 17.1309 40.8283 16.6329C40.7785 16.3839 40.7287 16.1278 40.7002 15.8575C40.6718 15.5871 40.6575 15.3097 40.6646 15.018C40.6646 14.9469 40.6718 14.8615 40.6789 14.7903L40.7002 14.5911C40.7145 14.4844 40.7216 14.3706 40.7287 14.2568C40.7358 14.0291 40.7358 13.7872 40.7287 13.5525V13.5383ZM32.3624 12.5636C32.3624 12.777 32.3909 13.0189 32.4193 13.275C32.4407 13.4031 32.4549 13.5383 32.4905 13.6734C32.5047 13.7446 32.5189 13.8086 32.5332 13.8797C32.5474 13.9509 32.5687 14.022 32.5901 14.0932C32.6256 14.2354 32.6683 14.3848 32.711 14.5271C32.7608 14.6836 32.8177 14.8401 32.8675 14.9967C32.9173 15.1603 32.9671 15.3168 33.0098 15.4946C33.0454 15.6796 33.0881 15.8788 33.1165 16.0638C33.1379 16.2487 33.1663 16.4337 33.1805 16.6187C33.1948 16.8037 33.2019 16.9886 33.2161 17.1736C33.2232 17.5435 33.2375 17.9135 33.2161 18.2763C33.2161 18.4541 33.209 18.6391 33.1948 18.8098C33.1805 18.9877 33.1734 19.1584 33.1592 19.3292C33.1023 20.0121 33.0027 20.6453 32.9031 21.186C32.8035 21.7267 32.6897 22.1677 32.5972 22.4808C32.5118 22.7938 32.4478 22.9645 32.4478 22.9645C32.4478 22.9645 32.4478 22.9218 32.4336 22.8294C32.4336 22.744 32.4122 22.6159 32.4051 22.4594C32.3838 22.1393 32.3624 21.684 32.3411 21.1433C32.3411 20.873 32.3269 20.5813 32.3197 20.2683C32.3197 19.9623 32.3126 19.6351 32.3055 19.3007C32.2913 18.632 32.2842 17.9135 32.2557 17.2092C32.2486 17.0313 32.2415 16.8606 32.2273 16.6827C32.213 16.512 32.1988 16.3412 32.1846 16.1705C32.1632 16.014 32.149 15.8504 32.1277 15.6938C32.1063 15.5302 32.0565 15.3595 32.0281 15.1887C32.0281 15.1887 32.0281 15.1603 32.0281 15.1959V15.1745V15.1389L32.0067 15.0749L31.9783 14.9469C31.9569 14.8615 31.9356 14.7761 31.9285 14.6907C31.9071 14.52 31.8715 14.3564 31.8644 14.1928C31.8289 13.8655 31.836 13.5525 31.8573 13.2679C31.8858 12.9833 31.9285 12.7272 31.9854 12.4996C32.0423 12.279 32.1134 12.087 32.1846 11.9376C32.2486 11.7882 32.3197 11.6743 32.3624 11.6032C32.4122 11.5321 32.4407 11.4965 32.4407 11.4965C32.4407 11.4965 32.3909 11.6743 32.3695 11.9874C32.3553 12.1439 32.3482 12.3288 32.3553 12.5494L32.3624 12.5636ZM29.4883 41.5752C29.4883 41.5752 29.4812 41.5894 29.4741 41.5965C29.4741 41.5894 29.4812 41.5823 29.4883 41.5752ZM13.4885 9.93137C13.5028 10.0523 13.517 10.2088 13.5241 10.3796C13.5312 10.5503 13.5312 10.7424 13.5241 10.9558C13.5241 11.1692 13.5028 11.3969 13.4885 11.6388C13.4601 11.8807 13.4387 12.1296 13.3889 12.3929C13.3463 12.6561 13.2965 12.9193 13.2324 13.1897C13.1755 13.46 13.0973 13.7303 13.019 14.0007C12.9408 14.271 12.8412 14.5342 12.7487 14.7903C12.706 14.9184 12.6491 15.0465 12.5993 15.1745C12.5495 15.3026 12.4926 15.4235 12.4428 15.5444C12.3361 15.7863 12.2151 16.0069 12.1084 16.2274C12.0017 16.4408 11.8736 16.6329 11.7669 16.8179C11.6531 16.9957 11.5535 17.1594 11.4468 17.2945C11.3472 17.4297 11.2476 17.5506 11.1693 17.6502C11.0911 17.7498 11.027 17.821 10.9844 17.8708C10.9417 17.9206 10.9132 17.949 10.9132 17.949C10.9132 17.949 10.9132 17.9135 10.9346 17.8494C10.9488 17.7854 10.963 17.6858 10.9986 17.572C11.027 17.451 11.0626 17.3088 11.1053 17.1451C11.148 16.9815 11.1978 16.7965 11.2476 16.5973C11.3045 16.3981 11.3685 16.1847 11.4326 15.9642C11.4966 15.7436 11.5677 15.5018 11.6389 15.2599C11.71 15.018 11.7883 14.769 11.8665 14.5129C11.9377 14.2568 12.0301 14.0007 12.1013 13.7446C12.2578 13.2252 12.4143 12.713 12.5637 12.2292C12.642 11.9874 12.7131 11.7526 12.7842 11.5249C12.8554 11.3044 12.9194 11.091 12.9834 10.8918C13.1115 10.5005 13.2182 10.1733 13.3036 9.93849C13.3391 9.82466 13.3747 9.73218 13.3961 9.66815C13.4174 9.60412 13.4316 9.56855 13.4316 9.56855C13.4316 9.56855 13.4672 9.71083 13.4885 9.95271V9.93137ZM7.17828 43.2826C7.16406 42.9411 7.1356 42.5925 7.10714 42.251C7.0858 42.0803 7.07868 41.9167 7.05023 41.7388C7.036 41.6534 7.02889 41.5538 7.01466 41.4827L6.97197 41.2266C6.86526 40.5365 6.73721 39.8393 6.61626 39.1492C6.49532 38.4592 6.37438 37.7691 6.29613 37.1004C6.21076 36.4245 6.16807 35.7629 6.16807 35.1369C6.16807 34.5037 6.22499 33.9061 6.31747 33.3654C6.40995 32.8248 6.54512 32.3339 6.70163 31.9213C6.85103 31.5015 7.00754 31.1529 7.15694 30.8684C7.29922 30.5838 7.42728 30.3704 7.51976 30.2352C7.61225 30.0929 7.66205 30.0218 7.66205 30.0218C7.66205 30.0218 7.63359 30.1071 7.57668 30.2637C7.51976 30.4202 7.44151 30.6549 7.35614 30.9537C7.31345 31.1031 7.26365 31.2668 7.22808 31.4446C7.17828 31.6225 7.14271 31.8217 7.10003 32.028C7.02177 32.4477 6.95774 32.9244 6.92929 33.4366C6.90083 33.9559 6.90795 34.5179 6.95063 35.1084C7.00043 35.6989 7.07868 36.3249 7.19251 36.9723C7.29922 37.6197 7.43439 38.2884 7.56245 38.9785C7.69762 39.6686 7.82567 40.3729 7.91816 41.0914L7.95373 41.3617L7.98218 41.6321C8.00353 41.8028 8.01775 41.9949 8.03198 42.1799C8.05333 42.5427 8.06755 42.9055 8.06755 43.2612C8.07467 43.9726 8.05333 44.6698 8.01776 45.3457C7.9395 46.6903 7.79722 47.9352 7.64782 48.9952C7.56956 49.5288 7.49131 50.0126 7.42017 50.4394C7.34902 50.8663 7.27077 51.2433 7.21385 51.5492C7.09291 52.161 7.00754 52.5096 7.00754 52.5096C7.00754 52.5096 7.02177 52.1539 7.04311 51.5279C7.05734 51.2149 7.07157 50.8378 7.0858 50.4038C7.10003 49.9699 7.12137 49.479 7.1356 48.9454C7.17117 47.8783 7.20674 46.6405 7.20674 45.3172C7.20674 44.6556 7.19251 43.9726 7.16405 43.2826H7.17828ZM37.5629 5.10797C38.694 4.98703 39.7896 4.85186 40.8212 4.70246C41.8527 4.55306 42.8274 4.39655 43.7237 4.24004C44.9118 4.03373 45.9647 3.83453 46.8397 3.66379C46.918 3.92702 46.9891 4.2187 47.0674 4.53884C46.0928 4.73092 44.8691 4.96569 43.4534 5.20045C42.5428 5.34985 41.5539 5.50636 40.5081 5.65576C39.4624 5.80516 38.3597 5.94744 37.2143 6.0755C36.6451 6.13952 36.0618 6.18932 35.4713 6.25335C35.2365 6.27469 35.0018 6.28892 34.767 6.31026V5.37119C35.7203 5.30005 36.6523 5.21468 37.5558 5.1222L37.5629 5.10797ZM34.7741 7.12839C35.0373 7.10705 35.2935 7.09282 35.5496 7.07148C36.1472 7.01456 36.7376 6.96477 37.3139 6.90785C38.4664 6.78691 39.5833 6.64463 40.6362 6.50235C41.6891 6.35295 42.6851 6.18932 43.5957 6.03281C45.0256 5.79093 46.2564 5.54905 47.2381 5.34985C47.3093 5.73402 47.3448 6.08261 47.3733 6.40275C46.918 6.49523 46.3987 6.59483 45.8153 6.70154C45.4383 6.77268 45.0327 6.84382 44.6059 6.92208C44.179 6.99322 43.7309 7.07148 43.2613 7.14973C42.7918 7.22088 42.3009 7.29913 41.7958 7.3845C41.2907 7.45564 40.7643 7.5339 40.2236 7.61215C39.6829 7.6833 39.128 7.76155 38.5589 7.83269C37.9897 7.89672 37.4135 7.96786 36.8159 8.03189C36.1472 8.10303 35.4642 8.15995 34.767 8.21686V7.12128L34.7741 7.12839ZM29.6946 41.3831C29.6946 41.3831 29.6875 41.3831 29.6804 41.3831C29.6804 41.3831 29.6875 41.3831 29.6946 41.3831ZM29.7942 41.4115C29.7942 41.4115 29.7871 41.4115 29.78 41.4115C29.78 41.4115 29.7871 41.4115 29.7942 41.4115ZM29.8582 41.4613C29.8582 41.4613 29.8511 41.4542 29.844 41.4471C29.844 41.4471 29.8511 41.4542 29.8582 41.4613ZM30.2637 42.2937C30.2637 42.2937 30.2495 42.251 30.2424 42.2368C30.2424 42.2581 30.2566 42.2795 30.2637 42.2937ZM30.2068 42.1301C30.2068 42.1301 30.1926 42.0945 30.1855 42.0732C30.1855 42.0874 30.1997 42.1087 30.2068 42.1301ZM30.1499 41.9736C30.1499 41.9736 30.1428 41.9451 30.1357 41.938C30.1357 41.9522 30.1428 41.9664 30.1499 41.9736ZM30.0788 41.8099C30.0788 41.8099 30.0717 41.7957 30.0645 41.7886C30.0645 41.7957 30.0717 41.8028 30.0788 41.8099ZM30.0219 41.7032C30.0219 41.7032 30.0076 41.6819 30.0005 41.6677C30.0005 41.6819 30.0147 41.689 30.0219 41.7032ZM29.9649 41.6107C29.9649 41.6107 29.9507 41.5894 29.9436 41.5823C29.9436 41.5894 29.9578 41.6036 29.9649 41.6107ZM29.908 41.5325C29.908 41.5325 29.8938 41.5183 29.8867 41.5111C29.8867 41.5183 29.9009 41.5254 29.908 41.5325ZM49.9984 22.9076C49.9486 22.7155 49.8988 22.5163 49.8419 22.3242C49.785 22.1322 49.7352 21.9401 49.6712 21.748C49.6143 21.5559 49.5502 21.3709 49.4862 21.186L49.3866 20.9085L49.2728 20.6311C49.1945 20.4461 49.1234 20.254 49.0451 20.0691C48.974 19.877 48.9029 19.6849 48.8459 19.4928C48.725 19.1086 48.6183 18.7245 48.5187 18.3474C48.4191 17.9704 48.3408 17.6004 48.2626 17.2305C48.1914 16.8677 48.1274 16.5049 48.0705 16.1563C48.0136 15.8077 47.9638 15.4662 47.9211 15.1389C47.8784 14.8117 47.8428 14.4916 47.8144 14.1856C47.7504 13.5738 47.7006 13.0118 47.6721 12.5138C47.6365 12.0158 47.6223 11.5819 47.6081 11.219C47.5938 10.8633 47.5938 10.5788 47.5938 10.3867C47.5938 10.1946 47.5938 10.095 47.5938 10.095C47.5938 10.095 47.6579 10.5005 47.7717 11.2048C47.8286 11.5605 47.8998 11.9874 47.9851 12.4782C48.0705 12.9691 48.1701 13.5169 48.2839 14.1216C48.3977 14.7192 48.5258 15.3666 48.6823 16.0496C48.7535 16.391 48.8388 16.7396 48.9313 17.0882C49.0167 17.4439 49.1092 17.7996 49.2159 18.1625C49.3226 18.5253 49.4364 18.8881 49.5645 19.2509C49.6285 19.4288 49.6996 19.6137 49.7637 19.7916C49.8419 19.9766 49.9131 20.1544 49.9913 20.3394L50.1051 20.6168L50.2119 20.9156C50.2901 21.1148 50.3541 21.314 50.4182 21.5061C50.4822 21.7053 50.5462 21.9045 50.6031 22.1037C50.6672 22.3029 50.717 22.5021 50.7668 22.7084C50.966 23.5123 51.1296 24.3233 51.2648 25.1272C51.3928 25.9311 51.4853 26.7208 51.5707 27.4891C51.6489 28.2575 51.6916 28.9973 51.7343 29.7016C51.777 30.4059 51.7841 31.0747 51.7983 31.6865C51.8054 32.2983 51.7983 32.8674 51.7912 33.3654C51.7841 33.8634 51.7627 34.2974 51.7414 34.6602C51.7272 35.0159 51.6987 35.3005 51.6845 35.4926C51.6703 35.6846 51.6632 35.7842 51.6632 35.7842C51.6632 35.7842 51.6631 35.6846 51.6418 35.4926C51.6276 35.3005 51.6062 35.023 51.5849 34.6602C51.5351 33.9488 51.4568 32.9315 51.343 31.7078C51.2861 31.096 51.215 30.4415 51.1438 29.7443C51.0727 29.0471 50.9731 28.3215 50.8735 27.5603C50.7739 26.8062 50.6458 26.0307 50.5035 25.2482C50.3613 24.4656 50.1976 23.6759 49.9913 22.8934L49.9984 22.9076ZM8.594 2.72472C9.18448 1.78566 10.1022 1.44418 11.4112 1.44418C14.6908 1.44418 20.4106 3.5642 29.467 3.5642C29.6092 3.5642 29.7586 3.5642 29.908 3.5642C38.8292 3.50017 43.2471 2.07022 46.0999 1.79988C46.2493 2.04888 46.4129 2.39036 46.5836 2.85989C45.7299 3.02352 44.7197 3.2156 43.5815 3.40057C42.6922 3.54997 41.7247 3.69936 40.7002 3.84876C39.6758 3.99816 38.5944 4.14044 37.4704 4.2685C36.5669 4.3681 35.6349 4.46058 34.6959 4.53172C34.5678 4.2685 34.3046 4.08353 33.9916 4.08353H24.672C24.3732 4.08353 24.1171 4.25427 23.9819 4.50327C23.7756 4.48904 23.5693 4.47481 23.3701 4.45347C21.1149 4.27561 19.0234 4.04084 17.2235 3.82031C16.3271 3.71359 15.4947 3.614 14.762 3.52863C14.0292 3.45037 13.3818 3.40768 12.8483 3.40768C12.3147 3.40768 11.895 3.42191 11.6104 3.45748C11.3258 3.48594 11.1764 3.5144 11.1764 3.5144C11.1764 3.5144 11.3258 3.54997 11.6104 3.59265C11.7527 3.614 11.9234 3.64245 12.1226 3.67802C12.3218 3.71359 12.5566 3.74916 12.8198 3.79185C13.3391 3.88433 13.9723 3.97682 14.698 4.07642C15.4307 4.17601 16.2488 4.28984 17.1452 4.41078C18.0416 4.53884 19.0163 4.66689 20.0549 4.79495C21.0865 4.923 22.1821 5.05106 23.3132 5.15065C23.5053 5.172 23.6974 5.18623 23.8966 5.20045V6.24624C23.5409 6.21778 23.1852 6.19644 22.8294 6.16798C22.2532 6.11818 21.6912 6.06838 21.1363 6.0257C20.5814 5.96878 20.0407 5.91898 19.5142 5.86918C18.4613 5.76247 17.4654 5.64865 16.5476 5.54905C15.6299 5.44945 14.7833 5.34985 14.0363 5.2716C13.2893 5.20045 12.6277 5.16488 12.0799 5.15777C11.5322 5.15777 11.1053 5.172 10.8136 5.20757C10.5219 5.23602 10.3654 5.26448 10.3654 5.26448C10.3654 5.26448 10.5219 5.30005 10.8065 5.34274C10.9488 5.36408 11.1266 5.38542 11.333 5.42811C11.5393 5.46368 11.774 5.49925 12.0444 5.54193C12.5779 5.6273 13.2253 5.7269 13.9652 5.81939C14.7122 5.91898 15.5517 6.0257 16.4694 6.13952C17.3871 6.26046 18.3831 6.38852 19.436 6.51657C19.9624 6.5806 20.5031 6.63751 21.058 6.70154C21.6129 6.75846 22.1821 6.82248 22.7583 6.87228C23.1282 6.90785 23.5053 6.93631 23.8823 6.97188V8.1884C23.8397 8.1884 23.797 8.1884 23.7543 8.18129C23.1425 8.1386 22.5378 8.10303 21.9473 8.05323C19.5712 7.86826 17.3587 7.64061 15.4521 7.44142C14.4988 7.34182 13.6308 7.24933 12.8554 7.18531C12.0799 7.11416 11.4041 7.08571 10.8421 7.08571C10.2801 7.08571 9.83898 7.09994 9.54019 7.13551C9.39079 7.14973 9.27696 7.16396 9.19871 7.17108C9.12045 7.17819 9.08488 7.18531 9.08488 7.18531C9.08488 7.18531 9.12756 7.19242 9.19871 7.20665C9.27696 7.22088 9.39079 7.24222 9.54019 7.26356C9.68958 7.2849 9.86744 7.30625 10.0809 7.34893C10.2943 7.3845 10.5433 7.42007 10.8136 7.46276C11.0911 7.50544 11.3899 7.54813 11.7242 7.59081C11.8879 7.61215 12.0657 7.64061 12.2436 7.66195C12.4214 7.6833 12.6064 7.70464 12.7985 7.7331C13.5668 7.82558 14.4347 7.92518 15.388 8.03901C17.2875 8.25954 19.5 8.52277 21.8904 8.74331C22.488 8.80022 23.0927 8.85002 23.7045 8.89982C23.7685 8.89982 23.8254 8.90693 23.8895 8.91405C23.8966 9.3409 24.2452 9.68238 24.672 9.68238H33.9916C34.3828 9.68238 34.703 9.39781 34.7599 9.02787C35.4855 8.97807 36.2041 8.91405 36.9084 8.84291C37.506 8.78599 38.0893 8.71485 38.6656 8.65082C39.2347 8.57968 39.7967 8.50854 40.3445 8.4374C40.8852 8.35914 41.4188 8.28089 41.931 8.20263C42.4432 8.11726 42.9341 8.039 43.4107 7.96075C43.8803 7.87538 44.3356 7.79712 44.7624 7.72598C45.1893 7.64773 45.6019 7.56947 45.9789 7.49833C46.5054 7.39873 46.982 7.29913 47.4089 7.21376C47.4089 7.74021 47.3875 8.15283 47.416 8.47297C46.4698 8.62948 45.3671 8.80022 44.1292 8.97807C43.119 9.12036 42.0235 9.26976 40.8638 9.41204C39.7042 9.56144 38.4806 9.70372 37.2143 9.83177C36.5811 9.90292 35.9337 9.95271 35.2863 10.0167C34.6318 10.0737 33.9702 10.1163 33.3086 10.1661C32.6399 10.2088 31.9711 10.2444 31.2953 10.28C30.6266 10.3013 29.9507 10.3227 29.2749 10.344H28.2504C27.909 10.3511 27.5675 10.3582 27.2331 10.3511C26.5644 10.344 25.8956 10.3369 25.2269 10.3013C23.8966 10.2515 22.5876 10.1448 21.3212 10.0167C20.0549 9.88869 18.8313 9.72506 17.6646 9.56855C16.4978 9.41204 15.3951 9.25553 14.3707 9.1417C14.0506 9.09902 13.7447 9.07056 13.4387 9.0421C9.66824 8.25243 7.19251 7.88961 6.16807 9.51875C6.95774 6.42409 7.76876 4.0195 8.594 2.69627V2.72472ZM2.34777 27.297C2.36199 26.9983 2.36911 26.6923 2.38334 26.3793C2.40468 26.0663 2.42602 25.7462 2.44736 25.4189C2.47582 25.0917 2.51139 24.7644 2.53985 24.43C2.57542 24.0957 2.6181 23.7613 2.66079 23.4198C2.75327 22.7369 2.85999 22.0539 2.98804 21.3638L3.08764 20.8516C3.12321 20.6809 3.15878 20.5101 3.19435 20.3394C3.26549 20.005 3.33663 19.6707 3.42912 19.3363C3.59274 18.6676 3.77771 18.0131 3.9698 17.387C4.07651 17.074 4.16899 16.7681 4.2757 16.4693C4.38242 16.1776 4.48913 15.8859 4.59584 15.6014C4.70967 15.3239 4.81638 15.0536 4.92309 14.7903C5.03692 14.5342 5.15075 14.2852 5.25746 14.0434C5.37129 13.8086 5.478 13.5809 5.58471 13.3675C5.69854 13.1541 5.79814 12.9549 5.90485 12.7699C6.11116 12.4 6.30324 12.0799 6.46687 11.8237C6.63049 11.5676 6.76566 11.3684 6.86526 11.2404C6.95774 11.1052 7.01466 11.0412 7.01466 11.0412C7.01466 11.0412 6.97909 11.1194 6.90083 11.2617C6.82969 11.404 6.73009 11.6245 6.60204 11.8949C6.4811 12.1723 6.33881 12.5067 6.1823 12.898C6.02579 13.2893 5.86216 13.7303 5.68431 14.2141C5.59894 14.456 5.51357 14.7121 5.4282 14.9753C5.34283 15.2385 5.25746 15.5089 5.16498 15.7934C5.07961 16.078 4.99424 16.3626 4.90886 16.6614C4.82349 16.9602 4.74524 17.2661 4.65987 17.572C4.58161 17.885 4.50336 18.198 4.41799 18.5182C4.33973 18.8383 4.26859 19.1656 4.19033 19.4928C4.11208 19.8129 4.04805 20.1615 3.97691 20.4959C3.94134 20.6595 3.90577 20.8303 3.8702 20.9939L3.77771 21.499C3.64254 22.1748 3.53583 22.8507 3.42912 23.5123C3.37932 23.8467 3.32952 24.181 3.27972 24.5083C3.23704 24.8355 3.19435 25.1628 3.15167 25.4829C3.1161 25.8031 3.07341 26.1161 3.03784 26.422C3.00227 26.7279 2.97381 27.0338 2.93824 27.3255C2.88133 27.916 2.83153 28.4709 2.78884 28.9831C2.75327 29.4953 2.72482 29.972 2.69636 30.3917C2.67502 30.8114 2.65368 31.1814 2.63945 31.4802C2.63233 31.7861 2.6181 32.0209 2.6181 32.1845C2.6181 32.3481 2.6181 32.4335 2.6181 32.4335C2.6181 32.4335 2.55408 32.092 2.49005 31.4873C2.46159 31.1885 2.41891 30.8186 2.39757 30.3917C2.36911 29.972 2.34777 29.4882 2.34065 28.9689C2.34065 28.7057 2.33354 28.4353 2.33354 28.1579C2.33354 27.8733 2.34065 27.5887 2.34777 27.2899V27.297ZM6.14673 49.0806C6.14673 49.4221 6.14673 49.7707 6.11827 50.1193C6.08982 50.4679 6.06847 50.8165 6.01156 51.158C5.96176 51.4994 5.91196 51.8338 5.83371 52.1539C5.76256 52.4741 5.69142 52.78 5.59182 53.0717C5.49934 53.3562 5.42108 53.6337 5.31437 53.8684C5.21477 54.1103 5.11518 54.3309 5.02981 54.5229C4.93732 54.715 4.83772 54.8715 4.75947 55.0067C4.68121 55.1419 4.61718 55.2415 4.5745 55.3126C4.53181 55.3838 4.50336 55.4193 4.50336 55.4193C4.50336 55.4193 4.50336 55.3767 4.51759 55.2913C4.53181 55.213 4.54604 55.0921 4.5745 54.9427C4.60296 54.7933 4.63141 54.6154 4.66698 54.4091C4.69544 54.2028 4.73101 53.968 4.76658 53.7191C4.78792 53.5981 4.80927 53.4629 4.82349 53.3278C4.83772 53.1926 4.85907 53.0503 4.87329 52.908C4.91598 52.6235 4.94444 52.3176 4.98001 52.0117C4.99424 51.8551 5.02269 51.6986 5.02981 51.535C5.04403 51.3714 5.05115 51.2149 5.07249 51.0512C5.10806 50.724 5.12229 50.3896 5.14363 50.0553C5.17209 49.7209 5.1792 49.3865 5.20055 49.0593C5.20766 48.732 5.229 48.4048 5.24323 48.0917C5.26457 47.4586 5.28592 46.8681 5.30726 46.363C5.31437 46.1069 5.3286 45.8721 5.33571 45.6658C5.33571 45.4595 5.35706 45.2745 5.35706 45.1251C5.35706 44.9757 5.37129 44.8548 5.37129 44.7765C5.37129 44.6912 5.3784 44.6485 5.3784 44.6485C5.3784 44.6485 5.39974 44.6912 5.4282 44.7623C5.45666 44.8406 5.49934 44.9544 5.54203 45.0967C5.63451 45.3884 5.75545 45.8081 5.85505 46.3203C5.90485 46.5764 5.95465 46.8539 5.99022 47.1527C6.0329 47.4515 6.06136 47.7645 6.08982 48.0846C6.10404 48.2483 6.11116 48.4119 6.11827 48.5826C6.11827 48.7534 6.1325 48.917 6.1325 49.0948L6.14673 49.0806ZM1.45138 57.269C1.45138 57.4113 1.47272 57.5465 1.49407 57.6745C1.47272 57.5465 1.4585 57.4113 1.45138 57.269ZM25.2625 57.6105C24.3234 57.9591 22.8223 58.0658 20.7165 58.5638C20.0122 58.7274 19.2439 58.9408 18.4044 59.2183C18.4044 59.2183 18.1554 59.325 17.7072 59.4886C17.4867 59.5811 17.2093 59.6665 16.8891 59.759C16.7255 59.8088 16.5619 59.8586 16.3769 59.9084C16.1919 59.9511 15.9998 59.9937 15.8006 60.0364C15.4023 60.136 14.9612 60.2001 14.4916 60.2783C14.2569 60.3139 14.015 60.3352 13.7731 60.3637C13.5241 60.3921 13.2751 60.4135 13.019 60.4277C12.7629 60.4419 12.4997 60.4633 12.2365 60.4704C11.9732 60.4704 11.7029 60.4775 11.4326 60.4846C10.8919 60.4775 10.3441 60.4633 9.7963 60.4277L9.38367 60.3993L8.97817 60.3566C8.70783 60.3281 8.43749 60.3068 8.16715 60.2712C7.63359 60.2143 7.10714 60.1218 6.60204 60.0435C6.35304 60.0009 6.10404 59.9582 5.86216 59.9155C5.62028 59.8657 5.38551 59.823 5.15786 59.7732C4.69544 59.6807 4.26859 59.5811 3.8702 59.4886C3.4718 59.4033 3.09475 59.3037 2.78173 59.1685C2.46159 59.0404 2.20548 58.8768 2.02763 58.7061C1.84266 58.5353 1.75018 58.3646 1.69326 58.2508C1.66481 58.1939 1.65058 58.1441 1.63635 58.1156C1.62212 58.0871 1.62212 58.0658 1.62212 58.0658V58.08C1.60078 58.0018 1.57232 57.9306 1.54387 57.8453C1.56521 57.9235 1.59366 58.0018 1.62924 58.08C1.62924 58.08 1.63635 58.0943 1.64346 58.1085C1.65769 58.1369 1.68615 58.1796 1.72172 58.2294C1.79286 58.329 1.92092 58.4713 2.10588 58.5994C2.29797 58.7274 2.55408 58.8412 2.85999 58.9266C3.17301 59.012 3.52872 59.0618 3.93422 59.1187C4.33973 59.1756 4.7737 59.2325 5.23612 59.2894C5.69854 59.3464 6.1823 59.4104 6.68741 59.4744C7.19251 59.5384 7.71185 59.5882 8.23829 59.6451C8.50152 59.6736 8.76474 59.695 9.03508 59.7163L9.43347 59.7519L9.83898 59.7732C10.3725 59.8159 10.9132 59.8372 11.4397 59.8515C11.7029 59.8515 11.9661 59.8515 12.2222 59.8657C12.4783 59.8657 12.7344 59.8657 12.9906 59.8586C13.1186 59.8586 13.2396 59.8586 13.3676 59.8515C13.4885 59.8443 13.6166 59.8372 13.7375 59.8301C13.9794 59.8159 14.2142 59.8159 14.449 59.7945C14.9043 59.7447 15.3453 59.7305 15.7437 59.6665C15.9429 59.638 16.135 59.6167 16.32 59.5953C16.505 59.5669 16.6757 59.5384 16.8393 59.51C17.1666 59.4531 17.4511 59.4104 17.6788 59.3535C18.1412 59.2539 18.4115 59.2041 18.4115 59.2041C19.251 58.9266 20.0265 58.7132 20.7236 58.5496C22.8366 58.0516 24.3376 57.9449 25.2696 57.5963C25.4546 57.5251 25.6253 57.4469 25.7676 57.3544C25.6253 57.4469 25.4617 57.5322 25.2696 57.5963L25.2625 57.6105ZM26.5501 54.9071C26.5075 55.2984 26.4719 55.6541 26.4577 55.9671C26.4363 56.3513 26.3581 56.6501 26.2158 56.892C26.1589 56.9845 26.0948 57.0769 26.0166 57.1552C26.0948 57.0769 26.1589 56.9916 26.2158 56.892C26.3581 56.6501 26.4363 56.3513 26.4577 55.9671C26.4719 55.6541 26.5075 55.2984 26.5501 54.9071C26.5715 54.715 26.5999 54.5087 26.6213 54.2953C26.5928 54.5087 26.5715 54.7079 26.5501 54.9071ZM26.8205 52.9649C26.7849 53.1997 26.7493 53.4274 26.7209 53.6479C26.7565 53.4274 26.7849 53.1997 26.8205 52.9649ZM29.5808 41.4471C29.5808 41.4471 29.5879 41.44 29.595 41.4329C29.595 41.4329 29.5879 41.44 29.5808 41.4471ZM30.7475 44.1363C30.7475 44.1363 30.7617 44.1932 30.7617 44.2145C30.7617 44.1861 30.7475 44.1576 30.7475 44.1363ZM30.3135 42.4004C30.3135 42.4004 30.3278 42.436 30.3349 42.4573C30.3349 42.436 30.3207 42.4146 30.3135 42.4004ZM30.3776 42.6138C30.3776 42.6138 30.3776 42.6352 30.3847 42.6423C30.3847 42.6352 30.3847 42.621 30.3776 42.6138ZM30.4416 42.8415C30.4416 42.8415 30.4558 42.8842 30.4558 42.9055C30.4558 42.8842 30.4416 42.8628 30.4416 42.8415ZM30.4985 43.0549C30.4985 43.0549 30.5127 43.1047 30.5199 43.1332C30.5199 43.1047 30.5056 43.0763 30.4985 43.0549ZM30.5554 43.2826C30.5554 43.2826 30.5697 43.3395 30.5768 43.3679C30.5768 43.3395 30.5625 43.311 30.5554 43.2826ZM30.6123 43.5316C30.6123 43.5316 30.6266 43.5814 30.6337 43.6098C30.6337 43.5814 30.6195 43.56 30.6123 43.5316ZM30.6835 43.8375C30.6835 43.8375 30.6835 43.8588 30.6835 43.8659C30.6835 43.8588 30.6835 43.8446 30.6835 43.8375ZM31.2313 46.8895C31.2313 46.8539 31.2242 46.8183 31.217 46.7827C31.217 46.8183 31.2242 46.8539 31.2313 46.8895ZM31.1815 46.5409C31.1815 46.4982 31.1672 46.4555 31.1601 46.4128C31.1601 46.4555 31.1744 46.4982 31.1815 46.5409ZM31.1246 46.1923C31.1246 46.1496 31.1103 46.114 31.1032 46.0713C31.1032 46.114 31.1174 46.1496 31.1246 46.1923ZM31.0676 45.8366C31.0676 45.8366 31.0605 45.7725 31.0534 45.7441C31.0534 45.7725 31.0605 45.8081 31.0676 45.8366ZM30.9396 45.1038C30.9396 45.1038 30.9254 45.0398 30.9182 45.0042C30.9182 45.0398 30.9325 45.0682 30.9396 45.1038ZM30.8827 44.805C30.8827 44.7694 30.8684 44.7339 30.8613 44.6983C30.8613 44.7339 30.8756 44.7694 30.8827 44.805ZM30.8258 44.5062C30.8258 44.5062 30.8115 44.4351 30.8044 44.3995C30.8044 44.4351 30.8186 44.4706 30.8258 44.5062ZM31.8431 55.4762C31.8431 55.4762 31.8431 55.4407 31.8431 55.4265C31.8431 55.4407 31.8431 55.462 31.8431 55.4762ZM50.4466 58.7559C49.9202 58.9266 49.1661 59.1898 48.2483 59.4673C48.0207 59.5384 47.7788 59.6025 47.5298 59.6736C47.2808 59.7376 47.0176 59.8088 46.7544 59.8657C46.2208 59.9937 45.6517 60.1076 45.0541 60.1929C44.7553 60.2427 44.4494 60.2712 44.1435 60.3068C43.8376 60.3352 43.5245 60.3637 43.2044 60.3779C42.5784 60.4064 41.9239 60.4135 41.2836 60.385L40.8069 60.3637H40.686L40.5651 60.3495L40.3303 60.3281C40.0101 60.2997 39.6971 60.2783 39.3841 60.2427C39.2276 60.2285 39.0711 60.2072 38.9146 60.1929C38.7581 60.1716 38.6087 60.1502 38.4521 60.1289C38.1462 60.0862 37.8474 60.0364 37.5486 59.9866C37.2499 59.9368 36.9653 59.8728 36.6807 59.8159C36.3962 59.7519 36.1258 59.6807 35.8555 59.6096C35.5923 59.5242 35.329 59.4602 35.0871 59.3677C34.9662 59.325 34.8453 59.2752 34.7243 59.2325C34.6105 59.1827 34.4967 59.1329 34.3828 59.0831C34.1552 58.9906 33.956 58.8697 33.7639 58.7701C33.6714 58.7132 33.5789 58.6492 33.4936 58.5994C33.4082 58.5425 33.3157 58.4855 33.2446 58.4215C33.1663 58.3575 33.0952 58.3006 33.0169 58.2437C32.9458 58.1867 32.8889 58.1156 32.8248 58.0587C32.7679 57.9947 32.7039 57.9449 32.6541 57.8808C32.6043 57.8168 32.5616 57.7599 32.5189 57.703C32.4264 57.5963 32.3767 57.4753 32.3197 57.3828C32.2913 57.333 32.2699 57.2904 32.2486 57.2477C32.2344 57.205 32.2201 57.1623 32.2059 57.1267C32.1561 56.9845 32.1277 56.9133 32.1277 56.9133C32.085 56.7924 32.0494 56.6714 32.0209 56.5434C31.9854 56.4153 31.9569 56.273 31.9356 56.1308C31.964 56.273 31.9925 56.4153 32.0209 56.5434C32.0565 56.6714 32.0921 56.7995 32.1277 56.9133C32.1277 56.9133 32.1632 56.9845 32.2273 57.1196C32.2415 57.1552 32.2628 57.1908 32.2842 57.2334C32.3055 57.2761 32.3411 57.3117 32.3695 57.3544C32.4336 57.4398 32.4905 57.5465 32.5901 57.639C32.6399 57.6888 32.6826 57.7386 32.7395 57.7955C32.7893 57.8524 32.8533 57.8951 32.9173 57.952C32.9814 58.0018 33.0454 58.0658 33.1165 58.1156C33.1877 58.1654 33.2659 58.2152 33.3442 58.2721C33.4224 58.329 33.5078 58.3717 33.6003 58.4215C33.6928 58.4713 33.7781 58.5211 33.8777 58.5709C34.0769 58.6563 34.269 58.763 34.4967 58.8341C34.6034 58.8768 34.7172 58.9124 34.831 58.9551C34.9449 58.9906 35.0658 59.0262 35.1867 59.0618C35.4286 59.14 35.6847 59.197 35.948 59.2681C36.4744 59.389 37.0364 59.4886 37.6198 59.574C37.9115 59.6167 38.2103 59.6594 38.5091 59.6878C38.8079 59.7234 39.1209 59.7519 39.4268 59.7803C39.7327 59.8159 40.0457 59.8301 40.3659 59.8586L40.6006 59.8728H40.7145L40.8354 59.887L41.312 59.9084C41.9452 59.9368 42.5641 59.9368 43.1831 59.9084C43.489 59.8941 43.802 59.8728 44.1008 59.8586C44.3996 59.8301 44.7055 59.8088 44.9972 59.7732C45.2889 59.7376 45.5805 59.7021 45.858 59.6523C46.1426 59.6167 46.4129 59.5598 46.6832 59.5171C47.2168 59.4175 47.7219 59.3108 48.1843 59.197C49.1092 58.9764 49.8775 58.7772 50.4253 58.6563C50.6956 58.5923 50.909 58.5496 51.0584 58.5211C51.2078 58.4927 51.2861 58.4784 51.2861 58.4784C51.2861 58.4784 51.2078 58.4998 51.0656 58.5496C50.9233 58.5923 50.717 58.6634 50.4537 58.7488L50.4466 58.7559ZM56.3727 56.9773C56.0526 57.3046 55.5119 57.5322 54.8503 57.7101C55.519 57.5251 56.0526 57.3046 56.3727 56.9773C56.4723 56.8777 56.5435 56.771 56.6004 56.6501C56.5435 56.771 56.4652 56.8777 56.3727 56.9773ZM57.1482 40.2591C57.1411 40.9207 57.1339 41.5752 57.1268 42.2226C57.1126 43.5102 57.077 44.7552 57.0486 45.9362C57.013 47.1171 56.9845 48.2269 56.949 49.2585C56.8849 51.3145 56.7996 53.029 56.764 54.2313C56.7427 54.8289 56.7213 55.3055 56.7142 55.6256C56.7142 55.9458 56.7071 56.1165 56.7071 56.1165C56.7071 56.2659 56.6929 56.4082 56.6573 56.5363C56.7 56.4082 56.7142 56.273 56.7071 56.1165C56.7071 56.1165 56.7071 55.9458 56.6857 55.6256C56.6857 55.3055 56.6715 54.8289 56.6715 54.2313C56.6715 53.6337 56.6715 52.9009 56.6715 52.0615C56.6715 51.222 56.6715 50.2829 56.6786 49.2514C56.6786 48.2198 56.6929 47.11 56.6929 45.929C56.6929 44.7481 56.6929 43.5102 56.6929 42.2226C56.6929 40.9349 56.6929 39.6045 56.6786 38.26C56.6786 37.5841 56.6644 36.9083 56.6502 36.2253C56.6431 35.5424 56.6217 34.8594 56.6004 34.1764C56.5861 33.4935 56.5506 32.8105 56.515 32.1276C56.4937 31.7861 56.4652 31.4517 56.4439 31.1102C56.4225 30.7759 56.3798 30.4344 56.3514 30.1C56.2162 28.7555 56.0739 27.4393 55.889 26.173C55.704 24.8996 55.519 23.6759 55.3056 22.5163C55.206 21.933 55.0922 21.3781 54.9855 20.8303C54.8716 20.2896 54.7649 19.7631 54.6511 19.2652C54.5942 19.0162 54.5373 18.7672 54.4804 18.5324C54.4234 18.2905 54.3665 18.0629 54.3096 17.8352C54.2029 17.3799 54.0891 16.9531 53.9824 16.5475C53.8757 16.142 53.7618 15.7721 53.6693 15.4235C53.5626 15.0749 53.463 14.7619 53.3777 14.4773C53.1856 13.9082 53.0433 13.46 52.9224 13.1612C52.8085 12.8624 52.7516 12.6988 52.7516 12.6988C52.6449 12.4356 52.5524 12.2008 52.4813 11.9945C52.5595 12.2292 52.652 12.464 52.7516 12.6988C52.7516 12.6988 52.8228 12.8553 52.9437 13.1541C53.0718 13.4458 53.2496 13.8868 53.463 14.4489C53.5626 14.7334 53.6765 15.0465 53.7903 15.3879C53.9041 15.7365 54.0322 16.1065 54.1531 16.5049C54.4021 17.3088 54.6653 18.2123 54.9072 19.2154C55.0353 19.7133 55.1562 20.2398 55.2843 20.7805C55.3981 21.3211 55.5333 21.8832 55.6471 22.4665C55.889 23.6261 56.1095 24.8498 56.3016 26.1232C56.5008 27.3966 56.6715 28.7199 56.8067 30.0716C56.8351 30.4059 56.8778 30.7403 56.8992 31.0889C56.9205 31.4304 56.949 31.7719 56.9703 32.1133C56.9917 32.4548 57.0059 32.7963 57.0201 33.1449C57.0343 33.4864 57.0557 33.835 57.0628 34.1764C57.077 34.8665 57.0984 35.5495 57.1055 36.2324C57.1126 36.9154 57.1197 37.5984 57.1197 38.2742C57.1197 38.95 57.1197 39.6188 57.1197 40.2804L57.1482 40.2591Z" fill="#262626"/>
</g>
<defs>
<clipPath id="clip0_0_2171">
<rect width="58.3646" height="61.63" fill="white"/>
</clipPath>
</defs>
</svg>
