<svg width="24" height="23" viewBox="0 0 24 23" fill="none" xmlns="http://www.w3.org/2000/svg">
<path d="M2.76696 14.8197L3.48025 14.5879L2.76696 14.8197ZM1.65645 8.65157L2.37776 8.85703L1.65645 8.65157ZM6.29367 3.96556L5.85283 3.3588L6.29367 3.96556ZM1.76974 8.30291L2.47405 8.56067L1.76974 8.30291ZM5.79064 20.678L5.37234 21.3005L5.79064 20.678ZM5.49405 20.4625L5.03126 21.0527L5.49405 20.4625ZM21.2331 14.8197L20.5198 14.5879L21.2331 14.8197ZM18.506 20.4625L18.9687 21.0527L18.506 20.4625ZM18.2094 20.678L18.6277 21.3005L18.2094 20.678ZM17.7063 3.96556L18.1472 3.3588L17.7063 3.96556ZM22.2303 8.30291L21.526 8.56067L22.2303 8.30291ZM22.3436 8.65157L21.6222 8.85703L22.3436 8.65157ZM12.1833 1.00336L12.1558 1.75286L12.1833 1.00336ZM11.8167 1.00336L11.8442 1.75286L11.8167 1.00336ZM10 16.0697C9.58579 16.0697 9.25001 16.4054 9.25001 16.8197C9.25001 17.2339 9.58579 17.5697 10 17.5697V16.0697ZM14 17.5697C14.4142 17.5697 14.75 17.2339 14.75 16.8197C14.75 16.4054 14.4142 16.0697 14 16.0697V17.5697ZM3.48025 14.5879C2.96589 13.0049 2.5995 11.874 2.40725 10.9558C2.21861 10.055 2.21454 9.43007 2.37776 8.85703L0.935142 8.44611C0.680922 9.33861 0.722785 10.2303 0.939095 11.2633C1.1518 12.2791 1.54938 13.4994 2.05366 15.0514L3.48025 14.5879ZM5.85283 3.3588C4.53261 4.31799 3.49365 5.07158 2.7245 5.76835C1.94232 6.47693 1.38435 7.17368 1.06542 8.04515L2.47405 8.56067C2.67883 8.00112 3.04942 7.49798 3.73157 6.88002C4.42676 6.25026 5.38791 5.55068 6.73451 4.57232L5.85283 3.3588ZM2.37776 8.85703C2.40622 8.7571 2.43834 8.65824 2.47405 8.56067L1.06542 8.04515C1.01711 8.17717 0.973652 8.31091 0.935142 8.44611L2.37776 8.85703ZM12 20.7779C10.3355 20.7779 9.14673 20.7768 8.21414 20.676C7.29905 20.577 6.70349 20.3878 6.20894 20.0555L5.37234 21.3005C6.1426 21.8181 7.00355 22.0538 8.05284 22.1673C9.08464 22.2789 10.3681 22.2779 12 22.2779V20.7779ZM2.05366 15.0514C2.55794 16.6034 2.95359 17.8244 3.37858 18.7712C3.81077 19.7341 4.301 20.4801 5.03126 21.0527L5.95684 19.8723C5.48796 19.5046 5.12396 18.9967 4.74704 18.157C4.36292 17.3012 3.9946 16.1709 3.48025 14.5879L2.05366 15.0514ZM6.20894 20.0555C6.12269 19.9975 6.0386 19.9364 5.95684 19.8723L5.03126 21.0527C5.14189 21.1394 5.25566 21.2221 5.37234 21.3005L6.20894 20.0555ZM20.5198 14.5879C20.0054 16.1709 19.6371 17.3012 19.253 18.157C18.8761 18.9967 18.5121 19.5046 18.0432 19.8723L18.9687 21.0527C19.699 20.4801 20.1892 19.7341 20.6214 18.7712C21.0464 17.8244 21.4421 16.6034 21.9464 15.0514L20.5198 14.5879ZM12 22.2779C13.6319 22.2779 14.9154 22.2789 15.9472 22.1673C16.9965 22.0538 17.8574 21.8181 18.6277 21.3005L17.7911 20.0555C17.2965 20.3878 16.701 20.577 15.7859 20.676C14.8533 20.7768 13.6645 20.7779 12 20.7779V22.2779ZM18.0432 19.8723C17.9614 19.9364 17.8773 19.9975 17.7911 20.0555L18.6277 21.3005C18.7444 21.2221 18.8581 21.1394 18.9687 21.0527L18.0432 19.8723ZM17.2655 4.57232C18.6121 5.55068 19.5733 6.25026 20.2684 6.88002C20.9506 7.49798 21.3212 8.00112 21.526 8.56067L22.9346 8.04515C22.6157 7.17368 22.0577 6.47693 21.2755 5.76835C20.5064 5.07158 19.4674 4.31799 18.1472 3.3588L17.2655 4.57232ZM21.9464 15.0514C22.4506 13.4994 22.8482 12.2791 23.0609 11.2633C23.2772 10.2303 23.3191 9.33861 23.0649 8.44611L21.6222 8.85703C21.7855 9.43007 21.7814 10.055 21.5928 10.9558C21.4005 11.874 21.0341 13.0049 20.5198 14.5879L21.9464 15.0514ZM21.526 8.56067C21.5617 8.65824 21.5938 8.75709 21.6222 8.85703L23.0649 8.44611C23.0264 8.31091 22.9829 8.17717 22.9346 8.04515L21.526 8.56067ZM18.1472 3.3588C16.827 2.3996 15.7892 1.64436 14.8889 1.12818C13.9733 0.603234 13.1382 0.287886 12.2108 0.253865L12.1558 1.75286C12.7512 1.7747 13.3443 1.97167 14.1428 2.42948C14.9566 2.89603 15.9189 3.59396 17.2655 4.57232L18.1472 3.3588ZM6.73451 4.57232C8.0811 3.59396 9.04345 2.89603 9.85722 2.42948C10.6557 1.97167 11.2488 1.7747 11.8442 1.75286L11.7892 0.253865C10.8618 0.287886 10.0268 0.603234 9.11115 1.12818C8.21081 1.64436 7.17305 2.3996 5.85283 3.3588L6.73451 4.57232ZM12.2108 0.253865C12.0703 0.248712 11.9297 0.248712 11.7892 0.253865L11.8442 1.75286C11.948 1.74905 12.052 1.74905 12.1558 1.75286L12.2108 0.253865ZM10 17.5697H14V16.0697H10V17.5697Z" fill="white"/>
</svg>
