<svg width="36" height="36" viewBox="0 0 36 36" fill="none" xmlns="http://www.w3.org/2000/svg">
<rect width="36" height="36" rx="4" fill="#FFD24B"/>
<path d="M17 24H19V22H17V24ZM18 8C16.6868 8 15.3864 8.25866 14.1732 8.7612C12.9599 9.26375 11.8575 10.0003 10.9289 10.9289C9.05357 12.8043 8 15.3478 8 18C8 20.6522 9.05357 23.1957 10.9289 25.0711C11.8575 25.9997 12.9599 26.7363 14.1732 27.2388C15.3864 27.7413 16.6868 28 18 28C20.6522 28 23.1957 26.9464 25.0711 25.0711C26.9464 23.1957 28 20.6522 28 18C28 16.6868 27.7413 15.3864 27.2388 14.1732C26.7363 12.9599 25.9997 11.8575 25.0711 10.9289C24.1425 10.0003 23.0401 9.26375 21.8268 8.7612C20.6136 8.25866 19.3132 8 18 8ZM18 26C13.59 26 10 22.41 10 18C10 13.59 13.59 10 18 10C22.41 10 26 13.59 26 18C26 22.41 22.41 26 18 26ZM18 12C16.9391 12 15.9217 12.4214 15.1716 13.1716C14.4214 13.9217 14 14.9391 14 16H16C16 15.4696 16.2107 14.9609 16.5858 14.5858C16.9609 14.2107 17.4696 14 18 14C18.5304 14 19.0391 14.2107 19.4142 14.5858C19.7893 14.9609 20 15.4696 20 16C20 18 17 17.75 17 21H19C19 18.75 22 18.5 22 16C22 14.9391 21.5786 13.9217 20.8284 13.1716C20.0783 12.4214 19.0609 12 18 12Z" fill="#F7F7F7"/>
</svg>
